<svg width="1440" height="707" viewBox="0 0 1440 707" fill="none" xmlns="http://www.w3.org/2000/svg">
<g opacity="0.2" clip-path="url(#clip0)">
<path d="M130.94 652.645V681.303C130.94 715.791 102.947 743.71 68.459 743.71V715.052C68.459 680.605 96.4109 652.645 130.94 652.645Z" fill="#004C46"/>
<path d="M61.6762 743.057V714.399C61.6762 679.911 33.6831 651.992 -0.804642 651.992V680.65C-0.845748 715.097 27.1473 743.057 61.6762 743.057Z" fill="#004C46"/>
<path d="M132.295 482.711V511.369C132.295 545.857 104.302 573.776 69.8145 573.776V545.118C69.7734 510.671 97.7665 482.711 132.295 482.711Z" fill="#004C46"/>
<path d="M22.4199 645.054H115.525H159.837C159.837 610.566 131.844 582.646 97.3558 582.646H79.557H58.4286H-0.722656V645.054H22.4199Z" fill="#004C46"/>
<path d="M61.6762 572.052V543.394C61.6762 508.905 33.6831 480.986 -0.804642 480.986V509.644C-0.845748 544.092 27.1473 572.052 61.6762 572.052Z" fill="#004C46"/>
<path d="M132.295 311.705V340.363C132.295 374.851 104.302 402.77 69.8145 402.77V374.112C69.7734 339.665 97.7665 311.705 132.295 311.705Z" fill="#004C46"/>
<path d="M22.4199 474.046H115.525H159.837C159.837 439.558 131.844 411.639 97.3558 411.639H79.557H58.4286H-0.722656V474.046H22.4199Z" fill="#004C46"/>
<path d="M61.6762 401.044V372.386C61.6762 337.898 33.6831 309.979 -0.804642 309.979V338.637C-0.845748 373.084 27.1473 401.044 61.6762 401.044Z" fill="#004C46"/>
<path d="M132.295 140.697V169.355C132.295 203.844 104.302 231.763 69.8145 231.763V203.104C69.7734 168.657 97.7665 140.697 132.295 140.697Z" fill="#004C46"/>
<path d="M22.4199 303.04H115.525H159.837C159.837 268.552 131.844 240.633 97.3558 240.633H79.557H58.4286H-0.722656V303.04H22.4199Z" fill="#004C46"/>
<path d="M61.6762 230.042V201.384C61.6762 166.896 33.6831 138.977 -0.804642 138.977V167.635C-0.845748 202.123 27.1473 230.042 61.6762 230.042Z" fill="#004C46"/>
<path d="M132.295 -30.2617V-1.60367C132.295 32.8845 104.302 60.8036 69.8145 60.8036V32.1455C69.7734 -2.3427 97.7665 -30.2617 132.295 -30.2617Z" fill="#004C46"/>
<path d="M22.4199 132.038H115.525H159.837C159.837 97.5499 131.844 69.6309 97.3558 69.6309H79.557H58.4286H-0.722656V132.038H22.4199Z" fill="#004C46"/>
<path d="M61.6762 59.0789V30.4209C61.6762 -4.06731 33.6832 -31.9863 -0.804642 -31.9863V-3.32827C-0.845748 31.1189 27.1473 59.0789 61.6762 59.0789Z" fill="#004C46"/>
<path d="M306.129 652.645V681.303C306.129 715.791 278.136 743.71 243.648 743.71V715.052C243.607 680.605 271.6 652.645 306.129 652.645Z" fill="#004C46"/>
<path d="M236.829 743.054V714.396C236.829 679.907 208.835 651.988 174.348 651.988V680.646C174.348 715.093 202.341 743.054 236.829 743.054Z" fill="#004C46"/>
<path d="M307.448 482.707V511.365C307.448 545.853 279.455 573.772 244.967 573.772V545.114C244.967 510.667 272.96 482.707 307.448 482.707Z" fill="#004C46"/>
<path d="M197.572 645.05H290.677H334.989C334.989 610.562 306.996 582.643 272.508 582.643H254.709H233.581H174.43V645.05H197.572Z" fill="#004C46"/>
<path d="M236.829 572.052V543.394C236.829 508.905 208.835 480.986 174.348 480.986V509.644C174.348 544.092 202.341 572.052 236.829 572.052Z" fill="#004C46"/>
<path d="M307.448 311.705V340.363C307.448 374.851 279.455 402.77 244.967 402.77V374.112C244.967 339.665 272.96 311.705 307.448 311.705Z" fill="#004C46"/>
<path d="M197.572 474.046H290.677H334.989C334.989 439.558 306.996 411.639 272.508 411.639H254.709H233.581H174.43V474.046H197.572Z" fill="#004C46"/>
<path d="M236.827 401.046V372.388C236.827 337.899 208.833 309.98 174.346 309.98V338.639C174.346 373.086 202.339 401.046 236.827 401.046Z" fill="#004C46"/>
<path d="M307.446 140.699V169.357C307.446 203.845 279.453 231.765 244.965 231.765V203.106C244.965 168.659 272.958 140.699 307.446 140.699Z" fill="#004C46"/>
<path d="M197.57 303.042H290.675H334.987C334.987 268.554 306.994 240.635 272.506 240.635H254.707H233.579H174.428V303.042H197.57Z" fill="#004C46"/>
<path d="M236.829 230.04V201.382C236.829 166.894 208.835 138.975 174.348 138.975V167.633C174.348 202.121 202.341 230.04 236.829 230.04Z" fill="#004C46"/>
<path d="M307.448 -30.2637V-1.60562C307.448 32.8826 279.455 60.8016 244.967 60.8016V32.1436C244.967 -2.34465 272.96 -30.2637 307.448 -30.2637Z" fill="#004C46"/>
<path d="M197.572 132.036H290.677H334.989C334.989 97.5479 306.996 69.6289 272.508 69.6289H254.709H233.581H174.43V132.036H197.572Z" fill="#004C46"/>
<path d="M236.829 59.0789V30.4209C236.829 -4.06731 208.835 -31.9863 174.348 -31.9863V-3.32827C174.348 31.1189 202.341 59.0789 236.829 59.0789Z" fill="#004C46"/>
<path d="M481.286 652.643V681.301C481.286 715.789 453.292 743.708 418.805 743.708V715.05C418.805 680.603 446.798 652.643 481.286 652.643Z" fill="#004C46"/>
<path d="M412.022 743.057V714.399C412.022 679.911 384.029 651.992 349.541 651.992V680.65C349.541 715.097 377.493 743.057 412.022 743.057Z" fill="#004C46"/>
<path d="M482.641 482.711V511.369C482.641 545.857 454.648 573.776 420.16 573.776V545.118C420.119 510.671 448.112 482.711 482.641 482.711Z" fill="#004C46"/>
<path d="M372.766 645.054H465.87H510.182C510.182 610.566 482.189 582.646 447.702 582.646H429.903H408.774H349.582V645.054H372.766Z" fill="#004C46"/>
<path d="M412.022 572.052V543.394C412.022 508.905 384.029 480.986 349.541 480.986V509.644C349.541 544.092 377.493 572.052 412.022 572.052Z" fill="#004C46"/>
<path d="M482.641 311.705V340.363C482.641 374.851 454.648 402.77 420.16 402.77V374.112C420.119 339.665 448.112 311.705 482.641 311.705Z" fill="#004C46"/>
<path d="M372.766 474.046H465.87H510.182C510.182 439.558 482.189 411.639 447.702 411.639H429.903H408.774H349.582V474.046H372.766Z" fill="#004C46"/>
<path d="M412.022 401.044V372.386C412.022 337.898 384.029 309.979 349.541 309.979V338.637C349.541 373.084 377.493 401.044 412.022 401.044Z" fill="#004C46"/>
<path d="M482.641 140.697V169.355C482.641 203.844 454.648 231.763 420.16 231.763V203.104C420.119 168.657 448.112 140.697 482.641 140.697Z" fill="#004C46"/>
<path d="M372.766 303.04H465.87H510.182C510.182 268.552 482.189 240.633 447.702 240.633H429.903H408.774H349.582V303.04H372.766Z" fill="#004C46"/>
<path d="M412.022 230.042V201.384C412.022 166.896 384.029 138.977 349.541 138.977V167.635C349.541 202.123 377.493 230.042 412.022 230.042Z" fill="#004C46"/>
<path d="M482.641 -30.2617V-1.60367C482.641 32.8845 454.648 60.8036 420.16 60.8036V32.1455C420.119 -2.3427 448.112 -30.2617 482.641 -30.2617Z" fill="#004C46"/>
<path d="M372.766 132.038H465.87H510.182C510.182 97.5499 482.189 69.6309 447.702 69.6309H429.903H408.774H349.582V132.038H372.766Z" fill="#004C46"/>
<path d="M412.022 59.0789V30.4209C412.022 -4.06731 384.029 -31.9863 349.541 -31.9863V-3.32827C349.541 31.1189 377.493 59.0789 412.022 59.0789Z" fill="#004C46"/>
<path d="M656.475 652.645V681.303C656.475 715.791 628.482 743.71 593.994 743.71V715.052C593.994 680.605 621.946 652.645 656.475 652.645Z" fill="#004C46"/>
<path d="M587.213 743.054V714.396C587.213 679.907 559.22 651.988 524.732 651.988V680.646C524.691 715.093 552.684 743.054 587.213 743.054Z" fill="#004C46"/>
<path d="M657.793 482.707V511.365C657.793 545.853 629.8 573.772 595.312 573.772V545.114C595.312 510.667 623.306 482.707 657.793 482.707Z" fill="#004C46"/>
<path d="M547.916 645.05H641.021H685.333C685.333 610.562 657.34 582.643 622.852 582.643H605.053H583.925H524.773V645.05H547.916Z" fill="#004C46"/>
<path d="M587.213 572.052V543.394C587.213 508.905 559.22 480.986 524.732 480.986V509.644C524.691 544.092 552.684 572.052 587.213 572.052Z" fill="#004C46"/>
<path d="M657.791 311.705V340.363C657.791 374.851 629.798 402.77 595.311 402.77V374.112C595.311 339.665 623.304 311.705 657.791 311.705Z" fill="#004C46"/>
<path d="M547.916 474.046H641.021H685.333C685.333 439.558 657.34 411.639 622.852 411.639H605.053H583.925H524.773V474.046H547.916Z" fill="#004C46"/>
<path d="M587.213 401.046V372.388C587.213 337.899 559.22 309.98 524.732 309.98V338.639C524.691 373.086 552.684 401.046 587.213 401.046Z" fill="#004C46"/>
<path d="M657.791 140.699V169.357C657.791 203.845 629.798 231.765 595.311 231.765V203.106C595.311 168.659 623.304 140.699 657.791 140.699Z" fill="#004C46"/>
<path d="M547.916 303.042H641.021H685.333C685.333 268.554 657.34 240.635 622.852 240.635H605.053H583.925H524.773V303.042H547.916Z" fill="#004C46"/>
<path d="M587.213 230.042V201.384C587.213 166.896 559.22 138.977 524.732 138.977V167.635C524.691 202.123 552.684 230.042 587.213 230.042Z" fill="#004C46"/>
<path d="M657.791 -30.2617V-1.60367C657.791 32.8845 629.798 60.8036 595.311 60.8036V32.1455C595.311 -2.3427 623.304 -30.2617 657.791 -30.2617Z" fill="#004C46"/>
<path d="M547.916 132.038H641.021H685.333C685.333 97.5499 657.34 69.6309 622.852 69.6309H605.053H583.925H524.773V132.038H547.916Z" fill="#004C46"/>
<path d="M587.213 59.0789V30.4209C587.213 -4.06731 559.22 -31.9863 524.732 -31.9863V-3.32827C524.691 31.1189 552.684 59.0789 587.213 59.0789Z" fill="#004C46"/>
<path d="M831.629 652.643V681.301C831.629 715.789 803.636 743.708 769.148 743.708V715.05C769.148 680.603 797.142 652.643 831.629 652.643Z" fill="#004C46"/>
<path d="M762.366 743.054V714.396C762.366 679.907 734.373 651.988 699.885 651.988V680.646C699.885 715.093 727.878 743.054 762.366 743.054Z" fill="#004C46"/>
<path d="M832.985 482.707V511.365C832.985 545.853 804.992 573.772 770.504 573.772V545.114C770.504 510.667 798.456 482.707 832.985 482.707Z" fill="#004C46"/>
<path d="M723.109 645.05H816.214H860.526C860.526 610.562 832.533 582.643 798.045 582.643H780.247H759.077H699.926V645.05H723.109Z" fill="#004C46"/>
<path d="M762.366 572.052V543.394C762.366 508.905 734.373 480.986 699.885 480.986V509.644C699.885 544.092 727.878 572.052 762.366 572.052Z" fill="#004C46"/>
<path d="M832.985 311.705V340.363C832.985 374.851 804.992 402.77 770.504 402.77V374.112C770.504 339.665 798.456 311.705 832.985 311.705Z" fill="#004C46"/>
<path d="M723.111 474.046H816.216H860.528C860.528 439.558 832.535 411.639 798.047 411.639H780.249H759.079H699.928V474.046H723.111Z" fill="#004C46"/>
<path d="M762.366 401.046V372.388C762.366 337.899 734.373 309.98 699.885 309.98V338.639C699.885 373.086 727.878 401.046 762.366 401.046Z" fill="#004C46"/>
<path d="M832.985 140.699V169.357C832.985 203.845 804.992 231.765 770.504 231.765V203.106C770.504 168.659 798.456 140.699 832.985 140.699Z" fill="#004C46"/>
<path d="M723.111 303.042H816.216H860.528C860.528 268.554 832.535 240.635 798.047 240.635H780.249H759.079H699.928V303.042H723.111Z" fill="#004C46"/>
<path d="M762.366 230.04V201.382C762.366 166.894 734.373 138.975 699.885 138.975V167.633C699.885 202.121 727.878 230.04 762.366 230.04Z" fill="#004C46"/>
<path d="M832.985 -30.2637V-1.60562C832.985 32.8826 804.992 60.8016 770.504 60.8016V32.1436C770.504 -2.34465 798.456 -30.2637 832.985 -30.2637Z" fill="#004C46"/>
<path d="M723.109 132.036H816.214H860.526C860.526 97.5479 832.533 69.6289 798.045 69.6289H780.247H759.077H699.926V132.036H723.109Z" fill="#004C46"/>
<path d="M762.366 59.0789V30.4209C762.366 -4.06731 734.373 -31.9863 699.885 -31.9863V-3.32827C699.885 31.1189 727.878 59.0789 762.366 59.0789Z" fill="#004C46"/>
<path d="M1006.82 652.645V681.303C1006.82 715.791 978.828 743.71 944.34 743.71V715.052C944.34 680.605 972.292 652.645 1006.82 652.645Z" fill="#004C46"/>
<path d="M937.559 743.056V714.397C937.559 679.909 909.566 651.99 875.078 651.99V680.648C875.037 715.095 903.03 743.056 937.559 743.056Z" fill="#004C46"/>
<path d="M1008.18 482.709V511.367C1008.18 545.855 980.185 573.774 945.697 573.774V545.116C945.656 510.669 973.649 482.709 1008.18 482.709Z" fill="#004C46"/>
<path d="M898.303 645.052H991.407H1035.72C1035.72 610.564 1007.73 582.645 973.239 582.645H955.44H934.311H875.16V645.052H898.303Z" fill="#004C46"/>
<path d="M937.559 572.052V543.394C937.559 508.905 909.566 480.986 875.078 480.986V509.644C875.037 544.092 903.03 572.052 937.559 572.052Z" fill="#004C46"/>
<path d="M1008.18 311.705V340.363C1008.18 374.851 980.185 402.77 945.697 402.77V374.112C945.656 339.665 973.649 311.705 1008.18 311.705Z" fill="#004C46"/>
<path d="M898.303 474.046H991.407H1035.72C1035.72 439.558 1007.73 411.639 973.239 411.639H955.44H934.311H875.16V474.046H898.303Z" fill="#004C46"/>
<path d="M937.557 401.044V372.386C937.557 337.898 909.564 309.979 875.076 309.979V338.637C875.035 373.084 903.028 401.044 937.557 401.044Z" fill="#004C46"/>
<path d="M1008.18 140.697V169.355C1008.18 203.844 980.183 231.763 945.695 231.763V203.104C945.654 168.657 973.647 140.697 1008.18 140.697Z" fill="#004C46"/>
<path d="M898.301 303.04H991.405H1035.72C1035.72 268.552 1007.72 240.633 973.237 240.633H955.438H934.309H875.158V303.04H898.301Z" fill="#004C46"/>
<path d="M937.559 230.04V201.382C937.559 166.894 909.566 138.975 875.078 138.975V167.633C875.037 202.121 903.03 230.04 937.559 230.04Z" fill="#004C46"/>
<path d="M1008.18 -30.2637V-1.60562C1008.18 32.8826 980.185 60.8016 945.697 60.8016V32.1436C945.656 -2.34465 973.649 -30.2637 1008.18 -30.2637Z" fill="#004C46"/>
<path d="M898.303 132.036H991.407H1035.72C1035.72 97.5479 1007.73 69.6289 973.239 69.6289H955.44H934.311H875.16V132.036H898.303Z" fill="#004C46"/>
<path d="M937.559 59.0789V30.4209C937.559 -4.06731 909.566 -31.9863 875.078 -31.9863V-3.32827C875.037 31.1189 903.03 59.0789 937.559 59.0789Z" fill="#004C46"/>
<path d="M1182.01 652.643V681.301C1182.01 715.789 1154.02 743.708 1119.53 743.708V715.05C1119.49 680.603 1147.48 652.643 1182.01 652.643Z" fill="#004C46"/>
<path d="M1112.71 743.054V714.396C1112.71 679.907 1084.72 651.988 1050.23 651.988V680.646C1050.23 715.093 1078.22 743.054 1112.71 743.054Z" fill="#004C46"/>
<path d="M1183.33 482.707V511.365C1183.33 545.853 1155.34 573.772 1120.85 573.772V545.114C1120.85 510.667 1148.84 482.707 1183.33 482.707Z" fill="#004C46"/>
<path d="M1073.45 645.05H1166.56H1210.87C1210.87 610.562 1182.88 582.643 1148.39 582.643H1130.59H1109.46H1050.31V645.05H1073.45Z" fill="#004C46"/>
<path d="M1112.71 572.052V543.394C1112.71 508.905 1084.72 480.986 1050.23 480.986V509.644C1050.23 544.092 1078.22 572.052 1112.71 572.052Z" fill="#004C46"/>
<path d="M1183.33 311.705V340.363C1183.33 374.851 1155.34 402.77 1120.85 402.77V374.112C1120.85 339.665 1148.84 311.705 1183.33 311.705Z" fill="#004C46"/>
<path d="M1073.45 474.046H1166.56H1210.87C1210.87 439.558 1182.88 411.639 1148.39 411.639H1130.59H1109.46H1050.31V474.046H1073.45Z" fill="#004C46"/>
<path d="M1112.71 401.046V372.388C1112.71 337.899 1084.72 309.98 1050.23 309.98V338.639C1050.23 373.086 1078.22 401.046 1112.71 401.046Z" fill="#004C46"/>
<path d="M1183.33 140.699V169.357C1183.33 203.845 1155.34 231.765 1120.85 231.765V203.106C1120.85 168.659 1148.84 140.699 1183.33 140.699Z" fill="#004C46"/>
<path d="M1073.45 303.042H1166.56H1210.87C1210.87 268.554 1182.88 240.635 1148.39 240.635H1130.59H1109.46H1050.31V303.042H1073.45Z" fill="#004C46"/>
<path d="M1112.71 230.042V201.384C1112.71 166.896 1084.72 138.977 1050.23 138.977V167.635C1050.23 202.123 1078.22 230.042 1112.71 230.042Z" fill="#004C46"/>
<path d="M1183.33 -30.2617V-1.60367C1183.33 32.8845 1155.34 60.8036 1120.85 60.8036V32.1455C1120.85 -2.3427 1148.84 -30.2617 1183.33 -30.2617Z" fill="#004C46"/>
<path d="M1073.45 132.038H1166.56H1210.87C1210.87 97.5499 1182.88 69.6309 1148.39 69.6309H1130.59H1109.46H1050.31V132.038H1073.45Z" fill="#004C46"/>
<path d="M1112.71 59.0789V30.4209C1112.71 -4.06731 1084.72 -31.9863 1050.23 -31.9863V-3.32827C1050.23 31.1189 1078.22 59.0789 1112.71 59.0789Z" fill="#004C46"/>
<path d="M1357.17 652.643V681.301C1357.17 715.789 1329.18 743.708 1294.69 743.708V715.05C1294.69 680.603 1322.68 652.643 1357.17 652.643Z" fill="#004C46"/>
<path d="M1287.9 743.056V714.397C1287.9 679.909 1259.91 651.99 1225.42 651.99V680.648C1225.42 715.095 1253.38 743.056 1287.9 743.056Z" fill="#004C46"/>
<path d="M1358.52 482.709V511.367C1358.52 545.855 1330.53 573.774 1296.04 573.774V545.116C1296 510.669 1323.99 482.709 1358.52 482.709Z" fill="#004C46"/>
<path d="M1248.65 645.052H1341.75H1386.07C1386.07 610.564 1358.07 582.645 1323.58 582.645H1305.79H1284.66H1225.51V645.052H1248.65Z" fill="#004C46"/>
<path d="M1287.9 572.052V543.394C1287.9 508.905 1259.91 480.986 1225.42 480.986V509.644C1225.42 544.092 1253.38 572.052 1287.9 572.052Z" fill="#004C46"/>
<path d="M1358.52 311.705V340.363C1358.52 374.851 1330.53 402.77 1296.04 402.77V374.112C1296 339.665 1323.99 311.705 1358.52 311.705Z" fill="#004C46"/>
<path d="M1248.65 474.046H1341.75H1386.07C1386.07 439.558 1358.07 411.639 1323.58 411.639H1305.79H1284.66H1225.51V474.046H1248.65Z" fill="#004C46"/>
<path d="M1287.9 401.046V372.388C1287.9 337.899 1259.91 309.98 1225.42 309.98V338.639C1225.42 373.086 1253.38 401.046 1287.9 401.046Z" fill="#004C46"/>
<path d="M1358.52 140.699V169.357C1358.52 203.845 1330.53 231.765 1296.04 231.765V203.106C1296 168.659 1323.99 140.699 1358.52 140.699Z" fill="#004C46"/>
<path d="M1248.65 303.042H1341.75H1386.07C1386.07 268.554 1358.07 240.635 1323.58 240.635H1305.79H1284.66H1225.51V303.042H1248.65Z" fill="#004C46"/>
<path d="M1287.9 230.042V201.384C1287.9 166.896 1259.91 138.977 1225.42 138.977V167.635C1225.42 202.123 1253.38 230.042 1287.9 230.042Z" fill="#004C46"/>
<path d="M1358.52 -30.2617V-1.60367C1358.52 32.8845 1330.53 60.8036 1296.04 60.8036V32.1455C1296 -2.3427 1323.99 -30.2617 1358.52 -30.2617Z" fill="#004C46"/>
<path d="M1248.65 132.038H1341.75H1386.07C1386.07 97.5499 1358.07 69.6309 1323.58 69.6309H1305.79H1284.66H1225.51V132.038H1248.65Z" fill="#004C46"/>
<path d="M1287.9 59.0789V30.4209C1287.9 -4.06731 1259.91 -31.9863 1225.42 -31.9863V-3.32827C1225.42 31.1189 1253.38 59.0789 1287.9 59.0789Z" fill="#004C46"/>
<path d="M1463.09 743.054V714.396C1463.09 679.907 1435.1 651.988 1400.61 651.988V680.646C1400.57 715.093 1428.57 743.054 1463.09 743.054Z" fill="#004C46"/>
<path d="M1423.8 645.05H1516.9H1561.22C1561.22 610.562 1533.22 582.643 1498.73 582.643H1480.94H1459.81H1400.66V645.05H1423.8Z" fill="#004C46"/>
<path d="M1463.09 572.052V543.394C1463.09 508.905 1435.1 480.986 1400.61 480.986V509.644C1400.57 544.092 1428.57 572.052 1463.09 572.052Z" fill="#004C46"/>
<path d="M1423.8 474.046H1516.9H1561.21C1561.21 439.558 1533.22 411.639 1498.73 411.639H1480.93H1459.81H1400.65V474.046H1423.8Z" fill="#004C46"/>
<path d="M1463.1 401.046V372.388C1463.1 337.899 1435.1 309.98 1400.62 309.98V338.639C1400.57 373.086 1428.57 401.046 1463.1 401.046Z" fill="#004C46"/>
<path d="M1423.8 303.042H1516.9H1561.22C1561.22 268.554 1533.22 240.635 1498.73 240.635H1480.94H1459.81H1400.66V303.042H1423.8Z" fill="#004C46"/>
<path d="M1463.09 230.04V201.382C1463.09 166.894 1435.1 138.975 1400.61 138.975V167.633C1400.57 202.121 1428.57 230.04 1463.09 230.04Z" fill="#004C46"/>
<path d="M1423.8 132.036H1516.9H1561.22C1561.22 97.5479 1533.22 69.6289 1498.73 69.6289H1480.94H1459.81H1400.66V132.036H1423.8Z" fill="#004C46"/>
<path d="M1463.09 59.0789V30.4209C1463.09 -4.06731 1435.1 -31.9863 1400.61 -31.9863V-3.32827C1400.57 31.1189 1428.57 59.0789 1463.09 59.0789Z" fill="#004C46"/>
</g>
<defs>
<clipPath id="clip0">
<rect width="1440" height="707" fill="white"/>
</clipPath>
</defs>
</svg>
