<svg width="124" height="127" viewBox="0 0 124 127" fill="none" xmlns="http://www.w3.org/2000/svg">
<path fill-rule="evenodd" clip-rule="evenodd" d="M1 4.39551H101V126H1V4.39551Z" stroke="white"/>
<path fill-rule="evenodd" clip-rule="evenodd" d="M9.82373 13.1865H92.1767V112.814H9.82373V13.1865Z" fill="white"/>
<path fill-rule="evenodd" clip-rule="evenodd" d="M9.82373 98.1633C53.7803 97.6271 89.2355 65.1647 89.2355 25.1741C89.2355 21.0896 88.8473 17.0879 88.137 13.1865H9.82373V98.1633Z" fill="#D6E1C9"/>
<path fill-rule="evenodd" clip-rule="evenodd" d="M26 0H74.5294V17.5814H26V0Z" fill="#3C9130"/>
<path fill-rule="evenodd" clip-rule="evenodd" d="M18.647 26.3721H31.8823V39.5581H18.647V26.3721Z" fill="#3C9130"/>
<path fill-rule="evenodd" clip-rule="evenodd" d="M18.647 48.3486H31.8823V61.5347H18.647V48.3486Z" fill="#3C9130"/>
<path fill-rule="evenodd" clip-rule="evenodd" d="M18.647 70.3252H31.8823V83.5112H18.647V70.3252Z" fill="#3C9130"/>
<path fill-rule="evenodd" clip-rule="evenodd" d="M18.647 92.3027H31.8823V105.489H18.647V92.3027Z" fill="#3C9130"/>
<path fill-rule="evenodd" clip-rule="evenodd" d="M22.3052 34.2715L35.421 21.2755L37.4356 23.2713L24.3198 36.2673L22.3052 34.2715Z" fill="black"/>
<path fill-rule="evenodd" clip-rule="evenodd" d="M22.3032 56.002L35.419 43.006L37.4336 45.0018L24.3178 57.9978L22.3032 56.002Z" fill="black"/>
<path fill-rule="evenodd" clip-rule="evenodd" d="M22.3008 77.7324L35.4166 64.7365L37.4312 66.7323L24.3154 79.7282L22.3008 77.7324Z" fill="black"/>
<path fill-rule="evenodd" clip-rule="evenodd" d="M22.2988 99.4619L35.4146 86.466L37.4293 88.4618L24.3134 101.458L22.2988 99.4619Z" fill="black"/>
<path fill-rule="evenodd" clip-rule="evenodd" d="M42.1763 27.8369H81.8822V30.7671H42.1763V27.8369Z" fill="black"/>
<path fill-rule="evenodd" clip-rule="evenodd" d="M42.1763 33.6973H81.8822V36.6275H42.1763V33.6973Z" fill="black"/>
<path fill-rule="evenodd" clip-rule="evenodd" d="M42.1763 48.3486H81.8822V51.2789H42.1763V48.3486Z" fill="black"/>
<path fill-rule="evenodd" clip-rule="evenodd" d="M42.1763 55.6748H59.8233V58.605H42.1763V55.6748Z" fill="black"/>
<path fill-rule="evenodd" clip-rule="evenodd" d="M42.1763 71.791H59.8233V74.7212H42.1763V71.791Z" fill="black"/>
<path fill-rule="evenodd" clip-rule="evenodd" d="M42.1763 77.6514H59.8233V80.5816H42.1763V77.6514Z" fill="black"/>
<path fill-rule="evenodd" clip-rule="evenodd" d="M51 37.9355H123V126H51V37.9355Z" stroke="white"/>
<path fill-rule="evenodd" clip-rule="evenodd" d="M58.3472 45.2744H117.123V117.194H58.3472V45.2744Z" fill="white"/>
<path fill-rule="evenodd" clip-rule="evenodd" d="M56.8774 105.452C88.598 105.063 114.184 81.5135 114.184 52.5029C114.184 49.5398 113.903 46.6369 113.391 43.8066H56.8774V105.452Z" fill="#D6E1C9"/>
<path fill-rule="evenodd" clip-rule="evenodd" d="M68.6328 35H103.898V48.2097H68.6328V35Z" fill="#3C9130"/>
<path fill-rule="evenodd" clip-rule="evenodd" d="M64.2246 54.0811H73.0409V63.6214H64.2246V54.0811Z" fill="#3C9130"/>
<path fill-rule="evenodd" clip-rule="evenodd" d="M64.2246 69.9814H73.0409V79.5218H64.2246V69.9814Z" fill="#3C9130"/>
<path fill-rule="evenodd" clip-rule="evenodd" d="M64.2246 85.8818H73.0409V95.4222H64.2246V85.8818Z" fill="#3C9130"/>
<path fill-rule="evenodd" clip-rule="evenodd" d="M64.2246 101.782H73.0409V111.323H64.2246V101.782Z" fill="#3C9130"/>
<path fill-rule="evenodd" clip-rule="evenodd" d="M66.3428 59.7539L75.7617 50.3361L77.2309 51.8052L67.812 61.223L66.3428 59.7539Z" fill="black"/>
<path fill-rule="evenodd" clip-rule="evenodd" d="M66.3413 75.4473L75.7602 66.0295L77.2294 67.4986L67.8105 76.9163L66.3413 75.4473Z" fill="black"/>
<path fill-rule="evenodd" clip-rule="evenodd" d="M66.3394 91.1416L75.7583 81.7238L77.2275 83.1929L67.8086 92.6107L66.3394 91.1416Z" fill="black"/>
<path fill-rule="evenodd" clip-rule="evenodd" d="M66.3379 106.836L75.7568 97.4182L77.226 98.8872L67.8071 108.305L66.3379 106.836Z" fill="black"/>
<path fill-rule="evenodd" clip-rule="evenodd" d="M80.3877 55.5488H108.306V57.0166H80.3877V55.5488Z" fill="black"/>
<path fill-rule="evenodd" clip-rule="evenodd" d="M80.3877 59.9512H108.306V61.4189H80.3877V59.9512Z" fill="black"/>
<path fill-rule="evenodd" clip-rule="evenodd" d="M80.3877 70.2256H108.306V71.6933H80.3877V70.2256Z" fill="black"/>
<path fill-rule="evenodd" clip-rule="evenodd" d="M80.3877 76.0967H93.6122V77.5644H80.3877V76.0967Z" fill="black"/>
<path fill-rule="evenodd" clip-rule="evenodd" d="M80.3877 87.8389H93.6122V89.3066H80.3877V87.8389Z" fill="black"/>
<path fill-rule="evenodd" clip-rule="evenodd" d="M80.3877 90.7744H93.6122V92.2422H80.3877V90.7744Z" fill="black"/>
</svg>
