<svg xmlns="http://www.w3.org/2000/svg" xmlns:xlink="http://www.w3.org/1999/xlink" width="232" height="217" fill="none"  xmlns:v="https://vecta.io/nano"><style><![CDATA[.B{fill:#9c7148}.C{fill:#000}.D{fill:#774e2d}.E{fill:#2c2c2c}.F{stroke:#2c2c2c}.G{stroke-linecap:round}.H{stroke-linejoin:round}.I{stroke-width:.778}.J{stroke-width:.885}.K{stroke-miterlimit:10}]]></style><g clip-path="url(#U)"><path d="M220.801 74.75c-.749.004-1.486.191-2.147.543a4.62 4.62 0 0 0-1.647 1.48c-.304-1.371-1.063-2.598-2.154-3.482a6.21 6.21 0 0 0-3.852-1.387 5.91 5.91 0 0 0-2.15.379c.053-.335.074-.673.063-1.012.005-.818-.152-1.629-.462-2.386a6.23 6.23 0 0 0-1.339-2.027c-.576-.581-1.26-1.043-2.014-1.36s-1.563-.482-2.381-.486-1.628.153-2.385.462a6.23 6.23 0 0 0-2.028 1.34c-.581.575-1.043 1.26-1.36 2.014a6.22 6.22 0 0 0-.486 2.381 4.78 4.78 0 0 0 .063.948c-.857-.584-1.871-.893-2.908-.885a5.19 5.19 0 0 0-3.539 1.382c-.962.892-1.55 2.115-1.646 3.423a4.17 4.17 0 0 0-.885-.063c-1.341.007-2.627.53-3.592 1.46s-1.536 2.196-1.593 3.535l42.362.19c.28-.594.431-1.24.443-1.897a4.35 4.35 0 0 0-.269-1.732 4.32 4.32 0 0 0-.932-1.484 4.33 4.33 0 0 0-1.443-.994 4.34 4.34 0 0 0-1.719-.342z" fill="url(#A)"/><path d="M133.297 31.949c-.027-1.623-.632-3.184-1.706-4.401s-2.548-2.012-4.155-2.24a6.82 6.82 0 0 0-7.48 4.745c-1.498.037-2.924.648-3.983 1.707s-1.671 2.485-1.707 3.983h22.824c-.088-.977-.515-1.891-1.209-2.584s-1.608-1.121-2.584-1.209z" fill="url(#B)"/><g opacity=".1"><path d="M171.863 19.999a2.74 2.74 0 0 1 .316.063c-1.58 4.236-5.5 5.69-10.305 5.817-10.18.379-19.98-4.047-30.096-5.437-9.399-1.327-18.981-.036-27.693 3.73-5.691 2.529-10.812 6.07-15.617 9.863a172.29 172.29 0 0 0-38.821 42.551c-4.426 6.892-8.409 14.226-14.985 19.41s-16.565 7.524-24.026 3.161c-4.995-2.909-7.84-8.283-9.105-13.594C.141 80.001.204 74.247.836 68.557c1.318-10.639 4.826-20.89 10.301-30.107s12.801-17.2 21.514-23.446C50.418 2.422 74.318-2.889 96.637 1.537c14.415 2.845 27.819 9.484 42.298 11.95a72.93 72.93 0 0 0 21.307.506c2.719-.316 5.564-.822 8.157.127s4.792 3.585 3.464 5.88z" fill="url(#C)"/><path d="M147.092 206.643c5.248.758 10.749.758 15.554-3.351s8.789-13.468 8.409-23.647c-.316-8.536-3.604-15.807-7.46-19.916s-8.346-5.564-12.709-6.955l-18.715-6.007c-5.88-1.897-11.886-3.73-17.64-1.327s-11.444 10.116-12.772 21.244c-4.249 33.573 35.331 38.568 45.333 39.959z" fill="url(#D)"/><path d="M196.077 23.287c1.391 4.047 4.236 7.461 7.587 10.116 3.857 3.098 8.662 5.311 13.531 4.932 3.667-.316 7.018-2.023 9.863-4.236a12.35 12.35 0 0 0 3.604-3.857c1.138-2.213 1.012-4.869.759-7.398-1.075-9.737-8.093-25.48-20.486-21.813-9.357 2.719-18.525 11.823-14.858 22.256z" fill="url(#E)"/><path d="M16.073 197.473c1.391 4.047 4.236 7.461 7.587 10.116 3.857 3.099 8.662 5.312 13.53 4.932 3.667-.316 7.018-2.023 9.863-4.236a12.34 12.34 0 0 0 3.604-3.857c1.138-2.213 1.012-4.868.759-7.397-1.075-9.737-8.093-25.481-20.485-21.813-9.358 2.782-18.513 11.823-14.858 22.255z" fill="url(#F)"/><path d="M184.761 207.529a13.86 13.86 0 0 0 1.202.822c6.322 4.046 15.869 4.362 23.393 3.035 8.599-1.518 18.273-8.157 18.968-19.917.696-11.128-7.208-19.726-14.858-23.583-7.334-3.667-15.617-4.932-22.888-1.201s-13.214 13.467-13.088 24.089c.127 6.259 1.771 12.582 7.271 16.755z" fill="url(#G)"/><path d="M8.804 173.071l.695.569c3.73 2.845 9.421 3.034 13.847 2.086 5.058-1.075 10.812-5.69 11.254-13.846a18.24 18.24 0 0 0-8.788-16.376c-4.363-2.529-9.231-3.414-13.53-.822s-7.84 9.357-7.777 16.755c.063 4.363 1.012 8.725 4.299 11.634z" fill="url(#H)"/><path d="M171.042 216.254c2.41 0 4.363-1.84 4.363-4.11s-1.953-4.109-4.363-4.109-4.362 1.84-4.362 4.109 1.953 4.11 4.362 4.11z" fill="url(#I)"/><path d="M152.518 168.267c42.356 0 76.693-30.374 76.693-67.842s-34.337-67.842-76.693-67.842-76.694 30.374-76.694 67.842 34.337 67.842 76.694 67.842z" fill="url(#J)"/></g><path d="M171.043 118.695l-13.151-1.771.126 1.328-11.254 1.518s-7.208 18.145-.885 58.104h9.104l3.288-40.464h1.138l3.162 40.464h9.104c6.513-39.959-.632-59.179-.632-59.179z" fill="#234241"/><path d="M82.782 170.542c.506-4.3 4.679-7.777 4.11-12.077-.443-3.667-4.11-5.88-6.386-8.788-4.363-5.69-2.403-15.174 3.92-18.589a16.27 16.27 0 0 0 3.224-1.833c4.932-3.983.379-12.456 3.288-18.083.753-1.348 1.904-2.431 3.297-3.099a7.48 7.48 0 0 1 4.48-.631c1.507.316 2.878 1.096 3.921 2.229s1.706 2.565 1.896 4.093c.442 4.237-2.846 8.41-1.644 12.519 1.707 6.007 11.254 6.892 12.771 12.962 1.202 4.805-3.667 9.61-2.276 14.352a17.98 17.98 0 0 0 1.771 3.477c5.753 10.18-.759 21.561-11.002 25.291-7.208 2.656-22.445-2.339-21.37-11.823z" fill="#5f948b"/><path d="M83.729 165.418c-1.201-2.465-1.581-5.184-2.719-7.65-.247-.628-.663-1.175-1.201-1.581-.885-.632-2.087-.505-3.161-.569a8.1 8.1 0 0 1-3.973-1.31 8.11 8.11 0 0 1-2.792-3.116c-2.403-4.805.063-11.76-4.046-15.237a5.73 5.73 0 0 0-7.288-.115 5.73 5.73 0 0 0-1.501 7.133c.632 1.265 1.707 2.213 2.529 3.351.659.96 1.121 2.041 1.36 3.18a8.81 8.81 0 0 1 .031 3.459c-.506 2.466-1.96 4.995-.948 7.271 1.265 2.719 5.438 3.098 6.702 5.817 1.328 2.908-1.454 6.955.695 9.42a5.37 5.37 0 0 0 2.023 1.328c3.288 1.454 7.65 2.15 10.053-.442.696-.759 1.201-1.708 1.96-2.403 2.023-1.77 7.018.316 7.524-1.644s-4.426-5.311-5.248-6.892z" fill="#9ccd9e"/><path d="M163.009 158.589c1.138-1.075 2.466-1.897 3.477-3.098 2.024-2.403 2.466-5.691 3.351-8.662s2.656-6.196 5.754-6.765c2.592-.506 5.564.948 7.714-.633.704-.608 1.265-1.363 1.643-2.213 1.455-3.098 2.213-6.449 3.731-9.547s3.983-5.943 7.334-6.639a7.42 7.42 0 0 1 7.71 3.345c.796 1.272 1.188 2.756 1.123 4.255a7.42 7.42 0 0 1-1.486 4.142c-1.075 1.39-2.592 2.402-3.983 3.477-3.162 2.466-5.944 6.323-5.122 10.243.696 3.414 3.92 6.449 2.972 9.736-1.138 3.857-6.386 4.11-9.737 6.323-4.615 3.098-5.121 10.053-9.421 13.594-3.856 3.224-13.277 3.667-16.881-.127-4.439-4.47-2.289-13.638 1.821-17.431z" fill="#72ac99"/><g class="C"><path d="M119.638 72.096c10.406 0 18.842-8.436 18.842-18.842s-8.436-18.841-18.842-18.841-18.841 8.436-18.841 18.841 8.435 18.842 18.841 18.842zm39.895 8.412c10.406 0 18.841-8.436 18.841-18.841s-8.435-18.841-18.841-18.841-18.842 8.436-18.842 18.841 8.436 18.841 18.842 18.841z"/></g><path d="M178.703 99.536c-1.138-1.77-7.461-1.707-7.777-1.77-1.707-.19 1.075 13.404 4.616 25.227.158.539.429 1.038.794 1.464a3.98 3.98 0 0 0 1.324 1.009 3.96 3.96 0 0 0 1.622.377c.561.01 1.118-.099 1.634-.321h.063c.835-.361 1.522-.997 1.947-1.802a4 4 0 0 0 .393-2.623c-1.657-8.915-3.351-19.474-4.616-21.561z" class="B"/><g class="D"><path d="M180.211 104.466l-8.093 3.098-.759-3.793 8.346-2.087.506 2.782zm1.514 7.655l-3.604 4.868c.19-.253 2.972-8.282 2.972-8.282l.632 3.414z"/></g><g class="B"><path d="M187.16 105.228l-10.938 14.162c-.339.44-.582.946-.715 1.485s-.152 1.099-.057 1.646a4 4 0 0 0 1.783 2.686 4.06 4.06 0 0 0 1.542.598c.55.091 1.112.067 1.652-.069s1.047-.383 1.487-.725a4.03 4.03 0 0 0 1.073-1.258l9.104-16.818-4.931-1.707z"/><path d="M190.01 108.833a4.52 4.52 0 0 1-3.117-3.941c-.071-.891.123-1.784.559-2.565s1.094-1.414 1.89-1.821a4.52 4.52 0 0 1 4.99.584 4.51 4.51 0 0 1 1.368 4.834 4.49 4.49 0 0 1-.853 1.547c-.384.453-.855.827-1.384 1.097a4.49 4.49 0 0 1-1.7.479 4.51 4.51 0 0 1-1.753-.214z"/><path d="M194.689 101.878s1.264-1.265-.949-2.15-4.868-.696-6.638 3.477l7.587-1.327z"/></g><path d="M196.962 92.899l4.552 1.96c.059.033.11.077.151.13a.5.5 0 0 1 .09.178c.017.065.022.132.013.199a.49.49 0 0 1-.064.189l-6.007 11.254a.53.53 0 0 1-.695.253l-4.552-1.96c-.059-.033-.11-.077-.151-.13a.5.5 0 0 1-.09-.178c-.017-.065-.022-.133-.013-.199s.03-.131.064-.189l6.007-11.254a.53.53 0 0 1 .695-.253z" fill="#38335e"/><path d="M196.521 92.709l4.552 1.96c.058.033.11.077.151.13a.5.5 0 0 1 .089.178c.018.065.023.132.014.199s-.031.131-.064.189l-6.007 11.254a.53.53 0 0 1-.695.253l-4.553-1.96c-.058-.032-.11-.077-.151-.129a.5.5 0 0 1-.089-.179.51.51 0 0 1-.014-.198c.009-.067.031-.131.065-.189l6.006-11.254a.53.53 0 0 1 .696-.253z" fill="#282144"/><path d="M196.018 93.848l3.983 1.707-4.869 9.231-4.046-1.771 4.932-9.167z" fill="#e4e4e4"/><path d="M200.001 95.555l-8.915 7.46 4.932-9.167 3.983 1.707z" fill="#fff"/><path d="M192.413 99.266c.682.143 1.341.377 1.96.696a1.05 1.05 0 0 1 .437.487 1.06 1.06 0 0 1 .069.651 1.01 1.01 0 0 1-.322.519c-.159.136-.355.22-.563.239l-2.403.317s-1.264 2.149-2.845 2.402l1.518-3.73 2.149-1.581z" class="B"/><path d="M162 81.711c-.253 0 16.881 2.403 19.727 21.939l-8.915 1.391-1.771 14.732h-24.848l-4.931-27.25a30.69 30.69 0 0 1 15.743-10.748H162v-.063z" fill="#8dddeb"/><path d="M163.644 81.96v-6.765h-7.967v6.892a19.68 19.68 0 0 0-2.15.885l6.209 3.648 6.323-3.667a6.91 6.91 0 0 0-2.415-.993z" class="B"/><path d="M155.617 76.015s1.454 3.794 5.248 3.477c3.477-.316 2.972-5.564 2.972-5.564l-8.22 2.086z" class="D"/><g class="B"><path d="M152.151 70.96c-1.264 1.138-4.046-3.161-2.845-4.363s2.15.696 2.15.696l.569 1.264.379 1.707.127.443-.38.253z"/><path d="M149.863 68.114s.949-.443 1.771.948l-1.771-.948zm17.004 2.701c1.138 1.264 4.299-2.782 3.161-4.11s-2.149.506-2.149.506l-.633 1.201-.569 1.707-.126.443.316.253z"/><path d="M169.33 68.179s-.886-.506-1.834.759l1.834-.759z"/></g><path d="M149.93 62.488c0 5.69 4.362 8.346 9.673 8.346s9.674-2.719 9.674-8.346-4.363-9.547-9.674-9.547-9.673 3.857-9.673 9.547z" class="C"/><path d="M151.255 62.93c.006 2.916.346 5.823 1.012 8.662.506 2.086 1.833 3.541 3.73 4.742l.38.19a6.53 6.53 0 0 0 3.342.957c1.18.011 2.341-.298 3.36-.894 2.086-1.201 3.54-2.782 3.983-5.058.521-2.838.817-5.714.885-8.599 0 0 .759-8.788-8.219-8.662s-8.473 8.662-8.473 8.662z" class="B"/><path d="M159.033 67.922v1.201c-.004.034-.001.069.01.102s.029.063.053.088c.053.118.144.214.26.271s.247.073.372.045l.569-.126" class="F G H I"/><g class="E"><path d="M157.571 63.183l-4.489 1.075s.19-1.138 2.023-1.581 2.466.506 2.466.506zm3.988 0l4.299 1.075s-.19-1.138-1.96-1.581-2.339.506-2.339.506zm-5.628 4.048a.76.76 0 0 0 .758-.759.76.76 0 0 0-.758-.759.76.76 0 0 0-.759.759.76.76 0 0 0 .759.759zm7.84-.759c0 .15-.044.297-.128.422s-.201.222-.34.279a.76.76 0 0 1-.438.043c-.148-.029-.283-.102-.389-.208s-.178-.241-.208-.389-.014-.3.044-.438a.77.77 0 0 1 .279-.341.76.76 0 0 1 .422-.128.77.77 0 0 1 .758.759z"/></g><path d="M156.625 71.085h5.817s-2.529 3.098-5.817 0z" fill="#fff"/><path d="M167.818 65.837s-3.604-4.868-2.782-9.8c.871.513 1.621 1.208 2.199 2.037a7.03 7.03 0 0 1 1.152 2.768c.695 3.477-.569 4.995-.569 4.995z" class="C"/><path d="M151.254 66.152s4.173-5.501 3.351-10.432c-.91.572-1.698 1.319-2.317 2.199s-1.056 1.873-1.287 2.923c-.696 3.477.253 5.311.253 5.311z" class="E"/><path d="M167.503 57.997s-4.616 5.058-17.261 4.173c0 0 1.96-7.398 8.03-8.22.063 0 7.081-.841 9.231 4.047z" class="C"/><path d="M93.585 118.695l-11.254-1.518.127-1.327-13.139 1.751s-7.145 19.221-.759 59.117h9.105l3.161-40.465h1.138l3.288 40.465h9.105c6.436-39.877-.771-58.023-.771-58.023z" fill="#3d5429"/><g class="B"><path d="M87.708 69.884c1.264 1.138 4.047-3.161 2.845-4.363s-2.15.696-2.15.696l-.569 1.264-.379 1.707-.126.443.379.253z"/><path d="M89.981 67.021s-.948-.442-1.77.948l1.77-.948zm-17.002 2.735c-1.138 1.264-4.299-2.782-3.161-4.11s2.15.506 2.15.506l.632 1.201.569 1.707.126.443-.316.253z"/><path d="M70.516 67.101s.885-.506 1.834.759l-1.834-.759z"/></g><path d="M89.924 61.415c0 5.69-4.363 8.346-9.674 8.346s-9.661-2.738-9.661-8.346 4.363-9.547 9.674-9.547 9.661 3.92 9.661 9.547z" class="C"/><path d="M84.17 74.119h-7.966v10.306h7.966V74.119z" class="B"/><path d="M75.063 73.487s2.213 4.426 4.932 5.121c.734.179 1.504.135 2.213-.126a4.73 4.73 0 0 0 2.529-3.604l.127-.948s-4.868 2.573-9.8-.443z" class="D"/><path d="M88.59 61.857a38.3 38.3 0 0 1-1.012 8.662c-.506 2.087-1.834 3.541-3.73 4.742l-.379.19a6.53 6.53 0 0 1-6.702.063c-2.087-1.201-3.541-2.782-3.983-5.058-.522-2.838-.818-5.714-.885-8.599 0 0-.759-8.788 8.219-8.662s8.472 8.662 8.472 8.662z" class="B"/><path d="M79.615 67.357v.695c-.004.034-.001.069.01.102s.029.063.053.088c.052.118.144.214.26.271s.247.073.373.045l.569-.126" class="F G H I"/><g class="E"><path d="M81.512 62.552l4.805 1.138s-.19-1.201-2.15-1.644-2.655.506-2.655.506zm-2.53 0l-4.868 1.138s.19-1.201 2.213-1.644 2.656.506 2.656.506zm-1.707 2.969a.76.76 0 0 1-1.295.537.76.76 0 0 1 .537-1.295.82.82 0 0 1 .522.237.81.81 0 0 1 .237.522zm7.145 0a.76.76 0 0 1-1.295.537.76.76 0 0 1 .536-1.295.82.82 0 0 1 .522.237.81.81 0 0 1 .237.522z"/></g><path d="M76.766 69.823h6.576s-.443 1.834-3.478 1.834c-.634.002-1.256-.167-1.801-.49s-.993-.787-1.297-1.344z" fill="#fff"/><path d="M72.024 64.762s3.604-4.868 2.782-9.8a7.04 7.04 0 0 0-3.351 4.805c-.695 3.459.569 4.995.569 4.995z" class="C"/><path d="M88.595 64.571s-4.173-5.058-3.351-9.927a8.11 8.11 0 0 1 2.317 2.199c.619.879 1.056 1.873 1.287 2.923.708 3.458-.253 4.805-.253 4.805z" class="E"/><path d="M72.344 56.904s4.11 5.564 16.755 4.679c0 0-1.454-7.903-7.587-8.662 0-.044-7.018-.866-9.168 3.983z" class="C"/><g class="B"><path d="M60.837 143.035c-.19.316 10.496-46.471 7.334-45.776-.316.063-5.88.569-6.702 2.276-2.403 4.869-4.11 43.184-4.11 43.184l3.477.316z"/><path d="M57.362 142.718s-1.707 7.967 4.805 8.852a.95.95 0 0 0 1.012-.632v-.063a.95.95 0 0 0-.04-.664c-.093-.209-.258-.378-.466-.474-1.075-.506-2.719-1.644-1.897-4.426 0 0 .948-.127 1.454 1.644a.73.73 0 0 0 .158.292c.074.085.167.151.271.193s.216.061.328.054.221-.041.318-.097c.146-.057.266-.166.336-.306s.086-.302.044-.453c-.126-1.201-.759-4.173-3.161-4.994l-3.161 1.074z"/></g><path d="M59.574 110.787l6.196 8.536c.063-.127 2.15-12.203 2.15-12.203l-7.448-3.224-.898 6.891z" class="D"/><path d="M76.712 82.72c.253 0-15.238.253-18.083 19.853l8.915 1.391 1.77 14.732h24.848l4.932-27.251s-3.477-5.88-13.72-8.788l-8.662.063z" fill="url(#K)"/><path d="M69.121 85.121s2.213 2.908 11.128 2.908 11.128-3.035 11.128-3.035a38.74 38.74 0 0 0-11.318-3.857c-3.837.729-7.531 2.074-10.938 3.983z" class="B"/><g fill="#ba9704"><path d="M99.594 147.019v39.01h19.284l1.517-39.01H99.594zm41.856 0v39.01h-19.284l-1.518-39.01h20.802z"/><path d="M130.893 147.019h-19.916v13.53h19.916v-13.53z"/></g><path d="M153.211 113.005c1.202 13.214-1.454 19.221-1.138 43.5l-10.116 4.109-1.707-45.523 12.961-2.086z" class="B"/><path d="M142.148 123.29s7.145-.632 12.013-3.857l-.126-2.845-11.887 1.644v5.058z" class="D"/><path d="M130.703 82.592s22.635 5.69 26.745 34.459c0 0-11.065 4.805-22.193 2.718l2.529-9.61-7.081-27.567z" fill="#010200"/><g class="B"><path d="M63.056 94.546l16.882 19.916-5.185 14.542s-12.835-17.83-18.589-31.613l6.892-2.845z"/><path d="M63.636 95.24s-5.943 3.351-7.398 2.15c-2.655-2.086-4.805-9.863-4.805-9.863l10.938-3.983c-.126.19 1.265 11.697 1.265 11.697z"/><path d="M63.633 95.24c-.126-.569 2.213-7.018 2.972-9.421a1.05 1.05 0 0 0-.115-.847 1.05 1.05 0 0 0-.707-.481 1.3 1.3 0 0 0-1.391.569l-2.782 4.742 2.023 5.438z"/><path d="M63.372 88.284L61.475 78.8a1.21 1.21 0 0 0-1.391-.949 1 1 0 0 0-.822 1.138l.822 7.081 3.288 2.213zm-3.73-3.475l-2.592-6.765c-.048-.142-.124-.273-.224-.386a1.13 1.13 0 0 0-.356-.269 1.12 1.12 0 0 0-.433-.109c-.15-.007-.3.016-.441.068-.243.08-.448.247-.576.468a1.04 1.04 0 0 0-.119.733l1.897 7.84 2.845-1.581zm-2.849 2.023l-3.275-6.639c-.144-.293-.393-.521-.698-.638a1.3 1.3 0 0 0-.946.006 1.14 1.14 0 0 0-.569 1.518l2.592 6.259 2.896-.506zm-5.435.697l-2.592-4.046a.91.91 0 0 1 .443-1.201c.221-.1.471-.117.703-.047s.432.221.561.426l3.351 4.679-2.466.19z"/><path d="M62.865 87.592s-3.857-.379-4.236 4.742l4.236-4.742z"/></g><g clip-path="url(#V)" class="B"><path d="M143.534 170.605l-3.288-25.86 12.266-9.357s1.012 21.939-1.644 36.608l-7.334-1.391z"/><path d="M143.473 169.655s6.766.443 7.398 2.276c1.075 3.225-1.328 10.875-1.328 10.875l-11.381-2.592c.19-.063 5.311-10.559 5.311-10.559z"/><path d="M143.472 169.655c-.253.569-5.69 4.679-7.65 6.26-.119.094-.215.215-.281.352a1.02 1.02 0 0 0-.1.438c0 .152.035.302.1.439a1.01 1.01 0 0 0 .281.351c.172.21.413.35.68.396a1.13 1.13 0 0 0 .774-.143l4.931-2.466 1.265-5.627z"/><path d="M139.866 175.603l-3.54 8.978c-.118.285-.117.605.002.889a1.16 1.16 0 0 0 .63.628c.244.098.516.1.762.006a1.05 1.05 0 0 0 .566-.512l3.161-6.386-1.581-3.603zm1.267 5.055l-1.518 7.082c-.066.293-.018.6.134.859a1.18 1.18 0 0 0 .688.532c.243.065.502.036.725-.081a.99.99 0 0 0 .476-.552l2.656-7.587-3.161-.253zm3.425-.19l-.886 7.397c-.037.334.053.669.252.939s.494.454.823.515c.15.027.303.023.451-.011s.288-.096.412-.185a1.15 1.15 0 0 0 .308-.329c.08-.129.133-.273.157-.423l1.265-6.702-2.782-1.201z"/><path d="M149.542 182.81l-.063 4.805c-.016.123-.057.241-.121.347a.89.89 0 0 1-.954.412 1.03 1.03 0 0 1-.632-.341c-.163-.186-.253-.424-.253-.671l-.253-5.754 2.276 1.202zm-9.675-6.326s3.035 2.466 6.133-1.644l-6.133 1.644z"/></g><path d="M71.332 122.173s3.161 11.001 9.484 9.547 16.186-14.985 16.186-14.985l-2.213-23.077-17.767 21.876-5.69 6.639z" class="B"/><path d="M82.527 108.749s6.007 9.042 11.128 12.203l3.351-4.236-12.898-9.99-1.581 2.023z" class="D"/><g fill="#010200"><path d="M108.763 82.088s-17.577 3.983-26.935 24.405c0 0 5.69 8.536 14.732 12.329l6.07-7.46 6.133-29.274z"/><path d="M108.761 82.024a43.81 43.81 0 0 0-11.191 8.219l1.328 59.749h43.31l-.126-59.433s-5.438-5.311-11.381-7.966c-5.058-2.213-17.071-3.098-21.94-.569z"/></g><g class="C"><path d="M109.271 60.21l-1.834-8.915c-.247-.951-.268-1.947-.063-2.908.569-1.77 2.655-5.121 6.259-3.541l.759 3.541s-3.73.759-5.248 5.627l.127 6.196z"/><path d="M113.442 46.679c-.063 1.201-1.075 6.323-4.742 8.156 0 0-3.224-6.828 4.742-8.156z"/></g><path d="M126.228 80.382V65.207h-13.973v15.174l-4.173 1.897s.948 6.259 11.318 6.449 11.38-6.133 11.38-6.133l-4.552-2.213z" class="B"/><path d="M113.695 44.783s2.593-6.765 10.496-3.161c4.805 2.15 6.133 5.121 6.702 7.145.186.786.25 1.597.19 2.403l-1.897 8.978-7.461-12.456-7.208.569-.822-3.477z" class="C"/><g class="B"><path d="M129.122 60.21a2.33 2.33 0 0 1 1.315-.912c.533-.139 1.097-.085 1.593.153 1.96.759 1.075 5.438-1.833 6.07a2.1 2.1 0 0 1-1.834-.506c-.063 0 .696-3.477.759-4.805z"/><path d="M131.649 61.096s-1.644-.569-2.782 1.834l2.782-1.834zm-22.379-.886a2.33 2.33 0 0 0-1.315-.912c-.533-.139-1.097-.085-1.593.153-1.96.759-1.075 5.438 1.833 6.07.324.066.659.055.977-.033a2.11 2.11 0 0 0 .857-.473c.063 0-.633-3.477-.759-4.805z"/><path d="M106.742 61.096s1.644-.569 2.782 1.834l-2.782-1.834z"/><path d="M129.391 55.718c0 2.845-.253 8.788-2.023 12.329-1.644 3.288-4.363 5.121-7.904 5.185s-6.196-1.264-8.346-5.564-2.023-11.887-2.023-11.887 0-10.179 10.053-10.179c10.546 0 10.243 10.116 10.243 10.116z"/></g><path d="M112.316 69.821s1.202 5.943 6.323 6.639c5.943.759 7.524-6.449 7.524-6.449s-2.656 3.288-6.765 3.288c-1.365-.013-2.71-.332-3.936-.934s-2.3-1.471-3.146-2.543z" class="D"/><path d="M118.498 59.957v2.339a.58.58 0 0 0 .064.316.77.77 0 0 0 .885.443l.758-.19" class="F G H J"/><g class="E"><path d="M115.532 58.8a.89.89 0 0 1-.149.492c-.097.146-.236.259-.397.326s-.34.084-.512.05a.88.88 0 0 1-.695-.695c-.034-.172-.017-.35.05-.511a.89.89 0 0 1 .818-.547c.233.005.455.1.62.265s.26.387.265.62zm8.531 0a.89.89 0 0 1-.149.492.88.88 0 0 1-.397.326.89.89 0 0 1-.965-.192.88.88 0 0 1-.242-.453c-.034-.172-.017-.35.05-.511a.89.89 0 0 1 .818-.546.87.87 0 0 1 .342.062c.108.043.207.109.29.191a.84.84 0 0 1 .191.29.85.85 0 0 1 .062.342zm-3.223-4.532l6.133 1.581s-.253-1.707-2.782-2.339-3.351.759-3.351.759zm-3.859.001l-6.133 1.581s.253-1.707 2.782-2.339 3.351.759 3.351.759z"/></g><path d="M115.781 64.638s.885.695 3.288.695a8.58 8.58 0 0 0 3.541-.695" class="F G H J"/><g stroke="#160e07" stroke-width="1.233" class="K"><path d="M114.326 62.925c2.13 0 3.856-1.727 3.856-3.857s-1.726-3.857-3.856-3.857a3.86 3.86 0 0 0-3.857 3.857 3.86 3.86 0 0 0 3.857 3.857zm9.546 0a3.86 3.86 0 0 0 3.857-3.857 3.86 3.86 0 0 0-3.857-3.857c-2.13 0-3.856 1.727-3.856 3.857s1.726 3.857 3.856 3.857z"/><path d="M118.246 59.068a1.26 1.26 0 0 1 .885-.361c.331 0 .649.13.885.361m-9.548.001h-1.327m18.652 0h1.454"/></g><path d="M112.316 46.87s1.897 5.311 10.306 5.121c5.691-.126 7.082 4.047 7.082 4.047s-1.012-9.231-1.265-9.168-8.725-2.276-8.725-2.276l-7.398 2.276z" class="C"/><g stroke-width=".632" class="K"><path d="M75.959 69.399c1.781 0 3.225-1.444 3.225-3.224s-1.444-3.225-3.225-3.225-3.225 1.444-3.225 3.225 1.444 3.224 3.225 3.224z" stroke="url(#L)"/><path d="M83.846 69.374c1.781 0 3.225-1.444 3.225-3.225s-1.444-3.225-3.225-3.225-3.225 1.444-3.225 3.225 1.444 3.225 3.225 3.225z" stroke="url(#M)"/><path d="M79.176 66.156a1.05 1.05 0 0 1 1.454 0" stroke="url(#N)"/><path d="M72.789 66.156h-1.012" stroke="url(#O)"/><path d="M87.016 66.156h1.075" stroke="url(#O)"/></g><path d="M88.529 182.932c-2.536-5.341-3.83-11.187-3.786-17.1a39.2 39.2 0 0 1 4.039-17.042c7.018 3.604 11.001 11.634 11.381 19.474.253 5.753-1.138 11.38-3.351 16.628-2.908 7.018-5.564 3.604-8.283-1.96z" fill="#70ae93"/><path d="M95.613 173.238c1.264-5.627 2.656-11.38 6.07-15.996 2.149-2.971 5.058-5.311 7.966-7.587l9.295-7.461c1.264 8.978.316 18.399-3.541 26.619a36.48 36.48 0 0 1-13.594 15.427c-2.276 1.391-5.943 4.236-7.903 1.517-1.707-2.402 1.138-9.989 1.707-12.519z" fill="#81baa4"/><path d="M206.446 55.009c4.11 2.023 5.438 7.145 3.098 11.381s-7.65 6.07-11.697 4.046-5.437-7.145-3.098-11.381 7.587-6.051 11.697-4.047z" fill="url(#P)"/><path d="M195.45 52.054a1.83 1.83 0 0 1 .912 1.145 1.84 1.84 0 0 1 .043.746c-.038.249-.126.488-.259.701-.113.236-.272.446-.468.618a1.95 1.95 0 0 1-1.442.481 1.95 1.95 0 0 1-.746-.214 1.84 1.84 0 0 1-.575-.477c-.157-.197-.271-.424-.337-.667a1.84 1.84 0 0 1-.042-.746 1.82 1.82 0 0 1 .259-.701 2.15 2.15 0 0 1 2.655-.885z" fill="url(#Q)"/><path d="M85.497 189.571a6.67 6.67 0 0 1-.865 2.492c-.451.765-1.051 1.432-1.764 1.962a6.68 6.68 0 0 1-2.386 1.125c-.862.212-1.758.25-2.636.112-1.809-.217-3.463-1.131-4.608-2.548s-1.693-3.225-1.525-5.04a6.67 6.67 0 0 1 .865-2.492c.451-.764 1.051-1.431 1.764-1.961s1.524-.913 2.386-1.125a6.65 6.65 0 0 1 2.636-.112 7.12 7.12 0 0 1 6.133 7.587z" fill="url(#R)"/><path d="M84.736 180.467c-.029.195-.096.383-.197.552a1.5 1.5 0 0 1-.394.435c-.159.117-.339.202-.531.25s-.391.057-.586.027c-.407-.051-.779-.256-1.038-.574s-.385-.724-.353-1.133c.029-.195.096-.383.197-.552a1.5 1.5 0 0 1 .394-.435c.159-.117.339-.202.531-.25s.391-.057.586-.027a1.53 1.53 0 0 1 .582.176 1.55 1.55 0 0 1 .469.387c.129.159.226.342.284.538a1.55 1.55 0 0 1 .055.606z" fill="url(#S)"/><path d="M56.857 174.459c3.73 1.265 7.777 1.834 11.128 3.731a5.37 5.37 0 0 1 1.834 1.517 3.57 3.57 0 0 1 .391 2.224c-.114.764-.473 1.47-1.023 2.012a8.85 8.85 0 0 1-4.11 2.15c-6.713 1.983-13.916 1.489-20.296-1.391-6.347-2.828-11.339-8.023-13.91-14.479a11.89 11.89 0 0 1-.885-6.069 6.02 6.02 0 0 1 3.541-4.742c3.477-1.328 6.386 1.327 8.219 3.856a31.21 31.21 0 0 0 8.852 8.157 28.62 28.62 0 0 0 6.259 3.034z" fill="url(#T)"/></g><defs><linearGradient id="A" x1="203.761" y1="65.285" x2="203.761" y2="80.459" xlink:href="#W"><stop stop-color="#fff"/><stop offset="1" stop-color="#fff" stop-opacity="0"/></linearGradient><linearGradient id="B" x1="4636.52" y1="3163.96" x2="4636.52" y2="3026.36" xlink:href="#W"><stop stop-color="#fff"/><stop offset="1" stop-color="#fff" stop-opacity="0"/></linearGradient><linearGradient id="C" x1=".406" y1="50.727" x2="172.262" y2="50.727" xlink:href="#W"><stop stop-color="#1fa81b"/><stop offset=".99" stop-color="#4bd643"/></linearGradient><linearGradient id="D" x1="11219.3" y1="4129.29" x2="18898.4" y2="4129.29" xlink:href="#W"><stop stop-color="#1fa81b"/><stop offset=".99" stop-color="#4bd643"/></linearGradient><linearGradient id="E" x1="11394.7" y1="11769.6" x2="13483.7" y2="11769.6" xlink:href="#W"><stop stop-color="#1fa81b"/><stop offset=".99" stop-color="#4bd643"/></linearGradient><linearGradient id="F" x1="868.096" y1="1505.34" x2="2956.79" y2="1505.34" xlink:href="#W"><stop stop-color="#1fa81b"/><stop offset=".99" stop-color="#4bd643"/></linearGradient><linearGradient id="G" x1="14427.6" y1="2242.09" x2="18521.8" y2="2242.09" xlink:href="#W"><stop stop-color="#1fa81b"/><stop offset=".99" stop-color="#4bd643"/></linearGradient><linearGradient id="H" x1="199.634" y1="3084.09" x2="1633.9" y2="3084.09" xlink:href="#W"><stop stop-color="#1fa81b"/><stop offset=".99" stop-color="#4bd643"/></linearGradient><linearGradient id="I" x1="2461.85" y1="255.872" x2="2581.73" y2="255.872" xlink:href="#W"><stop stop-color="#1fa81b"/><stop offset=".99" stop-color="#4bd643"/></linearGradient><linearGradient id="J" x1="18371.8" y1="24797.6" x2="55583.5" y2="24797.6" xlink:href="#W"><stop stop-color="#1fa81b"/><stop offset=".99" stop-color="#4bd643"/></linearGradient><linearGradient id="K" x1="3784.63" y1="6646.08" x2="6374.38" y2="6646.08" xlink:href="#W"><stop stop-color="#1fa81b"/><stop offset=".99" stop-color="#4bd643"/></linearGradient><linearGradient id="L" x1="-668.492" y1="745.703" x2="-617.484" y2="694.695" xlink:href="#W"><stop stop-color="#1fa81b"/><stop offset=".99" stop-color="#4bd643"/></linearGradient><linearGradient id="M" x1="-603.562" y1="688.676" x2="-552.599" y2="637.714" xlink:href="#W"><stop stop-color="#1fa81b"/><stop offset=".99" stop-color="#4bd643"/></linearGradient><linearGradient id="N" x1="259.846" y1="135.232" x2="264.223" y2="135.232" xlink:href="#W"><stop stop-color="#1fa81b"/><stop offset=".99" stop-color="#4bd643"/></linearGradient><linearGradient id="O" x1="-nan" y1="-nan" x2="-nan" y2="-nan" xlink:href="#W"><stop stop-color="#1fa81b"/><stop offset=".99" stop-color="#4bd643"/></linearGradient><linearGradient id="P" x1="5411.41" y1="4186.66" x2="5874.13" y2="4186.66" xlink:href="#W"><stop stop-color="#1fa81b"/><stop offset=".99" stop-color="#4bd643"/></linearGradient><linearGradient id="Q" x1="1380.43" y1="1040.13" x2="1404.24" y2="1040.13" xlink:href="#W"><stop stop-color="#1fa81b"/><stop offset=".99" stop-color="#4bd643"/></linearGradient><linearGradient id="R" x1="1629.57" y1="760.13" x2="1933.62" y2="760.13" xlink:href="#W"><stop stop-color="#1fa81b"/><stop offset=".99" stop-color="#4bd643"/></linearGradient><linearGradient id="S" x1="481.423" y1="347.859" x2="496.827" y2="347.859" xlink:href="#W"><stop stop-color="#1fa81b"/><stop offset=".99" stop-color="#4bd643"/></linearGradient><linearGradient id="T" x1="1910.66" y1="2063.58" x2="4486.92" y2="2063.58" xlink:href="#W"><stop stop-color="#1fa81b"/><stop offset=".99" stop-color="#4bd643"/></linearGradient><clipPath id="U"><path fill="#fff" transform="translate(.406)" d="M0 0h231.187v216.253H0z"/></clipPath><clipPath id="V"><path fill="#fff" transform="translate(135.711 135.303)" d="M0 0h17.071v50.581H0z"/></clipPath><linearGradient id="W" gradientUnits="userSpaceOnUse"/></defs></svg>