<svg width="355" height="250" viewBox="0 0 355 250" fill="none" xmlns="http://www.w3.org/2000/svg">
<path d="M198.57 52.793H219.955C223.7 52.7901 227.293 54.2858 229.943 56.9506C232.592 59.6153 234.081 63.2308 234.081 67.0007V105.176" stroke="#9B9B9B" stroke-width="0.63961" stroke-dasharray="3.2"/>
<path d="M69.9424 97.1074H93.1147C96.3131 97.1074 98.9059 99.6995 98.9059 102.897V126.997C98.9059 130.194 101.499 132.786 104.697 132.786H347.164C350.939 132.786 354 135.846 354 139.621V156.474C354 158.287 353.28 160.025 351.998 161.307C350.716 162.588 348.977 163.309 347.164 163.309H282.489" stroke="#9B9B9B" stroke-width="0.63961" stroke-dasharray="3.2"/>
<path d="M63.8611 55.68V35.0332C63.8611 29.4305 68.4029 24.8887 74.0056 24.8887H283.784C284.894 24.8887 285.958 25.3299 286.742 26.115C287.526 26.9002 287.966 27.9649 287.965 29.0746V46.4538C287.966 47.563 287.526 48.6272 286.742 49.4115C285.957 50.1959 284.893 50.6359 283.784 50.6344H259.181" stroke="#9B9B9B" stroke-width="0.63961" stroke-dasharray="3.2"/>
<circle cx="33.9041" cy="91.2772" r="33.9041" fill="#D8D8D8"/>
<mask id="mask0" mask-type="alpha" maskUnits="userSpaceOnUse" x="0" y="57" width="68" height="69">
<circle cx="33.9041" cy="91.2772" r="33.9041" fill="white"/>
</mask>
<g mask="url(#mask0)">
<path fill-rule="evenodd" clip-rule="evenodd" d="M6.77776 71.7782C6.66481 71.7789 6.55624 71.7345 6.47604 71.6548C6.39559 71.5749 6.35034 71.4661 6.35034 71.3526C6.35034 71.2391 6.39559 71.1303 6.47604 71.0504L9.92671 67.5986C10.0065 67.518 10.1151 67.4727 10.2284 67.4727C10.3417 67.4727 10.4504 67.518 10.5302 67.5986C10.6949 67.7646 10.6949 68.0327 10.5302 68.1987L7.07949 71.6548C6.99929 71.7345 6.89072 71.7789 6.77776 71.7782Z" fill="#FF9E94"/>
<path fill-rule="evenodd" clip-rule="evenodd" d="M22.8014 64.5977C22.7536 64.5972 22.7062 64.5886 22.6612 64.5722L18.0547 62.9889C17.8413 62.9065 17.7313 62.6699 17.8057 62.4533C17.88 62.2368 18.1121 62.118 18.3309 62.1844L22.9417 63.7848C23.1415 63.8505 23.2633 64.0526 23.2282 64.2602C23.1931 64.4679 23.0117 64.6186 22.8014 64.6148V64.5977Z" fill="#FF9E94"/>
<path fill-rule="evenodd" clip-rule="evenodd" d="M63.3599 74.2283C63.1965 74.2279 63.0478 74.1335 62.9775 73.9857C62.9282 73.8831 62.9221 73.765 62.9604 73.6579C62.9988 73.5507 63.0784 73.4634 63.1815 73.4154L65.9267 72.1172C66.1381 72.0226 66.3863 72.1149 66.4848 72.3249C66.5832 72.5348 66.4957 72.7851 66.2879 72.8876L63.5427 74.1858C63.486 74.2143 63.4234 74.2289 63.3599 74.2283Z" fill="#FF9E94"/>
<path fill-rule="evenodd" clip-rule="evenodd" d="M17.3166 93.5404C17.2258 93.5414 17.1373 93.5114 17.0658 93.4553L14.2016 91.3527C14.0127 91.2128 13.9727 90.9461 14.1124 90.7568C14.252 90.5676 14.5184 90.5276 14.7073 90.6674L17.5673 92.77C17.6581 92.8371 17.7186 92.9377 17.7353 93.0494C17.7521 93.1612 17.7237 93.2751 17.6565 93.3659C17.5772 93.4747 17.4511 93.5394 17.3166 93.5404Z" fill="#FF9E94"/>
<path fill-rule="evenodd" clip-rule="evenodd" d="M58.6459 82.7793C58.57 82.7806 58.4952 82.7615 58.4292 82.724L54.2178 80.2553C54.017 80.137 53.9488 79.8788 54.0648 79.6765C54.1216 79.5787 54.2149 79.5076 54.3242 79.4788C54.4334 79.4501 54.5496 79.4661 54.647 79.5233L58.8584 81.9876C59.0223 82.085 59.1014 82.2798 59.052 82.4642C59.0025 82.6485 58.8365 82.7773 58.6459 82.7793Z" fill="#FF9E94"/>
<path fill-rule="evenodd" clip-rule="evenodd" d="M49.6601 110.286C49.5263 110.286 49.4004 110.223 49.3201 110.116C49.1793 109.927 49.2174 109.661 49.4051 109.52L53.3105 106.587C53.4982 106.446 53.7646 106.484 53.9054 106.672C54.0463 106.86 54.0082 107.127 53.8204 107.268L49.9151 110.201C49.8415 110.256 49.752 110.286 49.6601 110.286Z" fill="#FF9E94"/>
<path fill-rule="evenodd" clip-rule="evenodd" d="M7.24471 104.661C7.12265 104.661 7.00655 104.608 6.92599 104.516C6.77131 104.34 6.78843 104.071 6.96423 103.916L9.47574 101.686C9.58733 101.575 9.75087 101.535 9.90095 101.582C10.051 101.628 10.1632 101.754 10.1925 101.909C10.2218 102.063 10.1635 102.222 10.0409 102.32L7.52943 104.55C7.45149 104.621 7.35003 104.661 7.24471 104.661Z" fill="#FF9E94"/>
<path fill-rule="evenodd" clip-rule="evenodd" d="M8.28052 80.3848L8.71823 81.8659L9.83587 80.7678L8.28052 80.3848Z" fill="#FF9E94"/>
<path fill-rule="evenodd" clip-rule="evenodd" d="M58.3978 60.0234L57.7349 61.4195L59.2987 61.3557L58.3978 60.0234Z" fill="#FF9E94"/>
<path fill-rule="evenodd" clip-rule="evenodd" d="M9.98478 56.252L8.99463 57.4352L10.5245 57.7672L9.98478 56.252Z" fill="#FF9E94"/>
<path fill-rule="evenodd" clip-rule="evenodd" d="M32.436 60.7305L33.1415 62.1095L34.0381 60.8199L32.436 60.7305Z" fill="#FF9E94"/>
<path fill-rule="evenodd" clip-rule="evenodd" d="M8.50034 89.9316L7.02148 90.37L8.11788 91.4937L8.50034 89.9316Z" fill="white"/>
<path fill-rule="evenodd" clip-rule="evenodd" d="M60.4067 92.9707L59.3188 94.0688L60.8147 94.5242L60.4067 92.9707Z" fill="white"/>
<path fill-rule="evenodd" clip-rule="evenodd" d="M18.3946 74.7845C18.3946 75.069 18.1644 75.2995 17.8804 75.2995C17.5964 75.2995 17.3662 75.069 17.3662 74.7845C17.3662 74.5001 17.5964 74.2695 17.8804 74.2695C18.0168 74.2695 18.1476 74.3238 18.244 74.4204C18.3404 74.517 18.3946 74.648 18.3946 74.7845Z" fill="white"/>
<path fill-rule="evenodd" clip-rule="evenodd" d="M47.544 63.3705C47.544 63.6549 47.3138 63.8855 47.0298 63.8855C46.7458 63.8855 46.5156 63.6549 46.5156 63.3705C46.5156 63.086 46.7458 62.8555 47.0298 62.8555C47.3138 62.8555 47.544 63.086 47.544 63.3705Z" fill="white"/>
<path fill-rule="evenodd" clip-rule="evenodd" d="M60.5809 106.546C60.5809 106.755 60.4556 106.942 60.2635 107.022C60.0713 107.102 59.8502 107.058 59.7031 106.91C59.5561 106.763 59.5121 106.542 59.5916 106.349C59.6712 106.157 59.8587 106.031 60.0667 106.031C60.3507 106.031 60.5809 106.262 60.5809 106.546Z" fill="white"/>
<path fill-rule="evenodd" clip-rule="evenodd" d="M24.3531 104.803L-3.94067 113.954V147.451H70.8521V113.954L46.0728 106.382" fill="#0A17A7"/>
<path fill-rule="evenodd" clip-rule="evenodd" d="M3.84145 124.904C24.2862 125.653 44.765 125.597 65.214 125.167C70.9935 125.048 76.7899 124.984 82.5651 124.678C82.7036 124.678 82.8158 124.566 82.8158 124.427C82.8158 124.288 82.7036 124.176 82.5651 124.176C72.3363 124.325 62.1118 124.746 51.8831 124.861C41.6543 124.976 31.4255 124.98 21.1968 124.887C15.4145 124.836 9.62939 124.777 3.84145 124.712C3.71821 124.712 3.71821 124.899 3.84145 124.904Z" fill="white"/>
<path fill-rule="evenodd" clip-rule="evenodd" d="M80.3366 122.402C60.1978 121.729 40.008 121.827 19.8607 121.925C14.1408 121.951 8.38683 121.832 2.67113 122.113C2.54439 122.113 2.44165 122.215 2.44165 122.342C2.44165 122.469 2.54439 122.572 2.67113 122.572C7.77064 122.721 12.8701 122.542 17.9697 122.513C22.9927 122.487 28.0157 122.471 33.0387 122.466C43.0791 122.449 53.1223 122.471 63.1683 122.534C68.8967 122.568 74.6422 122.623 80.3579 122.589C80.4095 122.589 80.4514 122.547 80.4514 122.496C80.4514 122.444 80.4095 122.402 80.3579 122.402H80.3366Z" fill="white"/>
<path fill-rule="evenodd" clip-rule="evenodd" d="M1.17493 119.554C21.8534 118.979 42.5277 120.277 63.2189 119.724C66.1483 119.647 69.0749 119.521 71.9986 119.345C74.7651 119.183 77.6591 119.137 80.3703 118.541C80.4161 118.527 80.4451 118.482 80.4388 118.434C80.4325 118.387 80.3927 118.351 80.3448 118.349C77.795 118.285 75.1815 118.647 72.6233 118.805C70.065 118.962 67.4728 119.077 64.8933 119.166C59.73 119.341 54.5625 119.388 49.3993 119.371C39.2003 119.332 29.0012 119.047 18.8022 119.013C12.9293 118.992 7.06486 119.073 1.20042 119.367C1.14879 119.367 1.10693 119.408 1.10693 119.46C1.10693 119.512 1.14879 119.554 1.20042 119.554H1.17493Z" fill="white"/>
<path fill-rule="evenodd" clip-rule="evenodd" d="M-0.0861354 116.347C4.71165 116.556 9.53493 116.436 14.3625 116.411L28.7898 116.343C38.4789 116.294 48.168 116.238 57.857 116.172L65.9312 116.126C68.685 116.126 71.4557 116.189 74.2052 115.981C74.3001 115.954 74.3655 115.867 74.3655 115.768C74.3655 115.669 74.3001 115.582 74.2052 115.555C69.4286 115.249 64.5671 115.517 59.7778 115.555L45.3292 115.645C35.6402 115.704 25.9511 115.768 16.262 115.836C10.8226 115.879 5.35759 115.789 -0.0733866 116.087C-0.150837 116.087 -0.213623 116.15 -0.213623 116.228C-0.213623 116.305 -0.150837 116.368 -0.0733866 116.368L-0.0861354 116.347Z" fill="white"/>
<path fill-rule="evenodd" clip-rule="evenodd" d="M72.2805 113.098C62.9867 111.885 53.5824 112.281 44.2333 112.481C34.7567 112.679 25.2801 112.899 15.8035 113.14C10.4363 113.272 5.03928 113.238 -0.319454 113.608C-0.414326 113.636 -0.479736 113.722 -0.479736 113.821C-0.479736 113.92 -0.414326 114.007 -0.319454 114.034C4.41459 114.132 9.16563 113.877 13.8954 113.762C18.6252 113.647 23.372 113.532 28.1103 113.408C37.5444 113.162 46.987 112.8 56.4296 112.685C61.7206 112.563 67.0139 112.785 72.2763 113.349C72.4463 113.37 72.4463 113.102 72.2763 113.081L72.2805 113.098Z" fill="white"/>
<path fill-rule="evenodd" clip-rule="evenodd" d="M67.1555 110.761C51.1728 109.995 35.0881 109.723 19.0883 109.991C14.894 110.063 10.5297 110.259 6.53931 111.694C6.47175 111.713 6.41944 111.766 6.4021 111.834C6.38475 111.903 6.405 111.975 6.45522 112.024C6.50543 112.073 6.57798 112.091 6.64555 112.072C14.2948 110.246 22.1098 110.536 29.8951 110.544C37.8276 110.544 45.7602 110.634 53.6928 110.813C58.1846 110.906 62.6721 111.013 67.164 111.098C67.242 111.085 67.2993 111.017 67.2993 110.938C67.2993 110.859 67.242 110.791 67.164 110.779L67.1555 110.761Z" fill="white"/>
<path fill-rule="evenodd" clip-rule="evenodd" d="M47.7613 84.138C47.6528 83.8095 47.682 83.4511 47.8422 83.1446C48.0024 82.8381 48.2799 82.6099 48.6112 82.5121C49.303 82.3574 50.0229 82.6059 50.4726 83.1548C50.9079 83.7003 51.1791 84.3588 51.2545 85.0531C51.4777 86.167 51.2889 87.3243 50.7233 88.3091C50.1298 89.3006 48.9783 89.8116 47.8463 89.586" fill="#D8A695"/>
<path fill-rule="evenodd" clip-rule="evenodd" d="M44.6062 72.4838C44.6062 72.4838 52.9439 94.4036 50.4494 96.8978C47.9549 99.392 35.3251 101.375 33.7783 99.8261C32.2314 98.2768 29.057 94.2291 27.9351 92.0797C26.2905 88.9215 23.983 81.405 26.044 77.9616C28.1051 74.5183 41.5295 69.398 44.6062 72.4838Z" fill="#D8A695"/>
<path fill-rule="evenodd" clip-rule="evenodd" d="M37.6563 81.0236C35.41 80.5615 33.0741 81.0972 31.2522 82.492L31.6134 83.3645C33.6122 82.5901 35.7385 82.1989 37.8816 82.2111C37.7747 81.822 37.6993 81.4248 37.6563 81.0236Z" fill="black"/>
<path fill-rule="evenodd" clip-rule="evenodd" d="M46.6847 78.6554C45.1833 78.3755 43.6798 79.1328 43.0088 80.5068L43.54 81.2602C44.3148 80.3779 45.391 79.8177 46.5572 79.6896L46.6847 78.6554Z" fill="black"/>
<path fill-rule="evenodd" clip-rule="evenodd" d="M39.6796 85.0481C39.6408 85.3986 39.332 85.6555 38.9809 85.6295C38.6298 85.6034 38.3621 85.3038 38.3752 84.9514C38.3883 84.5991 38.6774 84.3202 39.0295 84.3203C39.2121 84.3302 39.3834 84.4125 39.5054 84.5491C39.6274 84.6856 39.6901 84.8652 39.6796 85.0481Z" fill="black"/>
<ellipse cx="46.0352" cy="82.6399" rx="0.650187" ry="0.727823" fill="black"/>
<path fill-rule="evenodd" clip-rule="evenodd" d="M49.2596 87.1552L48.2014 82.8691L49.2596 87.1552Z" fill="#FFD5C7"/>
<path d="M49.2596 87.1552L48.2014 82.8691" stroke="black" stroke-width="0.63961"/>
<path fill-rule="evenodd" clip-rule="evenodd" d="M45.81 97.4176L45.1258 109.454C45.1258 109.454 40.7105 113.953 38.131 113.953C33.1463 113.953 26.3894 105.441 26.3894 105.441L29.8273 92.3867" fill="#D8A695"/>
<path fill-rule="evenodd" clip-rule="evenodd" d="M40.9197 89.6909C42.6705 89.095 44.2726 88.4863 46.1127 88.2607C46.5749 88.2229 47.0297 88.1212 47.4641 87.9586C48.3095 87.5835 48.8821 86.7749 48.9557 85.8517C50.9317 86.9881 52.2661 89.7121 53.133 91.7509C54.1104 94.0408 54.6459 96.9818 52.929 99.0717C50.6555 101.843 45.777 101.74 42.5855 102.434C39.7851 103.039 36.7721 103.519 34.1331 102.409C31.2731 101.204 30.8609 98.9525 28.8934 96.9435C29.0209 97.6799 28.0774 98.2204 27.355 98.0246C26.6326 97.8288 26.1439 97.1734 25.7062 96.5775C24.8622 95.4581 24.0805 94.293 23.3646 93.0874C21.5501 89.8952 20.7044 86.2092 20.5047 82.5403C20.4049 81.7975 20.5184 81.0416 20.8319 80.3611C21.1336 79.8376 21.6818 79.4545 21.8943 78.8969C22.1068 78.3394 22.0218 77.6201 22.043 76.9646C22.1512 75.763 22.5846 74.6136 23.2967 73.6405C27.1213 67.754 33.6189 65.5323 40.295 66.1154C44.4341 66.4729 48.6455 68.4606 50.664 72.0954C51.0917 72.7671 51.2997 73.5556 51.259 74.3513C51.021 76.3006 48.6752 77.1008 46.7459 77.4711C43.3802 78.1223 39.989 78.7778 36.5469 78.8246C33.5212 78.8629 30.521 78.582 28.0987 80.7655C28.0068 80.8392 27.9303 80.9303 27.8735 81.0336C27.8262 81.1496 27.8045 81.2745 27.8097 81.3996C27.7715 83.3107 28.5534 85.1281 29.2843 86.8945C29.5809 87.7268 29.9975 88.5112 30.521 89.2227C31.6004 90.5464 33.3512 90.8188 34.9745 90.8954C37.0356 90.9975 39.0244 90.3335 40.9197 89.6909Z" fill="black"/>
<path fill-rule="evenodd" clip-rule="evenodd" d="M27.7068 81.0807C29.4449 79.8421 31.8034 79.7485 33.8645 79.6804C35.8405 79.6165 37.8208 79.6804 39.7884 79.4803C42.4019 79.1994 46.5368 78.246 47.5439 75.4113C47.5864 75.2922 47.3909 75.207 47.3399 75.322C46.5495 77.0968 44.3142 78.1226 42.5506 78.6376C40.8152 79.0924 39.0282 79.3199 37.2344 79.3143C34.2002 79.391 30.1843 78.9781 27.6473 81.0169C27.6048 81.0509 27.6473 81.1233 27.7068 81.0935V81.0807Z" fill="black"/>
<path fill-rule="evenodd" clip-rule="evenodd" d="M49.9121 86.7081C51.8417 87.9165 53.2163 89.8394 53.7368 92.0583C54.2382 94.0885 54.3955 96.8381 52.6106 98.2894C52.4874 98.3916 52.6446 98.5916 52.7806 98.5108C54.6972 97.3233 54.5357 94.446 54.1362 92.5222C53.6831 90.0296 52.1544 87.8644 49.9589 86.606C49.9406 86.592 49.9159 86.5898 49.8954 86.6004C49.875 86.611 49.8625 86.6325 49.8633 86.6555C49.8642 86.6786 49.8782 86.6991 49.8994 86.7081H49.9121Z" fill="black"/>
<path fill-rule="evenodd" clip-rule="evenodd" d="M40.4013 92.8778L48.246 91.4349C48.3768 91.4079 48.5058 91.4884 48.5392 91.6179C48.8027 92.55 49.5591 96.1125 45.9895 96.6956C42.0161 97.3511 40.5543 94.3419 40.1718 93.2906C40.1402 93.2054 40.1474 93.1106 40.1915 93.0312C40.2357 92.9518 40.3123 92.8957 40.4013 92.8778Z" fill="white"/>
<path fill-rule="evenodd" clip-rule="evenodd" d="M31.1784 93.4733C29.8653 91.094 27.6215 87.5145 25.705 89.1574C25.3836 89.4686 25.1655 89.8713 25.0803 90.3109C24.5682 92.6503 25.8292 95.0156 28.055 95.8908C29.4659 96.4016 31.2507 96.21 31.3314 94.3841C31.3303 94.0742 31.2786 93.7665 31.1784 93.4733Z" fill="#D8A695"/>
<path fill-rule="evenodd" clip-rule="evenodd" d="M26.3626 91.7926C26.3626 91.7926 26.0311 90.2773 26.7876 90.2773C27.4992 90.3299 28.1079 90.8098 28.3259 91.4904C28.4109 91.716 27.6332 92.5161 28.2664 92.8481C28.8996 93.1801 29.2311 93.0907 29.656 93.5164C30.081 93.942 30.2595 95.0273 29.3543 95.0273" fill="#FFD5C7"/>
<path d="M26.3626 91.7926C26.3626 91.7926 26.0311 90.2773 26.7876 90.2773C27.4992 90.3299 28.1079 90.8098 28.3259 91.4904C28.4109 91.716 27.6332 92.5161 28.2664 92.8481C28.8996 93.1801 29.2311 93.0907 29.656 93.5164C30.081 93.942 30.2595 95.0273 29.3543 95.0273" stroke="black" stroke-width="0.63961"/>
<path fill-rule="evenodd" clip-rule="evenodd" d="M42.386 81.3945C42.386 81.3945 46.6781 85.5401 46.4953 87.6768C46.3509 89.3793 42.386 88.8175 42.386 88.8175" fill="#D8A695"/>
<path d="M42.386 81.3945C42.386 81.3945 46.6781 85.5401 46.4953 87.6768C46.3509 89.3793 42.386 88.8175 42.386 88.8175" stroke="black" stroke-width="0.63961"/>
<path d="M39.1248 135.772C39.1248 135.772 39.9747 122.752 38.1304 113.963" stroke="#01053F" stroke-width="0.63961"/>
<path fill-rule="evenodd" clip-rule="evenodd" d="M27.6552 100.648C27.6552 100.648 34.3058 112.677 38.1304 113.954C35.7931 117.333 32.8184 122.466 31.3311 122.466C28.7813 122.466 22.5557 105.318 22.5557 105.318L27.6552 100.648Z" fill="white"/>
<path fill-rule="evenodd" clip-rule="evenodd" d="M38.1304 113.952C43.4424 111.1 45.5587 103.516 45.5587 103.516L48.1084 107.185C48.1084 107.185 46.4086 120.975 44.2838 120.975C43.0174 120.975 38.1304 113.952 38.1304 113.952Z" fill="white"/>
<path fill-rule="evenodd" clip-rule="evenodd" d="M38.0882 116.47C38.0882 116.757 37.8561 116.99 37.5697 116.99C37.2834 116.99 37.0513 116.757 37.0513 116.47C37.0513 116.184 37.2834 115.951 37.5697 115.951C37.7072 115.951 37.8391 116.006 37.9363 116.103C38.0335 116.201 38.0882 116.333 38.0882 116.47Z" fill="#01053F"/>
<path fill-rule="evenodd" clip-rule="evenodd" d="M38.1338 125.131C38.1338 125.417 37.9017 125.65 37.6154 125.65C37.329 125.65 37.0969 125.417 37.0969 125.131C37.0969 124.844 37.329 124.611 37.6154 124.611C37.9017 124.611 38.1338 124.844 38.1338 125.131Z" fill="#01053F"/>
<path fill-rule="evenodd" clip-rule="evenodd" d="M20.9824 81.8385C20.4385 85.9288 20.8422 90.1808 22.7375 93.8923C23.7022 95.7863 25.844 99.2339 28.4192 97.8463C28.551 97.774 28.4575 97.5399 28.313 97.5995C25.589 98.6465 23.6639 95.0883 22.7205 93.058C21.0972 89.5636 20.8167 85.6351 21.1609 81.8385C21.1609 81.7236 20.9952 81.7278 20.9824 81.8385Z" fill="black"/>
</g>
<path fill-rule="evenodd" clip-rule="evenodd" d="M63.0059 125.975H81.5277C82.9861 125.979 84.3863 125.403 85.4191 124.373C86.4519 123.343 87.0324 121.945 87.0324 120.486V114.143C87.0324 111.112 84.575 108.654 81.5437 108.654H60.6513L57.5278 105.648V120.481C57.5278 123.509 59.9778 125.966 63.0059 125.975Z" fill="#FFFCFA" stroke="#FF796D" stroke-width="0.63961"/>
<path fill-rule="evenodd" clip-rule="evenodd" d="M64.0747 117.666C64.05 117.361 64.1568 117.061 64.3681 116.841C64.5793 116.62 64.8748 116.501 65.1799 116.513C65.4785 116.512 65.764 116.636 65.9669 116.855C66.1698 117.074 66.2716 117.368 66.2477 117.666C66.2745 117.974 66.1663 118.278 65.9512 118.501C65.7362 118.723 65.4353 118.841 65.1265 118.824C64.8296 118.821 64.5476 118.694 64.348 118.474C64.1485 118.255 64.0494 117.962 64.0747 117.666Z" fill="#FF9E94"/>
<path fill-rule="evenodd" clip-rule="evenodd" d="M71.1897 117.666C71.1652 117.362 71.2712 117.063 71.4813 116.843C71.6913 116.622 71.9854 116.502 72.2896 116.512C72.5882 116.511 72.8736 116.636 73.0765 116.855C73.2794 117.074 73.3813 117.368 73.3574 117.666C73.3841 117.974 73.276 118.278 73.0609 118.5C72.8458 118.723 72.545 118.841 72.2362 118.824C71.9402 118.819 71.6596 118.692 71.4612 118.472C71.2628 118.253 71.1645 117.96 71.1897 117.666Z" fill="#FF9E94"/>
<path fill-rule="evenodd" clip-rule="evenodd" d="M78.3098 117.666C78.2851 117.361 78.3919 117.061 78.6032 116.841C78.8144 116.62 79.1099 116.501 79.415 116.513C79.7137 116.512 79.9991 116.636 80.202 116.855C80.4049 117.074 80.5067 117.368 80.4828 117.666C80.5096 117.974 80.4014 118.278 80.1864 118.501C79.9713 118.723 79.6704 118.841 79.3616 118.824C79.0647 118.821 78.7827 118.694 78.5831 118.474C78.3836 118.255 78.2845 117.962 78.3098 117.666Z" fill="#FF9E94"/>
<rect x="71.5413" y="102.326" width="213.899" height="146.791" rx="73.3953" fill="#AED5A8"/>
<mask id="mask1" mask-type="alpha" maskUnits="userSpaceOnUse" x="71" y="102" width="215" height="148">
<rect x="71.5413" y="102.326" width="213.899" height="146.791" rx="73.3953" fill="white"/>
</mask>
<g mask="url(#mask1)">
</g>
<path fill-rule="evenodd" clip-rule="evenodd" d="M207.665 129.767C210.973 131.764 213.497 134.83 214.82 138.457C216.118 142.067 216.246 146.748 218.541 149.815C220.329 152.22 222.971 153.637 225.544 155.182C228.118 156.727 230.865 158.197 231.453 161.159C232.359 165.681 228.155 170.068 228.978 174.62C229.846 179.467 235.514 181.472 239.242 184.682C242.815 187.771 244.762 192.332 244.519 197.046C244.275 201.759 241.869 206.096 237.996 208.801C234.834 211.01 230.985 211.937 227.235 212.788C214.48 215.698 201.575 218.283 188.542 219.105C175.508 219.926 162.195 218.961 149.766 214.899C147.924 214.399 146.191 213.56 144.656 212.427C143.301 211.184 142.157 209.731 141.268 208.123C138.815 204.196 136.317 200.164 135.404 195.634C134.491 191.104 135.487 185.896 139.049 182.949C141.253 181.125 144.687 179.874 146.339 177.326C148.913 173.339 145.298 169.638 144.43 165.711C143.487 161.43 147.102 158.581 149.917 156.117C153.048 153.373 154.143 150.652 155.154 146.665C159.277 130.543 175.381 120.522 191.689 123.933" fill="#300606"/>
<path fill-rule="evenodd" clip-rule="evenodd" d="M214.666 138.243C216.245 143.315 216.798 148.545 221.549 151.709C224.078 153.4 227.034 154.399 229.376 156.383C232.114 158.705 232.885 161.681 232.069 165.122C231.007 169.631 228.957 174.095 232.51 178.017C235.503 181.361 240.741 182.406 243.127 186.321C244.415 188.534 245.065 191.062 245.005 193.625C244.968 197.119 243.554 199.802 241.466 202.492C241.4 202.572 241.406 202.69 241.48 202.764C241.553 202.838 241.67 202.844 241.751 202.777C245.275 199.899 246.165 194.609 245.29 190.348C244.936 188.444 244.156 186.645 243.008 185.088C241.736 183.465 239.82 182.451 238.092 181.399C235.81 180.016 233.281 178.596 231.904 176.206C230.139 173.163 231.366 169.796 232.256 166.685C232.937 164.288 233.453 161.748 232.451 159.366C231.515 157.112 229.54 155.564 227.535 154.354C224.385 152.453 220.696 151.251 218.557 148.004C216.641 145.051 216.237 141.369 214.703 138.235C214.703 138.198 214.629 138.235 214.636 138.235L214.666 138.243Z" fill="#300606"/>
<path fill-rule="evenodd" clip-rule="evenodd" d="M156.304 144.114C155.048 148.777 152.437 152.954 148.806 156.107C145.755 158.723 142.126 161.65 142.726 166.187C143.063 168.743 144.638 170.943 144.773 173.545C144.945 177.106 142.591 179.352 140.012 181.296C136.631 183.852 134.584 186.967 135.191 191.398C135.896 196.457 139.689 199.958 143.941 202.272C144.003 202.308 144.082 202.286 144.117 202.223C144.152 202.161 144.13 202.081 144.068 202.046C138.662 198.809 132.994 192.003 136.698 185.409C138.197 182.763 141.069 181.583 143.063 179.428C144.689 177.697 145.479 175.333 145.223 172.962C144.87 169.854 142.628 167.2 143.273 163.956C143.918 160.712 146.497 158.663 148.836 156.704C152.683 153.497 155.358 149.088 156.439 144.174C156.449 144.141 156.431 144.105 156.398 144.095C156.364 144.084 156.329 144.103 156.319 144.136L156.304 144.114Z" fill="#300606"/>
<path fill-rule="evenodd" clip-rule="evenodd" d="M132.319 214.488C132.319 214.488 119.951 221.221 110.003 249.259C130.553 249.225 154.698 249.257 157.688 249.259" fill="#FFC5AE"/>
<path fill-rule="evenodd" clip-rule="evenodd" d="M246.769 219.375L266.961 249.809H232.757L219.976 237.623" fill="#FFC5AE"/>
<path fill-rule="evenodd" clip-rule="evenodd" d="M163.759 197.482C163.759 197.482 150.887 199.972 140.077 207.232C128.176 215.226 122.267 224.15 122.267 224.15L143.818 249.273H233.984L257.884 233.764C257.884 233.764 243.717 211.731 231.868 205.657C225.361 202.476 218.553 199.946 211.544 198.105L180.222 205.349L163.759 197.482Z" fill="#FFDC42"/>
<path fill-rule="evenodd" clip-rule="evenodd" d="M164.41 132.733C159.269 145.371 154.271 174.326 172.405 178.524C198.073 184.473 205.2 155.874 206.544 145.002C208.673 127.788 169.544 120.102 164.41 132.733Z" fill="#FFC5AE"/>
<path fill-rule="evenodd" clip-rule="evenodd" d="M177.524 173.042L176.238 193.698L163.915 197.81C163.915 197.81 163.704 212.691 168.643 215.492C174.756 218.956 200.794 219.627 205.234 215.206C209.675 210.786 211.967 198.428 211.967 198.428L196.58 192.554L192.344 169.721" fill="#FFC5AE"/>
<path fill-rule="evenodd" clip-rule="evenodd" d="M187.379 136.896C181.645 143.686 166.69 146.8 160.025 144.819C152.899 142.696 151.613 134.937 155.093 129.91C157.363 126.593 160.85 124.214 164.519 122.503C173.282 118.469 183.266 117.894 192.44 120.898C199.445 123.231 205.951 127.951 208.848 134.689C209.903 137.271 210.543 140 210.747 142.778C211.209 147.99 210.625 153.242 209.03 158.229C208.432 160.097 207.517 162.1 205.747 162.926C204.075 163.676 202.1 163.226 200.406 162.521C193.477 159.639 190.08 148.346 187.379 136.896Z" fill="#300606"/>
<path fill-rule="evenodd" clip-rule="evenodd" d="M196.037 124.834C194.847 121.683 195.396 118.147 197.487 115.496C206.894 103.826 226.468 120.578 213.583 130.924C210.091 133.729 205.231 134.405 200.782 133.676" fill="#300606"/>
<path fill-rule="evenodd" clip-rule="evenodd" d="M215.144 116.981C218.418 120.366 218.74 125.656 215.9 129.418C213.148 132.945 208.869 134.11 204.659 134.651C204.567 134.651 204.492 134.726 204.492 134.818C204.492 134.911 204.567 134.986 204.659 134.986C209.194 135.306 214.486 132.952 216.928 129.022C219.369 125.102 218.661 119.981 215.25 116.882C215.223 116.854 215.179 116.854 215.151 116.882C215.124 116.909 215.124 116.954 215.151 116.981H215.144Z" fill="#300606"/>
<path d="M143.625 248.206C144.677 239.285 147.78 230.709 152.702 223.111" stroke="#AA311D" stroke-width="0.63961"/>
<path d="M217.307 233.256L225.85 249.807" stroke="#AA311D" stroke-width="0.63961"/>
<path d="M195.418 122.201C195.418 122.201 206.471 125.281 212.504 133.414" stroke="#FFDC42" stroke-width="0.63961"/>
<path d="M192.212 243.402L194.882 246.072" stroke="#FFAD76" stroke-width="1.27922" stroke-linecap="round" stroke-linejoin="round"/>
<path d="M212.501 223.293L215.171 223.464" stroke="#FFAD76" stroke-width="1.27922" stroke-linecap="round" stroke-linejoin="round"/>
<path d="M158.042 227.384L160.178 224.715" stroke="#FFAD76" stroke-width="1.27922" stroke-linecap="round" stroke-linejoin="round"/>
<path d="M148.965 208.162L151.635 207.094" stroke="#FFAD76" stroke-width="1.27922" stroke-linecap="round" stroke-linejoin="round"/>
<path d="M144.162 217.238L146.297 219.908" stroke="#FFAD76" stroke-width="1.27922" stroke-linecap="round" stroke-linejoin="round"/>
<path d="M215.827 206.559L216.121 209.762" stroke="#FFAD76" stroke-width="1.27922" stroke-linecap="round" stroke-linejoin="round"/>
<path d="M132.413 224.182L135.617 225.249" stroke="#FFAD76" stroke-width="1.27922" stroke-linecap="round" stroke-linejoin="round"/>
<path d="M199.153 228.986L201.822 230.588" stroke="#FFAD76" stroke-width="1.27922" stroke-linecap="round" stroke-linejoin="round"/>
<path d="M224.247 216.705L226.917 218.307" stroke="#FFAD76" stroke-width="1.27922" stroke-linecap="round" stroke-linejoin="round"/>
<path d="M234.928 214.035L237.597 212.434" stroke="#FFAD76" stroke-width="1.27922" stroke-linecap="round" stroke-linejoin="round"/>
<path d="M188.475 221.512L189.542 224.181" stroke="#FFAD76" stroke-width="1.27922" stroke-linecap="round" stroke-linejoin="round"/>
<path d="M244.537 228.156L247.74 228.214" stroke="#FFAD76" stroke-width="1.27922" stroke-linecap="round" stroke-linejoin="round"/>
<path d="M174.058 222.58L170.854 223.648" stroke="#FFAD76" stroke-width="1.27922" stroke-linecap="round" stroke-linejoin="round"/>
<path d="M226.916 242.333L230.12 241.266" stroke="#FFAD76" stroke-width="1.27922" stroke-linecap="round" stroke-linejoin="round"/>
<path d="M181 236.994L184.204 235.393" stroke="#FFAD76" stroke-width="1.27922" stroke-linecap="round" stroke-linejoin="round"/>
<path d="M206.093 243.934L207.161 240.73" stroke="#FFAD76" stroke-width="1.27922" stroke-linecap="round" stroke-linejoin="round"/>
<path d="M227.985 230.053L229.053 226.85" stroke="#FFAD76" stroke-width="1.27922" stroke-linecap="round" stroke-linejoin="round"/>
<path d="M171.925 236.463L174.595 238.065" stroke="#FFAD76" stroke-width="1.27922" stroke-linecap="round" stroke-linejoin="round"/>
<path d="M155.908 240.73L156.976 243.934" stroke="#FFAD76" stroke-width="1.27922" stroke-linecap="round" stroke-linejoin="round"/>
<path d="M144.16 232.725L140.956 233.792" stroke="#FFAD76" stroke-width="1.27922" stroke-linecap="round" stroke-linejoin="round"/>
<path fill-rule="evenodd" clip-rule="evenodd" d="M164.983 151.559C164.98 151.992 165.239 152.384 165.639 152.551C166.038 152.718 166.499 152.627 166.806 152.321C167.112 152.015 167.203 151.554 167.036 151.154C166.869 150.754 166.477 150.495 166.043 150.498C165.762 150.498 165.492 150.61 165.293 150.809C165.094 151.008 164.983 151.277 164.983 151.559Z" fill="#300606"/>
<path fill-rule="evenodd" clip-rule="evenodd" d="M185.808 155.304C185.808 155.894 185.33 156.372 184.74 156.372C184.15 156.372 183.672 155.894 183.672 155.304C183.672 154.714 184.15 154.236 184.74 154.236C185.33 154.236 185.808 154.714 185.808 155.304Z" fill="#300606"/>
<path d="M173.471 156.373C173.471 156.373 169.401 162.726 170.516 163.856C171.632 164.986 174.594 165.45 174.594 165.45" stroke="#EF927F" stroke-width="0.63961"/>
<path d="M182.601 150.94C182.601 150.94 188.1 147.246 191.144 154.236" stroke="#300606" stroke-width="0.63961" stroke-linecap="round" stroke-linejoin="round"/>
<path d="M162.311 147.493C162.311 147.493 166.781 144.723 169.252 149.965" stroke="#300606" stroke-width="0.63961" stroke-linecap="round" stroke-linejoin="round"/>
<path fill-rule="evenodd" clip-rule="evenodd" d="M169.789 167.729L178.908 167.584C179.164 167.58 179.376 167.781 179.385 168.035C179.454 169.419 179.323 173.51 175.471 173.946C170.619 174.488 169.504 170.023 169.258 168.356C169.234 168.201 169.278 168.043 169.38 167.923C169.481 167.802 169.631 167.732 169.789 167.729Z" fill="white"/>
<path fill-rule="evenodd" clip-rule="evenodd" d="M194.347 169.65C194.347 169.65 194.669 172.924 197.924 172.924C203.091 172.924 207.741 167.022 206.391 162.893C204.343 156.656 198.059 160.807 197.181 162.552" fill="#FFC5AE"/>
<path fill-rule="evenodd" clip-rule="evenodd" d="M198.045 171.292L198.008 171.172C197.926 170.905 197.661 170.745 197.393 170.8C197.209 170.837 197.066 170.984 197.03 171.172C196.973 171.447 197.131 171.72 197.393 171.802L197.51 171.84C197.668 171.885 197.837 171.839 197.953 171.72C198.069 171.602 198.113 171.428 198.07 171.266L198.045 171.292Z" fill="#F7633A"/>
<path d="M199.06 169.591C197.859 169.874 195.782 169.805 195.96 168.149C196.115 166.623 197.727 167.012 198.51 166.081C198.791 165.644 198.974 165.152 199.045 164.639C199.214 163.816 199.689 163.084 200.378 162.587C201.084 162.106 202.026 162.134 202.702 162.655C203.222 163.259 203.478 164.041 203.415 164.83C203.415 165.158 203.338 165.593 203.004 165.593" stroke="#EF927F" stroke-width="0.63961"/>
<path d="M176.729 179.298C176.729 179.298 184.062 179.88 189.543 176.127" stroke="#EF927F" stroke-width="0.63961"/>
<path fill-rule="evenodd" clip-rule="evenodd" d="M69.7251 181.465H51.1459C49.1913 181.465 47.3169 180.841 45.9357 179.729C44.5544 178.618 43.7795 177.112 43.7817 175.541V168.701C43.7795 167.131 44.5544 165.624 45.9357 164.513C47.3169 163.402 49.1913 162.778 51.1459 162.778H81.8354C82.0032 162.78 82.1507 162.868 82.2038 162.996C82.2569 163.123 82.2041 163.264 82.0719 163.348L77.0555 166.279V175.541C77.0556 178.799 73.7804 181.446 69.7251 181.465Z" fill="#FFFCFA" stroke="#1767C5" stroke-width="0.63961"/>
<path fill-rule="evenodd" clip-rule="evenodd" d="M50.2182 172.084C50.1906 172.443 50.3771 172.794 50.7337 173.053C51.0903 173.313 51.5853 173.459 52.1018 173.457C52.6126 173.458 53.1006 173.31 53.4467 173.049C53.7928 172.788 53.9652 172.438 53.9218 172.084C53.9218 171.368 53.0866 170.787 52.0564 170.787C51.0261 170.787 50.1909 171.368 50.1909 172.084H50.2182Z" fill="#1767C5"/>
<path fill-rule="evenodd" clip-rule="evenodd" d="M59.2743 172.123C59.2482 172.471 59.4075 172.812 59.7143 173.064C60.0212 173.317 60.4482 173.459 60.8938 173.457C61.3351 173.458 61.7567 173.314 62.0557 173.061C62.3548 172.807 62.5037 172.467 62.4662 172.123C62.5056 171.768 62.3463 171.418 62.0296 171.162C61.7129 170.906 61.2699 170.77 60.8152 170.789C60.3794 170.795 59.9662 170.942 59.6741 171.194C59.382 171.447 59.2372 171.784 59.2743 172.123Z" fill="#1767C5"/>
<path fill-rule="evenodd" clip-rule="evenodd" d="M67.8145 172.123C67.7907 172.472 67.9515 172.812 68.2588 173.065C68.5661 173.317 68.9927 173.459 69.438 173.457C69.8781 173.458 70.2987 173.314 70.597 173.061C70.8953 172.807 71.0439 172.467 71.0065 172.123C71.0458 171.768 70.8869 171.418 70.571 171.162C70.2551 170.906 69.8132 170.77 69.3595 170.789C68.9235 170.793 68.5092 170.939 68.216 171.192C67.9229 171.445 67.7774 171.783 67.8145 172.123Z" fill="#1767C5"/>
<path fill-rule="evenodd" clip-rule="evenodd" d="M286.676 173.994H301.609C304.887 173.991 307.542 171.339 307.542 168.068V161.227C307.542 157.957 304.886 155.307 301.609 155.307H276.878C276.745 155.313 276.631 155.4 276.59 155.526C276.55 155.653 276.592 155.79 276.696 155.872L280.737 158.773V168.057C280.734 169.631 281.358 171.141 282.473 172.254C283.587 173.368 285.099 173.994 286.676 173.994Z" fill="white" stroke="#1767C5" stroke-width="0.63961"/>
<path fill-rule="evenodd" clip-rule="evenodd" d="M297.398 162.252H299.534C299.829 162.252 300.068 162.491 300.068 162.786V168.125C300.068 168.42 299.829 168.659 299.534 168.659H297.398C297.104 168.659 296.864 168.42 296.864 168.125V162.786C296.864 162.491 297.104 162.252 297.398 162.252Z" fill="#1767C5"/>
<path fill-rule="evenodd" clip-rule="evenodd" d="M287.912 161.906C288.013 161.785 288.163 161.715 288.322 161.715H291.525V159.579C291.525 159.284 291.764 159.045 292.059 159.045H293.661C293.874 159.045 294.067 159.172 294.151 159.368L295.797 162.782V167.842L293.859 168.617C293.796 168.642 293.729 168.656 293.661 168.656H289.39C289.131 168.656 288.91 168.471 288.864 168.217L287.796 162.343C287.767 162.188 287.81 162.028 287.912 161.906Z" fill="#1767C5"/>
<circle cx="173.26" cy="41.1189" r="33.9041" fill="#F44E46"/>
<mask id="mask2" mask-type="alpha" maskUnits="userSpaceOnUse" x="139" y="7" width="69" height="69">
<circle cx="173.26" cy="41.1189" r="33.9041" fill="white"/>
</mask>
<g mask="url(#mask2)">
<path fill-rule="evenodd" clip-rule="evenodd" d="M179.554 53.4066C181.046 53.8562 182.436 54.4654 184.025 54.4654C185.561 54.5218 187.073 54.0807 188.336 53.2083C189.453 52.3574 189.827 51.2744 189.915 49.9014C190.085 47.8729 189.801 45.8321 189.084 43.9256C189.062 43.8742 189.006 43.8467 188.951 43.8614C188.897 43.876 188.863 43.9284 188.87 43.9837C189.575 46.8168 190.668 51.4291 187.636 53.2663C185.012 54.857 182.29 53.8949 179.608 53.2035C179.555 53.1986 179.507 53.2321 179.494 53.2824C179.481 53.3328 179.506 53.3854 179.554 53.4066Z" fill="white"/>
<path fill-rule="evenodd" clip-rule="evenodd" d="M175.211 58.1199C175.211 58.1199 165.866 55.5816 155.889 57.1288C145.912 58.6759 138.953 67.1222 138.953 67.1222V75.201H196.054C191.622 62.0408 175.211 58.1199 175.211 58.1199Z" fill="#CEC1B4"/>
<g opacity="0.55">
<path fill-rule="evenodd" clip-rule="evenodd" d="M162.627 66.3276C164.138 68.8175 165.834 70.9447 168.667 71.9552C170.432 72.5837 172.142 73.1059 173.099 74.856C173.872 76.2726 173.892 77.8246 174.261 79.3523C174.281 79.401 174.331 79.4301 174.384 79.4233C174.436 79.4165 174.478 79.3755 174.484 79.3233C174.509 76.7754 173.561 73.8262 171.151 72.6079C169.63 71.844 167.914 71.6168 166.495 70.6256C164.901 69.5137 163.769 67.8698 162.729 66.2744C162.712 66.2463 162.675 66.2377 162.646 66.255C162.618 66.2724 162.609 66.3092 162.627 66.3372V66.3276Z" fill="#E8F3F9"/>
<path fill-rule="evenodd" clip-rule="evenodd" d="M162.336 63.5974C163.658 67.0881 166.709 69.2299 169.926 70.8979C171.797 71.8648 173.868 72.6964 175.272 74.345C176.677 75.9937 177.094 78.2128 177.77 80.2724C177.782 80.3164 177.817 80.3507 177.861 80.3622C177.906 80.3738 177.953 80.3609 177.985 80.3284C178.018 80.2959 178.03 80.2488 178.018 80.2047C177.738 78.3981 177.117 76.6606 176.186 75.0847C175.214 73.5666 173.824 72.59 172.254 71.7681C168.396 69.7569 164.226 67.8568 162.491 63.5491C162.457 63.462 162.321 63.5007 162.35 63.5877L162.336 63.5974Z" fill="#E8F3F9"/>
<path fill-rule="evenodd" clip-rule="evenodd" d="M160.532 59.37C163.166 63.3006 166.67 67.1056 171.627 67.7583C174.154 68.1015 176.093 67.2119 178.387 66.3078C181.351 65.1572 184.34 65.5488 187.134 66.9267C187.209 66.9694 187.305 66.9434 187.348 66.8687C187.391 66.7939 187.365 66.6987 187.289 66.6559C185.36 65.5087 183.099 65.0404 180.87 65.3264C178.314 65.6261 176.195 67.2893 173.624 67.4778C167.948 67.8936 163.691 63.4844 160.644 59.2878C160.591 59.2201 160.479 59.2878 160.527 59.3555L160.532 59.37Z" fill="#E8F3F9"/>
<path fill-rule="evenodd" clip-rule="evenodd" d="M161.353 59.487C164.172 62.6779 168.263 66.6424 172.89 66.2073C177.856 65.7238 182.356 61.5466 187.27 64.6021C187.335 64.6385 187.418 64.6211 187.463 64.5615C187.508 64.5018 187.502 64.4181 187.449 64.3652C184.154 61.3145 179.12 64.0897 175.67 65.221C172.783 66.1638 170.178 66.0719 167.559 64.4619C165.308 63.0452 163.258 61.3346 161.465 59.3758C161.397 59.2984 161.285 59.4096 161.353 59.487Z" fill="#E8F3F9"/>
<path fill-rule="evenodd" clip-rule="evenodd" d="M161.63 55.4348C161.479 57.3687 163.37 59.0029 164.857 59.9311C166.705 61.0672 168.868 61.5872 171.033 61.4154C173.735 61.1978 176.238 59.965 178.94 59.7329C181.939 59.4912 184.339 60.5645 186.852 62.0197C186.894 62.0526 186.951 62.0603 187.001 62.0401C187.051 62.0198 187.086 61.9747 187.093 61.9216C187.101 61.8686 187.079 61.8157 187.036 61.7828C183.751 58.7225 178.921 59.0802 174.955 60.197C172.467 60.8981 170.023 61.4347 167.471 60.7095C165.294 60.0907 161.693 58.0843 161.81 55.4348C161.81 55.3188 161.64 55.3236 161.63 55.4348Z" fill="#E8F3F9"/>
<path fill-rule="evenodd" clip-rule="evenodd" d="M185.582 68.702C184.051 68.2144 182.421 68.1212 180.844 68.4312C179.707 68.6633 178.171 69.1032 177.666 70.2829C177.107 71.5883 178.098 73.0774 178.54 74.2571C179.311 76.3121 179.539 78.5294 179.201 80.6969C179.184 80.7707 179.228 80.845 179.302 80.8646C179.376 80.8842 179.452 80.8421 179.473 80.7695C180.251 78.3521 179.473 75.6011 178.502 73.3288C178.088 72.3619 177.607 71.5206 178.016 70.4715C178.424 69.4223 179.269 69.1468 180.261 68.8663C181.977 68.4075 183.786 68.4209 185.495 68.905C185.626 68.9437 185.679 68.7455 185.548 68.702H185.582Z" fill="#E8F3F9"/>
<path fill-rule="evenodd" clip-rule="evenodd" d="M182.732 79.9944C182.144 78.4535 181.671 76.8715 181.318 75.2612C181.034 74.3103 180.985 73.305 181.177 72.3314C181.604 70.8423 183.223 70.0832 184.36 71.3644C184.452 71.466 184.593 71.3354 184.54 71.2291C183.714 69.5272 181.546 70.5764 181.007 71.9253C180.521 73.0856 180.837 74.3813 181.109 75.5513C181.475 77.0862 181.949 78.5935 182.528 80.0621C182.576 80.183 182.776 80.1347 182.732 80.0041V79.9944Z" fill="#E8F3F9"/>
</g>
<path fill-rule="evenodd" clip-rule="evenodd" d="M188.708 37.8184C188.993 40.2776 189.278 42.7385 189.563 45.201C189.83 47.483 190.025 50.0357 188.591 51.8246C185.918 55.1509 180.281 53.6231 177.706 50.2775" fill="white"/>
<path fill-rule="evenodd" clip-rule="evenodd" d="M178.623 50.5061L177.69 61.5921C177.69 61.5921 176.787 64.4398 172.136 63.439C168.583 62.6751 167.495 58.5221 167.495 58.5221L170.153 48.6641L178.623 50.5061Z" fill="#906A64"/>
<path fill-rule="evenodd" clip-rule="evenodd" d="M186.987 33.8728C189.344 40.129 186.817 48.9427 182.127 52.3415C179.343 54.3479 176.247 53.9998 173.38 52.3415C170.153 50.5043 167.495 45.6696 167.495 39.1814C167.495 30.6432 182.113 20.9448 186.987 33.8728Z" fill="#906A64"/>
<path fill-rule="evenodd" clip-rule="evenodd" d="M182.262 25.1614C181.193 24.7347 180.078 24.4345 178.938 24.2669C175.05 23.7399 171.206 25.2919 168.247 27.6851C165.287 30.0783 163.543 32.8341 162.051 36.2957C161.328 37.8033 160.716 39.3609 160.219 40.9564C159.49 43.7026 159.247 46.6808 161.05 49.0933C161.771 50.1808 162.799 51.032 164.004 51.5397C165.509 52.2123 167.09 52.6994 168.713 52.9901C169.085 53.0868 169.475 53.0868 169.846 52.9901C170.442 52.7209 170.822 52.1279 170.818 51.4768C170.806 50.8362 170.686 50.2021 170.463 49.6009C169.272 45.5784 168.733 41.0241 170.04 36.9629C170.414 35.7978 171.376 34.8163 172.29 34.0621C172.376 33.9722 172.488 33.9113 172.611 33.888C172.868 33.859 173.048 34.1346 173.199 34.3473C173.86 35.2805 175.143 35.5995 176.28 35.4207C177.167 35.2498 178.016 34.9223 178.787 34.4537C179.104 34.281 179.502 34.3955 179.677 34.71C180.038 35.3214 180.654 35.7412 181.358 35.8558C181.93 35.9308 182.509 35.7949 182.986 35.4738C183.149 35.3644 183.352 35.3329 183.54 35.3881C183.728 35.4434 183.881 35.5794 183.958 35.7591C184.115 36.0955 184.451 36.3134 184.823 36.3199C185.095 36.3199 185.338 36.1265 185.61 36.0927C186.16 36.0298 186.582 36.5423 186.869 37.0258C187.574 38.3022 188.356 40.7969 188.225 42.2521C188.225 42.0007 188.798 41.4689 188.934 41.2272C189.19 40.7913 189.402 40.3314 189.566 39.8541C189.87 38.9403 190.025 37.9836 190.023 37.021C190.023 32.2539 186.801 26.9115 182.262 25.1614Z" fill="white"/>
<path fill-rule="evenodd" clip-rule="evenodd" d="M171.068 47.0747C170.584 47.8415 169.595 48.1194 168.779 47.7177C166.534 46.5863 165.829 42.9845 167.321 41.476C169.6 39.2037 171.403 42.3946 171.399 43.3519" fill="#906A64"/>
<path d="M168.916 45.9748C169.358 46.3519 170.247 46.7677 170.534 46.0231C170.797 45.3559 170.048 45.1674 169.912 44.6017C169.89 44.3562 169.922 44.1088 170.004 43.8765C170.111 43.4903 170.069 43.0785 169.888 42.721C169.699 42.3567 169.291 42.1598 168.887 42.2375C168.535 42.3811 168.256 42.6601 168.114 43.0111C168.036 43.1465 167.983 43.3495 168.114 43.4269" stroke="#3B1211" stroke-width="0.63961"/>
<path fill-rule="evenodd" clip-rule="evenodd" d="M166.278 78.1884C166.648 71.2312 165.243 62.4852 162.711 56.64C153.876 56.4514 143.375 59.9711 138.029 67.3151V77.9515L166.278 78.1884Z" fill="#1767C5"/>
<path fill-rule="evenodd" clip-rule="evenodd" d="M182.606 77.4114C182.606 77.4114 183.875 64.9088 180.419 59.9629C189.75 62.3803 196.748 72.2818 197.137 76.1496C197.525 80.0174 182.606 77.4114 182.606 77.4114Z" fill="#1767C5"/>
<path d="M158.833 57.0039C158.833 57.0039 157.788 65.4212 158.546 66.4123C159.304 67.4034 163.381 69.8595 163.381 69.8595C163.381 69.8595 158.896 69.376 158.896 70.7587C158.896 72.1415 161.136 75.8207 161.136 75.8207" stroke="#00275C" stroke-width="0.63961" stroke-linejoin="round"/>
<path d="M183.215 61.3125C183.215 61.3125 188.283 68.3229 187.885 69.783L184.677 70.7499C184.677 70.7499 188.079 71.2866 187.885 72.3019C187.546 73.8699 186.952 75.3724 186.126 76.7498" stroke="#00275C" stroke-width="0.63961" stroke-linejoin="round"/>
<path fill-rule="evenodd" clip-rule="evenodd" d="M185.346 42.6005C185.307 42.754 185.206 42.885 185.068 42.9642C184.93 43.0433 184.766 43.0638 184.613 43.0211C184.292 42.9338 184.101 42.6063 184.185 42.2862C184.285 41.9828 184.606 41.8104 184.916 41.8942C185.225 41.978 185.415 42.2885 185.346 42.6005Z" fill="#300606"/>
<path fill-rule="evenodd" clip-rule="evenodd" d="M175.566 40.5021C175.493 40.714 175.545 40.9487 175.7 41.1106C175.856 41.2725 176.089 41.3347 176.305 41.2718C176.521 41.2088 176.684 41.0314 176.727 40.8116C176.77 40.6589 176.749 40.4955 176.67 40.3582C176.59 40.2208 176.459 40.1211 176.304 40.0815C175.984 39.9952 175.653 40.1833 175.566 40.5021Z" fill="#300606"/>
<path d="M181.229 42.6973C181.229 42.6973 181.715 46.304 181.001 46.7246C180.287 47.1452 178.838 46.4394 178.838 46.4394" stroke="#3A1010" stroke-width="0.63961"/>
<path d="M178.243 39.0175C177.611 37.8185 175.303 36.987 173.466 38.4809" stroke="#300606" stroke-width="0.63961" stroke-linecap="round" stroke-linejoin="round"/>
<path d="M186.426 41.0906C186.426 41.0906 185.23 39.0165 183.301 39.9013" stroke="#300606" stroke-width="0.63961" stroke-linecap="round" stroke-linejoin="round"/>
<path fill-rule="evenodd" clip-rule="evenodd" d="M180.731 48.9372L176.085 47.6028C176.023 47.5834 175.955 47.5899 175.897 47.6208C175.84 47.6517 175.797 47.7045 175.779 47.7672C175.551 48.4682 175.045 50.581 176.96 51.3352C179.365 52.3022 180.561 50.1459 180.916 49.324C180.948 49.2487 180.946 49.1631 180.911 49.0891C180.876 49.015 180.81 48.9597 180.731 48.9372Z" fill="white"/>
<path d="M178.356 53.7344C178.356 53.7344 174.604 53.9181 172.247 51.5781" stroke="#906A64" stroke-width="0.63961"/>
<path fill-rule="evenodd" clip-rule="evenodd" d="M171.21 25.9834C168.6 26.7957 166.506 28.7199 164.776 30.7602C162.868 33.0069 161.303 35.5205 160.13 38.2202C158.973 40.8841 157.987 44.5053 159.119 47.353C160.066 49.5955 162.068 51.2253 164.465 51.7042C164.536 51.7121 164.602 51.6676 164.621 51.5993C164.641 51.5309 164.607 51.4587 164.543 51.4287C162.2 50.5681 160.008 49.0645 159.309 46.5504C158.478 43.5577 159.688 39.9462 160.995 37.2532C163.104 32.9019 166.472 27.8883 171.249 26.1333C171.365 26.0898 171.317 25.9061 171.195 25.9448L171.21 25.9834Z" fill="white"/>
<path d="M178.815 53.2621C176.437 53.4141 174.104 52.5932 172.416 51.0098" stroke="#664846" stroke-width="0.63961"/>
</g>
<path fill-rule="evenodd" clip-rule="evenodd" d="M124.183 1H105.604C103.65 0.999999 101.775 1.62432 100.394 2.73544C99.0126 3.84655 98.2378 5.3533 98.24 6.92375V13.7635C98.2378 15.334 99.0126 16.8407 100.394 17.9519C101.775 19.063 103.65 19.6873 105.604 19.6873H136.294C136.461 19.6845 136.609 19.5972 136.662 19.4693C136.715 19.3414 136.662 19.2004 136.53 19.1173L131.514 16.186V6.92375C131.514 3.66536 128.239 1.01866 124.183 1Z" fill="#FFFCFA" stroke="#FF796D" stroke-width="0.63961"/>
<path fill-rule="evenodd" clip-rule="evenodd" d="M104.674 10.3806C104.646 10.022 104.832 9.67134 105.189 9.41148C105.546 9.15163 106.041 9.00558 106.557 9.00784C107.068 9.00655 107.556 9.15451 107.902 9.41559C108.248 9.67666 108.421 10.0268 108.377 10.3806C108.377 11.0968 107.542 11.6774 106.512 11.6774C105.481 11.6774 104.646 11.0968 104.646 10.3806H104.674Z" fill="#FF9E94"/>
<path fill-rule="evenodd" clip-rule="evenodd" d="M113.73 10.3417C113.703 9.99388 113.863 9.65309 114.17 9.40036C114.476 9.14764 114.903 9.00554 115.349 9.00784C115.79 9.00659 116.212 9.15036 116.511 9.40405C116.81 9.65774 116.959 9.99799 116.922 10.3417C116.961 10.6965 116.802 11.0471 116.485 11.303C116.168 11.5588 115.725 11.6948 115.271 11.6756C114.835 11.6701 114.422 11.5233 114.129 11.2705C113.837 11.0176 113.692 10.6813 113.73 10.3417Z" fill="#FF9E94"/>
<path fill-rule="evenodd" clip-rule="evenodd" d="M122.27 10.3417C122.246 9.99328 122.407 9.65256 122.714 9.40006C123.021 9.14756 123.448 9.00565 123.893 9.00784C124.333 9.00659 124.754 9.15036 125.052 9.40405C125.351 9.65773 125.499 9.99799 125.462 10.3417C125.501 10.6965 125.342 11.0471 125.026 11.303C124.71 11.5588 124.268 11.6948 123.815 11.6756C123.379 11.6718 122.964 11.5258 122.671 11.2727C122.378 11.0196 122.233 10.6823 122.27 10.3417Z" fill="#FF9E94"/>
<path fill-rule="evenodd" clip-rule="evenodd" d="M146.829 48.3184H135.082C133.847 48.3184 132.662 48.8096 131.788 49.6839C130.915 50.5582 130.425 51.7438 130.427 52.9795V58.3614C130.425 59.5972 130.915 60.7828 131.788 61.6571C132.662 62.5313 133.847 63.0226 135.082 63.0226H154.485C154.591 63.0204 154.684 62.9517 154.718 62.8511C154.752 62.7504 154.718 62.6395 154.635 62.5741L151.463 60.2676V52.9795C151.463 50.4156 149.392 48.333 146.829 48.3184Z" fill="#FFFCFA" stroke="#FF796D" stroke-width="0.63961"/>
<path fill-rule="evenodd" clip-rule="evenodd" d="M134.747 55.6684C134.731 55.3657 134.84 55.0698 135.049 54.8505C135.258 54.6311 135.549 54.5079 135.852 54.5098C136.152 54.5087 136.438 54.6336 136.641 54.8539C136.844 55.0743 136.945 55.3698 136.92 55.6684C136.92 56.2729 136.43 56.7629 135.825 56.7629C135.221 56.7629 134.731 56.2729 134.731 55.6684H134.747Z" fill="#FF9E94"/>
<path fill-rule="evenodd" clip-rule="evenodd" d="M140.268 55.6684C140.251 55.3662 140.359 55.0702 140.567 54.8507C140.776 54.6312 141.065 54.5078 141.368 54.5098C141.668 54.5087 141.954 54.6336 142.157 54.8539C142.36 55.0743 142.461 55.3698 142.436 55.6684C142.463 55.9765 142.355 56.2811 142.14 56.5033C141.924 56.7256 141.624 56.8436 141.315 56.827C141.019 56.8222 140.738 56.6947 140.54 56.4751C140.341 56.2554 140.243 55.9633 140.268 55.6684Z" fill="#FF9E94"/>
<path fill-rule="evenodd" clip-rule="evenodd" d="M145.761 55.6684C145.745 55.3657 145.854 55.0698 146.063 54.8505C146.273 54.6311 146.563 54.5079 146.866 54.5098C147.166 54.5087 147.452 54.6336 147.655 54.8539C147.858 55.0743 147.959 55.3698 147.934 55.6684C147.961 55.9765 147.853 56.2811 147.638 56.5033C147.422 56.7256 147.122 56.8436 146.813 56.827C146.516 56.8236 146.234 56.6968 146.034 56.477C145.835 56.2572 145.736 55.9642 145.761 55.6684Z" fill="#FF9E94"/>
<path fill-rule="evenodd" clip-rule="evenodd" d="M206.666 32.834H218.412C219.648 32.834 220.833 33.3252 221.706 34.1995C222.58 35.0738 223.07 36.2594 223.068 37.4951V42.8771C223.07 44.1128 222.58 45.2984 221.706 46.1727C220.833 47.047 219.648 47.5382 218.412 47.5382H199.01C198.903 47.536 198.81 47.4674 198.777 47.3667C198.743 47.266 198.776 47.1551 198.86 47.0897L202.032 44.7832V37.4951C202.032 34.9312 204.102 32.8487 206.666 32.834Z" fill="#FFFCFA" stroke="#1767C5" stroke-width="0.63961"/>
<path fill-rule="evenodd" clip-rule="evenodd" d="M212.23 41.0432C211.789 41.0432 211.43 40.6839 211.43 40.2423C211.43 39.801 211.789 39.4414 212.23 39.4414C212.672 39.4414 213.031 39.801 213.031 40.2423C213.031 40.6839 212.672 41.0432 212.23 41.0432ZM212.231 36.2383C210.023 36.2383 208.227 38.0346 208.227 40.2427C208.227 42.4509 210.023 44.2471 212.231 44.2471C213.048 44.2471 213.83 44.0061 214.495 43.5496L213.847 42.6065C213.375 42.9314 212.815 43.103 212.231 43.103C210.654 43.103 209.371 41.8201 209.371 40.2427C209.371 38.6657 210.654 37.3824 212.231 37.3824C213.809 37.3824 215.092 38.6657 215.092 40.2427V40.5413C215.092 40.7858 215.037 41.1961 214.672 41.1961H214.52C214.408 41.1919 214.184 40.9742 214.177 40.8647V40.2427H214.176C214.176 39.1699 213.304 38.2977 212.231 38.2977C211.159 38.2977 210.287 39.1699 210.287 40.2427C210.287 41.3151 211.159 42.1877 212.231 42.1877C212.678 42.1877 213.085 42.0298 213.414 41.7758C213.701 42.1065 214.11 42.3403 214.519 42.3403H214.672C215.593 42.3403 216.236 41.6004 216.236 40.5413V40.2427C216.236 38.0346 214.439 36.2383 212.231 36.2383Z" fill="#1767C5"/>
<circle cx="284.315" cy="63.2029" r="33.9041" fill="#FFD521"/>
<mask id="mask3" mask-type="alpha" maskUnits="userSpaceOnUse" x="250" y="29" width="69" height="69">
<circle cx="284.315" cy="63.2029" r="33.9041" fill="white"/>
</mask>
<g mask="url(#mask3)">
<g opacity="0.35">
<path fill-rule="evenodd" clip-rule="evenodd" d="M260.019 37.3001C264.349 37.834 268.898 37.5724 273.26 37.5404C277.622 37.5084 282.086 37.455 286.496 37.3802C295.322 37.2307 304.116 36.9477 312.963 36.606C313.94 36.5686 313.945 35.0363 312.963 35.079C304.142 35.4581 295.343 35.7357 286.496 35.9813C282.086 36.1024 277.674 36.2038 273.26 36.2857C268.893 36.3658 264.354 36.1575 260.019 36.7342C259.863 36.7342 259.736 36.8609 259.736 37.0171C259.736 37.1734 259.863 37.3001 260.019 37.3001Z" fill="#FF9E94"/>
<path fill-rule="evenodd" clip-rule="evenodd" d="M259.315 40.2839C263.861 40.9189 268.457 41.128 273.042 40.9086C277.655 40.7537 282.236 40.2732 286.855 40.3747C291.473 40.4761 296.14 40.9887 300.78 41.2556C305.227 41.5119 309.899 41.7041 314.288 40.8232C315.057 40.6683 314.896 39.3495 314.101 39.435C309.509 39.9527 304.883 40.1026 300.267 39.8834C295.798 39.6539 291.334 39.2267 286.855 39.152C282.375 39.0772 278.002 39.5845 273.571 39.8247C268.849 40.001 264.121 39.9315 259.406 39.6165C259.043 39.6165 258.952 40.2038 259.315 40.2572V40.2839Z" fill="#FF9E94"/>
<path fill-rule="evenodd" clip-rule="evenodd" d="M308.804 44.776C300.155 45.2859 291.484 45.3394 282.829 44.9362C274.196 44.6105 265.429 44.0018 256.806 44.7493C255.882 44.8294 255.85 46.2497 256.806 46.2123C265.583 45.8759 274.308 45.9934 283.091 46.2123C291.633 46.4419 300.406 46.6501 308.89 45.4114C309.258 45.358 309.173 44.7333 308.804 44.76V44.776Z" fill="#FF9E94"/>
<path fill-rule="evenodd" clip-rule="evenodd" d="M258.231 50.5839C267.67 51.0538 277.142 51.0644 286.587 51.2086C291.268 51.2833 295.951 51.3563 300.635 51.4275C305.381 51.4862 310.203 51.7746 314.944 51.5663C315.297 51.5351 315.567 51.2396 315.567 50.8856C315.567 50.5315 315.297 50.2361 314.944 50.2048C310.208 49.8898 305.387 50.0713 300.635 50.0233C295.883 49.9752 291.27 49.9592 286.587 49.9272C277.142 49.8631 267.676 49.6602 258.231 49.9272C258.048 49.9272 257.9 50.0754 257.9 50.2582C257.9 50.441 258.048 50.5892 258.231 50.5892V50.5839Z" fill="#FF9E94"/>
<path fill-rule="evenodd" clip-rule="evenodd" d="M259.967 54.7104C264.334 55.4205 268.873 55.3778 273.315 55.4685C277.832 55.5646 282.344 55.5646 286.861 55.5273C295.937 55.4525 305.126 55.319 314.192 54.5822C315.159 54.5021 315.185 53.0232 314.192 53.0552C305.163 53.3756 296.162 53.8935 287.128 54.043C282.701 54.1177 278.275 54.123 273.849 54.123C269.268 54.123 264.601 53.8507 260.042 54.2886C259.823 54.2886 259.732 54.6676 259.988 54.7104H259.967Z" fill="#FF9E94"/>
<path fill-rule="evenodd" clip-rule="evenodd" d="M308.206 59.5047C304.036 58.9708 299.664 59.2538 295.467 59.2004C291.132 59.1416 286.796 59.0776 282.461 59.0349L269.716 58.9227C267.58 58.9227 265.445 58.9227 263.346 58.9227C261.333 58.9227 259.075 58.6077 257.089 59.0722C256.846 59.1484 256.681 59.3732 256.681 59.6275C256.681 59.8818 256.846 60.1067 257.089 60.1828C258.973 60.6473 261.146 60.375 263.085 60.3857C265.22 60.3857 267.329 60.3857 269.454 60.3857C273.79 60.3857 278.125 60.3857 282.461 60.3857C286.732 60.3857 290.955 60.3536 295.2 60.3323C299.445 60.3109 303.946 60.642 308.206 60.1241C308.372 60.1241 308.505 59.9902 308.505 59.8251C308.505 59.6599 308.372 59.5261 308.206 59.5261V59.5047Z" fill="#FF9E94"/>
<path fill-rule="evenodd" clip-rule="evenodd" d="M260.619 64.9632C265.16 65.3209 269.722 65.3369 274.266 65.0112C278.612 64.7656 282.916 64.1089 287.272 64.0502C295.911 63.9434 304.561 65.417 313.13 63.7832C314.086 63.6017 313.664 62.1387 312.73 62.3202C304.144 63.9594 295.42 62.4697 286.765 62.7207C282.494 62.8488 278.26 63.4949 274.004 63.7885C269.551 64.1249 265.067 63.9327 260.619 64.3225C260.459 64.3432 260.34 64.4792 260.34 64.6401C260.34 64.8011 260.459 64.9371 260.619 64.9578V64.9632Z" fill="#FF9E94"/>
<path fill-rule="evenodd" clip-rule="evenodd" d="M257.833 69.1908C267.14 69.6019 276.457 69.5752 285.768 69.5325C290.374 69.5112 294.986 69.4738 299.602 69.4204C301.903 69.4204 304.21 69.367 306.543 69.3243C308.711 69.2869 311.252 69.5913 313.345 69.0039C313.588 68.9278 313.753 68.703 313.753 68.4487C313.753 68.1944 313.588 67.9695 313.345 67.8934C311.3 67.4129 308.903 67.7919 306.81 67.8347L299.869 67.9735C295.171 68.0589 290.472 68.1301 285.774 68.187C276.462 68.2938 267.145 68.2885 257.839 68.5928C257.674 68.5928 257.54 68.7267 257.54 68.8918C257.54 69.057 257.674 69.1908 257.839 69.1908H257.833Z" fill="#FF9E94"/>
<path fill-rule="evenodd" clip-rule="evenodd" d="M307.806 72.32C298.686 72.1598 289.561 72.005 280.442 71.9035C275.925 71.8501 271.408 71.8555 266.886 71.8448H259.982H256.779C255.817 71.8448 255.065 71.6633 254.328 72.3307C254.147 72.5121 254.147 72.806 254.328 72.9874C255.075 73.6601 255.785 73.4733 256.779 73.4733H259.982L266.886 73.4359C271.408 73.4359 275.925 73.3985 280.442 73.3344C289.561 73.2027 298.683 73.0354 307.806 72.8326C307.938 72.8326 308.046 72.725 308.046 72.5923C308.046 72.4596 307.938 72.352 307.806 72.352V72.32Z" fill="#FF9E94"/>
<path fill-rule="evenodd" clip-rule="evenodd" d="M256.053 76.8531C265.93 76.9439 275.808 76.6982 285.675 76.3726C290.608 76.207 295.542 76.0148 300.475 75.7692C302.942 75.6518 305.409 75.5183 307.87 75.3848C310.219 75.2567 312.622 75.2513 314.95 74.9096C315.863 74.7708 315.601 73.3666 314.736 73.3452C312.291 73.2865 309.792 73.5962 307.341 73.735C304.891 73.8738 302.413 74.0019 299.947 74.1247C295.106 74.3703 290.259 74.5964 285.408 74.8028C275.626 75.2139 265.84 75.4702 256.042 75.828C255.814 75.8944 255.658 76.1032 255.658 76.3405C255.658 76.5778 255.814 76.7866 256.042 76.8531H256.053Z" fill="#FF9E94"/>
<path fill-rule="evenodd" clip-rule="evenodd" d="M254.467 80.8508C264.611 81.1765 274.793 80.7974 284.938 80.6159L300.042 80.3489L307.464 80.2047C309.648 80.162 312.493 80.5411 314.528 79.6174C314.827 79.4839 314.682 79.0835 314.442 78.9927C312.36 78.1438 309.402 78.6777 307.197 78.7204L299.514 78.8859L284.676 79.2223C274.612 79.4466 264.51 79.4839 254.467 80.2101C254.29 80.2101 254.146 80.3535 254.146 80.5304C254.146 80.7074 254.29 80.8508 254.467 80.8508Z" fill="#FF9E94"/>
</g>
<path fill-rule="evenodd" clip-rule="evenodd" d="M253.69 96.6105C253.69 96.6105 260.305 85.4515 267.107 81.6606C274.128 77.7416 304.231 73.2139 311.268 84.4744C318.305 95.7348 317.424 100.839 317.424 100.839L253.69 96.6105Z" fill="#262626"/>
<path fill-rule="evenodd" clip-rule="evenodd" d="M279.045 72.596L279.445 81.2349C279.445 81.2349 280.999 83.2157 285.462 82.543C291.143 81.6941 292.174 78.9123 292.174 78.9123L288.276 67.166" fill="#FDDFDF"/>
<path d="M274.45 58.0784L270.83 55.0137" stroke="#300606" stroke-width="0.63961"/>
<path fill-rule="evenodd" clip-rule="evenodd" d="M291.613 54.671C291.349 53.7244 290.979 52.8108 290.508 51.948C288.922 48.9653 286.058 46.8724 282.734 46.2671C281.073 45.9472 279.352 46.2799 277.929 47.1961C275.953 48.595 274.923 51.2913 273.994 53.427C272.285 57.3407 270.337 61.9698 270.566 66.2892C270.604 67.8091 271.122 69.2781 272.045 70.4858C273.044 71.595 274.342 72.3922 275.783 72.7817C280.468 74.4043 285.667 72.8653 288.714 68.9535C290.399 66.8329 291.503 64.3101 291.918 61.6334C292.33 59.3185 292.226 56.9411 291.613 54.671Z" fill="#FDDFDF"/>
<path fill-rule="evenodd" clip-rule="evenodd" d="M296.649 65.1607C295.314 67.3978 290.605 71.2367 288.373 69.3039C287.887 68.8821 288.907 66.5328 289.046 66.0683C289.542 64.52 290.396 63.0463 289.297 61.5834C286.91 58.4119 284.534 54.8933 284.465 50.9049C282.845 51.2331 281.206 51.456 279.558 51.5723C277.892 51.6796 276.244 51.1892 274.907 50.1895C273.637 49.1216 272.969 47.2529 273.647 45.7472C273.979 45.0881 274.462 44.5172 275.057 44.0814C275.228 43.9279 275.427 43.8099 275.644 43.7343C276.44 43.5101 277.15 44.311 277.956 44.4765C277.742 43.9357 277.757 43.3308 277.999 42.8018C278.241 42.2727 278.688 41.8652 279.237 41.6734C279.772 41.5522 280.326 41.5377 280.866 41.6307C282.709 41.7869 284.541 42.0615 286.349 42.4529C289.894 43.2362 293.114 45.0865 295.576 47.7548C299.927 52.6669 299.916 59.6933 296.649 65.1607Z" fill="black"/>
<path fill-rule="evenodd" clip-rule="evenodd" d="M282.287 59.7647C282.087 59.9517 282.076 60.2651 282.263 60.4655C282.449 60.6659 282.763 60.6778 282.963 60.492C283.164 60.3063 283.177 59.9929 282.992 59.7914C282.902 59.6939 282.778 59.6362 282.645 59.6312C282.513 59.6262 282.384 59.6743 282.287 59.7647Z" fill="#300606"/>
<path fill-rule="evenodd" clip-rule="evenodd" d="M274.609 56.998C274.416 57.1923 274.417 57.5061 274.611 57.6994C274.805 57.8928 275.119 57.8928 275.312 57.6994C275.506 57.5061 275.507 57.1923 275.314 56.998C275.119 56.8053 274.805 56.8053 274.609 56.998Z" fill="#300606"/>
<path d="M277.103 58.6602C276.039 59.9709 275.342 61.5408 275.085 63.2092C274.966 63.6694 275.037 64.1581 275.282 64.5653C275.534 64.8528 275.899 65.0149 276.281 65.0085C276.659 64.9943 277.033 64.926 277.391 64.8056" stroke="#4A2222" stroke-width="0.63961"/>
<path d="M276.207 56.1819C276.191 55.624 275.943 55.098 275.524 54.7296C275.186 54.3922 274.639 54.3922 274.301 54.7296" stroke="#5B3005" stroke-width="0.63961" stroke-linecap="round" stroke-linejoin="round"/>
<path d="M282.103 57.3726C283.037 57.0896 284.922 56.8386 285.627 58.8729" stroke="#5B3005" stroke-width="0.63961" stroke-linecap="round" stroke-linejoin="round"/>
<path fill-rule="evenodd" clip-rule="evenodd" d="M270.435 56.2353C270.262 57.6262 270.944 58.9843 272.163 59.6762C273.382 60.3682 274.897 60.2577 276.003 59.3964C277.109 58.5351 277.587 57.0925 277.214 55.7414C276.841 54.3903 275.691 53.3967 274.3 53.224C272.401 52.9883 270.671 54.3364 270.435 56.2353V56.2353Z" stroke="#300606" stroke-width="0.63961"/>
<path d="M280.028 58.6593C279.866 58.0919 279.434 57.6418 278.873 57.4578C278.312 57.2738 277.697 57.3799 277.23 57.7409" stroke="#300606" stroke-width="0.63961"/>
<path d="M291.227 64.3894L287.671 60.748" stroke="#300606" stroke-width="0.63961"/>
<circle cx="285.121" cy="59.1448" r="4.00691" transform="rotate(-22.225 285.121 59.1448)" stroke="#300606" stroke-width="0.642577"/>
<path fill-rule="evenodd" clip-rule="evenodd" d="M274.993 66.2213C276.57 66.8426 278.286 67.027 279.959 66.7552C280.155 66.7066 280.361 66.7728 280.493 66.9261C281.096 68.1434 280.082 70.2311 277.391 69.9961C275.015 69.7826 273.424 68.2822 274.459 66.2907C274.518 66.1626 274.79 66.1359 274.993 66.2213Z" fill="white"/>
<path fill-rule="evenodd" clip-rule="evenodd" d="M288.901 63.4649C289.403 63.25 289.971 63.2486 290.475 63.4611C290.978 63.6736 291.374 64.0816 291.57 64.5915C291.696 64.9863 291.729 65.4046 291.667 65.8141C291.437 67.5494 289.953 69.3754 288.255 69.5516C286.557 69.7278 285.382 68.74 285.537 67.3625" fill="#FFD5C7"/>
<path fill-rule="evenodd" clip-rule="evenodd" d="M287.085 66.8486C287.374 66.4374 287.897 66.4641 288.345 66.4321C288.538 66.4367 288.721 66.3445 288.831 66.1865C288.885 66.0621 288.907 65.9264 288.895 65.7914C288.889 65.4609 288.954 65.1329 289.088 64.8303C289.212 64.543 289.477 64.3409 289.787 64.2964C291.117 64.227 290.321 66.5923 289.921 67.1956C289.323 68.1727 286.915 69.3313 286.915 67.3665C286.917 67.1803 286.976 66.9994 287.085 66.8486Z" fill="#5B3005"/>
<path d="M279.094 73.6569C282.068 73.5012 284.913 72.393 287.209 70.4961" stroke="#380F0F" stroke-width="0.63961"/>
<path d="M277.231 78.9478C277.231 78.9478 276.579 84.6448 283.414 84.6448C289.287 84.6448 294.738 82.696 294.557 77.4902" stroke="#63252C" stroke-width="0.63961"/>
<path d="M270.076 86.5137L268.25 97.5712" stroke="#63252C" stroke-width="0.63961"/>
<path fill-rule="evenodd" clip-rule="evenodd" d="M290.28 44.1997C294.61 46.8693 298.716 50.7295 299.298 56.0741C299.832 60.8794 297.056 65.044 293.532 67.9966C293.425 68.0874 293.569 68.2796 293.686 68.1995C297.52 65.4978 300.227 60.826 299.677 56.0474C299.047 50.6121 294.872 46.645 290.339 44.1036C290.314 44.0968 290.287 44.1075 290.274 44.1297C290.26 44.1519 290.263 44.1803 290.28 44.1997Z" fill="#591906"/>
<path fill-rule="evenodd" clip-rule="evenodd" d="M275.105 44.7075C273.515 45.3495 272.505 46.9251 272.584 48.6371C272.694 50.1458 273.688 51.4458 275.115 51.9475C277.95 53.1114 281.848 52.2892 284.539 51.0558C284.694 50.9864 284.582 50.7408 284.427 50.7888C282.088 51.4723 279.686 52.1824 277.214 51.9742C275.804 51.8514 274.314 51.3815 273.476 50.1588C272.227 48.3328 273.3 45.7646 275.179 44.8997C275.286 44.8516 275.211 44.6648 275.099 44.7075H275.105Z" fill="#591906"/>
</g>
</svg>
