<svg width="113" height="32" viewBox="0 0 113 32" fill="none" xmlns="http://www.w3.org/2000/svg">
<g clip-path="url(#clip0)">
<path d="M14.0156 20.1395H15.9198C16.464 20.14 17.003 20.0333 17.506 19.8255C18.0089 19.6176 18.466 19.3126 18.851 18.928C19.236 18.5434 19.5415 18.0866 19.7499 17.5839C19.9583 17.0812 20.0655 16.5423 20.0655 15.998H18.1613C17.6171 15.9975 17.0781 16.1042 16.5752 16.3121C16.0722 16.5199 15.6151 16.8249 15.2301 17.2095C14.8451 17.5942 14.5397 18.0509 14.3313 18.5536C14.1229 19.0564 14.0156 19.5953 14.0156 20.1395Z" fill="#31BC2E"/>
<path d="M24.7633 27.2228C23.8571 26.3207 22.6982 25.7152 21.4402 25.4865C20.1822 25.2577 18.8843 25.4166 17.7186 25.942C16.1651 26.6322 14.4457 26.8605 12.7659 26.5995V12.5826C11.6664 12.5826 10.612 13.0194 9.8345 13.7969C9.05703 14.5744 8.62025 15.6288 8.62025 16.7283V24.7636C7.19631 23.6241 6.16137 22.0706 5.6584 20.3176C5.15544 18.5647 5.20929 16.6988 5.8125 14.9777C6.41571 13.2566 7.53852 11.7654 9.0258 10.71C10.5131 9.65456 12.2914 9.08707 14.1151 9.08591C15.3495 9.08319 16.5703 9.34221 17.6972 9.84589C18.863 10.3713 20.1608 10.5301 21.4188 10.3014C22.6769 10.0726 23.8357 9.46712 24.7419 8.56503L24.0972 7.92034C21.6452 5.46169 18.3715 3.99513 14.9045 3.80208C11.4375 3.60903 8.02125 4.70308 5.31138 6.87431C3.65591 8.19291 2.31877 9.86752 1.39928 11.7738C0.47978 13.68 0.00155005 15.7689 0.000105093 17.8854C-0.00708319 19.742 0.35455 21.5816 1.06402 23.2974C1.77349 25.0132 2.81666 26.5709 4.13299 27.8803C4.50435 28.2492 4.89484 28.5984 5.30284 28.9263C8.01574 31.0904 11.4304 32.1798 14.8953 31.9869C18.3602 31.794 21.6328 30.3321 24.0887 27.8803L24.7633 27.2228Z" fill="#31BC2E"/>
<path d="M38.8115 5.36681C39.5193 5.78429 40.1018 6.38449 40.4979 7.1045L38.6748 8.53905C38.0557 7.60403 37.283 7.13865 36.365 7.13865C36.027 7.12829 35.6906 7.18949 35.3779 7.31826C35.0652 7.44702 34.7832 7.64044 34.5505 7.88582C34.3148 8.13623 34.1309 8.4307 34.0093 8.75234C33.8877 9.07397 33.8307 9.41645 33.8417 9.76014C33.8296 10.1065 33.886 10.4519 34.0076 10.7765C34.1292 11.101 34.3137 11.3984 34.5505 11.6515C34.7842 11.8945 35.0668 12.0851 35.3795 12.211C35.6923 12.3368 36.0282 12.395 36.365 12.3816C37.2588 12.3816 38.0287 11.9219 38.6748 11.0026L40.4979 12.403C40.0943 13.1267 39.5047 13.7296 38.7901 14.1492C38.0385 14.5844 37.1822 14.8058 36.3138 14.7896C35.6389 14.8034 34.968 14.6817 34.341 14.4316C33.714 14.1815 33.1435 13.8082 32.6634 13.3337C32.1785 12.8718 31.7953 12.314 31.538 11.6958C31.2807 11.0776 31.155 10.4125 31.169 9.74306C31.1561 9.07815 31.2823 8.41788 31.5397 7.80465C31.797 7.19143 32.1798 6.63881 32.6634 6.18228C33.1446 5.70992 33.7155 5.33855 34.3424 5.08999C34.9693 4.84143 35.6396 4.72071 36.3138 4.73492C37.1885 4.71286 38.0525 4.93143 38.8115 5.36681Z" fill="#004C46"/>
<path d="M49.9093 6.18195C50.3977 6.63564 50.7848 7.18734 51.0452 7.80095C51.3057 8.41456 51.4336 9.07625 51.4207 9.74272C51.4332 10.4104 51.3051 11.0732 51.0447 11.6882C50.7843 12.3031 50.3975 12.8564 49.9093 13.312C49.4255 13.7864 48.852 14.1596 48.2222 14.4096C47.5925 14.6596 46.9192 14.7814 46.2418 14.7679C45.5691 14.7832 44.9001 14.6634 44.2746 14.4155C43.649 14.1677 43.0795 13.7968 42.5999 13.3248C42.1182 12.863 41.7378 12.3061 41.4828 11.6894C41.2278 11.0728 41.1037 10.4099 41.1184 9.74272C41.1043 9.07767 41.2301 8.41708 41.4875 7.8037C41.7449 7.19032 42.1283 6.63782 42.6127 6.18195C43.0929 5.70932 43.663 5.33773 44.2892 5.08914C44.9155 4.84054 45.5852 4.71998 46.2589 4.73458C46.9328 4.72228 47.6025 4.84388 48.2292 5.09233C48.8558 5.34078 49.4269 5.71115 49.9093 6.18195ZM44.4742 7.8684C44.0024 8.38299 43.751 9.06201 43.774 9.7598C43.7611 10.103 43.8164 10.4453 43.9366 10.767C44.0568 11.0887 44.2395 11.3834 44.4742 11.6341C44.9471 12.105 45.5872 12.3693 46.2546 12.3693C46.9219 12.3693 47.5621 12.105 48.035 11.6341C48.2719 11.3864 48.4568 11.0936 48.5785 10.7731C48.7003 10.4526 48.7564 10.1109 48.7437 9.76834C48.7643 9.07321 48.5096 8.39808 48.035 7.88975C47.8112 7.64259 47.5366 7.44672 47.23 7.31555C46.9235 7.18438 46.5922 7.12101 46.2589 7.12978C45.926 7.11932 45.5948 7.17976 45.2871 7.30711C44.9794 7.43445 44.7023 7.62579 44.4742 7.8684Z" fill="#004C46"/>
<path d="M66.716 5.794C67.3891 6.56883 67.7364 7.57398 67.6852 8.59907V14.5764H65.068V8.96625C65.0923 8.4708 64.9258 7.98489 64.6026 7.60854C64.4439 7.44021 64.2508 7.30807 64.0364 7.22113C63.822 7.13419 63.5913 7.09449 63.3602 7.10474C63.1234 7.09526 62.8873 7.13516 62.6668 7.22189C62.4463 7.30863 62.2462 7.4403 62.0793 7.60854C61.9161 7.77862 61.7883 7.97942 61.7032 8.19929C61.6182 8.41917 61.5777 8.65374 61.5841 8.88939V14.555H58.9626V8.96625C58.9875 8.46997 58.8192 7.98335 58.4929 7.60854C58.3346 7.43975 58.1415 7.30731 57.927 7.22033C57.7125 7.13336 57.4817 7.09392 57.2505 7.10474C57.0138 7.09526 56.7776 7.13516 56.5571 7.22189C56.3366 7.30863 56.1365 7.4403 55.9697 7.60854C55.6422 7.98239 55.475 8.47011 55.5043 8.96625V14.555H52.8828V4.94863H55.2908V5.80254C55.6434 5.44427 56.0673 5.16411 56.5351 4.98023C57.0029 4.79635 57.5041 4.71286 58.0062 4.73516C59.2985 4.73516 60.2491 5.19484 60.8583 6.11421C61.2537 5.65809 61.7471 5.29716 62.3016 5.05837C62.856 4.81959 63.4573 4.7091 64.0604 4.73516C64.5533 4.7093 65.0459 4.79057 65.5043 4.97336C65.9628 5.15615 66.3762 5.43612 66.716 5.794Z" fill="#004C46"/>
<path d="M78.4487 6.15219C79.3344 7.13373 79.803 8.42164 79.7552 9.74286C79.7999 11.0687 79.332 12.3608 78.4487 13.3506C78.0286 13.8201 77.5109 14.1921 76.932 14.4406C76.3531 14.6891 75.7269 14.8082 75.0971 14.7894C74.5631 14.8141 74.03 14.7227 73.5347 14.5215C73.0394 14.3203 72.5936 14.014 72.228 13.6238V18.0471H69.5938V4.94819H72.0018V6.15219C72.6849 5.20721 73.7124 4.73472 75.0843 4.73472C75.7142 4.71429 76.341 4.8304 76.9217 5.07508C77.5025 5.31976 78.0234 5.6872 78.4487 6.15219ZM76.3823 11.6727C76.6246 11.4187 76.813 11.1183 76.9363 10.7896C77.0595 10.4609 77.1151 10.1106 77.0995 9.75993C77.1149 9.40738 77.0601 9.05528 76.9385 8.72403C76.8168 8.39278 76.6307 8.08894 76.3908 7.83011C75.9286 7.37469 75.3088 7.11481 74.66 7.10448C74.0112 7.09414 73.3833 7.33414 72.9069 7.77461C72.6554 8.03362 72.4615 8.34286 72.3379 8.68206C72.2142 9.02126 72.1637 9.38276 72.1896 9.74286C72.1655 10.1021 72.2161 10.4624 72.338 10.8011C72.46 11.1399 72.6508 11.4497 72.8984 11.7111C73.122 11.9352 73.3884 12.1119 73.6819 12.2307C73.9753 12.3496 74.2896 12.4081 74.6062 12.4028C74.9366 12.4102 75.2649 12.3492 75.5706 12.2235C75.8762 12.0979 76.1526 11.9103 76.3823 11.6727Z" fill="#004C46"/>
<path d="M83.8477 14.5548H81.2305V0H83.8477V14.5548Z" fill="#004C46"/>
<path d="M94.6966 10.6345H87.9508C88.092 11.204 88.4328 11.704 88.9114 12.0435C89.431 12.3858 90.0444 12.5575 90.6662 12.5345C91.6426 12.5245 92.5866 12.1827 93.3432 11.5653L94.4319 13.3499C93.3688 14.2812 92.0026 14.7928 90.5893 14.7888C89.8968 14.8112 89.2068 14.6948 88.56 14.4462C87.9132 14.1976 87.3228 13.8219 86.8236 13.3414C86.3384 12.8816 85.9548 12.3254 85.6974 11.7085C85.44 11.0915 85.3146 10.4276 85.3293 9.75929C85.3201 9.09682 85.4438 8.43923 85.6931 7.82539C85.9423 7.21155 86.3122 6.65391 86.7806 6.18543C87.2491 5.71695 87.8068 5.34714 88.4206 5.09786C89.0344 4.84857 89.692 4.72487 90.3545 4.73407C90.95 4.70982 91.5442 4.80832 92.1 5.02345C92.6559 5.23857 93.1616 5.56573 93.5856 5.98457C94.0097 6.40341 94.343 6.905 94.565 7.45815C94.787 8.0113 94.8928 8.60419 94.8759 9.19998C94.8738 9.68362 94.8136 10.1653 94.6966 10.6345ZM88.8047 7.37263C88.3777 7.74327 88.0788 8.2394 87.9508 8.79011H92.3356C92.3406 8.52277 92.2875 8.25754 92.1798 8.01278C92.0722 7.76802 91.9126 7.54959 91.7122 7.37263C91.309 7.02316 90.7896 6.83734 90.2563 6.85175C89.7253 6.84403 89.2096 7.02909 88.8047 7.37263Z" fill="#004C46"/>
<path d="M102.504 12.3817V14.572C101.914 14.725 101.308 14.8038 100.698 14.8068C99.6732 14.8697 98.6619 14.5468 97.8631 13.9017C97.1914 13.2983 96.8555 12.396 96.8555 11.1948V7.16013H95.3398V4.94852H96.8555V2.52344H99.4813V4.94852H102.201V7.16013H99.4813V10.9472C99.4601 11.1592 99.4875 11.3732 99.5615 11.5729C99.6355 11.7727 99.7541 11.9529 99.9082 12.1C100.313 12.3599 100.791 12.4799 101.27 12.4415C101.418 12.4415 101.83 12.4216 102.504 12.3817Z" fill="#004C46"/>
<path d="M112.455 10.6345H105.701C105.845 11.2025 106.185 11.7013 106.661 12.0435C107.182 12.3867 107.797 12.5584 108.42 12.5345C109.397 12.5245 110.341 12.1827 111.097 11.5653L112.186 13.3499C111.123 14.2812 109.757 14.7928 108.343 14.7888C107.651 14.8112 106.961 14.6948 106.314 14.4462C105.667 14.1976 105.077 13.8219 104.578 13.3414C104.092 12.8823 103.707 12.3262 103.45 11.7091C103.193 11.092 103.068 10.4277 103.083 9.75929C103.074 9.09666 103.197 8.43881 103.446 7.8247C103.695 7.21059 104.065 6.65272 104.533 6.18412C105.002 5.71552 105.56 5.34573 106.174 5.09666C106.788 4.84758 107.446 4.72428 108.109 4.73407C108.704 4.70982 109.298 4.80832 109.854 5.02345C110.41 5.23857 110.916 5.56573 111.34 5.98457C111.764 6.40341 112.097 6.905 112.319 7.45815C112.541 8.0113 112.647 8.60419 112.63 9.19998C112.629 9.68345 112.57 10.1651 112.455 10.6345ZM106.554 7.37263C106.129 7.7444 105.83 8.24006 105.701 8.79011H110.09C110.095 8.52277 110.042 8.25754 109.934 8.01278C109.826 7.76802 109.667 7.54959 109.466 7.37263C109.065 7.02517 108.549 6.83948 108.019 6.85175C107.484 6.84208 106.963 7.02719 106.554 7.37263Z" fill="#004C46"/>
<path d="M35.2186 19.0594C35.0637 19.2058 34.9446 19.386 34.8705 19.5859C34.7965 19.7858 34.7695 20.0001 34.7917 20.2122V21.5528H36.9264V23.7644H34.7917V31.1677H32.1702V23.7644H30.8125V21.5528H32.1702V19.9816C32.1702 18.7776 32.5032 17.8767 33.1607 17.2747C33.9144 16.6415 34.8803 16.3181 35.8633 16.3696C36.351 16.3674 36.8362 16.4393 37.3022 16.5831V18.7861C37.0447 18.749 36.7852 18.7291 36.5251 18.7264C36.0651 18.6933 35.6067 18.8102 35.2186 19.0594Z" fill="#004C46"/>
<path d="M44.7176 22.3979C45.4605 23.1038 45.832 24.1228 45.832 25.4549V31.1675H43.4282V30.2282C43.0497 30.6191 42.5925 30.9251 42.0868 31.126C41.5812 31.327 41.0386 31.4182 40.4951 31.3938C39.6136 31.4421 38.7467 31.1537 38.07 30.5868C37.7795 30.3284 37.549 30.0095 37.3949 29.6525C37.2407 29.2955 37.1666 28.9091 37.1777 28.5204C37.1621 28.1251 37.243 27.732 37.4134 27.3749C37.5837 27.0179 37.8384 26.7076 38.1554 26.471C38.9323 25.9359 39.8647 25.6731 40.8067 25.7238H43.2147V25.2969C43.2276 25.0696 43.1937 24.842 43.1151 24.6283C43.0365 24.4146 42.915 24.2193 42.7579 24.0545C42.3876 23.7419 41.9088 23.5885 41.4258 23.6275C40.5719 23.6275 39.718 24.0673 38.8641 24.9468L37.5278 23.3201C38.0294 22.6928 38.6682 22.1888 39.395 21.8469C40.1218 21.5049 40.9173 21.3341 41.7204 21.3476C42.8188 21.2897 43.8956 21.6671 44.7176 22.3979ZM42.6298 28.9388C42.8205 28.7662 42.9716 28.5543 43.0726 28.3177C43.1735 28.0811 43.222 27.8254 43.2147 27.5683V27.453H41.1568C40.2645 27.453 39.8162 27.7775 39.8162 28.4222C39.8115 28.5716 39.8437 28.72 39.91 28.854C39.9762 28.9881 40.0746 29.1037 40.1962 29.1907C40.4896 29.3909 40.8404 29.4899 41.1953 29.4725C41.7244 29.4861 42.2383 29.2949 42.6298 28.9388Z" fill="#004C46"/>
<path d="M53.6778 21.5522V23.8621H52.9776C52.2924 23.8252 51.619 24.0512 51.0948 24.4939C50.8476 24.7354 50.6559 25.0277 50.5328 25.3506C50.4097 25.6735 50.3581 26.0192 50.3817 26.364V31.1672H47.7773V21.5522H50.1811V22.7178C50.4857 22.3071 50.8852 21.9762 51.3453 21.7531C51.8055 21.5301 52.3128 21.4216 52.8239 21.437C53.1127 21.4325 53.4005 21.4714 53.6778 21.5522Z" fill="#004C46"/>
<path d="M68.5609 22.3982C69.2289 23.1709 69.5757 24.17 69.5301 25.1904V31.1678H66.9128V25.5704C66.9378 25.0742 66.7694 24.5875 66.4432 24.2127C66.2856 24.044 66.0933 23.9116 65.8795 23.8246C65.6657 23.7376 65.4356 23.6981 65.205 23.7089C64.9683 23.6994 64.7321 23.7393 64.5116 23.8261C64.2911 23.9128 64.091 24.0445 63.9242 24.2127C63.7609 24.3828 63.6331 24.5836 63.5481 24.8035C63.4631 25.0233 63.4226 25.2579 63.4289 25.4936V31.1678H60.8074V25.5704C60.8335 25.0747 60.6668 24.5882 60.3421 24.2127C60.1833 24.0444 59.9902 23.9122 59.7758 23.8253C59.5614 23.7384 59.3308 23.6987 59.0996 23.7089C58.8629 23.6994 58.6267 23.7393 58.4062 23.8261C58.1857 23.9128 57.9856 24.0445 57.8188 24.2127C57.652 24.3957 57.5231 24.6098 57.4396 24.8429C57.3561 25.0759 57.3195 25.3232 57.3321 25.5704V31.1678H54.7148V21.5528H57.1186V22.4067C57.4723 22.0488 57.897 21.7689 58.3654 21.585C58.8338 21.4012 59.3355 21.3175 59.8383 21.3393C61.1305 21.3393 62.0812 21.799 62.6903 22.7184C63.0858 22.2623 63.5791 21.9013 64.1336 21.6626C64.6881 21.4238 65.2893 21.3133 65.8924 21.3393C66.3874 21.3116 66.8825 21.3919 67.3433 21.5748C67.8041 21.7576 68.2196 22.0386 68.5609 22.3982Z" fill="#004C46"/>
<path d="M80.2663 27.2393H73.5248C73.6683 27.8066 74.0088 28.3044 74.4854 28.6439C75.0057 28.9886 75.6208 29.1618 76.2445 29.1392C77.2199 29.1316 78.1638 28.7929 78.9214 28.1786L80.0102 29.9632C78.9471 30.8945 77.5809 31.4061 76.1676 31.4021C75.4751 31.4245 74.7851 31.308 74.1383 31.0594C73.4915 30.8108 72.9011 30.4352 72.4019 29.9547C71.9158 29.4956 71.5316 28.9394 71.2742 28.3224C71.0168 27.7053 70.8919 27.041 70.9076 26.3726C70.8978 25.7099 71.0211 25.0521 71.2702 24.438C71.5192 23.8239 71.889 23.266 72.3576 22.7974C72.8262 22.3288 73.3841 21.959 73.9982 21.7099C74.6123 21.4609 75.2702 21.3376 75.9328 21.3473C76.5283 21.3231 77.1225 21.4216 77.6783 21.6367C78.2342 21.8519 78.7398 22.179 79.1639 22.5978C79.5879 23.0167 79.9213 23.5183 80.1433 24.0714C80.3652 24.6246 80.4711 25.2175 80.4542 25.8133C80.4465 26.2942 80.3834 26.7727 80.2663 27.2393ZM74.3659 23.9774C73.9402 24.3491 73.6417 24.8448 73.512 25.3948H77.901C77.9061 25.1275 77.8529 24.8623 77.7453 24.6175C77.6377 24.3728 77.4781 24.1543 77.2777 23.9774C76.8745 23.6279 76.3551 23.4421 75.8218 23.4565C75.2936 23.4501 74.781 23.6351 74.3787 23.9774H74.3659Z" fill="#004C46"/>
<path d="M87.8099 21.5522V23.8621H87.0969C86.4117 23.8252 85.7383 24.0512 85.214 24.4939C84.973 24.7385 84.7876 25.0321 84.6705 25.3549C84.5533 25.6776 84.5072 26.0218 84.5352 26.364V31.1672H81.918V21.5522H84.3217V22.7178C84.6264 22.3071 85.0258 21.9762 85.486 21.7531C85.9461 21.5301 86.4534 21.4216 86.9645 21.437C87.2505 21.4331 87.5354 21.4719 87.8099 21.5522Z" fill="#004C46"/>
<path d="M90.3034 28.3071C90.6276 28.6548 90.8078 29.1125 90.8078 29.5879C90.8078 30.0633 90.6276 30.521 90.3034 30.8688C90.1377 31.0393 89.9381 31.1734 89.7176 31.2624C89.497 31.3513 89.2603 31.3932 89.0226 31.3854C88.7819 31.3918 88.5424 31.3494 88.3186 31.2606C88.0947 31.1718 87.8912 31.0385 87.7204 30.8688C87.3886 30.525 87.2031 30.0658 87.2031 29.5879C87.2031 29.1101 87.3886 28.6509 87.7204 28.3071C87.8902 28.1354 88.0933 28.0003 88.3173 27.91C88.5412 27.8197 88.7812 27.7761 89.0226 27.7819C89.2609 27.7752 89.498 27.8185 89.7186 27.9089C89.9392 27.9994 90.1384 28.135 90.3034 28.3071Z" fill="#004C46"/>
</g>
<defs>
<clipPath id="clip0">
<rect width="112.63" height="32" fill="white"/>
</clipPath>
</defs>
</svg>
