<svg width="169" height="48" viewBox="0 0 169 48" fill="none" xmlns="http://www.w3.org/2000/svg">
<g clip-path="url(#clip0)">
<path d="M21.0273 30.2092H23.8836C24.7 30.2101 25.5085 30.05 26.2629 29.7382C27.0173 29.4264 27.7029 28.9689 28.2804 28.392C28.858 27.8151 29.3161 27.1299 29.6287 26.3758C29.9413 25.6217 30.1022 24.8134 30.1022 23.9971H27.2459C26.4296 23.9962 25.6211 24.1563 24.8666 24.4681C24.1122 24.7799 23.4266 25.2374 22.8491 25.8143C22.2716 26.3912 21.8134 27.0763 21.5008 27.8305C21.1882 28.5846 21.0273 29.3929 21.0273 30.2092Z" fill="#31BC2E"/>
<path d="M37.1449 40.8337C35.7856 39.4806 34.0473 38.5723 32.1603 38.2292C30.2732 37.8861 28.3265 38.1244 26.5779 38.9124C24.2477 39.9478 21.6686 40.2902 19.1489 39.8987V18.8735C17.4997 18.8735 15.918 19.5286 14.7517 20.6948C13.5855 21.8611 12.9304 23.4428 12.9304 25.092V37.1449C10.7945 35.4357 9.24205 33.1054 8.48761 30.476C7.73316 27.8465 7.81393 25.0476 8.71875 22.4661C9.62357 19.8845 11.3078 17.6476 13.5387 16.0645C15.7696 14.4814 18.4371 13.6301 21.1727 13.6284C23.0242 13.6243 24.8555 14.0128 26.5459 14.7683C28.2945 15.5564 30.2412 15.7947 32.1283 15.4516C34.0153 15.1085 35.7536 14.2002 37.1129 12.8471L36.1459 11.88C32.4678 8.19204 27.5573 5.99221 22.3567 5.70263C17.1562 5.41305 12.0319 7.05414 7.96707 10.311C5.48387 12.2889 3.47816 14.8008 2.09891 17.6602C0.71967 20.5196 0.00232508 23.6529 0.00015764 26.8276C-0.0106248 29.6126 0.531825 32.3719 1.59603 34.9456C2.66023 37.5192 4.22499 39.8559 6.19949 41.82C6.75653 42.3734 7.34226 42.8971 7.95426 43.389C12.0236 46.635 17.1456 48.2693 22.343 47.9799C27.5403 47.6905 32.4492 45.4977 36.133 41.82L37.1449 40.8337Z" fill="#31BC2E"/>
<path d="M58.2152 8.04972C59.277 8.67595 60.1507 9.57625 60.7449 10.6563L58.0103 12.8081C57.0817 11.4056 55.9225 10.7075 54.5456 10.7075C54.0385 10.6919 53.5339 10.7838 53.0649 10.9769C52.5958 11.17 52.1728 11.4602 51.8238 11.8282C51.4703 12.2039 51.1944 12.6456 51.012 13.128C50.8296 13.6105 50.7441 14.1242 50.7607 14.6397C50.7425 15.1593 50.8271 15.6774 51.0095 16.1642C51.1919 16.651 51.4686 17.0971 51.8238 17.4768C52.1744 17.8412 52.5982 18.1272 53.0673 18.316C53.5365 18.5048 54.0403 18.592 54.5456 18.5719C55.8862 18.5719 57.0411 17.8824 58.0103 16.5034L60.7449 18.604C60.1394 19.6896 59.2551 20.5938 58.1832 21.2233C57.0557 21.8761 55.7713 22.2083 54.4687 22.1839C53.4564 22.2047 52.4501 22.0221 51.5096 21.6469C50.569 21.2718 49.7133 20.7118 48.9931 20.0001C48.2658 19.3073 47.6909 18.4705 47.305 17.5432C46.9191 16.6159 46.7306 15.6183 46.7516 14.6141C46.7321 13.6167 46.9215 12.6263 47.3075 11.7065C47.6936 10.7867 48.2677 9.95773 48.9931 9.27293C49.715 8.56439 50.5713 8.00733 51.5117 7.63449C52.452 7.26166 53.4574 7.08058 54.4687 7.10189C55.7808 7.0688 57.0767 7.39666 58.2152 8.04972Z" fill="#004C46"/>
<path d="M74.8639 9.27341C75.5965 9.95394 76.1771 10.7815 76.5678 11.7019C76.9585 12.6223 77.1504 13.6149 77.131 14.6146C77.1498 15.6161 76.9577 16.6103 76.5671 17.5327C76.1765 18.4551 75.5962 19.285 74.8639 19.9685C74.1383 20.6802 73.278 21.2398 72.3334 21.6148C71.3887 21.9898 70.3788 22.1726 69.3627 22.1524C68.3536 22.1754 67.3502 21.9956 66.4118 21.6238C65.4735 21.252 64.6193 20.6956 63.8998 19.9878C63.1774 19.295 62.6068 18.4596 62.2242 17.5346C61.8416 16.6097 61.6555 15.6153 61.6775 14.6146C61.6565 13.617 61.8452 12.6261 62.2313 11.706C62.6174 10.786 63.1924 9.95722 63.919 9.27341C64.6394 8.56447 65.4945 8.00708 66.4339 7.63419C67.3732 7.2613 68.3778 7.08046 69.3883 7.10236C70.3992 7.08391 71.4038 7.26631 72.3437 7.63899C73.2837 8.01167 74.1403 8.56721 74.8639 9.27341ZM66.7113 11.8031C66.0035 12.575 65.6265 13.5935 65.661 14.6402C65.6417 15.155 65.7246 15.6684 65.9049 16.151C66.0852 16.6335 66.3592 17.0756 66.7113 17.4517C67.4206 18.158 68.3809 18.5545 69.3819 18.5545C70.3829 18.5545 71.3431 18.158 72.0525 17.4517C72.4079 17.08 72.6852 16.6409 72.8678 16.1601C73.0504 15.6794 73.1347 15.1669 73.1156 14.653C73.1464 13.6103 72.7643 12.5976 72.0525 11.8351C71.7167 11.4644 71.3048 11.1706 70.845 10.9738C70.3852 10.7771 69.8883 10.682 69.3883 10.6952C68.889 10.6795 68.3921 10.7701 67.9306 10.9612C67.4691 11.1522 67.0534 11.4392 66.7113 11.8031Z" fill="#004C46"/>
<path d="M100.074 8.691C101.084 9.85324 101.605 11.361 101.528 12.8986V21.8646H97.602V13.4494C97.6385 12.7062 97.3886 11.9773 96.9039 11.4128C96.6659 11.1603 96.3761 10.9621 96.0545 10.8317C95.7329 10.7013 95.387 10.6417 95.0403 10.6571C94.6851 10.6429 94.3309 10.7027 94.0002 10.8328C93.6694 10.9629 93.3693 11.1605 93.119 11.4128C92.8741 11.6679 92.6824 11.9691 92.5549 12.2989C92.4273 12.6288 92.3666 12.9806 92.3761 13.3341V21.8326H88.4439V13.4494C88.4813 12.705 88.2288 11.975 87.7394 11.4128C87.5019 11.1596 87.2122 10.961 86.8905 10.8305C86.5688 10.7 86.2226 10.6409 85.8758 10.6571C85.5206 10.6429 85.1664 10.7027 84.8356 10.8328C84.5049 10.9629 84.2048 11.1605 83.9545 11.4128C83.4633 11.9736 83.2125 12.7052 83.2564 13.4494V21.8326H79.3242V7.42295H82.9362V8.70381C83.465 8.16641 84.1009 7.74617 84.8026 7.47035C85.5043 7.19453 86.2561 7.06928 87.0093 7.10274C88.9477 7.10274 90.3737 7.79226 91.2874 9.17132C91.8806 8.48713 92.6207 7.94574 93.4524 7.58756C94.284 7.22938 95.1859 7.06365 96.0906 7.10274C96.8299 7.06396 97.5688 7.18585 98.2565 7.46004C98.9442 7.73422 99.5642 8.15418 100.074 8.691Z" fill="#004C46"/>
<path d="M117.673 9.22829C119.002 10.7006 119.705 12.6325 119.633 14.6143C119.7 16.6031 118.998 18.5412 117.673 20.0259C117.043 20.7301 116.266 21.2881 115.398 21.6609C114.53 22.0337 113.59 22.2123 112.646 22.1841C111.845 22.2212 111.045 22.0841 110.302 21.7822C109.559 21.4804 108.89 21.021 108.342 20.4358V27.0706H104.391V7.42229H108.003V9.22829C109.027 7.81081 110.569 7.10207 112.627 7.10207C113.571 7.07144 114.511 7.24561 115.383 7.61262C116.254 7.97964 117.035 8.53081 117.673 9.22829ZM114.573 17.509C114.937 17.128 115.22 16.6774 115.404 16.1843C115.589 15.6913 115.673 15.166 115.649 14.6399C115.672 14.1111 115.59 13.5829 115.408 13.086C115.225 12.5892 114.946 12.1334 114.586 11.7452C113.893 11.062 112.963 10.6722 111.99 10.6567C111.017 10.6412 110.075 11.0012 109.36 11.6619C108.983 12.0504 108.692 12.5143 108.507 13.0231C108.321 13.5319 108.246 14.0741 108.284 14.6143C108.248 15.1531 108.324 15.6936 108.507 16.2017C108.69 16.7098 108.976 17.1745 109.348 17.5667C109.683 17.9028 110.083 18.1679 110.523 18.3461C110.963 18.5244 111.434 18.6121 111.909 18.6041C112.405 18.6153 112.897 18.5237 113.356 18.3353C113.814 18.1468 114.229 17.8655 114.573 17.509Z" fill="#004C46"/>
<path d="M125.773 21.8322H121.848V0H125.773V21.8322Z" fill="#004C46"/>
<path d="M142.049 15.9528H131.93C132.142 16.807 132.653 17.5569 133.371 18.0662C134.15 18.5797 135.07 18.8372 136.003 18.8027C137.468 18.7877 138.884 18.275 140.019 17.3489L141.652 20.0259C140.057 21.4228 138.008 22.1901 135.888 22.1841C134.849 22.2178 133.814 22.0431 132.844 21.6702C131.874 21.2973 130.988 20.7339 130.239 20.0131C129.511 19.3234 128.936 18.4891 128.55 17.5637C128.164 16.6383 127.976 15.6423 127.998 14.6399C127.984 13.6462 128.17 12.6598 128.544 11.7391C128.917 10.8183 129.472 9.98184 130.175 9.27913C130.878 8.57641 131.714 8.02169 132.635 7.64776C133.556 7.27384 134.542 7.08828 135.536 7.10208C136.429 7.06571 137.32 7.21346 138.154 7.53615C138.988 7.85884 139.746 8.34956 140.382 8.97783C141.018 9.6061 141.518 10.3585 141.851 11.1882C142.184 12.0179 142.343 12.9073 142.318 13.8009C142.315 14.5264 142.224 15.2489 142.049 15.9528ZM133.211 11.0599C132.57 11.6159 132.122 12.3601 131.93 13.1861H138.507C138.515 12.7851 138.435 12.3873 138.274 12.0201C138.112 11.653 137.873 11.3254 137.572 11.0599C136.967 10.5357 136.188 10.257 135.388 10.2786C134.592 10.267 133.818 10.5446 133.211 11.0599Z" fill="#004C46"/>
<path d="M153.754 18.5726V21.858C152.869 22.0874 151.959 22.2058 151.045 22.2102C149.508 22.3045 147.991 21.8202 146.793 20.8525C145.785 19.9474 145.281 18.594 145.281 16.7922V10.7402H143.008V7.42278H145.281V3.78516H149.22V7.42278H153.299V10.7402H149.22V16.4208C149.188 16.7387 149.229 17.0597 149.34 17.3594C149.451 17.659 149.629 17.9294 149.86 18.1499C150.467 18.5398 151.185 18.7198 151.903 18.6623C152.125 18.6623 152.742 18.6324 153.754 18.5726Z" fill="#004C46"/>
<path d="M168.68 15.9528H158.549C158.766 16.8047 159.276 17.553 159.99 18.0662C160.771 18.581 161.694 18.8385 162.628 18.8027C164.093 18.7877 165.509 18.275 166.644 17.3489L168.277 20.0259C166.682 21.4228 164.633 22.1901 162.513 22.1841C161.474 22.2178 160.439 22.0431 159.469 21.6702C158.499 21.2973 157.613 20.7339 156.865 20.0131C156.135 19.3244 155.559 18.4902 155.173 17.5646C154.787 16.639 154.6 15.6426 154.623 14.6399C154.608 13.646 154.793 12.6592 155.167 11.738C155.541 10.8169 156.095 9.98005 156.798 9.27716C157.501 8.57426 158.338 8.01958 159.259 7.64596C160.18 7.27235 161.167 7.0874 162.161 7.10208C163.054 7.06571 163.945 7.21346 164.779 7.53615C165.613 7.85884 166.371 8.34956 167.008 8.97783C167.644 9.6061 168.144 10.3585 168.477 11.1882C168.81 12.0179 168.968 12.9073 168.943 13.8009C168.942 14.5261 168.854 15.2486 168.68 15.9528ZM159.83 11.0599C159.191 11.6176 158.743 12.3611 158.549 13.1861H165.132C165.14 12.7851 165.06 12.3873 164.899 12.0201C164.737 11.653 164.498 11.3254 164.197 11.0599C163.596 10.5387 162.822 10.2602 162.026 10.2786C161.224 10.2641 160.443 10.5418 159.83 11.0599Z" fill="#004C46"/>
<path d="M52.828 28.5886C52.5955 28.8082 52.4169 29.0785 52.3058 29.3784C52.1947 29.6783 52.1543 29.9997 52.1875 30.3177V32.3287H55.3897V35.6461H52.1875V46.7511H48.2553V35.6461H46.2188V32.3287H48.2553V29.9719C48.2553 28.1659 48.7548 26.8146 49.7411 25.9116C50.8716 24.9618 52.3205 24.4766 53.795 24.5539C54.5265 24.5506 55.2542 24.6585 55.9532 24.8741V28.1787C55.5671 28.1231 55.1777 28.0931 54.7877 28.0891C54.0976 28.0395 53.4101 28.2148 52.828 28.5886Z" fill="#004C46"/>
<path d="M67.0784 33.5968C68.1927 34.6557 68.7499 36.1842 68.7499 38.1823V46.7512H65.1443V45.3423C64.5765 45.9286 63.8907 46.3876 63.1322 46.689C62.3737 46.9904 61.5599 47.1273 60.7446 47.0906C59.4224 47.1632 58.122 46.7305 57.1069 45.8802C56.6711 45.4925 56.3255 45.0142 56.0943 44.4787C55.863 43.9432 55.7518 43.3636 55.7684 42.7806C55.7451 42.1876 55.8665 41.5979 56.122 41.0624C56.3775 40.5268 56.7595 40.0615 57.235 39.7065C58.4005 38.9038 59.799 38.5097 61.2121 38.5858H64.8241V37.9453C64.8433 37.6044 64.7925 37.263 64.6746 36.9425C64.5567 36.6219 64.3744 36.329 64.1388 36.0817C63.5834 35.6129 62.8651 35.3827 62.1407 35.4413C60.8598 35.4413 59.579 36.1009 58.2981 37.4202L56.2936 34.9802C57.0461 34.0392 58.0042 33.2832 59.0944 32.7703C60.1846 32.2574 61.3779 32.0012 62.5826 32.0214C64.2301 31.9346 65.8454 32.5006 67.0784 33.5968ZM63.9467 43.4082C64.2328 43.1492 64.4593 42.8314 64.6108 42.4765C64.7623 42.1216 64.835 41.7381 64.8241 41.3524V41.1795H61.7372C60.3987 41.1795 59.7263 41.6662 59.7263 42.6333C59.7192 42.8575 59.7675 43.08 59.8669 43.281C59.9663 43.4821 60.1138 43.6556 60.2963 43.786C60.7364 44.0864 61.2626 44.2348 61.7949 44.2087C62.5885 44.2291 63.3594 43.9423 63.9467 43.4082Z" fill="#004C46"/>
<path d="M80.5148 32.3284V35.7931H79.4645C78.4367 35.7378 77.4266 36.0768 76.6402 36.7409C76.2695 37.1032 75.9819 37.5416 75.7972 38.0259C75.6125 38.5102 75.5352 39.0289 75.5707 39.546V46.7508H71.6641V32.3284H75.2697V34.0767C75.7267 33.4607 76.3258 32.9642 77.0161 32.6297C77.7063 32.2952 78.4672 32.1325 79.2339 32.1555C79.6671 32.1488 80.0989 32.2071 80.5148 32.3284Z" fill="#004C46"/>
<path d="M102.839 33.5963C103.841 34.7553 104.362 36.2541 104.293 37.7847V46.7507H100.367V38.3547C100.405 37.6102 100.152 36.8803 99.6628 36.3181C99.4265 36.0651 99.138 35.8664 98.8173 35.736C98.4967 35.6055 98.1514 35.5462 97.8056 35.5624C97.4504 35.5482 97.0962 35.608 96.7655 35.7381C96.4347 35.8682 96.1346 36.0657 95.8843 36.3181C95.6395 36.5732 95.4477 36.8744 95.3202 37.2042C95.1926 37.534 95.1319 37.8859 95.1414 38.2394V46.7507H91.2092V38.3547C91.2483 37.6111 90.9982 36.8813 90.5111 36.3181C90.2731 36.0656 89.9834 35.8674 89.6617 35.737C89.3401 35.6066 88.9942 35.547 88.6475 35.5624C88.2923 35.5482 87.9381 35.608 87.6074 35.7381C87.2766 35.8682 86.9765 36.0657 86.7262 36.3181C86.4761 36.5925 86.2827 36.9138 86.1574 37.2633C86.0321 37.6129 85.9773 37.9838 85.9961 38.3547V46.7507H82.0703V32.3282H85.6759V33.6091C86.2064 33.0722 86.8435 32.6523 87.5461 32.3766C88.2488 32.1008 89.0013 31.9753 89.7554 32.008C91.6938 32.008 93.1198 32.6976 94.0335 34.0766C94.6267 33.3924 95.3667 32.851 96.1984 32.4928C97.0301 32.1347 97.932 31.9689 98.8367 32.008C99.5792 31.9664 100.322 32.0869 101.013 32.3612C101.704 32.6355 102.327 33.0569 102.839 33.5963Z" fill="#004C46"/>
<path d="M120.4 40.8589H110.287C110.502 41.7099 111.013 42.4566 111.728 42.9659C112.509 43.483 113.431 43.7427 114.367 43.7088C115.83 43.6974 117.246 43.1894 118.382 42.2679L120.015 44.9448C118.421 46.3417 116.371 47.1091 114.251 47.1031C113.213 47.1368 112.178 46.962 111.207 46.5892C110.237 46.2163 109.352 45.6528 108.603 44.932C107.874 44.2434 107.297 43.4092 106.911 42.4836C106.525 41.5579 106.338 40.5615 106.361 39.5588C106.347 38.5649 106.532 37.5781 106.905 36.657C107.279 35.7358 107.834 34.899 108.536 34.1961C109.239 33.4932 110.076 32.9385 110.997 32.5649C111.918 32.1913 112.905 32.0063 113.899 32.021C114.792 31.9847 115.684 32.1324 116.517 32.4551C117.351 32.7778 118.11 33.2685 118.746 33.8968C119.382 34.525 119.882 35.2774 120.215 36.1071C120.548 36.9369 120.707 37.8262 120.681 38.7199C120.67 39.4413 120.575 40.1591 120.4 40.8589ZM111.549 35.9661C110.91 36.5237 110.462 37.2672 110.268 38.0923H116.852C116.859 37.6913 116.779 37.2934 116.618 36.9263C116.457 36.5591 116.217 36.2315 115.917 35.9661C115.312 35.4419 114.533 35.1631 113.733 35.1847C112.94 35.1751 112.171 35.4526 111.568 35.9661H111.549Z" fill="#004C46"/>
<path d="M131.717 32.3284V35.7931H130.647C129.62 35.7378 128.609 36.0768 127.823 36.7409C127.461 37.1077 127.183 37.5482 127.008 38.0323C126.832 38.5164 126.763 39.0327 126.805 39.546V46.7508H122.879V32.3284H126.485V34.0767C126.942 33.4607 127.541 32.9642 128.231 32.6297C128.921 32.2952 129.682 32.1325 130.449 32.1555C130.878 32.1496 131.305 32.2079 131.717 32.3284Z" fill="#004C46"/>
<path d="M135.455 42.4606C135.941 42.9823 136.212 43.6688 136.212 44.3819C136.212 45.095 135.941 45.7816 135.455 46.3032C135.207 46.559 134.907 46.7601 134.576 46.8935C134.246 47.027 133.89 47.0898 133.534 47.0781C133.173 47.0877 132.814 47.024 132.478 46.8908C132.142 46.7576 131.837 46.5577 131.581 46.3032C131.083 45.7874 130.805 45.0987 130.805 44.3819C130.805 43.6651 131.083 42.9764 131.581 42.4606C131.835 42.2032 132.14 42.0005 132.476 41.865C132.812 41.7296 133.172 41.6642 133.534 41.6729C133.891 41.6628 134.247 41.7277 134.578 41.8634C134.909 41.999 135.208 42.2025 135.455 42.4606Z" fill="#004C46"/>
</g>
<defs>
<clipPath id="clip0">
<rect width="168.945" height="48" fill="white"/>
</clipPath>
</defs>
</svg>
