<svg width="85" height="24" viewBox="0 0 85 24" fill="none" xmlns="http://www.w3.org/2000/svg">
<g clip-path="url(#clip0)">
<path d="M10.5117 15.1051H11.9399C12.348 15.1055 12.7523 15.0255 13.1295 14.8696C13.5067 14.7137 13.8495 14.485 14.1383 14.1965C14.427 13.908 14.6561 13.5655 14.8124 13.1884C14.9687 12.8114 15.0491 12.4072 15.0491 11.999H13.621C13.2128 11.9986 12.8086 12.0786 12.4314 12.2345C12.0542 12.3904 11.7114 12.6192 11.4226 12.9076C11.1338 13.1961 10.9048 13.5387 10.7485 13.9157C10.5922 14.2928 10.5117 14.6969 10.5117 15.1051Z" fill="#31BC2E"/>
<path d="M18.5725 20.4169C17.8928 19.7403 17.0237 19.2862 16.0801 19.1146C15.1366 18.9431 14.1632 19.0622 13.2889 19.4562C12.1238 19.9739 10.8343 20.1451 9.57446 19.9493V9.43674C8.74983 9.43674 7.95897 9.76432 7.37587 10.3474C6.79277 10.9305 6.46519 11.7214 6.46519 12.546V18.5724C5.39723 17.7179 4.62102 16.5527 4.2438 15.238C3.86658 13.9233 3.90696 12.5238 4.35937 11.233C4.81178 9.94224 5.65389 8.8238 6.76935 8.03224C7.88481 7.24068 9.21856 6.81506 10.5863 6.81419C11.5121 6.81214 12.4278 7.00641 13.2729 7.38417C14.1472 7.7782 15.1206 7.89733 16.0641 7.72578C17.0077 7.55423 17.8768 7.1001 18.5564 6.42353L18.0729 5.94001C16.2339 4.09602 13.7786 2.9961 11.1784 2.85132C8.5781 2.70653 6.01593 3.52707 3.98353 5.15549C2.74193 6.14444 1.73908 7.4004 1.04946 8.83009C0.359835 10.2598 0.00116254 11.8265 7.882e-05 13.4138C-0.00531239 14.8063 0.265913 16.186 0.798013 17.4728C1.33011 18.7596 2.11249 19.928 3.09975 20.91C3.37826 21.1867 3.67113 21.4486 3.97713 21.6945C6.01181 23.3175 8.5728 24.1346 11.1715 23.9899C13.7702 23.8452 16.2246 22.7489 18.0665 20.91L18.5725 20.4169Z" fill="#31BC2E"/>
<path d="M29.1076 4.02486C29.6385 4.33798 30.0754 4.78812 30.3725 5.32813L29.0051 6.40405C28.5408 5.70278 27.9612 5.35375 27.2728 5.35375C27.0193 5.34597 26.767 5.39188 26.5324 5.48845C26.2979 5.58502 26.0864 5.73008 25.9119 5.91412C25.7351 6.10193 25.5972 6.32278 25.506 6.56401C25.4148 6.80523 25.3721 7.06209 25.3803 7.31986C25.3713 7.57965 25.4135 7.83868 25.5047 8.0821C25.596 8.32552 25.7343 8.54855 25.9119 8.7384C26.0872 8.92061 26.2991 9.06362 26.5337 9.158C26.7682 9.25238 27.0201 9.29599 27.2728 9.28597C27.9431 9.28597 28.5206 8.9412 29.0051 8.25168L30.3725 9.30198C30.0697 9.84479 29.6275 10.2969 29.0916 10.6117C28.5279 10.938 27.8856 11.1041 27.2344 11.092C26.7282 11.1023 26.2251 11.011 25.7548 10.8235C25.2845 10.6359 24.8567 10.3559 24.4965 10C24.1329 9.65363 23.8455 9.23526 23.6525 8.7716C23.4595 8.30793 23.3653 7.80915 23.3758 7.30705C23.3661 6.80837 23.4608 6.31316 23.6538 5.85325C23.8468 5.39333 24.1338 4.97886 24.4965 4.63647C24.8575 4.2822 25.2857 4.00367 25.7558 3.81725C26.226 3.63083 26.7287 3.54029 27.2344 3.55094C27.8904 3.5344 28.5384 3.69833 29.1076 4.02486Z" fill="#004C46"/>
<path d="M37.4339 4.63622C37.8002 4.97648 38.0905 5.39026 38.2859 5.85047C38.4812 6.31067 38.5772 6.80694 38.5675 7.3068C38.5769 7.80755 38.4808 8.30468 38.2855 8.76588C38.0902 9.22708 37.8001 9.64204 37.4339 9.98378C37.0711 10.3396 36.6409 10.6194 36.1686 10.8069C35.6963 10.9944 35.1914 11.0858 34.6833 11.0757C34.1788 11.0872 33.677 10.9973 33.2079 10.8114C32.7387 10.6255 32.3116 10.3473 31.9519 9.99339C31.5906 9.64699 31.3053 9.2293 31.1141 8.76682C30.9228 8.30434 30.8297 7.80715 30.8407 7.3068C30.8302 6.80801 30.9245 6.31256 31.1176 5.85253C31.3106 5.3925 31.5981 4.97812 31.9615 4.63622C32.3216 4.28174 32.7492 4.00305 33.2189 3.81661C33.6886 3.63016 34.1909 3.53974 34.6961 3.55069C35.2016 3.54147 35.7039 3.63267 36.1738 3.81901C36.6438 4.00534 37.0721 4.28311 37.4339 4.63622ZM33.3576 5.90106C33.0037 6.287 32.8152 6.79626 32.8324 7.31961C32.8228 7.57699 32.8643 7.83373 32.9544 8.07501C33.0445 8.31629 33.1816 8.53732 33.3576 8.72534C33.7123 9.07849 34.1924 9.27675 34.6929 9.27675C35.1934 9.27675 35.6735 9.07849 36.0282 8.72534C36.2059 8.53953 36.3445 8.31994 36.4358 8.07957C36.5271 7.83921 36.5693 7.58296 36.5597 7.32601C36.5751 6.80466 36.3841 6.29832 36.0282 5.91707C35.8603 5.7317 35.6544 5.5848 35.4245 5.48642C35.1945 5.38804 34.9461 5.34052 34.6961 5.34709C34.4465 5.33924 34.198 5.38458 33.9673 5.48009C33.7365 5.5756 33.5287 5.7191 33.3576 5.90106Z" fill="#004C46"/>
<path d="M50.0351 4.3455C50.5399 4.92662 50.8004 5.68049 50.762 6.4493V10.9323H48.799V6.72468C48.8173 6.3531 48.6924 5.98867 48.45 5.70641C48.331 5.58015 48.1861 5.48105 48.0253 5.41585C47.8645 5.35064 47.6915 5.32087 47.5182 5.32855C47.3406 5.32144 47.1635 5.35137 46.9981 5.41642C46.8327 5.48147 46.6827 5.58023 46.5576 5.70641C46.4351 5.83396 46.3392 5.98456 46.2755 6.14947C46.2117 6.31438 46.1813 6.4903 46.1861 6.66705V10.9163H44.22V6.72468C44.2387 6.35248 44.1124 5.98751 43.8678 5.70641C43.749 5.57981 43.6042 5.48048 43.4433 5.41525C43.2824 5.35002 43.1093 5.32044 42.9359 5.32855C42.7584 5.32144 42.5813 5.35137 42.4159 5.41642C42.2505 5.48147 42.1004 5.58023 41.9753 5.70641C41.7297 5.98679 41.6043 6.35258 41.6263 6.72468V10.9163H39.6602V3.71148H41.4662V4.3519C41.7306 4.0832 42.0485 3.87309 42.3993 3.73518C42.7502 3.59726 43.1261 3.53464 43.5027 3.55137C44.4719 3.55137 45.1849 3.89613 45.6417 4.58566C45.9383 4.24356 46.3084 3.97287 46.7242 3.79378C47.1401 3.61469 47.591 3.53182 48.0433 3.55137C48.413 3.53198 48.7825 3.59293 49.1263 3.73002C49.4701 3.86711 49.7802 4.07709 50.0351 4.3455Z" fill="#004C46"/>
<path d="M58.8365 4.61463C59.5008 5.35079 59.8523 6.31672 59.8164 7.30763C59.8499 8.30202 59.499 9.27108 58.8365 10.0134C58.5214 10.3655 58.1332 10.6445 57.699 10.8309C57.2648 11.0173 56.7952 11.1066 56.3229 11.0926C55.9223 11.1111 55.5225 11.0425 55.151 10.8916C54.7795 10.7407 54.4452 10.511 54.171 10.2184V13.5358H52.1953V3.71163H54.0013V4.61463C54.5137 3.9059 55.2843 3.55153 56.3133 3.55153C56.7856 3.53621 57.2557 3.62329 57.6913 3.8068C58.1268 3.99031 58.5175 4.26589 58.8365 4.61463ZM57.2867 8.75499C57.4684 8.56448 57.6098 8.33919 57.7022 8.09266C57.7946 7.84614 57.8363 7.58347 57.8247 7.32044C57.8362 7.05602 57.7951 6.79195 57.7039 6.54351C57.6126 6.29507 57.473 6.06719 57.2931 5.87307C56.9465 5.5315 56.4816 5.3366 55.995 5.32885C55.5084 5.32109 55.0375 5.50109 54.6802 5.83145C54.4915 6.0257 54.3461 6.25763 54.2534 6.51203C54.1607 6.76643 54.1228 7.03756 54.1422 7.30763C54.1241 7.57705 54.1621 7.84729 54.2535 8.10134C54.345 8.35539 54.4881 8.58776 54.6738 8.78381C54.8415 8.95187 55.0413 9.08442 55.2614 9.17355C55.4815 9.26267 55.7172 9.30655 55.9546 9.30256C56.2024 9.30813 56.4487 9.26235 56.6779 9.16812C56.9072 9.07388 57.1145 8.93323 57.2867 8.75499Z" fill="#004C46"/>
<path d="M62.8848 10.9161H60.9219V0H62.8848V10.9161Z" fill="#004C46"/>
<path d="M71.0225 7.9759H65.9631C66.069 8.40303 66.3246 8.77798 66.6836 9.03261C67.0732 9.28936 67.5333 9.41809 67.9996 9.40085C68.732 9.39335 69.44 9.13702 70.0074 8.67397L70.8239 10.0125C70.0266 10.7109 69.0019 11.0946 67.942 11.0916C67.4226 11.1084 66.9051 11.0211 66.42 10.8346C65.9349 10.6482 65.4921 10.3664 65.1177 10.0061C64.7538 9.66123 64.4661 9.24405 64.273 8.78135C64.08 8.31866 63.986 7.82069 63.997 7.31946C63.9901 6.82262 64.0828 6.32943 64.2698 5.86905C64.4568 5.40866 64.7341 4.99043 65.0855 4.63908C65.4368 4.28772 65.8551 4.01036 66.3155 3.82339C66.7758 3.63643 67.269 3.54365 67.7659 3.55055C68.2125 3.53237 68.6581 3.60624 69.075 3.76759C69.4919 3.92893 69.8712 4.17429 70.1892 4.48843C70.5072 4.80256 70.7573 5.17875 70.9238 5.59361C71.0902 6.00847 71.1696 6.45314 71.1569 6.89998C71.1553 7.26271 71.1102 7.62394 71.0225 7.9759ZM66.6035 5.52947C66.2833 5.80745 66.0591 6.17955 65.9631 6.59258H69.2517C69.2555 6.39208 69.2156 6.19316 69.1349 6.00959C69.0542 5.82602 68.9345 5.6622 68.7842 5.52947C68.4818 5.26737 68.0922 5.128 67.6922 5.13881C67.294 5.13302 66.9072 5.27182 66.6035 5.52947Z" fill="#004C46"/>
<path d="M76.8771 9.28631V10.929C76.4347 11.0437 75.9797 11.1029 75.5226 11.1051C74.7539 11.1523 73.9955 10.9101 73.3964 10.4263C72.8926 9.9737 72.6407 9.29698 72.6407 8.39611V5.3701H71.5039V3.71139H72.6407V1.89258H74.61V3.71139H76.6497V5.3701H74.61V8.21039C74.5941 8.36936 74.6147 8.52987 74.6701 8.67969C74.7256 8.82951 74.8146 8.9647 74.9302 9.07497C75.2334 9.26992 75.5923 9.35992 75.9517 9.33114C76.0627 9.33114 76.3712 9.31619 76.8771 9.28631Z" fill="#004C46"/>
<path d="M84.3422 7.9759H79.2764C79.3849 8.40187 79.64 8.776 79.9969 9.03261C80.3874 9.29 80.8487 9.41877 81.3161 9.40085C82.0485 9.39335 82.7565 9.13702 83.3239 8.67397L84.1404 10.0125C83.3431 10.7109 82.3185 11.0946 81.2585 11.0916C80.7391 11.1084 80.2216 11.0211 79.7365 10.8346C79.2514 10.6482 78.8086 10.3664 78.4342 10.0061C78.0697 9.66172 77.7815 9.24463 77.5885 8.78182C77.3954 8.31901 77.3017 7.82079 77.3135 7.31946C77.3061 6.8225 77.3986 6.32911 77.5854 5.86853C77.7722 5.40795 78.0496 4.98954 78.401 4.63809C78.7525 4.28664 79.1709 4.0093 79.6315 3.82249C80.092 3.63568 80.5854 3.54321 81.0824 3.55055C81.529 3.53237 81.9747 3.60624 82.3915 3.76759C82.8084 3.92893 83.1877 4.17429 83.5057 4.48843C83.8237 4.80256 84.0738 5.17875 84.2403 5.59361C84.4067 6.00847 84.4861 6.45314 84.4734 6.89998C84.4729 7.26258 84.4288 7.62381 84.3422 7.9759ZM79.9168 5.52947C79.5976 5.8083 79.3737 6.18005 79.2764 6.59258H82.5682C82.572 6.39208 82.5321 6.19316 82.4514 6.00959C82.3707 5.82602 82.251 5.6622 82.1007 5.52947C81.8 5.26888 81.413 5.12961 81.0151 5.13881C80.6138 5.13156 80.2235 5.27039 79.9168 5.52947Z" fill="#004C46"/>
<path d="M26.414 14.2948C26.2978 14.4046 26.2084 14.5397 26.1529 14.6897C26.0974 14.8396 26.0771 15.0003 26.0938 15.1594V16.1648H27.6948V17.8235H26.0938V23.376H24.1277V17.8235H23.1094V16.1648H24.1277V14.9864C24.1277 14.0834 24.3774 13.4078 24.8705 12.9563C25.4358 12.4814 26.1602 12.2388 26.8975 12.2774C27.2632 12.2758 27.6271 12.3298 27.9766 12.4375V14.0898C27.7836 14.062 27.5889 14.0471 27.3938 14.045C27.0488 14.0202 26.705 14.1079 26.414 14.2948Z" fill="#004C46"/>
<path d="M33.5392 16.7989C34.0964 17.3283 34.3749 18.0926 34.3749 19.0916V23.3761H32.5721V22.6716C32.2883 22.9648 31.9453 23.1943 31.5661 23.345C31.1869 23.4957 30.7799 23.5642 30.3723 23.5458C29.7112 23.5821 29.061 23.3657 28.5535 22.9406C28.3356 22.7468 28.1627 22.5076 28.0471 22.2398C27.9315 21.9721 27.8759 21.6823 27.8842 21.3908C27.8726 21.0943 27.9332 20.7995 28.061 20.5317C28.1887 20.2639 28.3798 20.0312 28.6175 19.8537C29.2002 19.4524 29.8995 19.2553 30.606 19.2934H32.412V18.9732C32.4217 18.8027 32.3962 18.632 32.3373 18.4717C32.2784 18.3115 32.1872 18.165 32.0694 18.0413C31.7917 17.8069 31.4326 17.6918 31.0703 17.7211C30.4299 17.7211 29.7895 18.0509 29.1491 18.7106L28.1468 17.4906C28.523 17.0201 29.0021 16.6421 29.5472 16.3857C30.0923 16.1292 30.689 16.0011 31.2913 16.0112C32.115 15.9678 32.9227 16.2508 33.5392 16.7989ZM31.9733 21.7046C32.1164 21.5751 32.2297 21.4162 32.3054 21.2387C32.3811 21.0613 32.4175 20.8695 32.412 20.6767V20.5902H30.8686C30.1994 20.5902 29.8631 20.8336 29.8631 21.3171C29.8596 21.4292 29.8837 21.5405 29.9335 21.641C29.9832 21.7415 30.0569 21.8283 30.1481 21.8935C30.3682 22.0437 30.6313 22.1179 30.8974 22.1048C31.2942 22.1151 31.6797 21.9717 31.9733 21.7046Z" fill="#004C46"/>
<path d="M40.2574 16.1647V17.897H39.7322C39.2183 17.8694 38.7133 18.0389 38.3201 18.3709C38.1347 18.5521 37.9909 18.7713 37.8986 19.0135C37.8063 19.2556 37.7676 19.5149 37.7853 19.7735V23.3759H35.832V16.1647H37.6348V17.0389C37.8633 16.7308 38.1629 16.4826 38.508 16.3153C38.8532 16.1481 39.2336 16.0667 39.617 16.0782C39.8336 16.0749 40.0494 16.104 40.2574 16.1647Z" fill="#004C46"/>
<path d="M51.4197 16.7981C51.9207 17.3777 52.1808 18.127 52.1466 18.8923V23.3753H50.1837V19.1773C50.2023 18.8051 50.0761 18.4402 49.8314 18.159C49.7133 18.0325 49.569 17.9332 49.4087 17.868C49.2483 17.8027 49.0757 17.7731 48.9028 17.7812C48.7252 17.7741 48.5481 17.804 48.3827 17.8691C48.2173 17.9341 48.0673 18.0329 47.9422 18.159C47.8197 18.2866 47.7238 18.4372 47.6601 18.6021C47.5963 18.767 47.5659 18.9429 47.5707 19.1197V23.3753H45.6046V19.1773C45.6242 18.8056 45.4991 18.4406 45.2556 18.159C45.1365 18.0328 44.9917 17.9337 44.8309 17.8685C44.6701 17.8033 44.4971 17.7735 44.3237 17.7812C44.1462 17.7741 43.9691 17.804 43.8037 17.8691C43.6383 17.9341 43.4883 18.0329 43.3631 18.159C43.238 18.2963 43.1414 18.4569 43.0787 18.6317C43.0161 18.8064 42.9887 18.9919 42.9981 19.1773V23.3753H41.0352V16.1641H42.838V16.8045C43.1032 16.5361 43.4218 16.3262 43.7731 16.1883C44.1244 16.0504 44.5007 15.9876 44.8777 16.004C45.8469 16.004 46.5599 16.3488 47.0167 17.0383C47.3133 16.6962 47.6834 16.4255 48.0992 16.2464C48.5151 16.0673 48.966 15.9845 49.4183 16.004C49.7896 15.9832 50.1609 16.0435 50.5065 16.1806C50.8521 16.3177 51.1637 16.5285 51.4197 16.7981Z" fill="#004C46"/>
<path d="M60.1997 20.4295H55.1436C55.2512 20.8549 55.5066 21.2283 55.8641 21.483C56.2543 21.7415 56.7156 21.8714 57.1833 21.8544C57.9149 21.8487 58.6228 21.5947 59.1911 21.1339L60.0076 22.4724C59.2103 23.1709 58.1857 23.5545 57.1257 23.5515C56.6063 23.5684 56.0888 23.481 55.6037 23.2946C55.1186 23.1081 54.6758 22.8264 54.3014 22.466C53.9369 22.1217 53.6487 21.7046 53.4557 21.2418C53.2626 20.779 53.1689 20.2808 53.1807 19.7794C53.1733 19.2825 53.2658 18.7891 53.4526 18.3285C53.6394 17.8679 53.9168 17.4495 54.2682 17.0981C54.6197 16.7466 55.0381 16.4693 55.4986 16.2825C55.9592 16.0956 56.4526 16.0032 56.9496 16.0105C57.3962 15.9923 57.8419 16.0662 58.2587 16.2275C58.6756 16.3889 59.0549 16.6343 59.3729 16.9484C59.6909 17.2625 59.941 17.6387 60.1074 18.0536C60.2739 18.4684 60.3533 18.9131 60.3406 19.3599C60.3348 19.7207 60.2876 20.0795 60.1997 20.4295ZM55.7744 17.983C55.4552 18.2619 55.2312 18.6336 55.134 19.0461H58.4258C58.4296 18.8456 58.3897 18.6467 58.309 18.4631C58.2282 18.2796 58.1086 18.1158 57.9583 17.983C57.6559 17.7209 57.2663 17.5816 56.8663 17.5924C56.4702 17.5875 56.0857 17.7263 55.784 17.983H55.7744Z" fill="#004C46"/>
<path d="M65.8564 16.1647V17.897H65.3217C64.8078 17.8694 64.3027 18.0389 63.9095 18.3709C63.7288 18.5543 63.5897 18.7746 63.5019 19.0166C63.414 19.2587 63.3794 19.5168 63.4004 19.7735V23.3759H61.4375V16.1647H63.2403V17.0389C63.4688 16.7308 63.7684 16.4826 64.1135 16.3153C64.4586 16.1481 64.8391 16.0667 65.2224 16.0782C65.4369 16.0753 65.6506 16.1044 65.8564 16.1647Z" fill="#004C46"/>
<path d="M67.7276 21.2303C67.9707 21.4911 68.1059 21.8344 68.1059 22.191C68.1059 22.5475 67.9707 22.8908 67.7276 23.1516C67.6033 23.2795 67.4536 23.38 67.2882 23.4468C67.1228 23.5135 66.9452 23.5449 66.7669 23.5391C66.5864 23.5439 66.4068 23.512 66.2389 23.4454C66.071 23.3788 65.9184 23.2789 65.7903 23.1516C65.5414 22.8937 65.4023 22.5493 65.4023 22.191C65.4023 21.8326 65.5414 21.4882 65.7903 21.2303C65.9177 21.1016 66.07 21.0002 66.2379 20.9325C66.4059 20.8648 66.5859 20.8321 66.7669 20.8364C66.9457 20.8314 67.1235 20.8638 67.289 20.9317C67.4544 20.9995 67.6038 21.1012 67.7276 21.2303Z" fill="#004C46"/>
</g>
<defs>
<clipPath id="clip0">
<rect width="84.4723" height="24" fill="white"/>
</clipPath>
</defs>
</svg>
