<svg width="150" height="34" viewBox="0 0 150 34" fill="none" xmlns="http://www.w3.org/2000/svg">
<g clip-path="url(#clip0)">
<path d="M16.7157 19.6701H18.9866C20.296 19.6701 21.552 19.1507 22.4789 18.2257C23.4058 17.3007 23.9279 16.0458 23.9306 14.7363H21.6597C21.0111 14.7357 20.3687 14.8627 19.7693 15.1103C19.1698 15.3579 18.625 15.7212 18.1659 16.1793C17.7068 16.6374 17.3424 17.1815 17.0936 17.7805C16.8448 18.3795 16.7164 19.0216 16.7157 19.6701Z" fill="#31BC2E"/>
<path d="M29.5318 28.1168C28.4514 27.0404 27.0694 26.3178 25.569 26.045C24.0685 25.7722 22.5206 25.962 21.1305 26.5893C19.2773 27.4102 17.2275 27.6823 15.2242 27.3734V10.6575C13.913 10.6575 12.6555 11.1784 11.7283 12.1056C10.8011 13.0328 10.2802 14.2903 10.2802 15.6015V25.184C8.5821 23.8252 7.34787 21.9725 6.74805 19.882C6.14824 17.7914 6.21245 15.5662 6.93182 13.5138C7.65119 11.4613 8.99021 9.68289 10.7639 8.42424C12.5375 7.1656 14.6583 6.48883 16.8332 6.48745C18.3053 6.48327 19.7615 6.7922 21.1051 7.39376C22.4954 8.01958 24.043 8.20862 25.5431 7.93587C27.0432 7.66312 28.4252 6.94144 29.5063 5.86627L28.7375 5.09743C25.8132 2.16534 21.9092 0.416386 17.7746 0.186161C13.6399 -0.0440635 9.56589 1.26066 6.33421 3.84998C4.36265 5.42034 2.76964 7.41415 1.6732 9.68371C0.576762 11.9533 0.00497432 14.4404 0.000195128 16.961C-0.0105142 19.1785 0.419701 21.376 1.26583 23.4258C2.11196 25.4755 3.35711 27.3366 4.92891 28.9009C5.37207 29.3405 5.83773 29.7569 6.32402 30.1483C9.55932 32.7291 13.6315 34.0283 17.7636 33.7982C21.8957 33.5682 25.7985 31.8248 28.7273 28.9009L29.5318 28.1168Z" fill="#31BC2E"/>
<path d="M59.7555 11.3605C60.4285 11.9706 60.9596 12.7208 61.3115 13.5582C61.6634 14.3957 61.8275 15.3001 61.7922 16.2078C61.8225 17.1178 61.6563 18.0237 61.3049 18.8637C60.9534 19.7037 60.4249 20.4581 59.7555 21.0754C58.3063 22.3596 56.4152 23.0314 54.4806 22.9491H50.061V9.50715H54.4806C56.41 9.436 58.2947 10.0982 59.7555 11.3605ZM52.8105 12.0122V20.4644H54.4399C55.6444 20.5206 56.8225 20.0999 57.7189 19.2933C58.134 18.893 58.4594 18.4092 58.6736 17.8738C58.8878 17.3383 58.9858 16.7635 58.9612 16.1874C58.9874 15.6195 58.8909 15.0527 58.6782 14.5256C58.4656 13.9984 58.1419 13.5232 57.7291 13.1324C56.8147 12.3548 55.6387 11.9543 54.4399 12.0122H52.8105Z" fill="#004C46"/>
<path d="M66.5475 7.98046C66.7142 8.13638 66.8458 8.32598 66.9336 8.53666C67.0214 8.74735 67.0633 8.97431 67.0566 9.20245C67.0624 9.42747 67.0199 9.65111 66.9321 9.85836C66.8443 10.0656 66.7131 10.2517 66.5475 10.4041C66.3825 10.5673 66.1869 10.6962 65.972 10.7836C65.757 10.871 65.527 10.915 65.2949 10.9132C65.0643 10.916 64.8355 10.8723 64.6221 10.7848C64.4086 10.6974 64.215 10.5679 64.0526 10.4041C63.8875 10.2513 63.7567 10.0651 63.6689 9.85797C63.5811 9.65082 63.5383 9.42738 63.5434 9.20245C63.5374 8.97439 63.5796 8.74763 63.6674 8.53704C63.7551 8.32645 63.8864 8.13678 64.0526 7.98046C64.2169 7.82102 64.4115 7.69608 64.6249 7.61301C64.8382 7.52994 65.0661 7.49041 65.2949 7.49675C65.76 7.48576 66.2105 7.65972 66.5475 7.98046ZM66.6799 22.9499H63.9304V12.8888H66.7002L66.6799 22.9499Z" fill="#004C46"/>
<path d="M79.5265 12.8875V21.8488C79.5265 23.4917 79.053 24.7409 78.106 25.5963C77.0536 26.4761 75.7082 26.927 74.3381 26.859C72.5101 26.8869 70.7403 26.2168 69.3891 24.9853L70.8147 23.0708C71.731 23.8601 72.8857 24.3191 74.0938 24.3743C74.796 24.4111 75.4886 24.1983 76.0489 23.7735C76.2993 23.5523 76.4956 23.2766 76.6227 22.9677C76.7498 22.6587 76.8043 22.3247 76.7821 21.9914V21.4415C76.388 21.848 75.9115 22.1655 75.3846 22.3728C74.8577 22.58 74.2926 22.6722 73.7272 22.6431C73.0848 22.664 72.4451 22.5508 71.8489 22.3106C71.2528 22.0703 70.7133 21.7085 70.2648 21.248C69.8063 20.7679 69.4492 20.2004 69.2147 19.5793C68.9803 18.9582 68.8734 18.2963 68.9003 17.633C68.871 16.9694 68.9769 16.3068 69.2114 15.6853C69.446 15.0639 69.8044 14.4966 70.2648 14.0179C70.7165 13.5631 71.2571 13.2064 71.8528 12.9698C72.4485 12.7333 73.0866 12.6221 73.7272 12.6431C75.2037 12.6431 76.3035 13.1523 77.0215 14.1299V12.8875H79.5265ZM76.0693 19.6085C76.3317 19.3416 76.5346 19.0221 76.6645 18.671C76.7944 18.3199 76.8484 17.9453 76.8229 17.5719C76.85 17.2114 76.7974 16.8494 76.6689 16.5115C76.5405 16.1736 76.3392 15.8681 76.0795 15.6167C75.5806 15.1828 74.938 14.9504 74.2771 14.9649C73.9355 14.9539 73.5951 15.0103 73.2754 15.1309C72.9556 15.2515 72.6628 15.4338 72.4135 15.6676C72.1603 15.9174 71.9631 16.2182 71.8349 16.55C71.7068 16.8818 71.6506 17.2371 71.6701 17.5922C71.6535 17.9541 71.7118 18.3155 71.8415 18.6537C71.9712 18.9919 72.1694 19.2997 72.4237 19.5576C72.9118 20.0288 73.562 20.2946 74.2404 20.3003C74.9188 20.306 75.5734 20.0511 76.0693 19.5882V19.6085Z" fill="#004C46"/>
<path d="M84.8774 7.98046C85.0441 8.13638 85.1757 8.32598 85.2635 8.53666C85.3513 8.74735 85.3933 8.97431 85.3866 9.20245C85.3923 9.42747 85.3498 9.65111 85.262 9.85836C85.1742 10.0656 85.0431 10.2517 84.8774 10.4041C84.7125 10.5673 84.5169 10.6962 84.302 10.7836C84.087 10.871 83.8569 10.915 83.6249 10.9132C83.3943 10.916 83.1654 10.8723 82.952 10.7848C82.7386 10.6974 82.5449 10.5679 82.3825 10.4041C82.2174 10.2513 82.0866 10.0651 81.9989 9.85797C81.9111 9.65082 81.8683 9.42738 81.8734 9.20245C81.8674 8.97439 81.9096 8.74763 81.9974 8.53704C82.0851 8.32645 82.2164 8.13678 82.3825 7.98046C82.5469 7.82102 82.7414 7.69608 82.9548 7.61301C83.1682 7.52994 83.396 7.49041 83.6249 7.49675C84.09 7.48576 84.5404 7.65972 84.8774 7.98046ZM85.0098 22.9499H82.2603V12.8888H85.0302L85.0098 22.9499Z" fill="#004C46"/>
<path d="M91.4054 10.2493C91.2429 10.4034 91.1179 10.5929 91.0402 10.803C90.9625 11.0131 90.9342 11.2383 90.9574 11.4611V12.8868H93.1773V15.2085H90.9574V22.9479H88.2079V15.1882H86.7822V12.8868H88.2079V11.2167C88.1656 10.6979 88.2346 10.1761 88.4102 9.68613C88.5858 9.19616 88.864 8.74934 89.2262 8.37555C90.0213 7.70807 91.0411 7.36932 92.0775 7.4285C92.5951 7.42511 93.1102 7.50065 93.605 7.65254V9.95396C93.3351 9.91544 93.063 9.89503 92.7904 9.89286C92.3021 9.85566 91.8151 9.98096 91.4054 10.2493Z" fill="#004C46"/>
<path d="M101.985 13.7538C102.392 14.178 102.706 14.6824 102.907 15.2347C103.107 15.787 103.191 16.3752 103.151 16.9615V22.9493H100.605V21.9717C100.209 22.3767 99.7329 22.6945 99.2069 22.9049C98.6808 23.1153 98.1167 23.2137 97.5505 23.1937C96.6252 23.2463 95.7148 22.944 95.0047 22.3485C94.6993 22.0775 94.4572 21.7428 94.2953 21.368C94.1335 20.9933 94.0558 20.5875 94.0678 20.1794C94.0499 19.7655 94.1333 19.3534 94.3107 18.9789C94.4882 18.6045 94.7544 18.279 95.0861 18.0308C95.901 17.47 96.8784 17.1944 97.8662 17.2467H100.412V16.7986C100.425 16.5602 100.389 16.3218 100.307 16.0977C100.224 15.8737 100.097 15.6686 99.9334 15.4951C99.5488 15.1603 99.047 14.9919 98.5383 15.0267C97.6422 15.0267 96.7528 15.4883 95.8703 16.4116L94.4446 14.7212C94.9699 14.0613 95.6397 13.5308 96.4025 13.1706C97.1652 12.8104 98.0004 12.6302 98.8438 12.6438C99.9959 12.5881 101.124 12.9867 101.985 13.7538ZM99.7959 20.6173C99.996 20.4368 100.154 20.2148 100.26 19.9668C100.365 19.7189 100.416 19.4508 100.407 19.1815V19.0593H98.2684C97.3316 19.0593 96.8631 19.4004 96.8631 20.0776C96.8565 20.2332 96.8884 20.388 96.9559 20.5283C97.0234 20.6686 97.1244 20.7901 97.2501 20.8821C97.5577 21.0933 97.9264 21.1971 98.299 21.1774C98.8512 21.1891 99.387 20.9887 99.7959 20.6173Z" fill="#004C46"/>
<path d="M112.016 12.8874V15.311H111.283C110.564 15.2746 109.859 15.511 109.307 15.9729C109.051 16.2285 108.852 16.5364 108.726 16.8755C108.599 17.2147 108.548 17.5773 108.574 17.9383V22.9689H105.824V12.8874H108.37V14.1094C108.689 13.6783 109.108 13.3309 109.59 13.0968C110.072 12.8627 110.604 12.7489 111.14 12.7652C111.436 12.7625 111.732 12.8037 112.016 12.8874Z" fill="#004C46"/>
<path d="M128.223 13.7545C128.93 14.5674 129.294 15.6218 129.242 16.6974V22.95H126.492V17.0844C126.512 16.5614 126.33 16.0509 125.983 15.6588C125.815 15.4857 125.611 15.3508 125.386 15.263C125.162 15.1751 124.92 15.1365 124.679 15.1496C124.434 15.1388 124.189 15.1784 123.96 15.266C123.73 15.3536 123.521 15.4872 123.345 15.6588C123.174 15.8407 123.04 16.0552 122.953 16.2895C122.865 16.5239 122.826 16.7734 122.836 17.0233V22.95H120.087V17.0844C120.11 16.5609 119.927 16.0492 119.578 15.6588C119.41 15.4864 119.207 15.3518 118.983 15.264C118.759 15.1762 118.519 15.1372 118.279 15.1496C118.032 15.1362 117.785 15.1745 117.553 15.2622C117.322 15.3499 117.111 15.4849 116.935 15.6588C116.76 15.8511 116.625 16.0761 116.538 16.3207C116.451 16.5654 116.413 16.8249 116.426 17.0844V22.95H113.676V12.8889H116.222V13.785C116.593 13.4105 117.037 13.1174 117.527 12.9245C118.017 12.7316 118.542 12.6432 119.068 12.6649C119.65 12.623 120.233 12.7344 120.758 12.9882C121.284 13.2419 121.733 13.629 122.062 14.1109C122.478 13.6326 122.996 13.2542 123.577 13.0039C124.159 12.7535 124.79 12.6376 125.423 12.6649C125.941 12.634 126.459 12.7154 126.942 12.9035C127.426 13.0916 127.863 13.3818 128.223 13.7545Z" fill="#004C46"/>
<path d="M141.135 18.835H134.053C134.202 19.4344 134.564 19.9592 135.071 20.3116C135.616 20.6683 136.258 20.8463 136.909 20.8208C137.934 20.8086 138.925 20.4497 139.72 19.8024L140.86 21.6762C139.746 22.6585 138.313 23.2015 136.828 23.2036C136.101 23.2256 135.378 23.1018 134.7 22.8395C134.022 22.5771 133.404 22.1815 132.882 21.6762C132.372 21.1945 131.969 20.6111 131.699 19.9638C131.428 19.3165 131.297 18.6197 131.313 17.9185C131.303 17.2234 131.432 16.5333 131.693 15.889C131.955 15.2447 132.342 14.6593 132.834 14.1675C133.325 13.6757 133.91 13.2874 134.554 13.0256C135.198 12.7639 135.888 12.634 136.583 12.6436C137.207 12.6212 137.829 12.7266 138.411 12.9533C138.993 13.18 139.522 13.5232 139.967 13.9619C140.411 14.4005 140.761 14.9254 140.995 15.5042C141.229 16.083 141.343 16.7036 141.329 17.3279C141.323 17.8361 141.258 18.3419 141.135 18.835ZM134.928 15.4338C134.48 15.8222 134.166 16.3427 134.032 16.9205H138.615C138.624 16.6417 138.572 16.3643 138.463 16.1075C138.354 15.8508 138.19 15.6208 137.983 15.4338C137.561 15.0655 137.016 14.8693 136.456 14.8839C135.897 14.8741 135.353 15.0698 134.928 15.4338Z" fill="#004C46"/>
<path d="M149.648 12.8873V15.311H148.915C148.202 15.2668 147.499 15.4921 146.945 15.9423C146.688 16.1979 146.49 16.5057 146.363 16.8449C146.237 17.1841 146.185 17.5466 146.212 17.9077V22.9382H143.462V12.8873H146.008V14.1093C146.326 13.6786 146.743 13.3314 147.225 13.0973C147.706 12.8632 148.237 12.7493 148.773 12.7651C149.069 12.7618 149.364 12.803 149.648 12.8873Z" fill="#004C46"/>
<path d="M40.9009 0.160156H39.8826V33.8261H40.9009V0.160156Z" fill="#31BC2E"/>
</g>
<defs>
<clipPath id="clip0">
<rect width="150" height="33.666" fill="white" transform="translate(0 0.162109)"/>
</clipPath>
</defs>
</svg>
