<svg xmlns="http://www.w3.org/2000/svg" xmlns:xlink="http://www.w3.org/1999/xlink" width="1026" height="1016" fill="none" xmlns:v="https://vecta.io/nano"><style><![CDATA[.B{opacity:.37}.C{opacity:.26}.D{opacity:.23}.E{fill:#704d41}.F{fill:#657c55}.G{fill:#5b664e}.H{fill:#475c37}.I{fill:#e5ffb7}.J{fill:#1c7d2d}.K{stroke-miterlimit:10}]]></style><g clip-path="url(#L)"><path d="M1026 0H0V1018H1026V0Z" fill="url(#A)"/><path d="M199.603 117.674a7.66 7.66 0 0 0-6.43 3.42c-1.094-4.788-5.335-8.344-10.397-8.344-1.368 0-2.599.273-3.693.684.136-.548.136-1.232.136-1.779 0-5.882-4.788-10.671-10.67-10.807-5.883 0-10.671 4.788-10.808 10.67 0 .547 0 1.095.137 1.642-1.368-.958-3.146-1.505-4.925-1.505-4.651 0-8.618 3.694-8.892 8.345-.547-.137-1.094-.137-1.505-.137-4.788 0-8.755 3.831-8.892 8.619l72.916.41c.547-.957.821-2.189.821-3.283-.137-4.378-3.557-7.935-7.798-7.935z" fill="url(#B)"/><path d="M67.939 58.827a7.66 7.66 0 0 0-6.43 3.42c-1.094-4.788-5.335-8.345-10.397-8.345-1.368 0-2.599.274-3.694.684.137-.547.137-1.231.137-1.779 0-5.882-4.788-10.671-10.671-10.807-5.883 0-10.671 4.788-10.807 10.671 0 .547 0 1.094.137 1.642-1.368-.958-3.146-1.505-4.925-1.505-4.651 0-8.619 3.694-8.892 8.345-.547-.137-1.094-.137-1.505-.137-4.788 0-8.755 3.831-8.892 8.619l72.916.41c.547-.958.821-2.189.821-3.283-.137-4.378-3.557-7.935-7.798-7.935z" fill="url(#C)"/><path d="M580.156 111.2c-4.156 0-7.688 2.049-9.766 5.122-1.663-7.171-8.104-12.498-15.793-12.498-2.078 0-3.948.41-5.61 1.025.208-.82.208-1.844.208-2.664 0-8.809-7.273-15.98-16.208-16.185-8.935 0-16.208 7.171-16.416 15.98 0 .82 0 1.64.208 2.459-2.078-1.434-4.779-2.254-7.48-2.254-7.065 0-13.091 5.532-13.507 12.498-.831-.205-1.662-.205-2.286-.205-7.272 0-13.298 5.737-13.506 12.907l110.753.615c.831-1.434 1.247-3.278 1.247-4.917-.208-6.556-5.403-11.883-11.844-11.883z" fill="url(#D)"/><path d="M466.156 69.2c-4.156 0-7.688 2.049-9.766 5.122-1.663-7.171-8.104-12.498-15.793-12.498a16.06 16.06 0 0 0-5.61 1.024c.208-.819.208-1.844.208-2.663 0-8.81-7.273-15.98-16.208-16.185-8.935 0-16.208 7.171-16.416 15.981 0 .819 0 1.639.208 2.459-2.078-1.434-4.779-2.254-7.48-2.254-7.065 0-13.091 5.532-13.507 12.498-.831-.205-1.662-.205-2.286-.205-7.272 0-13.298 5.737-13.506 12.907L476.753 86c.831-1.434 1.247-3.278 1.247-4.917-.208-6.556-5.403-11.883-11.844-11.883z" fill="url(#E)"/><path d="M776.156 53.2c-4.156 0-7.688 2.049-9.766 5.122-1.663-7.171-8.104-12.498-15.793-12.498a16.06 16.06 0 0 0-5.61 1.024c.208-.819.208-1.844.208-2.663 0-8.81-7.273-15.981-16.208-16.185-8.935 0-16.208 7.171-16.416 15.981 0 .819 0 1.639.208 2.459-2.078-1.434-4.779-2.254-7.48-2.254-7.065 0-13.091 5.532-13.507 12.497-.831-.205-1.662-.205-2.286-.205-7.272 0-13.298 5.736-13.506 12.907L786.753 70c.831-1.434 1.247-3.278 1.247-4.917-.208-6.556-5.403-11.883-11.844-11.883z" fill="url(#F)"/><path d="M865.833 138.058c-2.736 0-5.061 1.368-6.429 3.42-1.095-4.788-5.336-8.345-10.397-8.345-1.368 0-2.6.274-3.694.684.137-.547.137-1.231.137-1.778 0-5.883-4.788-10.671-10.671-10.808-5.882 0-10.67 4.789-10.807 10.671 0 .547 0 1.094.137 1.642-1.368-.958-3.147-1.505-4.925-1.505-4.652 0-8.619 3.694-8.892 8.345-.548-.137-1.095-.137-1.505-.137-4.788 0-8.756 3.83-8.892 8.619l72.915.41c.548-.958.821-2.189.821-3.283-.137-4.515-3.557-7.935-7.798-7.935z" fill="url(#G)"/><path d="M-.676 821.851s476.621-35.979 915.347 60.057V1009H6.301L-.676 821.851z" fill="url(#H)"/><path d="M914.671 881.908C475.808 785.872-.676 821.851-.676 821.851l.274 6.02c42.682-1.505 213.549-6.567 336.535.41 141.59 7.935 32.559 12.175 33.516 15.048s60.741-.137 72.643 6.704-44.051 9.439-28.592 12.585c15.322 3.147 59.372 11.902 39.125 13.27s-34.884 10.808-4.925 12.86c30.097 2.052 78.252 14.638 76.199 10.397s-79.619-15.049-51.027-16.417 81.808.684 61.561-3.42-97.814-12.996-81.808-16.69 125.038.411 100.687-5.061c-24.488-5.472-144.6-13.544-132.835-17.648 11.901-4.104 30.096-10.67 169.088 3.557 138.991 14.091 289.338 40.63 289.338 40.63l35.705 18.195v-20.383h-.137z" class="J"/><g fill="#bbdd78"><use xlink:href="#M"/><path d="M178.675 831.837c0 .958-2.463 1.642-5.472 1.642s-5.473-.684-5.473-1.642 2.463-1.641 5.473-1.641c3.146 0 5.472.684 5.472 1.641zm47.059-1.641c3.022 0 5.472-.735 5.472-1.642s-2.45-1.641-5.472-1.641-5.472.735-5.472 1.641 2.45 1.642 5.472 1.642zm58.14 0c0 .958-2.463 1.642-5.472 1.642s-5.472-.684-5.472-1.642 2.462-1.641 5.472-1.641c3.146 0 5.472.684 5.472 1.641zm-92.753 7.388c0 .41-1.232.82-2.737.82s-2.736-.41-2.736-.82 1.232-.821 2.736-.821 2.737.41 2.737.821zm7.388 4.104c1.512 0 2.737-.368 2.737-.821s-1.225-.821-2.737-.821-2.736.367-2.736.821 1.225.821 2.736.821zm13.272-3.284c0 .41-1.232.821-2.736.821s-2.736-.411-2.736-.821 1.231-.821 2.736-.821 2.736.41 2.736.821zm24.761-6.567c0 .411-1.231.821-2.736.821s-2.736-.41-2.736-.821 1.232-.82 2.736-.82 2.736.41 2.736.82zm11.901-2.462c1.511 0 2.736-.367 2.736-.821s-1.225-.821-2.736-.821-2.736.368-2.736.821 1.225.821 2.736.821z"/><use xlink:href="#N"/><path d="M334.765 834.3c0 .958-2.463 1.642-5.473 1.642s-5.472-.684-5.472-1.642 2.463-1.641 5.472-1.641 5.473.684 5.473 1.641zm24.902 0c0 .958-2.463 1.642-5.472 1.642s-5.472-.684-5.472-1.642 2.462-1.641 5.472-1.641 5.472.684 5.472 1.641zm-22.168 4.104c0 .41-1.231.821-2.736.821s-2.736-.411-2.736-.821 1.232-.821 2.736-.821 2.736.41 2.736.821zm-14.226 5.335c0 .411-1.231.821-2.736.821s-2.736-.41-2.736-.821 1.231-.82 2.736-.82c1.641-.137 2.736.273 2.736.82zm19.975 7.525c1.511 0 2.736-.368 2.736-.821s-1.225-.821-2.736-.821-2.736.368-2.736.821 1.225.821 2.736.821zm-53.217-5.883c0 .41-1.232.821-2.736.821s-2.736-.411-2.736-.821 1.231-.821 2.736-.821 2.736.274 2.736.821z"/><use xlink:href="#O"/><path d="M319.853 831.837c1.511 0 2.736-.367 2.736-.82s-1.225-.821-2.736-.821-2.736.367-2.736.821 1.225.82 2.736.82zm192.619 13.817c3.022 0 5.472-.735 5.472-1.641s-2.45-1.642-5.472-1.642-5.472.735-5.472 1.642 2.45 1.641 5.472 1.641zm24.899 0c3.022 0 5.472-.735 5.472-1.641s-2.45-1.642-5.472-1.642-5.473.735-5.473 1.642 2.45 1.641 5.473 1.641z"/><use xlink:href="#P"/><path d="M574.718 858.651c0 .41-1.231.821-2.736.821s-2.736-.411-2.736-.821 1.231-.821 2.736-.821 2.736.41 2.736.821zm-.683 12.175c0 .411-1.232.821-2.736.821s-2.737-.41-2.737-.821 1.232-.821 2.737-.821c1.641 0 2.736.274 2.736.821zm20.382-8.071c0 .41-1.231.821-2.736.821s-2.736-.411-2.736-.821 1.232-.821 2.736-.821 2.736.274 2.736.821zm-88.785-22.026c0 .411-1.231.821-2.736.821s-2.736-.41-2.736-.821 1.231-.82 2.736-.82 2.736.41 2.736.82zm83.312 51.849c0 .957-2.462 1.641-5.472 1.641s-5.472-.684-5.472-1.641 2.462-1.642 5.472-1.642c3.147 0 5.472.684 5.472 1.642zm25.035 0c0 .957-2.462 1.641-5.472 1.641s-5.472-.684-5.472-1.641 2.463-1.642 5.472-1.642 5.472.684 5.472 1.642zm-19.562-36.253c3.023 0 5.473-.735 5.473-1.641s-2.45-1.642-5.473-1.642-5.472.735-5.472 1.642 2.45 1.641 5.472 1.641zm-2.738 40.494c0 .41-1.231.82-2.736.82s-2.736-.41-2.736-.82 1.231-.821 2.736-.821c1.505-.137 2.736.273 2.736.821zm-17.646-6.704c1.511 0 2.736-.367 2.736-.821s-1.225-.82-2.736-.82-2.736.367-2.736.82 1.225.821 2.736.821zM271.835 833.48c0 .41-1.231.82-2.736.82s-2.736-.41-2.736-.82 1.232-.821 2.736-.821 2.736.41 2.736.821z"/></g><path d="M102.204 862.208s1.095-2.463.684-6.019c-.273-3.694-2.462-5.336-2.462-5.336l.684-.957s2.462 2.189 3.283 1.641c.821-.41 3.831-3.967 1.915-7.524l-1.915-3.693 1.505-.274s1.505 3.283 2.189 3.283c.821.137 1.641-2.599 1.641-2.599l2.736.684s-3.83 5.198-3.967 6.703-1.641 3.557-.273 3.831 2.736-.684 2.736-.684l.957 1.778s-3.42.684-3.83 1.505 0 7.524 0 7.524-2.189 1.231-5.883.137z" class="E"/><path d="M103.712 858.377s-17.374-.957-13.543-5.608c2.326-2.736 3.01-3.968 2.462-5.062-.684-1.095 0-4.925 1.368-6.019s-.547-8.345.821-10.397c1.368-1.916 4.514-6.567 3.967-10.124-.684-3.557.547-5.335 1.642-8.345s-3.967-4.378 1.094-9.986c.821-.958 2.189-6.567 1.095-10.261-.958-3.83 3.557.684 5.062 5.062s1.094 11.355 3.146 13.544c1.915 2.188 4.925 5.061 2.326 6.976s3.967 6.977 3.146 9.303-.684 5.883.137 6.977c.684 1.094 6.703 2.873 3.01 7.114s-.821 5.198 1.094 6.429c1.915 1.368 4.104 6.567-1.915 7.798-6.293 1.642-10.671 2.736-14.912 2.599z" class="F"/><path d="M105.486 865.355c8.765 0 15.869-1.348 15.869-3.01s-7.104-3.01-15.869-3.01-15.869 1.348-15.869 3.01 7.105 3.01 15.869 3.01z" class="B G"/><path d="M120.398 848.254c-.684-.411-1.368-.821-1.915-1.368-.137.821.821 2.736-.957 2.599-2.737-.274-2.873-7.798-5.062-5.062-2.189 2.873-10.397 1.368-11.902-.41-1.642-1.915 3.42-4.651 3.146-6.703s-4.377-.821-5.061-2.6c-.547-1.915 6.429-7.387 4.788-8.345-1.779-.82-4.651-8.892-4.788-9.029-.274 1.095-.274 2.326 0 3.831.684 3.557-2.463 8.208-3.967 10.123-1.368 1.916.547 9.303-.821 10.397s-1.915 4.788-1.368 6.02c.684 1.094-.137 2.325-2.462 5.061-3.831 4.652 13.544 5.609 13.544 5.609 4.241.137 8.618-.957 14.774-2.325s3.968-6.567 2.052-7.798z" class="D H"/><path d="M107.541 803.519c.958 5.609-1.094 5.336 0 6.977s3.968 2.463 2.873 3.694c-1.094 1.368-3.967 4.788-1.915 6.703 2.189 1.916 6.156 2.463 4.925 6.43s-3.83 6.84-1.505 7.661c2.052.684 6.567 1.915 8.345 4.378.137-2.599-3.557-3.831-4.104-4.788-.684-1.095-.821-4.788-.137-6.977s-5.745-7.388-3.146-9.303-.274-4.925-2.326-6.977c-1.915-2.189-1.641-9.166-3.146-13.543s-6.02-8.892-5.062-5.062c.274 1.095.41 2.189.41 3.42 1.779 1.231 4.241 3.694 4.788 7.387z" class="C I"/><path d="M1044.63 862.892s-371.281-17.374-659.661 153.358h659.661V862.892z" fill="#42db3a"/><g fill="#f7e492"><path d="M435.727 1012.83h-13.68c6.293-41.727 106.706-66.488 139.675-77.706 63.887-21.614 129.553-40.63 195.765-54.037l7.524-1.368c-64.707 13.817-128.868 32.833-191.113 54.721-34.338 12.176-129.279 36.527-138.171 78.39zm57.327-.96l-18.742.41c12.86-42.134 94.394-65.39 131.194-79.481 57.321-22.025 116.283-41.315 176.065-56.089 2.6-.547 3.968-.684 6.43-1.231-57.183 15.185-113.546 34.474-168.13 56.499-36.8 14.775-113.683 38.305-126.817 79.892zm71.819-1.91l-22.846.68c12.449-39.947 78.115-64.435 113.273-80.577 47.471-21.889 96.72-41.178 146.653-57.321 2.325-.41 3.42-.684 5.608-1.094-46.513 16.827-92.341 35.842-136.392 57.594-33.517 16.553-95.351 42.135-106.296 80.718zm82.904-2.6l-25.582.82c7.798-36.666 57.868-62.932 88.101-80.853 35.569-21.205 73.053-39.4 110.263-57.868l5.336-.958c-32.833 19.29-66.623 37.074-98.362 58.005-28.728 18.742-73.463 45.145-79.756 80.854zm89.744-3.15l-27.361.96c2.736-59.922 90.427-99.595 127.774-138.721 2.052-.273 3.146-.41 5.198-.821-28.318 45.145-105.885 79.072-105.611 138.582zm93.156-3.42l-27.907.96c.82-29.825 12.175-54.176 26.813-80.169 9.713-17.1 27.36-37.347 26.266-57.594l5.609-.684c7.25 18.195-6.703 40.631-13.27 57.457-10.671 26.814-18.605 51.301-17.511 80.03zm92.485-3.284l-27.36.958c-4.925-26.677-4.104-52.122-4.378-79.209-.137-18.058 1.505-45.282-16.279-57.183 2.462-.137 3.693-.274 6.156-.548 39.262 20.11 33.106 100.961 41.861 135.982zm88.098-3.01l-25.585.821c-19.015-50.617-35.568-107.937-88.648-134.75l7.251-.411c57.731 25.309 84.818 80.714 106.982 134.34zm80.03-2.462l-22.85.684c-25.71-60.467-81.803-111.221-145.69-133.109l8.619-.274c65.391 20.658 133.521 70.043 159.921 132.699zm67.85-1.641l-18.74.41c-24.49-67.307-120.93-113.546-186.736-131.878l10.397-.136c64.709 17.51 173.059 62.792 195.079 131.604zm52.12-.548h-13.68c-5.2-34.064-46.92-59.509-74.69-76.199-40.91-24.761-85.51-42.956-132.156-54.995h12.446c47.34 12.176 92.76 30.371 134.48 54.995 26.95 15.869 71.82 41.862 73.6 76.199z"/><path d="M583.883 928.284c4.377-.958 222.851-65.802 460.747-59.236v-6.156s-225.036-10.397-460.747 65.392z"/></g><path d="M-.402 862.892S436.956 845.518 776.5 1016.25H-.402V862.892z" fill="#42db3a"/><g fill="#bbdd78"><path d="M23.946 890.664c0 1.231-3.283 2.325-7.25 2.325s-7.251-.957-7.251-2.325c0-1.232 3.283-2.326 7.251-2.326 3.967.137 7.25 1.094 7.25 2.326zm15.047-4.516c0 1.232-3.283 2.326-7.251 2.326s-7.25-.958-7.25-2.326 3.283-2.325 7.25-2.325 7.251 1.094 7.251 2.325zm68.403 6.841c0 1.231-3.284 2.325-7.251 2.325s-7.251-.957-7.251-2.325c0-1.231 3.283-2.326 7.251-2.326s7.251 1.095 7.251 2.326zm62.382-8.072c0 1.232-3.283 2.326-7.25 2.326s-7.251-.958-7.251-2.326c0-1.231 3.284-2.325 7.251-2.325 4.104 0 7.25.957 7.25 2.325zm-114.367 9.166c0 .684-1.642 1.095-3.557 1.095-2.052 0-3.557-.548-3.557-1.095 0-.684 1.642-1.094 3.557-1.094 2.052 0 3.557.547 3.557 1.094zm13.406 4.514c0 .684-1.642 1.095-3.557 1.095-2.052 0-3.557-.547-3.557-1.095 0-.684 1.642-1.094 3.557-1.094s3.557.41 3.557 1.094zm13.953-3.42c0 .684-1.642 1.095-3.557 1.095-2.052 0-3.557-.547-3.557-1.095 0-.684 1.642-1.094 3.557-1.094 2.052 0 3.557.547 3.557 1.094zm31.742 2.327c0 .684-1.641 1.094-3.557 1.094-2.052 0-3.557-.547-3.557-1.094 0-.684 1.642-1.095 3.557-1.095 2.052 0 3.557.411 3.557 1.095z"/><use xlink:href="#Q"/><path d="M169.78 891.621c1.964 0 3.556-.49 3.556-1.094s-1.592-1.095-3.556-1.095-3.557.49-3.557 1.095 1.592 1.094 3.557 1.094zm66.756 7.387c0 1.231-3.283 2.325-7.25 2.325s-7.251-.957-7.251-2.325 3.283-2.326 7.251-2.326c4.104 0 7.25 1.095 7.25 2.326zm34.34 21.888c0 1.232-3.283 2.326-7.25 2.326s-7.251-.958-7.251-2.326c0-1.231 3.283-2.325 7.251-2.325 4.104 0 7.25.957 7.25 2.325zm-34.339-15.185c1.965 0 3.557-.49 3.557-1.094s-1.592-1.095-3.557-1.095-3.557.49-3.557 1.095 1.593 1.094 3.557 1.094zm-15.185 6.02c0 .684-1.642 1.094-3.557 1.094s-3.557-.547-3.557-1.094c0-.684 1.642-1.095 3.557-1.095s3.557.547 3.557 1.095zm30.098 9.302c0 .684-1.642 1.094-3.557 1.094s-3.557-.547-3.557-1.094c0-.684 1.642-1.095 3.557-1.095s3.557.548 3.557 1.095zm-69.358-3.967c1.964 0 3.557-.49 3.557-1.094s-1.593-1.095-3.557-1.095-3.557.49-3.557 1.095 1.593 1.094 3.557 1.094zm10.397-25.446c0 .684-1.642 1.095-3.557 1.095-2.052 0-3.557-.547-3.557-1.095 0-.684 1.642-1.094 3.557-1.094s3.557.547 3.557 1.094zm24.208 3.968c1.965 0 3.557-.49 3.557-1.095s-1.592-1.094-3.557-1.094-3.556.49-3.556 1.094 1.592 1.095 3.556 1.095zm270.054 49.659c0 1.232-3.283 2.326-7.25 2.326s-7.251-.957-7.251-2.326c0-1.231 3.283-2.325 7.251-2.325s7.25 1.094 7.25 2.325zm33.106 0c0 1.232-3.284 2.326-7.251 2.326s-7.251-.957-7.251-2.326c0-1.231 3.284-2.325 7.251-2.325s7.251 1.094 7.251 2.325zm-29.415 5.61c0 .684-1.642 1.094-3.557 1.094-2.052 0-3.557-.547-3.557-1.094 0-.684 1.642-1.095 3.557-1.095s3.557.547 3.557 1.095zm71.82 14.363c0 .685-1.641 1.095-3.557 1.095-2.052 0-3.557-.547-3.557-1.095 0-.684 1.642-1.094 3.557-1.094 1.916-.137 3.557.41 3.557 1.094zm-32.83 13.681c1.964 0 3.557-.49 3.557-1.095s-1.593-1.094-3.557-1.094-3.557.49-3.557 1.094 1.592 1.095 3.557 1.095zm60.738-5.883c1.965 0 3.557-.49 3.557-1.094s-1.592-1.094-3.557-1.094-3.557.49-3.557 1.094 1.593 1.094 3.557 1.094zm-119.564-32.285c0 .684-1.642 1.094-3.557 1.094-2.052 0-3.557-.547-3.557-1.094 0-.684 1.642-1.095 3.557-1.095 1.915-.137 3.557.411 3.557 1.095zm83.59 35.842c0 1.231-3.283 2.326-7.25 2.326s-7.251-.958-7.251-2.326c0-1.231 3.284-2.325 7.251-2.325s7.25 1.094 7.25 2.325zm-1.367-26.129c0 1.231-3.283 2.325-7.25 2.325s-7.251-.957-7.251-2.325c0-1.231 3.283-2.326 7.251-2.326 4.104.137 7.25 1.095 7.25 2.326zm35.703 11.629c4.004 0 7.25-1.042 7.25-2.326s-3.246-2.326-7.25-2.326-7.251 1.042-7.251 2.326 3.246 2.326 7.251 2.326zm-30.778 20.109c0 .684-1.641 1.095-3.556 1.095-2.053 0-3.557-.548-3.557-1.095 0-.684 1.641-1.094 3.557-1.094s3.556.547 3.556 1.094zm-19.839-10.123c0 .684-1.642 1.094-3.557 1.094-2.052 0-3.557-.547-3.557-1.094 0-.684 1.641-1.095 3.557-1.095 1.915-.136 3.557.411 3.557 1.095zM161.43 899.693c0 .684-1.641 1.094-3.557 1.094-2.052 0-3.557-.547-3.557-1.094 0-.684 1.642-1.095 3.557-1.095s3.557.547 3.557 1.095z"/></g><path d="M-.402 862.892v15.595c40.083-2.599 118.334-7.113 234.48 9.987 159.375 23.53 22.572 5.472 27.223 15.459 4.515 9.986 116.283 10.807 176.339 27.223 59.92 16.28-12.449-9.028-44.187-15.458-31.739-6.293-9.029-13.544 99.182 12.722 79.482 19.29 203.152 64.982 263.208 87.83H776.5C436.956 845.655-.402 862.892-.402 862.892z" class="J"/><path d="M102.199 981.773s30.781-6.019 67.991-12.038l53.627-7.798c54.721-6.84 169.635-28.866 135.435-43.64s-61.425-14.775-53.217-22.983c8.208-8.071-53.763-20.657-53.763-20.657l20.11 2.325s42.135 6.977 45.829 14.091-4.788 6.43 16.69 11.081c21.341 4.515 59.782 13.68 59.372 32.012-.274 18.331-149.799 55.405-149.799 55.405l-142.275-7.798z" fill="#f7e492"/><g fill="#efc273"><path d="M104.797 981.911l139.675 7.524s149.389-37.074 149.799-55.405c0-3.147-.957-5.883-2.872-8.482 2.462 4.788-1.642 7.798-4.652 10.807s-8.208 3.42-15.595 3.01c-7.524-.41-8.345 8.345-19.973 14.227s-64.708 21.342-73.6 21.478 16.006-10.807 7.661-10.123-33.927 6.293-29.139 8.619 5.198 2.462-12.86 4.925-38.441-3.421-56.362-4.925c-7.661-.684-11.218-2.463-12.86-4.378-1.368.274-2.599.41-3.83.684l-63.477 11.218-1.915.821zm104.244-6.841c1.813 0 3.283-.49 3.283-1.095s-1.47-1.094-3.283-1.094-3.283.49-3.283 1.094 1.47 1.095 3.283 1.095zm19.564-1.368c0 .41-1.095.821-2.463.821s-2.462-.411-2.462-.821 1.094-.821 2.462-.821 2.463.41 2.463.821zm4.789-3.147c0 .411-1.095.821-2.463.821s-2.462-.41-2.462-.821 1.094-.821 2.462-.821 2.463.411 2.463.821zm18.468 3.967c0 .411-1.094.821-2.462.821s-2.462-.41-2.462-.821 1.094-.82 2.462-.82 2.462.41 2.462.82z"/><use xlink:href="#R"/><path d="M293.038 968.914c0 .41-1.094.82-2.462.82s-2.463-.41-2.463-.82 1.095-.821 2.463-.821c1.368.137 2.462.41 2.462.821zm15.32-3.284c0 .411-1.094.821-2.462.821s-2.462-.41-2.462-.821 1.094-.82 2.462-.82c1.368.136 2.462.41 2.462.82zm17.239-7.251c0 .411-1.095.821-2.463.821s-2.462-.41-2.462-.821 1.094-.82 2.462-.82 2.463.41 2.463.82zm22.705-14.227c1.36 0 2.463-.368 2.463-.821s-1.103-.821-2.463-.821-2.462.368-2.462.821 1.102.821 2.462.821zm-19.285 15.732c1.36 0 2.463-.367 2.463-.82s-1.103-.821-2.463-.821-2.462.367-2.462.821 1.102.82 2.462.82zm24.896-12.722c0 .411-1.094.821-2.462.821s-2.463-.41-2.463-.821 1.095-.821 2.463-.821c1.368.137 2.462.411 2.462.821z"/><use xlink:href="#S"/><path d="M295.77 967.409c.68 0 1.231-.184 1.231-.411s-.551-.41-1.231-.41-1.231.184-1.231.41.551.411 1.231.411zm24.903-5.336c.68 0 1.231-.184 1.231-.41s-.551-.411-1.231-.411-1.232.184-1.232.411.552.41 1.232.41zm55.814-26.402c0 .41-1.094.821-2.462.821s-2.463-.411-2.463-.821 1.095-.821 2.463-.821 2.462.41 2.462.821zm5.883.82c0 .411-1.094.821-2.462.821s-2.463-.41-2.463-.821 1.095-.821 2.463-.821 2.462.411 2.462.821zm-22.984-21.888c0 .41-1.095.82-2.463.82s-2.462-.41-2.462-.82 1.094-.821 2.462-.821 2.463.41 2.463.821zm-46.102-15.185c0 .41-1.094.821-2.462.821s-2.463-.411-2.463-.821 1.095-.821 2.463-.821 2.462.274 2.462.821zm51.848 15.869c0 .41-1.095.82-2.463.82s-2.462-.41-2.462-.82 1.094-.821 2.462-.821c1.368.137 2.463.41 2.463.821zm7.662 21.889c0 .273-.547.41-1.231.41s-1.231-.137-1.231-.41.547-.411 1.231-.411c.821.137 1.231.274 1.231.411zm-26.949 9.986c0 .274-.547.41-1.231.41s-1.231-.136-1.231-.41.547-.411 1.231-.411c.684.137 1.231.274 1.231.411zm20.52-9.576c0 .273-.547.41-1.231.41s-1.232-.137-1.232-.41.548-.411 1.232-.411c.684.137 1.231.274 1.231.411zm-14.911 3.146c.68 0 1.231-.184 1.231-.41s-.551-.411-1.231-.411-1.231.184-1.231.411.551.41 1.231.41zm9.028-24.214c0 .274-.547.411-1.231.411s-1.231-.137-1.231-.411.547-.41 1.231-.41 1.231.137 1.231.41zm-6.977-3.557c0 .274-.547.411-1.231.411s-1.231-.137-1.231-.411.547-.41 1.231-.41 1.231.137 1.231.41zm-6.429-2.189c0 .274-.547.411-1.231.411s-1.232-.137-1.232-.411.548-.41 1.232-.41 1.231.273 1.231.41zm3.284 1.231c.68 0 1.231-.183 1.231-.41s-.551-.41-1.231-.41-1.231.183-1.231.41.551.41 1.231.41z"/><use xlink:href="#T"/><path d="M331.891 905.163c.68 0 1.232-.184 1.232-.41s-.552-.411-1.232-.411-1.231.184-1.231.411.551.41 1.231.41zm-16.964-3.967c0 .274-.547.41-1.231.41s-1.231-.136-1.231-.41.547-.41 1.231-.41 1.231.136 1.231.41zm-6.57-3.967c0 .273-.547.41-1.231.41s-1.231-.137-1.231-.41.547-.411 1.231-.411 1.231.137 1.231.411zm2.464-2.189c.68 0 1.231-.184 1.231-.41s-.551-.411-1.231-.411-1.231.184-1.231.411.551.41 1.231.41zm26.95 12.723c0 .274-.547.41-1.231.41s-1.231-.136-1.231-.41.547-.41 1.231-.41 1.231.136 1.231.41zm-77.976 59.098c2.116 0 3.831-.551 3.831-1.231s-1.715-1.231-3.831-1.231-3.83.551-3.83 1.231 1.715 1.231 3.83 1.231zm49.93-3.967c2.116 0 3.83-.551 3.83-1.231s-1.714-1.231-3.83-1.231-3.83.551-3.83 1.231 1.714 1.231 3.83 1.231zm50.756-20.247c0 .684-1.778 1.231-3.83 1.231-2.189 0-3.831-.547-3.831-1.231s1.779-1.231 3.831-1.231 3.83.547 3.83 1.231zm-137.349 27.635c0 .957-2.599 1.778-5.746 2.052-3.283.136-5.882-.548-5.882-1.505s2.599-1.779 5.746-2.052c3.283-.137 5.882.547 5.882 1.505z"/></g><g fill="#4b2535"><path d="M159.247 975.48c-.684 0-1.231-.547-1.231-1.231v-16.417c0-.684.547-1.231 1.231-1.231s1.231.547 1.231 1.231v16.417c-.137.684-.684 1.231-1.231 1.231zm35.98-4.105c-.684 0-1.231-.547-1.231-1.231v-16.416c0-.684.547-1.231 1.231-1.231s1.232.547 1.232 1.231v16.416c0 .684-.548 1.231-1.232 1.231zm41.586-4.378c-.684 0-1.231-.547-1.231-1.231V949.35c0-.684.547-1.231 1.231-1.231s1.231.547 1.231 1.231v16.416c0 .684-.547 1.231-1.231 1.231zm39.129-7.113c-.684 0-1.231-.548-1.231-1.232v-16.416c0-.684.547-1.231 1.231-1.231s1.231.547 1.231 1.231v16.416c-.136.684-.684 1.232-1.231 1.232zm32.418-6.293c-.684 0-1.231-.547-1.231-1.231v-16.416c0-.684.547-1.232 1.231-1.232s1.231.548 1.231 1.232v16.416c0 .684-.547 1.231-1.231 1.231zm28.184-4.788c-.684 0-1.232-.547-1.232-1.231v-16.416c0-.684.548-1.232 1.232-1.232s1.231.548 1.231 1.232v16.416c0 .684-.547 1.231-1.231 1.231zm16.691-7.25c-.547 0-.958-.411-.958-.958v-13.817c0-.547.411-.958.958-.958s.958.411.958.958v13.817c.136.41-.411.958-.958.958zm9.574-5.883c-.547 0-.957-.411-.957-.958v-12.996c0-.547.41-.958.957-.958s.958.411.958.958v12.996c-.137.547-.547.958-.958.958zm-3.011-16.553v-6.156a.59.59 0 0 0-.548-.547.59.59 0 0 0-.547.547v6.156c.274.137.547.137 1.095 0zm-7.25-2.463v-6.156a.59.59 0 0 0-.548-.547.59.59 0 0 0-.547.547v6.156h1.095zm-6.84-3.009v-6.156a.59.59 0 0 0-.547-.548.59.59 0 0 0-.548.548v6.156c.274.137.684.137 1.095 0zm-8.071-2.189v-5.609a.59.59 0 0 0-.547-.547.59.59 0 0 0-.547.547v5.609h1.094zm-9.304-2.462v-5.199c0-.273-.137-.41-.411-.41s-.41.137-.41.41v5.199h.821zm-10.672-3.421v-5.198c0-.274-.137-.411-.411-.411s-.41.137-.41.411v5.198h.821zm-7.246-2.325v-4.788c0-.274-.137-.411-.411-.411s-.41.137-.41.411v4.788h.821zm-5.61-2.873v-4.788c0-.274-.137-.411-.41-.411a.36.36 0 0 0-.411.411v4.788c.137.137.411.137.821 0zm1.094-5.746v-4.377c0-.274-.137-.411-.41-.411a.36.36 0 0 0-.411.411v4.377h.821zm-6.293-4.788v-3.967c0-.137-.137-.411-.41-.411-.137 0-.411.137-.411.411v3.967h.821zm-8.895-4.241v-2.599c0-.137-.137-.274-.273-.274s-.274.137-.274.274v2.599h.547zm-9.027-3.146v-1.642c0-.137 0-.137-.137-.137s-.137 0-.137.137v1.642h.274z"/></g><g stroke="#4b2535" class="K"><g stroke-width=".41"><path d="M359.246 917.339s3.42 6.156 3.557 9.713m-3.416-11.491l3.83 6.703"/></g><g stroke-width=".684"><path d="M160.336 960.295s20.384 1.642 34.201-4.377c0 0 21.478 5.061 42.272-4.378 0 0 30.37.41 38.578-6.293 0 0 24.761.958 32.422-6.977 0 0 18.605 2.736 28.045-4.514 0 0 11.765 0 17.374-5.336 0 0 5.061 0 9.439-5.472m-203.425 44.051s25.856.821 35.432-5.062c0 0 29.549.958 42.272-5.609 0 0 29.686-.273 38.442-6.84 0 0 24.761.274 32.969-6.156 0 0 21.615-.821 28.182-6.977 0 0 10.67-.547 16.689-5.472 0 0 8.345-1.779 9.44-5.746"/></g></g><g fill="#4b2535"><path d="M358.973 914.74c-1.231-.137-2.462-.41-3.557-.821s-2.325-.957-3.146-1.915h.137c-1.369-.137-2.6-.273-3.831-.684s-2.462-.957-3.42-1.915l.137.137c-1.368-.137-2.736-.411-3.967-.684-.684-.137-1.369-.274-1.916-.548-.684-.273-1.368-.41-1.915-.82h.137c-1.642 0-3.283-.137-4.925-.411s-3.283-.684-4.651-1.641h.136c-1.915-.274-3.83-.684-5.608-1.232s-3.694-1.368-5.199-2.736h.137l-3.557-.41-1.778-.41c-.548-.137-1.095-.411-1.642-.821h.137c-1.095-.137-2.326-.547-3.284-.958-1.094-.41-2.188-1.094-2.736-2.189v-.137l.821-6.019.137.274c-1.231-.411-2.326-1.095-3.42-1.779s-2.052-1.641-2.736-2.736l.137.137c-1.505-.137-3.147-.41-4.515-.958-.684-.273-1.505-.41-2.189-.82-.684-.274-1.368-.684-2.052-1.232h.137l-4.651-.957c-1.505-.411-3.01-.958-4.378-1.779v-.136h.137c1.368.82 2.873 1.231 4.378 1.504 1.504.411 3.009.548 4.514.821h.137c.547.547 1.231.958 1.915 1.231l2.189.821c1.505.411 3.01.684 4.514.821 0 0 .137 0 .137.137.684 1.094 1.642 1.915 2.6 2.599 1.094.684 2.188 1.231 3.283 1.779.137 0 .137.136.137.273l-.821 6.019v-.136c.547.957 1.505 1.641 2.462 2.052s2.189.684 3.284.957h.136c.411.274.958.548 1.505.684l1.642.411c1.094.137 2.325.41 3.42.41h.137c1.368 1.231 3.283 2.052 5.061 2.599s3.694.958 5.609 1.232h.137c1.368.82 2.873 1.231 4.515 1.641 1.641.274 3.283.411 4.788.411h.136c.548.41 1.232.547 1.779.82.684.274 1.231.411 1.915.548l3.967.684s.137 0 .137.137c.821.957 2.052 1.504 3.147 1.778 1.231.41 2.462.547 3.693.684h.137c.821.821 1.915 1.368 3.01 1.778s2.325.684 3.557.684c.136 0 .136.137.136.274-.273.547-.41.547-.41.547z"/><path d="M358.973 917.066a16.95 16.95 0 0 1-3.693-.41c-1.232-.274-2.326-.958-3.147-1.915l.137.136c-1.368-.136-2.599-.41-3.831-.684-1.231-.41-2.462-.957-3.42-1.915l.137.137-4.104-.821c-.684-.137-1.368-.41-2.052-.547-.684-.274-1.368-.547-1.915-1.094l.137.136c-1.642.137-3.284 0-4.925-.273s-3.283-.821-4.515-1.915h.137c-1.915-.137-3.83-.411-5.746-.958-.957-.274-1.915-.547-2.736-.958s-1.778-.957-2.462-1.778l.137.137-3.694-.548c-1.231-.273-2.462-.684-3.557-1.504l-3.01-1.232c-.957-.41-1.915-.957-2.736-1.641 0 0-.136-.137 0-.137l1.095-6.293.137.274c-1.232-.274-2.463-.821-3.694-1.505-1.094-.684-2.189-1.642-2.736-2.736l.137.137-4.652-1.368c-1.504-.548-3.009-1.368-4.104-2.463h.137c-1.641 0-3.146-.41-4.651-.958s-2.873-1.231-4.241-2.052v-.136h.137c1.368.82 2.873 1.368 4.377 1.915 1.505.41 3.01.821 4.515.821h.137c1.094 1.094 2.599 1.778 3.967 2.325 1.505.548 3.01.958 4.515 1.368 0 0 .136 0 .136.137.548 1.095 1.505 1.915 2.6 2.599s2.325 1.095 3.556 1.368c.137 0 .137.137.137.274l-1.094 6.293v-.137c.821.684 1.778 1.095 2.599 1.642l2.873 1.231c.958.684 2.189 1.094 3.42 1.368s2.462.41 3.694.547c0 0 .136 0 .136.137.548.684 1.369 1.231 2.189 1.642s1.779.684 2.736.957c1.779.548 3.694.821 5.609.958h.137c1.231.958 2.736 1.505 4.378 1.778s3.146.411 4.788.274h.137c.41.41 1.094.684 1.778.958s1.368.41 2.052.547a21.86 21.86 0 0 0 4.104.821s.137 0 .137.136c.821.958 2.052 1.505 3.283 1.779 1.232.41 2.463.547 3.694.684 0 0 .137 0 .137.137.684.957 1.778 1.504 2.873 1.778s2.325.411 3.557.411c.136 0 .273.136.273.136h-.137z"/></g><g fill="#055910"><path d="M38.583 980.269s1.231-3.01.821-7.524-3.01-6.567-3.01-6.567l.821-1.094s3.01 2.599 4.104 2.052 4.651-4.925 2.326-9.44l-2.326-4.514 1.779-.274s1.778 3.967 2.736 4.104 1.915-3.146 1.915-3.146l3.283.821s-4.788 6.429-4.925 8.345c-.137 1.778-1.915 4.514-.274 4.788s3.42-.821 3.42-.821l1.231 2.189s-4.241.821-4.788 1.915 0 9.303 0 9.303-2.326 1.231-7.114-.137z"/><path d="M40.5 975.481s-21.752-1.232-16.964-6.977c2.873-3.42 3.831-4.925 3.01-6.293s0-6.156 1.642-7.524-.684-10.534.958-12.997c1.779-2.462 5.746-8.208 4.925-12.722s.547-6.704 2.052-10.397c1.368-3.694-4.925-5.472 1.368-12.449 1.094-1.231 2.599-8.208 1.368-12.86s4.514.958 6.293 6.43 1.368 14.227 3.83 16.964 6.156 6.292 2.873 8.755 4.925 8.755 3.831 11.628c-.958 2.873-.821 7.387.137 8.756s8.345 3.693 3.831 8.892-.958 6.429 1.505 8.071 5.062 8.208-2.462 9.85c-7.25 1.641-12.859 3.009-18.195 2.873z"/><path d="M62.802 980.406c0 2.052-8.892 3.83-19.973 3.83s-19.973-1.778-19.973-3.83 8.892-3.831 19.973-3.831 19.973 1.779 19.973 3.831z" class="B"/><path d="M45.425 906.806c1.231 7.113-1.368 6.703 0 8.755s4.925 3.01 3.557 4.651-5.062 6.02-2.326 8.345 7.661 3.147 6.156 8.072-4.788 8.618-1.915 9.576c2.599.821 8.208 2.462 10.534 5.609.274-3.147-4.514-4.788-5.199-6.019-.958-1.369-1.094-5.883-.137-8.756s-7.251-9.166-3.83-11.628c3.283-2.463-.41-6.156-2.873-8.755s-2.052-11.492-3.83-16.964-7.524-11.081-6.293-6.43a21.24 21.24 0 0 1 .41 4.241c1.915 1.505 4.925 4.651 5.746 9.303z" class="C"/><path d="M950.1 967.409s1.915-4.377 1.231-10.944c-.547-6.566-4.378-9.576-4.378-9.576l1.231-1.642s4.378 3.831 5.883 3.01c1.642-.821 6.84-7.114 3.42-13.68l-3.42-6.567 2.599-.547s2.599 5.882 4.104 6.019c1.368.137 2.873-4.651 2.873-4.651l4.788 1.231s-6.84 9.303-7.114 12.039c-.136 2.599-2.872 6.566-.547 6.977 2.326.547 4.925-1.231 4.925-1.231l1.779 3.283s-6.157 1.231-6.841 2.736c-.82 1.641.137 13.543.137 13.543s-3.83 1.779-10.67 0z"/><path d="M952.839 960.295s-31.327-1.778-24.487-10.123c4.104-5.062 5.609-7.114 4.377-9.166s0-8.892 2.326-10.807-1.094-15.185 1.505-18.742 8.345-11.902 7.114-18.332c-1.232-6.566.82-9.713 3.009-15.048 2.052-5.335-7.113-7.935 2.052-18.058 1.505-1.642 3.831-11.902 2.052-18.605-1.778-6.84 6.567 1.368 9.166 9.302s2.052 20.658 5.609 24.488 8.892 9.166 4.104 12.723 7.114 12.722 5.609 16.827-1.231 10.67.137 12.722 12.038 5.199 5.472 12.86c-6.567 7.524-1.505 9.302 2.052 11.765 3.557 2.325 7.387 11.901-3.557 14.227-10.807 2.189-18.742 4.241-26.54 3.967z"/><path d="M948.736 930.199c-.138.138-.138.138 0 0h0z"/><path d="M956.26 972.881c15.866 0 28.728-2.45 28.728-5.472s-12.862-5.472-28.728-5.472-28.729 2.45-28.729 5.472 12.862 5.472 28.729 5.472z" class="B"/><path d="M959.951 861.25c1.779 10.26-1.915 9.713 0 12.586 1.915 3.01 7.114 4.378 5.062 6.703-1.915 2.326-7.251 8.619-3.42 12.039 3.967 3.42 11.081 4.515 8.892 11.628s-6.84 12.449-2.736 13.817c3.83 1.232 11.902 3.557 15.185 8.072.41-4.652-6.43-6.977-7.524-8.619-1.368-2.052-1.642-8.618-.137-12.722s-10.397-13.27-5.609-16.827-.547-8.892-4.104-12.723-3.01-16.553-5.609-24.488-10.944-16.005-9.166-9.302c.548 1.915.684 3.967.684 6.156 2.873 2.326 7.388 6.977 8.482 13.68z" class="C"/><path d="M920.419 984.099s1.505-3.557 1.095-8.892c-.547-5.472-3.557-7.798-3.557-7.798l.958-1.368s3.557 3.147 4.788 2.463 5.609-5.746 2.873-11.218l-2.736-5.472 2.188-.411s2.189 4.788 3.284 4.925 2.325-3.83 2.325-3.83l3.968.957s-5.609 7.661-5.746 9.85-2.326 5.335-.411 5.746 3.968-.958 3.968-.958l1.505 2.6s-5.062.957-5.609 2.325c-.684 1.231.136 11.081.136 11.081s-3.42 1.505-9.029 0z"/><path d="M922.742 978.354s-25.719-1.368-20.11-8.209c3.42-4.104 4.515-5.745 3.557-7.524s0-7.25 1.915-8.892c1.915-1.505-.821-12.449 1.232-15.322s6.84-9.713 5.745-15.048c-.957-5.335.684-7.935 2.463-12.312 1.641-4.378-5.746-6.567 1.641-14.775 1.232-1.368 3.147-9.713 1.642-15.185-1.505-5.609 5.335 1.094 7.524 7.524s1.642 16.827 4.651 19.973c2.873 3.147 7.251 7.524 3.42 10.397-3.967 2.873 5.746 10.397 4.652 13.817-1.231 3.42-.958 8.756.137 10.397s9.849 4.241 4.514 10.534c-5.335 6.156-1.231 7.661 1.642 9.576s6.019 9.713-2.873 11.628c-9.029 1.916-15.459 3.557-21.752 3.421z"/><path d="M919.326 953.729c-.138.138-.138 0 0 0h0z"/><path d="M948.873 984.236c0 2.463-10.534 4.515-23.53 4.515s-23.531-2.052-23.531-4.515 10.534-4.514 23.531-4.514 23.53 2.052 23.53 4.514z" class="B"/><path d="M928.488 897.23c1.505 8.345-1.642 7.934 0 10.26 1.642 2.462 5.746 3.557 4.241 5.472-1.642 1.915-6.02 7.114-2.736 9.85s9.029 3.693 7.25 9.576c-1.778 5.746-5.609 10.123-2.325 11.354 3.146 1.095 9.713 2.873 12.449 6.567.273-3.83-5.336-5.746-6.156-7.114-1.095-1.641-1.368-6.977-.137-10.397s-8.482-10.807-4.652-13.817c3.968-2.873-.547-7.25-3.42-10.397s-2.462-13.543-4.651-19.973-8.892-13.133-7.524-7.524c.41 1.505.547 3.283.547 5.062 2.599 1.915 6.156 5.608 7.114 11.081z" class="C"/><path d="M868.568 982.047s1.505-3.283.957-8.345c-.41-5.062-3.283-7.387-3.283-7.387l.958-1.231s3.283 3.009 4.514 2.325c1.232-.547 5.199-5.472 2.6-10.534l-2.6-5.061 2.052-.411s2.052 4.515 3.147 4.652 2.189-3.557 2.189-3.557l3.693.957s-5.335 7.251-5.472 9.166c-.137 2.052-2.189 5.062-.41 5.335 1.778.411 3.83-.957 3.83-.957l1.368 2.462s-4.651.958-5.335 2.052c-.547 1.232.137 10.397.137 10.397s-3.01 1.505-8.345.137z"/><path d="M870.756 976.575s-24.077-1.368-18.742-7.661c3.146-3.83 4.241-5.472 3.42-6.977-.958-1.642 0-6.84 1.778-8.345s-.82-11.628 1.095-14.364 6.293-9.029 5.472-14.091.684-7.524 2.326-11.628-5.473-6.156 1.641-13.817c1.231-1.368 3.01-9.029 1.642-14.364-1.368-5.199 5.062.957 6.977 7.113 2.052 6.02 1.641 15.869 4.377 18.742 2.737 3.01 6.841 6.977 3.147 9.713s5.472 9.713 4.378 12.996c-1.095 3.147-.958 8.209.136 9.713 1.095 1.642 9.166 4.105 4.241 9.85-5.061 5.746-1.094 7.114 1.642 9.029 2.736 1.779 5.609 9.029-2.736 10.944-8.755 1.916-14.912 3.421-20.794 3.147z"/><path d="M895.379 982.047c0 2.326-9.85 4.241-22.026 4.241s-22.025-1.915-22.025-4.241 9.85-4.241 22.025-4.241 22.026 2.052 22.026 4.241z" class="B"/><path d="M876.228 900.65c1.368 7.934-1.505 7.387 0 9.712s5.472 3.284 3.968 5.199c-1.505 1.778-5.609 6.703-2.6 9.166 3.01 2.599 8.482 3.42 6.84 8.892s-5.335 9.576-2.052 10.534c2.873.957 9.166 2.736 11.629 6.156.273-3.557-4.925-5.335-5.746-6.567-1.095-1.641-1.231-6.566-.137-9.713s-7.935-10.26-4.378-12.996c3.694-2.736-.41-6.84-3.146-9.713-2.736-3.01-2.326-12.723-4.378-18.742s-8.345-12.312-6.977-7.114c.411 1.505.547 3.147.547 4.788 2.053 1.642 5.473 5.199 6.43 10.398z" class="C"/><path d="M67.997 981.227s.958-2.326.684-5.883-2.326-5.061-2.326-5.061l.684-.958s2.326 2.052 3.146 1.642 3.694-3.831 1.778-7.251l-1.778-3.557 1.368-.273s1.368 3.146 2.189 3.146c.684.137 1.505-2.462 1.505-2.462l2.599.684s-3.694 5.061-3.831 6.43-1.505 3.42-.274 3.693 2.599-.684 2.599-.684l.958 1.779s-3.283.684-3.694 1.504 0 7.251 0 7.251-2.052.958-5.609 0z"/><path d="M69.37 977.396s-16.69-.957-12.996-5.335c2.189-2.599 3.01-3.83 2.326-4.925s0-4.788 1.231-5.745-.547-8.072.821-9.987 4.378-6.293 3.831-9.713.41-5.199 1.642-8.071c1.094-2.873-3.83-4.241 1.094-9.577.821-.957 2.052-6.293 1.094-9.986s3.42.684 4.925 4.925c1.368 4.241 1.094 10.944 3.01 12.996s4.788 4.925 2.189 6.84 3.83 6.84 3.01 9.029-.684 5.746 0 6.84 6.43 2.873 2.873 6.84c-3.42 4.104-.821 4.925 1.094 6.293 1.915 1.231 3.967 6.293-1.915 7.524-5.746 1.232-10.123 2.189-14.228 2.052z"/><path d="M67.178 961.391c-.137.136 0 0 0 0h0z"/><path d="M86.468 981.227c0 1.642-6.84 2.873-15.322 2.873s-15.322-1.368-15.322-2.873c0-1.642 6.84-2.873 15.322-2.873s15.322 1.368 15.322 2.873z" class="B"/><path d="M73.198 924.59c.958 5.472-1.094 5.199 0 6.704 1.094 1.641 3.831 2.325 2.736 3.556s-3.831 4.652-1.779 6.43 5.883 2.463 4.788 6.156c-1.094 3.831-3.694 6.567-1.505 7.388 2.052.684 6.43 1.915 8.071 4.241.137-2.463-3.42-3.694-3.967-4.652-.684-1.094-.821-4.514 0-6.84.821-2.189-5.609-7.114-3.01-9.029s-.274-4.788-2.189-6.84-1.642-8.892-3.01-12.996c-1.368-4.241-5.883-8.619-4.925-4.925.274.957.41 2.189.274 3.283 1.505 1.505 3.967 3.967 4.514 7.524z" class="C"/></g><path d="M642.712 871.648s.821-1.916.547-5.062c-.274-3.01-1.915-4.378-1.915-4.378l.547-.821s1.915 1.779 2.736 1.368c.684-.41 3.146-3.283 1.642-6.293l-1.505-3.009 1.231-.274s1.231 2.599 1.778 2.736c.684.137 1.368-2.052 1.368-2.052l2.189.547s-3.146 4.241-3.283 5.473-1.368 3.009-.274 3.146c1.095.274 2.189-.547 2.189-.547l.821 1.505s-2.736.547-3.146 1.231 0 6.156 0 6.156-1.916 1.094-4.925.274z" class="E"/><path d="M643.942 868.364s-14.364-.821-11.218-4.651c1.915-2.326 2.599-3.283 2.052-4.241s0-4.104 1.094-4.925-.547-6.977.685-8.619 3.83-5.472 3.283-8.345c-.547-3.009.41-4.514 1.368-6.84.957-2.462-3.283-3.693.957-8.208.684-.821 1.779-5.472.958-8.482-.821-3.146 3.01.548 4.241 4.241 1.231 3.557.958 9.44 2.599 11.218s4.104 4.241 1.915 5.746c-2.188 1.641 3.284 5.746 2.6 7.661s-.548 4.925 0 5.745c.684.958 5.472 2.463 2.462 5.883s-.684 4.241.958 5.335 3.42 5.472-1.642 6.43c-5.198 1.368-8.892 2.189-12.312 2.052z" class="F"/><path d="M645.449 874.109c7.254 0 13.134-1.102 13.134-2.462s-5.88-2.462-13.134-2.462-13.133 1.102-13.133 2.462 5.88 2.462 13.133 2.462z" class="B G"/><path d="M657.759 860.019c-.547-.41-1.095-.684-1.642-1.094-.137.684.684 2.188-.821 2.188-2.188-.136-2.325-6.429-4.104-4.104s-8.618 1.232-9.849-.41c-1.368-1.505 2.872-3.831 2.599-5.609s-3.694-.684-4.104-2.189c-.547-1.505 5.335-6.156 3.967-6.84s-3.83-7.387-3.967-7.387c-.137.957-.274 1.915 0 3.146.547 3.01-2.052 6.704-3.283 8.345s.41 7.661-.685 8.619c-1.094.821-1.641 3.967-1.094 4.925s-.137 1.915-2.052 4.241c-3.146 3.83 11.218 4.651 11.218 4.651 3.557.137 7.114-.821 12.175-1.915 4.925-1.095 3.147-5.473 1.642-6.567z" class="D H"/><path d="M647.226 823.219c.821 4.651-.958 4.378 0 5.746s3.283 1.915 2.326 3.01-3.284 3.967-1.505 5.472 5.062 2.052 4.104 5.335-3.146 5.609-1.231 6.293c1.778.547 5.472 1.642 6.977 3.694.137-2.052-3.01-3.147-3.42-3.968-.684-.957-.684-3.967 0-5.745.684-1.916-4.788-6.02-2.6-7.661s-.273-4.104-1.915-5.746c-1.641-1.779-1.368-7.524-2.599-11.218-1.231-3.557-5.062-7.387-4.241-4.241.274.821.274 1.779.274 2.873 1.231.958 3.283 3.01 3.83 6.156z" class="C I"/><path d="M669.661 890.252s.958-2.189.684-5.335c-.274-3.283-2.189-4.651-2.189-4.651l.547-.821s2.189 1.915 2.873 1.505c.821-.411 3.284-3.42 1.642-6.704l-1.642-3.283 1.368-.274s1.368 2.873 1.916 2.873c.684.137 1.368-2.189 1.368-2.189l2.325.548s-3.42 4.514-3.42 5.882c-.137 1.368-1.368 3.147-.273 3.42s2.462-.547 2.462-.547l.821 1.642s-3.01.547-3.42 1.368 0 6.566 0 6.566-1.779.958-5.062 0z" class="E"/><path d="M671.027 886.833s-15.322-.821-12.038-4.925c2.052-2.463 2.736-3.42 2.188-4.515-.547-.957 0-4.377 1.095-5.335s-.547-7.387.684-9.166 4.104-5.745 3.42-9.029c-.547-3.146.41-4.788 1.505-7.387.957-2.599-3.42-3.967.957-8.755.821-.821 1.916-5.746.958-9.166-.821-3.283 3.146.684 4.514 4.514s.958 10.124 2.737 11.902c1.778 1.915 4.377 4.515 2.052 6.156s3.42 6.156 2.736 8.208-.548 5.199 0 6.157c.684.957 5.882 2.599 2.736 6.293s-.684 4.514.957 5.745c1.779 1.095 3.557 5.746-1.778 6.977-5.062 1.505-9.029 2.463-12.723 2.326z" class="F"/><path d="M672.673 892.989c7.782 0 14.09-1.164 14.09-2.6s-6.308-2.599-14.09-2.599-14.091 1.164-14.091 2.599 6.309 2.6 14.091 2.6z" class="B G"/><path d="M685.799 877.941c-.547-.411-1.231-.684-1.778-1.232-.137.684.684 2.463-.821 2.326-2.462-.137-2.462-6.977-4.378-4.378-1.915 2.463-9.165 1.232-10.533-.41s3.009-4.104 2.736-6.019c-.274-1.779-3.968-.684-4.378-2.326-.547-1.642 5.746-6.567 4.241-7.387s-4.104-7.935-4.241-7.935c-.274.958-.274 2.052 0 3.42.547 3.147-2.189 7.251-3.42 9.029s.41 8.208-.684 9.166-1.779 4.241-1.095 5.335c.548.958-.136 2.052-2.188 4.515-3.42 4.104 12.038 4.925 12.038 4.925 3.694.136 7.661-.821 12.997-2.052 5.061-1.232 3.146-5.883 1.504-6.977z" class="D H"/><path d="M674.446 838.404c.821 5.062-.957 4.789 0 6.157.958 1.504 3.42 2.188 2.463 3.283s-3.557 4.241-1.642 5.882 5.335 2.189 4.378 5.746c-1.095 3.42-3.42 6.019-1.368 6.703 1.778.548 5.882 1.779 7.387 3.968.137-2.326-3.146-3.42-3.694-4.241-.684-.958-.82-4.241 0-6.156.684-2.052-5.061-6.43-2.736-8.209s-.273-4.377-2.052-6.156c-1.778-1.915-1.504-8.071-2.736-11.901s-5.335-7.798-4.514-4.515c.273.958.273 1.915.273 3.01 1.505.957 3.694 3.146 4.241 6.429z" class="C I"/><path d="M572.805 846.065s.684-1.504.411-3.693c-.137-2.189-1.505-3.283-1.505-3.283l.41-.548s1.505 1.368 2.052 1.095 2.326-2.463 1.232-4.652l-1.232-2.325.958-.137s.958 1.915 1.368 2.052c.41 0 .958-1.505.958-1.505l1.641.411s-2.325 3.146-2.462 4.104c0 .957-.958 2.189-.137 2.325s1.642-.41 1.642-.41l.547 1.094s-2.052.411-2.326.958 0 4.651 0 4.651-1.231.547-3.557-.137z" class="E"/><path d="M573.762 843.739s-10.67-.547-8.344-3.42c1.368-1.641 1.915-2.462 1.504-3.146s0-3.01.821-3.694-.41-5.198.547-6.429c.821-1.232 2.873-3.968 2.463-6.293-.411-2.189.273-3.284.957-5.062s-2.462-2.736.684-6.156c.548-.547 1.368-3.968.684-6.293-.547-2.326 2.189.41 3.147 3.146s.684 6.977 1.915 8.345 3.01 3.147 1.368 4.378 2.463 4.378 1.915 5.746-.41 3.557 0 4.377c.411.684 4.105 1.779 1.916 4.378s-.548 3.147.684 3.967 2.462 3.968-1.232 4.788c-3.693.684-6.429 1.368-9.029 1.368z" class="F"/><path d="M574.858 848.117c5.364 0 9.713-.858 9.713-1.916s-4.349-1.915-9.713-1.915-9.713.858-9.713 1.915 4.348 1.916 9.713 1.916z" class="B G"/><path d="M584.023 837.447l-1.231-.821c-.137.41.547 1.641-.548 1.641-1.641-.136-1.778-4.788-3.146-3.146-1.368 1.778-6.43.821-7.387-.274s2.052-2.872 1.915-4.104-2.736-.41-3.147-1.641c-.41-1.095 3.968-4.515 2.873-5.062s-2.873-5.472-2.873-5.472c-.136.684-.136 1.368 0 2.326.411 2.188-1.504 5.061-2.462 6.292-.821 1.232.274 5.746-.547 6.43s-1.232 3.01-.821 3.694-.137 1.368-1.505 3.146c-2.326 2.873 8.345 3.42 8.345 3.42 2.599 0 5.335-.547 9.029-1.368 3.967-.957 2.736-4.241 1.505-5.061z" class="D H"/><path d="M576.085 810.086c.547 3.42-.684 3.283 0 4.241s2.463 1.505 1.779 2.326-2.463 3.009-1.095 4.104 3.694 1.504 3.01 3.967-2.326 4.241-.958 4.651c1.231.411 4.104 1.231 5.199 2.736.137-1.641-2.189-2.325-2.6-2.873-.41-.684-.547-2.872 0-4.377.548-1.368-3.556-4.515-1.915-5.746s-.137-3.01-1.368-4.378-.957-5.609-1.915-8.345-3.694-5.472-3.146-3.146c.136.684.273 1.368.273 2.052.958.958 2.463 2.462 2.736 4.788z" class="C I"/><path d="M622.735 879.993s1.095-2.463.684-6.293c-.273-3.831-2.462-5.472-2.462-5.472l.684-.958s2.462 2.189 3.42 1.778 3.967-4.104 1.915-7.797l-1.915-3.831 1.505-.274s1.505 3.284 2.326 3.421 1.641-2.6 1.641-2.6l2.736.684s-3.967 5.336-4.104 6.84-1.641 3.694-.273 3.968 2.872-.684 2.872-.684l.958 1.915s-3.557.684-3.967 1.642 0 7.797 0 7.797-2.189.821-6.02-.136z" class="E"/><path d="M624.238 875.888s-18.058-.957-14.09-5.746c2.325-2.872 3.146-4.104 2.462-5.198s0-5.062 1.368-6.156-.684-8.756.821-10.808 4.788-6.84 4.104-10.533.547-5.609 1.642-8.619c1.231-3.01-4.104-4.651 1.231-10.397.958-.958 2.189-6.84 1.231-10.671s3.694.821 5.199 5.336 1.231 11.902 3.283 14.09 5.198 5.199 2.326 7.251c-2.736 2.052 4.104 7.251 3.283 9.713-.821 2.326-.684 6.156.137 7.251.82 1.231 6.84 3.009 3.146 7.387s-.821 5.335 1.231 6.703 4.241 6.84-2.052 8.208c-6.293 1.232-10.807 2.326-15.322 2.189z" class="F"/><path d="M626.151 883.139c9.142 0 16.553-1.409 16.553-3.147s-7.411-3.146-16.553-3.146-16.553 1.408-16.553 3.146 7.411 3.147 16.553 3.147z" class="B G"/><path d="M641.612 865.355c-.684-.411-1.505-.821-2.052-1.369-.137.821.821 2.873-1.094 2.737-2.873-.274-3.01-8.209-5.199-5.199-2.325 3.01-10.807 1.505-12.449-.41s3.557-4.925 3.284-6.977c-.274-2.189-4.652-.821-5.199-2.736s6.703-7.661 4.925-8.619-4.925-9.303-4.925-9.303c-.274 1.095-.274 2.463 0 3.968.684 3.693-2.599 8.482-4.104 10.534s.547 9.713-.821 10.807-2.052 5.062-1.368 6.156-.137 2.463-2.462 5.199c-3.968 4.788 14.09 5.745 14.09 5.745 4.378.137 9.029-.957 15.322-2.325s4.104-6.84 2.052-8.208z" class="D H"/><path d="M628.344 818.978c.958 5.883-1.094 5.609 0 7.251s4.104 2.462 3.01 3.83-4.241 4.925-1.916 6.841 6.293 2.599 5.062 6.703-3.967 7.114-1.642 7.934c2.189.684 6.841 2.052 8.756 4.652.137-2.6-3.694-3.968-4.378-4.925-.821-1.231-.957-4.925-.137-7.251s-6.019-7.661-3.283-9.713-.274-5.061-2.326-7.25-1.641-9.44-3.283-14.091c-1.505-4.514-6.293-9.166-5.198-5.335.273 1.094.41 2.325.41 3.557 1.779 1.368 4.241 3.967 4.925 7.797z" class="C I"/><path d="M76.481 856.873s.821-2.052.547-5.062c-.274-3.146-2.052-4.514-2.052-4.514l.547-.821s2.052 1.778 2.736 1.368 3.147-3.283 1.642-6.43l-1.505-3.146 1.231-.274s1.231 2.736 1.915 2.873 1.368-2.189 1.368-2.189l2.189.547s-3.283 4.378-3.283 5.609c-.137 1.232-1.368 3.01-.274 3.284s2.326-.548 2.326-.548l.821 1.505s-2.873.547-3.283 1.231 0 6.293 0 6.293-1.642 1.232-4.925.274z" class="E"/><path d="M77.849 853.589s-14.638-.821-11.491-4.651c1.915-2.326 2.599-3.283 2.052-4.241s0-4.104 1.094-5.062c1.095-.821-.547-7.114.684-8.755s3.83-5.472 3.283-8.619c-.547-3.009.41-4.514 1.368-6.977s-3.283-3.693.958-8.481c.684-.821 1.778-5.473.958-8.756-.821-3.146 3.01.684 4.241 4.378s.958 9.576 2.599 11.491c1.642 1.779 4.241 4.241 1.915 5.883-2.189 1.641 3.283 5.882 2.599 7.934-.684 1.916-.547 4.925 0 5.883.684.957 5.609 2.462 2.599 6.019s-.684 4.378.958 5.472 3.42 5.472-1.642 6.567c-4.925 1.094-8.618 2.052-12.175 1.915z" class="F"/><path d="M79.352 859.609c7.404 0 13.407-1.164 13.407-2.6s-6.002-2.599-13.407-2.599-13.407 1.164-13.407 2.599 6.002 2.6 13.407 2.6z" class="B G"/><path d="M91.943 845.107c-.547-.41-1.231-.684-1.642-1.094-.137.684.684 2.325-.821 2.189-2.326-.137-2.326-6.567-4.241-4.241-1.779 2.325-8.755 1.231-10.123-.411-1.368-1.504 2.873-3.967 2.736-5.745-.274-1.779-3.694-.684-4.241-2.189s5.472-6.293 3.967-6.977-3.967-7.524-3.967-7.524c-.137.957-.274 1.915 0 3.283.547 3.01-2.052 6.84-3.283 8.619-1.231 1.641.41 7.934-.684 8.755s-1.642 4.104-1.095 5.062-.137 1.915-2.052 4.241c-3.147 3.83 11.491 4.651 11.491 4.651 3.557.137 7.251-.821 12.449-1.915 4.925-1.232 3.146-5.609 1.505-6.704z" class="D H"/><path d="M81.129 807.35c.821 4.788-.958 4.514 0 5.882s3.283 2.052 2.326 3.147-3.42 4.104-1.505 5.609c1.778 1.504 5.199 2.052 4.104 5.472-.958 3.283-3.283 5.745-1.231 6.429 1.778.548 5.609 1.642 7.114 3.694.137-2.189-3.01-3.283-3.557-3.967-.684-.958-.684-3.967 0-5.883s-4.925-6.156-2.599-7.934c2.189-1.642-.274-4.104-1.915-5.883s-1.368-7.797-2.599-11.491-5.062-7.524-4.241-4.378c.274.821.274 1.915.274 2.873 1.231 1.231 3.283 3.283 3.831 6.43z" class="C I"/><path d="M53.087 837.583s.684-1.641.547-4.104c-.274-2.462-1.642-3.557-1.642-3.557l.41-.684s1.642 1.505 2.189 1.095c.547-.274 2.599-2.599 1.231-5.199l-1.231-2.462.958-.137s.958 2.189 1.505 2.189c.547.137 1.094-1.778 1.094-1.778l1.778.41s-2.599 3.557-2.599 4.514c-.137.958-1.094 2.463-.137 2.6.821.137 1.915-.411 1.915-.411l.684 1.232s-2.326.41-2.599 1.094c-.274.547 0 5.062 0 5.062s-1.642.82-4.104.136z" class="E"/><path d="M54.049 834.848s-11.765-.684-9.166-3.83c1.505-1.915 2.052-2.599 1.642-3.42s0-3.283.821-4.104c.821-.684-.41-5.746.547-6.977.958-1.368 3.146-4.378 2.599-6.84-.41-2.463.274-3.694 1.094-5.609.821-2.052-2.599-3.01.821-6.704.547-.684 1.505-4.377.821-6.977s2.462.548 3.42 3.421c.958 3.009.821 7.797 2.052 9.165 1.368 1.505 3.283 3.42 1.505 4.788s2.599 4.789 2.052 6.293-.41 3.968 0 4.788c.547.821 4.514 1.916 2.052 4.789s-.547 3.556.821 4.377 2.736 4.378-1.368 5.336c-3.831.82-6.84 1.641-9.713 1.504z" class="F"/><path d="M55.276 839.636c5.969 0 10.807-.919 10.807-2.052s-4.839-2.052-10.807-2.052-10.807.918-10.807 2.052 4.839 2.052 10.807 2.052z" class="B G"/><path d="M65.399 828.007c-.41-.273-.958-.547-1.368-.957-.137.547.547 1.915-.684 1.778-1.915-.137-1.915-5.335-3.42-3.42s-6.977.958-8.071-.273 2.326-3.147 2.189-4.515-3.01-.547-3.42-1.778 4.378-5.062 3.147-5.609-3.147-6.02-3.147-6.02c-.137.684-.137 1.505 0 2.6.41 2.462-1.642 5.609-2.599 6.84-.958 1.368.274 6.293-.547 6.977s-1.368 3.283-.821 4.104c.41.821-.137 1.505-1.642 3.42-2.599 3.146 9.166 3.83 9.166 3.83 2.873.137 5.883-.684 9.987-1.504 3.967-1.095 2.599-4.515 1.231-5.473z" class="D H"/><path d="M56.782 797.774c.684 3.83-.684 3.557 0 4.788.684 1.095 2.599 1.642 1.915 2.463s-2.736 3.283-1.231 4.514 4.104 1.642 3.283 4.378c-.821 2.599-2.599 4.651-1.094 5.198 1.368.411 4.514 1.368 5.746 3.01.137-1.779-2.462-2.599-2.873-3.283-.547-.821-.547-3.284 0-4.788s-3.967-4.925-2.052-6.293c1.778-1.368-.274-3.284-1.505-4.788-1.368-1.505-1.094-6.157-2.052-9.166s-4.104-6.02-3.42-3.42c.137.684.274 1.504.274 2.325.821.821 2.599 2.463 3.01 5.062z" class="C I"/><path d="M136.809 835.395s.547-1.095.274-2.873c-.137-1.779-1.095-2.463-1.095-2.463l.274-.41s1.094.957 1.505.821c.41-.274 1.778-1.916.957-3.557l-.82-1.779.684-.136s.684 1.504 1.094 1.641c.41 0 .821-1.231.821-1.231l1.231.274s-1.778 2.462-1.915 3.146c0 .684-.821 1.778-.137 1.915s1.368-.273 1.368-.273l.41.82s-1.641.274-1.778.685c-.274.41 0 3.556 0 3.556s-1.094.274-2.873-.136z" class="E"/><path d="M137.493 833.479s-8.345-.41-6.43-2.599c1.094-1.368 1.505-1.915 1.094-2.463-.273-.547 0-2.325.684-2.872s-.273-3.968.411-4.925 2.189-3.147 1.915-4.788c-.274-1.779.274-2.6.821-3.968s-1.915-2.052.547-4.788c.41-.41.958-3.146.547-4.925s1.779.411 2.463 2.463.547 5.472 1.505 6.43 2.325 2.462 1.094 3.42 1.915 3.42 1.505 4.514-.274 2.873 0 3.42c.41.547 3.146 1.368 1.505 3.42s-.411 2.463.547 3.147 1.915 3.146-.958 3.693l-7.25.821z" class="F"/><path d="M138.45 836.899c4.231 0 7.661-.673 7.661-1.505s-3.43-1.504-7.661-1.504-7.661.673-7.661 1.504 3.43 1.505 7.661 1.505z" class="B G"/><path d="M145.562 828.692c-.274-.274-.684-.411-.958-.684-.136.41.411 1.368-.41 1.231-1.368-.137-1.368-3.694-2.463-2.462-1.094 1.368-4.924.684-5.745-.274-.821-.821 1.641-2.189 1.505-3.283-.137-.958-2.052-.411-2.326-1.232s3.146-3.556 2.326-3.967-2.189-4.241-2.326-4.241c-.137.547-.137 1.095 0 1.779.274 1.778-1.231 3.967-1.915 4.788-.684.957.273 4.514-.411 4.925-.684.547-.957 2.325-.684 2.873s-.137 1.094-1.094 2.462c-1.779 2.189 6.43 2.599 6.43 2.599 2.052 0 4.104-.41 6.977-1.094 3.009-.411 1.915-2.873 1.094-3.42z" class="D H"/><path d="M139.408 807.35c.41 2.736-.547 2.599 0 3.283.547.821 1.915 1.095 1.368 1.779s-1.915 2.325-.821 3.146 2.873 1.231 2.326 3.01c-.548 1.915-1.779 3.283-.684 3.694.957.273 3.146.957 3.967 2.052.137-1.232-1.779-1.779-2.052-2.326-.411-.547-.411-2.326 0-3.42s-2.736-3.557-1.505-4.515-.137-2.325-1.094-3.42c-.958-.957-.821-4.377-1.505-6.429s-2.873-4.241-2.463-2.463c.137.547.137 1.095.137 1.642.821.957 2.052 2.189 2.326 3.967z" class="C I"/><g fill="#055910"><path d="M44.333 845.655s.684-1.642.547-4.104c-.274-2.463-1.642-3.557-1.642-3.557l.41-.684s1.642 1.505 2.189 1.094c.547-.273 2.599-2.599 1.231-5.198l-1.231-2.463.958-.137s.958 2.189 1.505 2.189c.547.137 1.094-1.778 1.094-1.778l1.778.41s-2.599 3.557-2.599 4.515c-.137.957-1.094 2.462-.137 2.599.821.137 1.915-.41 1.915-.41l.684 1.231s-2.326.41-2.599 1.094c-.274.547 0 5.062 0 5.062s-1.505.821-4.104.137z"/><path d="M45.431 842.919s-11.765-.684-9.166-3.83c1.505-1.916 2.052-2.6 1.642-3.42s0-3.284.821-4.104c.821-.684-.41-5.746.547-6.977.958-1.368 3.146-4.378 2.599-6.841s.274-3.693 1.094-5.608c.821-2.052-2.599-3.01.821-6.704.547-.684 1.505-4.377.821-6.977s2.462.547 3.42 3.42c.958 3.01.821 7.798 2.052 9.166 1.368 1.505 3.283 3.42 1.505 4.788s2.599 4.788 2.052 6.293-.41 3.967 0 4.788c.547.821 4.514 1.915 2.052 4.788s-.547 3.557.821 4.378 2.736 4.378-1.368 5.335c-3.831.821-6.84 1.642-9.713 1.505z"/><path d="M57.466 845.655c0 1.094-4.788 2.052-10.807 2.052s-10.807-.958-10.807-2.052 4.788-2.052 10.807-2.052 10.807.958 10.807 2.052z" class="B"/><path d="M56.782 836.079c-.41-.274-.958-.548-1.368-.958-.137.547.547 1.915-.684 1.779-1.915-.137-1.915-5.336-3.42-3.421s-6.977.958-8.071-.273 2.326-3.147 2.189-4.515-3.01-.547-3.42-1.778 4.378-5.062 3.146-5.609-3.146-6.019-3.146-6.019c-.137.684-.137 1.504 0 2.599.41 2.462-1.642 5.609-2.599 6.84-.958 1.368.274 6.293-.547 6.977s-1.368 3.283-.821 4.104c.41.821-.137 1.505-1.642 3.42-2.599 3.147 9.166 3.831 9.166 3.831 2.873.136 5.883-.684 9.987-1.505 3.967-1.095 2.462-4.515 1.231-5.472z" class="D"/><path d="M48.028 805.845c.684 3.831-.684 3.557 0 4.788.684 1.095 2.599 1.642 1.915 2.463s-2.736 3.283-1.231 4.514 4.104 1.642 3.283 4.378c-.821 2.599-2.599 4.651-1.094 5.199 1.368.41 4.514 1.368 5.746 3.009.137-1.778-2.463-2.599-2.873-3.283-.547-.821-.547-3.283 0-4.788s-3.967-4.925-2.052-6.293c1.778-1.368-.274-3.283-1.505-4.788-1.368-1.505-1.094-6.156-2.052-9.166s-4.104-6.019-3.42-3.42c.137.684.274 1.505.274 2.326.958.82 2.599 2.462 3.01 5.061z" class="C"/></g><path d="M-3 980.406s410.271 11.218 477.305 31.874l19.699 6.02-494.405-2.05L-3 980.406z" class="J"/><path d="M901.812 212.206c34.604 0 62.656-28.052 62.656-62.656s-28.052-62.656-62.656-62.656-62.656 28.052-62.656 62.656 28.052 62.656 62.656 62.656z" fill="url(#I)"/><path d="M1005.92 178.142c-3.28 0-6.292 1.641-7.934 4.24-1.231-5.882-6.43-10.26-12.723-10.26-1.641 0-3.146.274-4.514.821.137-.684.137-1.368.137-2.189 0-7.25-5.746-13.133-12.997-13.133s-13.133 5.746-13.133 12.996c0 .684 0 1.368.137 2.052-1.778-1.231-3.83-1.915-6.019-1.915-5.746 0-10.534 4.515-10.807 10.124-.684-.137-1.232-.137-1.916-.137-5.882 0-10.67 4.651-10.944 10.534l89.193.41c.55-1.231.96-2.599.96-4.104a9.46 9.46 0 0 0-9.44-9.439z" fill="url(#J)"/><path d="M901.811 221.371c47.599 0 86.185-38.586 86.185-86.185S949.41 49 901.811 49s-86.186 38.587-86.186 86.186 38.587 86.185 86.186 86.185z" fill="url(#K)"/></g><defs><linearGradient id="A" x1="513.058" y1="849.14" x2="513.058" y2="51.827" xlink:href="#U"><stop stop-color="#42db3a"/><stop offset="1" stop-color="#e2ffe5"/></linearGradient><linearGradient id="B" x1="170.38" y1="101.408" x2="170.38" y2="127.568" xlink:href="#U"><stop stop-color="#fff"/><stop offset="1" stop-color="#fff" stop-opacity="0"/></linearGradient><linearGradient id="C" x1="38.716" y1="42.561" x2="38.716" y2="68.72" xlink:href="#U"><stop stop-color="#fff"/><stop offset="1" stop-color="#fff" stop-opacity="0"/></linearGradient><linearGradient id="D" x1="535.768" y1="86.84" x2="535.768" y2="126.017" xlink:href="#U"><stop stop-color="#fff"/><stop offset="1" stop-color="#fff" stop-opacity="0"/></linearGradient><linearGradient id="E" x1="421.768" y1="44.84" x2="421.768" y2="84.017" xlink:href="#U"><stop stop-color="#fff"/><stop offset="1" stop-color="#fff" stop-opacity="0"/></linearGradient><linearGradient id="F" x1="731.768" y1="28.84" x2="731.768" y2="68.017" xlink:href="#U"><stop stop-color="#fff"/><stop offset="1" stop-color="#fff" stop-opacity="0"/></linearGradient><linearGradient id="G" x1="836.641" y1="121.765" x2="836.641" y2="147.925" xlink:href="#U"><stop stop-color="#fff"/><stop offset="1" stop-color="#fff" stop-opacity="0"/></linearGradient><linearGradient id="H" x1="456.768" y1="822.33" x2="458.128" y2="994.958" xlink:href="#U"><stop offset=".006" stop-color="#1fa81b"/><stop offset="1" stop-color="#42db3a"/></linearGradient><radialGradient id="I" cx="0" cy="0" r="1" gradientTransform="translate(901.846 149.605) scale(74.9564)" xlink:href="#U"><stop offset=".005" stop-color="#ffffd5"/><stop offset=".26" stop-color="#fffed2"/><stop offset=".471" stop-color="#fdf9c7"/><stop offset=".667" stop-color="#fbf2b6"/><stop offset=".853" stop-color="#f8e89e"/><stop offset="1" stop-color="#f5de85"/></radialGradient><linearGradient id="J" x1="970.255" y1="158.182" x2="970.255" y2="190.173" xlink:href="#U"><stop stop-color="#fff"/><stop offset="1" stop-color="#fff" stop-opacity="0"/></linearGradient><radialGradient id="K" cx="0" cy="0" r="1" gradientTransform="translate(901.845 135.193) scale(84.075)" xlink:href="#U"><stop offset=".005" stop-color="#ffffd5"/><stop offset=".265" stop-color="#ffffe4" stop-opacity=".738"/><stop offset=".703" stop-color="#fffff8" stop-opacity=".299"/><stop offset="1" stop-color="#fff" stop-opacity="0"/></radialGradient><clipPath id="L"><path fill="#fff" d="M0 0h1026v1016H0z"/></clipPath><path id="M" d="M167.319 835.121c0 .957-2.462 1.641-5.472 1.641s-5.472-.684-5.472-1.641 2.462-1.642 5.472-1.642c3.147 0 5.472.684 5.472 1.642z"/><path id="N" d="M286.609 834.3c0 .41-1.231.821-2.736.821s-2.736-.411-2.736-.821 1.231-.821 2.736-.821 2.736.41 2.736.821z"/><path id="O" d="M298.24 835.941c1.511 0 2.736-.367 2.736-.82s-1.225-.821-2.736-.821-2.736.367-2.736.821 1.225.82 2.736.82z"/><path id="P" d="M520.542 848.254c0 .41-1.231.821-2.736.821s-2.736-.411-2.736-.821 1.232-.821 2.736-.821 2.736.274 2.736.821z"/><path id="Q" d="M130.514 894.083c1.964 0 3.557-.49 3.557-1.095s-1.593-1.094-3.557-1.094-3.557.49-3.557 1.094 1.592 1.095 3.557 1.095z"/><path id="R" d="M254.595 971.376c1.36 0 2.463-.368 2.463-.821s-1.103-.821-2.463-.821-2.462.368-2.462.821 1.102.821 2.462.821z"/><path id="S" d="M249.4 970.965c0 .274-.547.411-1.231.411s-1.231-.137-1.231-.411.547-.41 1.231-.41 1.231.137 1.231.41z"/><path id="T" d="M329.564 905.574c0 .274-.547.41-1.231.41s-1.231-.136-1.231-.41.547-.41 1.231-.41 1.231.136 1.231.41z"/><linearGradient id="U" gradientUnits="userSpaceOnUse"/></defs></svg>