<svg width="19" height="17" viewBox="0 0 19 17" fill="none" xmlns="http://www.w3.org/2000/svg">
<path fill-rule="evenodd" clip-rule="evenodd" d="M1.97656 12.8945L5.17468 1.80184L10.7374 2.99507L7.53933 14.0878L1.97656 12.8945Z" fill="#3C9130"/>
<path fill-rule="evenodd" clip-rule="evenodd" d="M7.54197 14.0886L10.0008 5.73516L2.08427 12.9447L7.54197 14.0886Z" fill="#79AB41"/>
<path fill-rule="evenodd" clip-rule="evenodd" d="M6.91193 6.03125C7.4518 6.14704 7.9133 6.45328 8.19488 6.88261C8.47647 7.31194 8.55509 7.82918 8.41344 8.32055C8.11847 9.34379 6.96799 9.97782 5.84376 9.7367C4.71953 9.49559 4.04728 8.47063 4.34225 7.4474C4.48389 6.95602 4.83421 6.53077 5.31611 6.26519C5.79802 5.99962 6.37206 5.91546 6.91193 6.03125Z" fill="#CFE185"/>
<path fill-rule="evenodd" clip-rule="evenodd" d="M8.41695 8.31248C8.52746 7.93276 8.50604 7.55421 8.37795 7.21474L5.65975 9.69047C5.71764 9.7084 5.77477 9.72153 5.83459 9.73423C6.95956 9.97249 8.11661 9.33583 8.41695 8.31248Z" fill="#B4C767"/>
<path fill-rule="evenodd" clip-rule="evenodd" d="M7.40164 13.2161L10.1963 3.7154L10.1089 3.70215C10.1004 3.70102 10.0947 3.69947 10.0889 3.69791C9.82972 3.64286 9.67391 3.40635 9.74398 3.17102L9.76709 3.09097L6.02024 2.30452L5.99714 2.38456C5.92706 2.6199 5.65881 2.76834 5.39961 2.71329L5.31142 2.69523L2.51564 12.1887L2.60383 12.2067C2.85996 12.2598 3.01425 12.4867 2.95223 12.7208L2.93143 12.798L6.67521 13.5825L6.70138 13.5044C6.77759 13.273 7.03931 13.1355 7.29544 13.1885L7.31269 13.1932L7.40164 13.2161ZM9.97177 3.83556L7.26992 13.0184C6.96967 12.9822 6.67725 13.1345 6.55231 13.3884L3.13866 12.6723C3.1708 12.4061 3.00541 12.1612 2.73206 12.069L5.43621 2.88326C5.73456 2.90747 6.02047 2.74883 6.13735 2.49623L9.54525 3.2107C9.5062 3.48547 9.68231 3.74588 9.97177 3.83556Z" fill="#294D00"/>
<path fill-rule="evenodd" clip-rule="evenodd" d="M2.43359 12.3242L11.3162 4.2588L15.3565 7.9283L6.47386 15.9937L2.43359 12.3242Z" fill="#3C9130"/>
<path fill-rule="evenodd" clip-rule="evenodd" d="M10.4307 8.73558C11.2508 9.48028 11.2508 10.6877 10.4307 11.4324C9.61069 12.1771 8.28112 12.1771 7.46107 11.4324C7.06726 11.0748 6.84603 10.5897 6.84603 10.084C6.84603 9.57823 7.06726 9.0932 7.46107 8.73558C8.28112 7.99087 9.61069 7.99087 10.4307 8.73558Z" fill="#CFE185"/>
<path fill-rule="evenodd" clip-rule="evenodd" d="M6.84637 15.1739L14.5237 8.2985L14.453 8.24009L14.4394 8.22792C14.2491 8.05756 14.2491 7.78011 14.4394 7.60975L14.5047 7.55134L11.7507 5.08594L11.6855 5.14435C11.4952 5.31471 11.1853 5.31471 10.995 5.14435L10.9297 5.08594L3.25781 11.9564L3.32306 12.0149C3.51336 12.1852 3.51608 12.4529 3.33393 12.6257L3.27412 12.6841L6.01992 15.1422L6.08516 15.0887C6.2809 14.9256 6.57995 14.9305 6.76753 15.0984L6.78113 15.1106L6.84637 15.1739ZM14.2676 8.29901L6.84584 14.9432C6.60932 14.7704 6.27493 14.7607 6.03026 14.9213L3.52642 12.6798C3.70041 12.4632 3.69497 12.1736 3.51555 11.9643L10.9401 5.31766C11.1793 5.48072 11.5137 5.48072 11.7529 5.31766L14.254 7.55672C14.0665 7.77576 14.0719 8.08484 14.2676 8.29901Z" fill="#294D00"/>
<path fill-rule="evenodd" clip-rule="evenodd" d="M15.3644 9.5957C17.0035 9.5957 18.3688 10.7293 18.6563 12.2253H18.7114V12.8128C18.7114 14.5901 17.2135 16.0315 15.3644 16.0315C13.5153 16.0315 12.0156 14.5901 12.0156 12.8128V12.2253H12.0724C12.36 10.7293 13.7236 9.5957 15.3644 9.5957Z" fill="#E4A525"/>
<path fill-rule="evenodd" clip-rule="evenodd" d="M15.3644 9.06836C17.2135 9.06836 18.7114 10.5098 18.7114 12.2871C18.7114 14.0644 17.2135 15.5041 15.3644 15.5041C13.5153 15.5041 12.0156 14.0644 12.0156 12.2871C12.0156 10.5098 13.5153 9.06836 15.3644 9.06836Z" fill="#FFDA63"/>
<path fill-rule="evenodd" clip-rule="evenodd" d="M15.365 9.49023C16.9795 9.49023 18.2869 10.7425 18.2869 12.2869C18.2869 13.8313 16.9795 15.082 15.365 15.082C13.7505 15.082 12.4414 13.8313 12.4414 12.2869C12.4414 10.7425 13.7505 9.49023 15.365 9.49023Z" fill="#FCC326"/>
<path fill-rule="evenodd" clip-rule="evenodd" d="M15.365 9.91081C16.9229 9.91081 18.1978 11.0793 18.2818 12.5498C18.2852 12.4973 18.2869 12.4448 18.2869 12.3923C18.2869 11.7358 18.0501 11.1318 17.6555 10.6559C17.1203 10.0109 16.2933 9.5957 15.365 9.5957C14.4369 9.5957 13.6099 10.0109 13.0745 10.6559C12.6782 11.1319 12.4414 11.7358 12.4414 12.3923C12.4414 12.4448 12.4431 12.4973 12.4466 12.5498C12.5324 11.0793 13.8055 9.91081 15.365 9.91081Z" fill="#FBB615"/>
</svg>
