<svg width="152" height="131" viewBox="0 0 152 131" fill="none" xmlns="http://www.w3.org/2000/svg">
<path fill-rule="evenodd" clip-rule="evenodd" d="M1 4.53516H104V130H1V4.53516Z" stroke="black"/>
<path fill-rule="evenodd" clip-rule="evenodd" d="M10.0884 13.6045H94.9119V116.395H10.0884V13.6045Z" fill="white"/>
<path fill-rule="evenodd" clip-rule="evenodd" d="M10.0884 101.279C55.3637 100.726 91.8825 67.2328 91.8825 25.9726C91.8825 21.7585 91.4826 17.6298 90.751 13.6045H10.0884V101.279Z" fill="#D6E1C9"/>
<path fill-rule="evenodd" clip-rule="evenodd" d="M26.75 0H76.7353V18.1395H26.75V0Z" fill="#3C9130"/>
<path fill-rule="evenodd" clip-rule="evenodd" d="M19.1763 27.209H32.8086V40.8136H19.1763V27.209Z" fill="#3C9130"/>
<path fill-rule="evenodd" clip-rule="evenodd" d="M19.1763 49.8838H32.8086V63.4884H19.1763V49.8838Z" fill="#3C9130"/>
<path fill-rule="evenodd" clip-rule="evenodd" d="M19.1763 72.5576H32.8086V86.1623H19.1763V72.5576Z" fill="#3C9130"/>
<path fill-rule="evenodd" clip-rule="evenodd" d="M19.1763 95.2324H32.8086V108.837H19.1763V95.2324Z" fill="#3C9130"/>
<path fill-rule="evenodd" clip-rule="evenodd" d="M22.9443 35.3594L36.4266 21.9136L38.5287 24.01L25.0464 37.4558L22.9443 35.3594Z" fill="black"/>
<path fill-rule="evenodd" clip-rule="evenodd" d="M22.9424 57.7793L36.4246 44.3335L38.5267 46.4299L25.0445 59.8757L22.9424 57.7793Z" fill="black"/>
<path fill-rule="evenodd" clip-rule="evenodd" d="M22.9399 80.1992L36.4222 66.7534L38.5243 68.8499L25.0421 82.2956L22.9399 80.1992Z" fill="black"/>
<path fill-rule="evenodd" clip-rule="evenodd" d="M22.9375 102.62L36.4197 89.1743L38.5218 91.2708L25.0396 104.717L22.9375 102.62Z" fill="black"/>
<path fill-rule="evenodd" clip-rule="evenodd" d="M43.4116 28.7207H84.3087V31.744H43.4116V28.7207Z" fill="black"/>
<path fill-rule="evenodd" clip-rule="evenodd" d="M43.4116 34.7676H84.3087V37.7908H43.4116V34.7676Z" fill="black"/>
<path fill-rule="evenodd" clip-rule="evenodd" d="M43.4116 49.8838H84.3087V52.907H43.4116V49.8838Z" fill="black"/>
<path fill-rule="evenodd" clip-rule="evenodd" d="M43.4116 57.4414H61.5881V60.4647H43.4116V57.4414Z" fill="black"/>
<path fill-rule="evenodd" clip-rule="evenodd" d="M43.4116 74.0693H61.5881V77.0926H43.4116V74.0693Z" fill="black"/>
<path fill-rule="evenodd" clip-rule="evenodd" d="M43.4116 80.1162H61.5881V83.1395H43.4116V80.1162Z" fill="black"/>
<path fill-rule="evenodd" clip-rule="evenodd" d="M52 39.0322H126V130H52V39.0322Z" stroke="black"/>
<path fill-rule="evenodd" clip-rule="evenodd" d="M59.5508 46.6133H119.959V120.904H59.5508V46.6133Z" fill="white"/>
<path fill-rule="evenodd" clip-rule="evenodd" d="M58.041 108.774C90.6427 108.372 116.939 84.0466 116.939 54.0796C116.939 51.0189 116.651 48.0202 116.124 45.0967H58.041V108.774Z" fill="#D6E1C9"/>
<path fill-rule="evenodd" clip-rule="evenodd" d="M70.1226 36H106.367V49.6452H70.1226V36Z" fill="#3C9130"/>
<path fill-rule="evenodd" clip-rule="evenodd" d="M65.5918 55.71H74.653V65.5648H65.5918V55.71Z" fill="#3C9130"/>
<path fill-rule="evenodd" clip-rule="evenodd" d="M65.5918 72.1348H74.653V81.9896H65.5918V72.1348Z" fill="#3C9130"/>
<path fill-rule="evenodd" clip-rule="evenodd" d="M65.5918 88.5596H74.653V98.4144H65.5918V88.5596Z" fill="#3C9130"/>
<path fill-rule="evenodd" clip-rule="evenodd" d="M65.5918 104.984H74.653V114.839H65.5918V104.984Z" fill="#3C9130"/>
<path fill-rule="evenodd" clip-rule="evenodd" d="M67.8243 61.6103L77.4494 51.8417L78.9039 53.3188L69.2788 63.0874L67.8243 61.6103Z" fill="black"/>
<path fill-rule="evenodd" clip-rule="evenodd" d="M67.8228 77.8212L77.4479 68.0526L78.9025 69.5298L69.2774 79.2984L67.8228 77.8212Z" fill="black"/>
<path fill-rule="evenodd" clip-rule="evenodd" d="M67.8208 94.0331L77.4459 84.2645L78.9005 85.7417L69.2754 95.5103L67.8208 94.0331Z" fill="black"/>
<path fill-rule="evenodd" clip-rule="evenodd" d="M67.8194 110.244L77.4445 100.475L78.8991 101.953L69.274 111.721L67.8194 110.244Z" fill="black"/>
<path fill-rule="evenodd" clip-rule="evenodd" d="M82.2041 57.2256H110.898V58.7417H82.2041V57.2256Z" fill="black"/>
<path fill-rule="evenodd" clip-rule="evenodd" d="M82.2041 61.7744H110.898V63.2905H82.2041V61.7744Z" fill="black"/>
<path fill-rule="evenodd" clip-rule="evenodd" d="M82.2041 72.3867H110.898V73.9028H82.2041V72.3867Z" fill="black"/>
<path fill-rule="evenodd" clip-rule="evenodd" d="M82.2041 78.4512H95.7959V79.9673H82.2041V78.4512Z" fill="black"/>
<path fill-rule="evenodd" clip-rule="evenodd" d="M82.2041 90.5811H95.7959V92.0972H82.2041V90.5811Z" fill="black"/>
<path fill-rule="evenodd" clip-rule="evenodd" d="M82.2041 93.6133H95.7959V95.1294H82.2041V93.6133Z" fill="black"/>
<rect x="90.5" y="91.5" width="61" height="38" rx="4.5" fill="#3C9130" stroke="black"/>
<ellipse cx="136.122" cy="100.75" rx="3.78049" ry="3.75" fill="white"/>
<ellipse cx="140.658" cy="100.75" rx="3.78049" ry="3.75" fill="white"/>
<path fill-rule="evenodd" clip-rule="evenodd" d="M99.0732 109.75H142.514H99.0732Z" fill="#D8D8D8"/>
<path d="M99.0732 109.75H142.514" stroke="white" stroke-linecap="round" stroke-linejoin="round"/>
<path fill-rule="evenodd" clip-rule="evenodd" d="M99.0732 114.25H142.514H99.0732Z" fill="#D8D8D8"/>
<path d="M99.0732 114.25H142.514" stroke="white" stroke-linecap="round" stroke-linejoin="round"/>
<path fill-rule="evenodd" clip-rule="evenodd" d="M99.0732 118.75H142.514H99.0732Z" fill="#D8D8D8"/>
<path d="M99.0732 118.75H142.514" stroke="white" stroke-linecap="round" stroke-linejoin="round"/>
<path fill-rule="evenodd" clip-rule="evenodd" d="M131.585 126.25H142.514H131.585Z" fill="#D8D8D8"/>
<path d="M131.585 126.25H142.514" stroke="white" stroke-linecap="round" stroke-linejoin="round"/>
<rect x="99.5732" y="96" width="14.122" height="9.5" rx="0.5" fill="white" stroke="white"/>
</svg>
