<svg width="54" height="54" viewBox="0 0 54 54" fill="none" xmlns="http://www.w3.org/2000/svg">
<path d="M12.6522 40.5185C5.41377 32.7361 5.54177 20.5377 13.0618 12.9633C16.009 9.98187 19.8412 8.03323 23.9866 7.40812L23.7658 0.761719C17.9463 1.46437 12.536 4.11596 8.41537 8.28492C-1.66143 18.4289 -1.78303 34.8097 8.02177 45.1841L2.45057 50.7905L20.0826 51.7537L20.0346 33.0849L12.6522 40.5185ZM33.9226 2.24972L33.9706 20.9185L41.353 13.4881C48.5914 21.2769 48.4634 33.4753 40.9434 41.0433C37.9967 44.0255 34.1643 45.9743 30.0186 46.5985L30.2394 53.2417C36.0588 52.5382 41.4696 49.8881 45.593 45.7217C55.6666 35.5713 55.7882 19.1905 45.9834 8.82252L51.5546 3.20972L33.9226 2.24972Z" fill="#5AA250"/>
</svg>
