<svg width="450" height="312" viewBox="0 0 450 312" fill="none" xmlns="http://www.w3.org/2000/svg">
<g clip-path="url(#clip0)">
<path d="M426.901 162.603C446.182 162.603 461.812 146.973 461.812 127.692C461.812 108.411 446.182 92.7812 426.901 92.7812C407.62 92.7812 391.99 108.411 391.99 127.692C391.99 146.973 407.62 162.603 426.901 162.603Z" fill="#31BC2E"/>
<path d="M250.133 178.65C269.414 178.65 285.044 163.02 285.044 143.739C285.044 124.458 269.414 108.828 250.133 108.828C230.853 108.828 215.223 124.458 215.223 143.739C215.223 163.02 230.853 178.65 250.133 178.65Z" fill="#31BC2E"/>
<path d="M337.659 196.244C356.94 196.244 372.57 180.613 372.57 161.333C372.57 142.052 356.94 126.422 337.659 126.422C318.379 126.422 302.749 142.052 302.749 161.333C302.749 180.613 318.379 196.244 337.659 196.244Z" fill="#31BC2E"/>
<path d="M302.029 193.863C321.31 193.863 336.94 178.233 336.94 158.952C336.94 139.671 321.31 124.041 302.029 124.041C282.749 124.041 267.119 139.671 267.119 158.952C267.119 178.233 282.749 193.863 302.029 193.863Z" fill="#1C4A45"/>
<path d="M385.13 176.99C404.41 176.99 420.04 161.36 420.04 142.079C420.04 122.798 404.41 107.168 385.13 107.168C365.849 107.168 350.219 122.798 350.219 142.079C350.219 161.36 365.849 176.99 385.13 176.99Z" fill="#0F2C2A"/>
<path d="M191.487 177.32C210.768 177.32 226.398 161.69 226.398 142.409C226.398 123.128 210.768 107.498 191.487 107.498C172.207 107.498 156.577 123.128 156.577 142.409C156.577 161.69 172.207 177.32 191.487 177.32Z" fill="#1C4A45"/>
<path d="M172.019 169.422C185.653 155.788 185.653 133.684 172.019 120.051C158.386 106.417 136.282 106.417 122.648 120.051C109.015 133.684 109.015 155.788 122.648 169.422C136.282 183.055 158.386 183.055 172.019 169.422Z" fill="#0F2C2A"/>
<path d="M148.775 140.472H-186.833L-164.316 85.2568L-163.154 82.3798C-162.711 81.2733 -162.213 80.1668 -161.66 79.1156C-150.871 57.2617 -124.536 42.7109 -94.9919 42.7109H44.0429C73.5318 42.7109 100.365 56.4872 112.758 78.0091L148.775 140.472Z" fill="#1C4A45"/>
<path d="M134.336 140.474L104.404 86.6965C98.4288 75.9632 88.968 66.945 77.0175 60.5825C65.1224 54.22 51.3461 50.9004 37.1826 50.9004H-89.7911C-107.108 50.9004 -123.927 54.8286 -138.589 62.2976C-147.496 66.8343 -155.297 72.5329 -161.715 79.1721C-162.213 80.2233 -162.711 81.3298 -163.209 82.4363L-164.371 85.3133C-157.455 76.8484 -148.382 69.656 -137.648 64.1787C-123.319 56.8756 -106.776 53.0028 -89.8464 53.0028H37.1273C50.9035 53.0028 64.3478 56.267 75.9663 62.4636C87.5295 68.6048 96.7137 77.4017 102.523 87.7477L131.846 140.474L136.383 148.662H108.553L108.83 149.049H-164.316L-164.15 148.662H-174.053L-174.883 150.764H139.979L134.336 140.474Z" fill="#0F2C2A"/>
<path d="M121.389 150.763L120.172 148.661L115.414 140.472L90.628 97.7052C85.1507 88.2444 76.4091 80.2774 65.4545 74.6342C54.4999 69.0462 41.8855 66.0586 28.8839 66.0586H-98.9197C-124.093 66.0586 -146.334 79.3369 -154.246 99.1437L-170.733 140.417H-168.686L-152.475 99.8629C-144.84 80.7754 -123.374 67.995 -98.9197 67.995H28.8839C41.5536 67.995 53.8913 70.872 64.5693 76.3493C75.2473 81.7712 83.6568 89.5169 88.9682 98.6457L113.201 140.417L117.959 148.605L119.176 150.708L120.117 152.312H-173.444L-172.78 150.708L-171.95 148.605H-173.997L-174.827 150.708L-176.21 154.193H123.436L121.389 150.763Z" fill="#0F2C2A"/>
<path d="M223.19 150.433H-159.17L-144.674 118.344C-135.214 97.3199 -114.245 83.8203 -91.174 83.8203H107.945C145.844 83.8203 179.482 94.3323 191.709 110.045L223.19 150.433Z" fill="#31BC2E"/>
<path d="M193.147 137.872C186.951 124.539 177.158 113.307 164.765 105.396C152.372 97.4841 138.042 93.2793 123.326 93.2793H-76.2913C-89.625 93.2793 -102.848 96.6542 -114.577 103.017C-126.306 109.379 -136.265 118.674 -143.513 129.85L-156.791 150.376H-153.914L-141.466 131.122C-134.439 120.278 -124.757 111.26 -113.36 105.064C-102.018 98.8672 -89.1824 95.603 -76.236 95.603H123.381C137.6 95.603 151.487 99.6418 163.493 107.332C175.498 115.023 185.014 125.866 190.99 138.813L196.356 150.376H199.012L193.147 137.872Z" fill="#048C00"/>
<path d="M149.661 120.003C135.387 112.091 118.844 107.941 101.915 107.941H-70.0394C-84.7561 107.941 -99.0303 112.257 -111.313 120.445C-122.599 127.969 -131.507 138.26 -137.261 150.432H-134.384C-128.796 139.145 -120.386 129.629 -109.874 122.603C-98.0344 114.691 -84.2582 110.542 -69.984 110.542H101.915C118.402 110.542 134.502 114.581 148.444 122.271C161.114 129.297 171.404 138.979 178.375 150.432H181.363C174.171 137.984 163.271 127.527 149.661 120.003Z" fill="#048C00"/>
<path d="M-153.803 311.875H460.318V138.15H63.7395C2.49338 138.15 -53.2201 162.605 -79.0022 200.835L-153.803 311.875Z" fill="#D38237"/>
<path d="M249.137 126.863H246.481V141.746H249.137V126.863Z" fill="white"/>
<path d="M266.62 126.863H263.964V141.746H266.62V126.863Z" fill="white"/>
<path d="M284.103 126.863H281.447V141.746H284.103V126.863Z" fill="white"/>
<path d="M301.586 126.863H298.93V141.746H301.586V126.863Z" fill="white"/>
<path d="M319.125 126.863H316.469V141.746H319.125V126.863Z" fill="white"/>
<path d="M336.608 126.863H333.952V141.746H336.608V126.863Z" fill="white"/>
<path d="M338.6 129.244H243.881V131.513H338.6V129.244Z" fill="white"/>
<path d="M338.6 134.332H243.881V136.6H338.6V134.332Z" fill="white"/>
<path d="M146.286 126.863H143.63V141.746H146.286V126.863Z" fill="white"/>
<path d="M163.769 126.863H161.113V141.746H163.769V126.863Z" fill="white"/>
<path d="M181.252 126.863H178.597V141.746H181.252V126.863Z" fill="white"/>
<path d="M198.79 126.863H196.135V141.746H198.79V126.863Z" fill="white"/>
<path d="M216.274 126.863H213.618V141.746H216.274V126.863Z" fill="white"/>
<path d="M233.757 126.863H231.101V141.746H233.757V126.863Z" fill="white"/>
<path d="M235.748 129.244H141.03V131.513H235.748V129.244Z" fill="white"/>
<path d="M235.748 134.332H141.03V136.6H235.748V134.332Z" fill="white"/>
<path d="M43.434 126.863H40.7783V141.746H43.434V126.863Z" fill="white"/>
<path d="M60.9179 126.863H58.2622V141.746H60.9179V126.863Z" fill="white"/>
<path d="M78.4008 126.863H75.7451V141.746H78.4008V126.863Z" fill="white"/>
<path d="M95.9394 126.863H93.2837V141.746H95.9394V126.863Z" fill="white"/>
<path d="M113.422 126.863H110.767V141.746H113.422V126.863Z" fill="white"/>
<path d="M130.906 126.863H128.25V141.746H130.906V126.863Z" fill="white"/>
<path d="M132.897 129.244H38.1782V131.513H132.897V129.244Z" fill="white"/>
<path d="M132.897 134.332H38.1782V136.6H132.897V134.332Z" fill="white"/>
<path d="M351.988 126.863H349.333V141.746H351.988V126.863Z" fill="white"/>
<path d="M369.472 126.863H366.816V141.746H369.472V126.863Z" fill="white"/>
<path d="M386.955 126.863H384.299V141.746H386.955V126.863Z" fill="white"/>
<path d="M404.437 126.863H401.782V141.746H404.437V126.863Z" fill="white"/>
<path d="M421.976 126.863H419.321V141.746H421.976V126.863Z" fill="white"/>
<path d="M439.459 126.863H436.804V141.746H439.459V126.863Z" fill="white"/>
<path d="M441.451 129.244H346.733V131.513H441.451V129.244Z" fill="white"/>
<path d="M441.451 134.332H346.733V136.6H441.451V134.332Z" fill="white"/>
<path d="M458.491 164.596H-11.2837V198.787H458.491V164.596Z" fill="#532719"/>
<path d="M4.0977 167.858C8.46718 167.858 12.0093 164.316 12.0093 159.947C12.0093 155.577 8.46718 152.035 4.0977 152.035C-0.271787 152.035 -3.81396 155.577 -3.81396 159.947C-3.81396 164.316 -0.271787 167.858 4.0977 167.858Z" fill="#532719"/>
<path d="M45.2598 168.689C49.6293 168.689 53.1714 165.146 53.1714 160.777C53.1714 156.407 49.6293 152.865 45.2598 152.865C40.8903 152.865 37.3481 156.407 37.3481 160.777C37.3481 165.146 40.8903 168.689 45.2598 168.689Z" fill="#532719"/>
<path d="M84.5967 170.294C88.9662 170.294 92.5084 166.752 92.5084 162.382C92.5084 158.013 88.9662 154.471 84.5967 154.471C80.2272 154.471 76.6851 158.013 76.6851 162.382C76.6851 166.752 80.2272 170.294 84.5967 170.294Z" fill="#532719"/>
<path d="M16.3244 169.13C19.4411 169.13 21.9677 166.604 21.9677 163.487C21.9677 160.37 19.4411 157.844 16.3244 157.844C13.2077 157.844 10.6812 160.37 10.6812 163.487C10.6812 166.604 13.2077 169.13 16.3244 169.13Z" fill="#532719"/>
<path d="M57.3767 169.13C60.4934 169.13 63.0199 166.604 63.0199 163.487C63.0199 160.37 60.4934 157.844 57.3767 157.844C54.26 157.844 51.7334 160.37 51.7334 163.487C51.7334 166.604 54.26 169.13 57.3767 169.13Z" fill="#532719"/>
<path d="M73.8635 169.13C76.9802 169.13 79.5068 166.604 79.5068 163.487C79.5068 160.37 76.9802 157.844 73.8635 157.844C70.7468 157.844 68.2202 160.37 68.2202 163.487C68.2202 166.604 70.7468 169.13 73.8635 169.13Z" fill="#532719"/>
<path d="M25.5642 166.697C29.2921 166.697 32.3141 163.675 32.3141 159.947C32.3141 156.219 29.2921 153.197 25.5642 153.197C21.8364 153.197 18.8145 156.219 18.8145 159.947C18.8145 163.675 21.8364 166.697 25.5642 166.697Z" fill="#532719"/>
<path d="M34.6926 169.13C36.9232 169.13 38.7314 166.108 38.7314 162.381C38.7314 158.653 36.9232 155.631 34.6926 155.631C32.462 155.631 30.6538 158.653 30.6538 162.381C30.6538 166.108 32.462 169.13 34.6926 169.13Z" fill="#532719"/>
<path d="M65.5095 169.13C67.7401 169.13 69.5483 166.108 69.5483 162.381C69.5483 158.653 67.7401 155.631 65.5095 155.631C63.279 155.631 61.4707 158.653 61.4707 162.381C61.4707 166.108 63.279 169.13 65.5095 169.13Z" fill="#532719"/>
<path d="M96.6579 169.13C99.5607 169.13 101.914 166.108 101.914 162.381C101.914 158.653 99.5607 155.631 96.6579 155.631C93.7551 155.631 91.4019 158.653 91.4019 162.381C91.4019 166.108 93.7551 169.13 96.6579 169.13Z" fill="#532719"/>
<path d="M108 169.075C111.942 169.075 115.137 165.88 115.137 161.938C115.137 157.996 111.942 154.801 108 154.801C104.059 154.801 100.863 157.996 100.863 161.938C100.863 165.88 104.059 169.075 108 169.075Z" fill="#532719"/>
<path d="M119.398 167.472C123.767 167.472 127.31 163.93 127.31 159.56C127.31 155.191 123.767 151.648 119.398 151.648C115.028 151.648 111.486 155.191 111.486 159.56C111.486 163.93 115.028 167.472 119.398 167.472Z" fill="#532719"/>
<path d="M160.56 168.247C164.93 168.247 168.472 164.705 168.472 160.335C168.472 155.966 164.93 152.424 160.56 152.424C156.191 152.424 152.648 155.966 152.648 160.335C152.648 164.705 156.191 168.247 160.56 168.247Z" fill="#532719"/>
<path d="M199.897 169.851C204.266 169.851 207.809 166.308 207.809 161.939C207.809 157.57 204.266 154.027 199.897 154.027C195.528 154.027 191.985 157.57 191.985 161.939C191.985 166.308 195.528 169.851 199.897 169.851Z" fill="#532719"/>
<path d="M131.625 168.689C134.741 168.689 137.268 166.162 137.268 163.046C137.268 159.929 134.741 157.402 131.625 157.402C128.508 157.402 125.981 159.929 125.981 163.046C125.981 166.162 128.508 168.689 131.625 168.689Z" fill="#532719"/>
<path d="M172.677 168.689C175.794 168.689 178.32 166.162 178.32 163.046C178.32 159.929 175.794 157.402 172.677 157.402C169.56 157.402 167.034 159.929 167.034 163.046C167.034 166.162 169.56 168.689 172.677 168.689Z" fill="#532719"/>
<path d="M189.164 168.689C192.28 168.689 194.807 166.162 194.807 163.046C194.807 159.929 192.28 157.402 189.164 157.402C186.047 157.402 183.521 159.929 183.521 163.046C183.521 166.162 186.047 168.689 189.164 168.689Z" fill="#532719"/>
<path d="M140.865 166.31C144.592 166.31 147.614 163.288 147.614 159.56C147.614 155.833 144.592 152.811 140.865 152.811C137.137 152.811 134.115 155.833 134.115 159.56C134.115 163.288 137.137 166.31 140.865 166.31Z" fill="#532719"/>
<path d="M149.993 168.689C152.223 168.689 154.032 165.667 154.032 161.939C154.032 158.211 152.223 155.189 149.993 155.189C147.762 155.189 145.954 158.211 145.954 161.939C145.954 165.667 147.762 168.689 149.993 168.689Z" fill="#532719"/>
<path d="M180.81 168.689C183.04 168.689 184.849 165.667 184.849 161.939C184.849 158.211 183.04 155.189 180.81 155.189C178.579 155.189 176.771 158.211 176.771 161.939C176.771 165.667 178.579 168.689 180.81 168.689Z" fill="#532719"/>
<path d="M211.958 168.689C214.861 168.689 217.214 165.667 217.214 161.939C217.214 158.211 214.861 155.189 211.958 155.189C209.055 155.189 206.702 158.211 206.702 161.939C206.702 165.667 209.055 168.689 211.958 168.689Z" fill="#532719"/>
<path d="M221.474 169.688C225.416 169.688 228.611 166.493 228.611 162.551C228.611 158.609 225.416 155.414 221.474 155.414C217.532 155.414 214.337 158.609 214.337 162.551C214.337 166.493 217.532 169.688 221.474 169.688Z" fill="#532719"/>
<path d="M232.816 168.028C237.185 168.028 240.728 164.486 240.728 160.117C240.728 155.747 237.185 152.205 232.816 152.205C228.446 152.205 224.904 155.747 224.904 160.117C224.904 164.486 228.446 168.028 232.816 168.028Z" fill="#532719"/>
<path d="M274.034 168.804C278.403 168.804 281.945 165.262 281.945 160.892C281.945 156.523 278.403 152.98 274.034 152.98C269.664 152.98 266.122 156.523 266.122 160.892C266.122 165.262 269.664 168.804 274.034 168.804Z" fill="#532719"/>
<path d="M321.136 163.813C321.836 159.5 318.907 155.436 314.593 154.736C310.28 154.036 306.216 156.965 305.516 161.278C304.816 165.591 307.745 169.655 312.059 170.355C316.372 171.055 320.436 168.126 321.136 163.813Z" fill="#532719"/>
<path d="M245.098 169.3C248.215 169.3 250.742 166.774 250.742 163.657C250.742 160.54 248.215 158.014 245.098 158.014C241.982 158.014 239.455 160.54 239.455 163.657C239.455 166.774 241.982 169.3 245.098 169.3Z" fill="#532719"/>
<path d="M286.151 169.3C289.267 169.3 291.794 166.774 291.794 163.657C291.794 160.54 289.267 158.014 286.151 158.014C283.034 158.014 280.507 160.54 280.507 163.657C280.507 166.774 283.034 169.3 286.151 169.3Z" fill="#532719"/>
<path d="M302.583 169.3C305.699 169.3 308.226 166.774 308.226 163.657C308.226 160.54 305.699 158.014 302.583 158.014C299.466 158.014 296.939 160.54 296.939 163.657C296.939 166.774 299.466 169.3 302.583 169.3Z" fill="#532719"/>
<path d="M254.338 166.867C258.066 166.867 261.088 163.845 261.088 160.117C261.088 156.389 258.066 153.367 254.338 153.367C250.61 153.367 247.588 156.389 247.588 160.117C247.588 163.845 250.61 166.867 254.338 166.867Z" fill="#532719"/>
<path d="M263.411 169.3C265.642 169.3 267.45 166.278 267.45 162.551C267.45 158.823 265.642 155.801 263.411 155.801C261.181 155.801 259.373 158.823 259.373 162.551C259.373 166.278 261.181 169.3 263.411 169.3Z" fill="#532719"/>
<path d="M294.283 169.3C296.514 169.3 298.322 166.278 298.322 162.551C298.322 158.823 296.514 155.801 294.283 155.801C292.053 155.801 290.245 158.823 290.245 162.551C290.245 166.278 292.053 169.3 294.283 169.3Z" fill="#532719"/>
<path d="M325.377 169.3C328.28 169.3 330.633 166.278 330.633 162.551C330.633 158.823 328.28 155.801 325.377 155.801C322.474 155.801 320.121 158.823 320.121 162.551C320.121 166.278 322.474 169.3 325.377 169.3Z" fill="#532719"/>
<path d="M334.063 169.907C338.005 169.907 341.2 166.712 341.2 162.77C341.2 158.828 338.005 155.633 334.063 155.633C330.121 155.633 326.926 158.828 326.926 162.77C326.926 166.712 330.121 169.907 334.063 169.907Z" fill="#532719"/>
<path d="M345.46 168.247C349.83 168.247 353.372 164.705 353.372 160.335C353.372 155.966 349.83 152.424 345.46 152.424C341.091 152.424 337.549 155.966 337.549 160.335C337.549 164.705 341.091 168.247 345.46 168.247Z" fill="#532719"/>
<path d="M386.623 169.023C390.992 169.023 394.534 165.48 394.534 161.111C394.534 156.741 390.992 153.199 386.623 153.199C382.253 153.199 378.711 156.741 378.711 161.111C378.711 165.48 382.253 169.023 386.623 169.023Z" fill="#532719"/>
<path d="M426.286 170.68C430.652 170.513 434.056 166.837 433.888 162.471C433.721 158.104 430.045 154.701 425.679 154.868C421.312 155.036 417.908 158.712 418.076 163.078C418.244 167.444 421.919 170.848 426.286 170.68Z" fill="#532719"/>
<path d="M447.861 170.467C452.231 170.426 455.739 166.851 455.698 162.481C455.657 158.112 452.081 154.603 447.712 154.644C443.342 154.685 439.834 158.261 439.875 162.63C439.916 167 443.492 170.509 447.861 170.467Z" fill="#532719"/>
<path d="M357.687 169.519C360.804 169.519 363.331 166.992 363.331 163.876C363.331 160.759 360.804 158.232 357.687 158.232C354.571 158.232 352.044 160.759 352.044 163.876C352.044 166.992 354.571 169.519 357.687 169.519Z" fill="#532719"/>
<path d="M398.74 169.519C401.856 169.519 404.383 166.992 404.383 163.876C404.383 160.759 401.856 158.232 398.74 158.232C395.623 158.232 393.096 160.759 393.096 163.876C393.096 166.992 395.623 169.519 398.74 169.519Z" fill="#532719"/>
<path d="M415.226 169.519C418.343 169.519 420.87 166.992 420.87 163.876C420.87 160.759 418.343 158.232 415.226 158.232C412.11 158.232 409.583 160.759 409.583 163.876C409.583 166.992 412.11 169.519 415.226 169.519Z" fill="#532719"/>
<path d="M366.982 167.086C370.71 167.086 373.732 164.064 373.732 160.336C373.732 156.608 370.71 153.586 366.982 153.586C363.254 153.586 360.232 156.608 360.232 160.336C360.232 164.064 363.254 167.086 366.982 167.086Z" fill="#532719"/>
<path d="M376.055 169.519C378.286 169.519 380.094 166.497 380.094 162.769C380.094 159.042 378.286 156.02 376.055 156.02C373.825 156.02 372.017 159.042 372.017 162.769C372.017 166.497 373.825 169.519 376.055 169.519Z" fill="#532719"/>
<path d="M406.927 169.519C409.158 169.519 410.966 166.497 410.966 162.769C410.966 159.042 409.158 156.02 406.927 156.02C404.697 156.02 402.889 159.042 402.889 162.769C402.889 166.497 404.697 169.519 406.927 169.519Z" fill="#532719"/>
<path d="M438.021 169.519C440.924 169.519 443.277 166.497 443.277 162.769C443.277 159.042 440.924 156.02 438.021 156.02C435.118 156.02 432.765 159.042 432.765 162.769C432.765 166.497 435.118 169.519 438.021 169.519Z" fill="#532719"/>
<path d="M454.73 194.418H-15.0454V224.183H454.73V194.418Z" fill="#98492F"/>
<path d="M0.280802 197.681C4.65029 197.681 8.19245 194.139 8.19245 189.769C8.19245 185.4 4.65029 181.857 0.280802 181.857C-4.08868 181.857 -7.63086 185.4 -7.63086 189.769C-7.63086 194.139 -4.08868 197.681 0.280802 197.681Z" fill="#98492F"/>
<path d="M41.4986 198.511C45.8681 198.511 49.4102 194.969 49.4102 190.599C49.4102 186.23 45.8681 182.688 41.4986 182.688C37.1291 182.688 33.5869 186.23 33.5869 190.599C33.5869 194.969 37.1291 198.511 41.4986 198.511Z" fill="#98492F"/>
<path d="M80.7803 200.116C85.1498 200.116 88.692 196.574 88.692 192.205C88.692 187.835 85.1498 184.293 80.7803 184.293C76.4108 184.293 72.8687 187.835 72.8687 192.205C72.8687 196.574 76.4108 200.116 80.7803 200.116Z" fill="#98492F"/>
<path d="M12.5632 198.953C15.6799 198.953 18.2065 196.426 18.2065 193.309C18.2065 190.193 15.6799 187.666 12.5632 187.666C9.44649 187.666 6.91992 190.193 6.91992 193.309C6.91992 196.426 9.44649 198.953 12.5632 198.953Z" fill="#98492F"/>
<path d="M53.6155 198.953C56.7321 198.953 59.2587 196.426 59.2587 193.309C59.2587 190.193 56.7321 187.666 53.6155 187.666C50.4988 187.666 47.9722 190.193 47.9722 193.309C47.9722 196.426 50.4988 198.953 53.6155 198.953Z" fill="#98492F"/>
<path d="M70.0471 198.953C73.1638 198.953 75.6904 196.426 75.6904 193.309C75.6904 190.193 73.1638 187.666 70.0471 187.666C66.9304 187.666 64.4038 190.193 64.4038 193.309C64.4038 196.426 66.9304 198.953 70.0471 198.953Z" fill="#98492F"/>
<path d="M21.803 196.519C25.5308 196.519 28.5528 193.497 28.5528 189.769C28.5528 186.042 25.5308 183.02 21.803 183.02C18.0752 183.02 15.0532 186.042 15.0532 189.769C15.0532 193.497 18.0752 196.519 21.803 196.519Z" fill="#98492F"/>
<path d="M30.8762 198.953C33.1068 198.953 34.915 195.931 34.915 192.203C34.915 188.475 33.1068 185.453 30.8762 185.453C28.6456 185.453 26.8374 188.475 26.8374 192.203C26.8374 195.931 28.6456 198.953 30.8762 198.953Z" fill="#98492F"/>
<path d="M61.7483 198.953C63.9789 198.953 65.7871 195.931 65.7871 192.203C65.7871 188.475 63.9789 185.453 61.7483 185.453C59.5177 185.453 57.7095 188.475 57.7095 192.203C57.7095 195.931 59.5177 198.953 61.7483 198.953Z" fill="#98492F"/>
<path d="M92.8419 198.953C95.7447 198.953 98.0979 195.931 98.0979 192.203C98.0979 188.475 95.7447 185.453 92.8419 185.453C89.9391 185.453 87.5859 188.475 87.5859 192.203C87.5859 195.931 89.9391 198.953 92.8419 198.953Z" fill="#98492F"/>
<path d="M104.239 198.897C108.18 198.897 111.376 195.702 111.376 191.76C111.376 187.818 108.18 184.623 104.239 184.623C100.297 184.623 97.1016 187.818 97.1016 191.76C97.1016 195.702 100.297 198.897 104.239 198.897Z" fill="#98492F"/>
<path d="M115.581 197.294C119.95 197.294 123.492 193.752 123.492 189.382C123.492 185.013 119.95 181.471 115.581 181.471C111.211 181.471 107.669 185.013 107.669 189.382C107.669 193.752 111.211 197.294 115.581 197.294Z" fill="#98492F"/>
<path d="M156.798 198.069C161.168 198.069 164.71 194.527 164.71 190.158C164.71 185.788 161.168 182.246 156.798 182.246C152.429 182.246 148.887 185.788 148.887 190.158C148.887 194.527 152.429 198.069 156.798 198.069Z" fill="#98492F"/>
<path d="M196.08 199.673C200.45 199.673 203.992 196.131 203.992 191.761C203.992 187.392 200.45 183.85 196.08 183.85C191.711 183.85 188.168 187.392 188.168 191.761C188.168 196.131 191.711 199.673 196.08 199.673Z" fill="#98492F"/>
<path d="M127.863 198.511C130.98 198.511 133.506 195.985 133.506 192.868C133.506 189.751 130.98 187.225 127.863 187.225C124.746 187.225 122.22 189.751 122.22 192.868C122.22 195.985 124.746 198.511 127.863 198.511Z" fill="#98492F"/>
<path d="M168.915 198.511C172.032 198.511 174.559 195.985 174.559 192.868C174.559 189.751 172.032 187.225 168.915 187.225C165.799 187.225 163.272 189.751 163.272 192.868C163.272 195.985 165.799 198.511 168.915 198.511Z" fill="#98492F"/>
<path d="M185.347 198.511C188.464 198.511 190.99 195.985 190.99 192.868C190.99 189.751 188.464 187.225 185.347 187.225C182.23 187.225 179.704 189.751 179.704 192.868C179.704 195.985 182.23 198.511 185.347 198.511Z" fill="#98492F"/>
<path d="M137.103 196.132C140.831 196.132 143.853 193.11 143.853 189.383C143.853 185.655 140.831 182.633 137.103 182.633C133.375 182.633 130.353 185.655 130.353 189.383C130.353 193.11 133.375 196.132 137.103 196.132Z" fill="#98492F"/>
<path d="M146.176 198.511C148.407 198.511 150.215 195.489 150.215 191.762C150.215 188.034 148.407 185.012 146.176 185.012C143.945 185.012 142.137 188.034 142.137 191.762C142.137 195.489 143.945 198.511 146.176 198.511Z" fill="#98492F"/>
<path d="M177.048 198.511C179.279 198.511 181.087 195.489 181.087 191.762C181.087 188.034 179.279 185.012 177.048 185.012C174.818 185.012 173.009 188.034 173.009 191.762C173.009 195.489 174.818 198.511 177.048 198.511Z" fill="#98492F"/>
<path d="M208.142 198.511C211.045 198.511 213.398 195.489 213.398 191.762C213.398 188.034 211.045 185.012 208.142 185.012C205.239 185.012 202.886 188.034 202.886 191.762C202.886 195.489 205.239 198.511 208.142 198.511Z" fill="#98492F"/>
<path d="M217.657 199.507C221.598 199.507 224.794 196.311 224.794 192.37C224.794 188.428 221.598 185.232 217.657 185.232C213.715 185.232 210.52 188.428 210.52 192.37C210.52 196.311 213.715 199.507 217.657 199.507Z" fill="#98492F"/>
<path d="M229.054 197.847C233.424 197.847 236.966 194.305 236.966 189.935C236.966 185.566 233.424 182.023 229.054 182.023C224.685 182.023 221.143 185.566 221.143 189.935C221.143 194.305 224.685 197.847 229.054 197.847Z" fill="#98492F"/>
<path d="M270.216 198.622C274.586 198.622 278.128 195.08 278.128 190.71C278.128 186.341 274.586 182.799 270.216 182.799C265.847 182.799 262.305 186.341 262.305 190.71C262.305 195.08 265.847 198.622 270.216 198.622Z" fill="#98492F"/>
<path d="M309.553 200.282C313.923 200.282 317.465 196.74 317.465 192.371C317.465 188.001 313.923 184.459 309.553 184.459C305.184 184.459 301.642 188.001 301.642 192.371C301.642 196.74 305.184 200.282 309.553 200.282Z" fill="#98492F"/>
<path d="M241.281 199.064C244.398 199.064 246.924 196.537 246.924 193.421C246.924 190.304 244.398 187.777 241.281 187.777C238.164 187.777 235.638 190.304 235.638 193.421C235.638 196.537 238.164 199.064 241.281 199.064Z" fill="#98492F"/>
<path d="M282.333 199.064C285.45 199.064 287.977 196.537 287.977 193.421C287.977 190.304 285.45 187.777 282.333 187.777C279.217 187.777 276.69 190.304 276.69 193.421C276.69 196.537 279.217 199.064 282.333 199.064Z" fill="#98492F"/>
<path d="M298.82 199.064C301.937 199.064 304.463 196.537 304.463 193.421C304.463 190.304 301.937 187.777 298.82 187.777C295.703 187.777 293.177 190.304 293.177 193.421C293.177 196.537 295.703 199.064 298.82 199.064Z" fill="#98492F"/>
<path d="M250.576 196.685C254.304 196.685 257.326 193.663 257.326 189.935C257.326 186.208 254.304 183.186 250.576 183.186C246.848 183.186 243.826 186.208 243.826 189.935C243.826 193.663 246.848 196.685 250.576 196.685Z" fill="#98492F"/>
<path d="M259.649 199.119C261.88 199.119 263.688 196.097 263.688 192.369C263.688 188.641 261.88 185.619 259.649 185.619C257.419 185.619 255.61 188.641 255.61 192.369C255.61 196.097 257.419 199.119 259.649 199.119Z" fill="#98492F"/>
<path d="M290.521 199.119C292.752 199.119 294.56 196.097 294.56 192.369C294.56 188.641 292.752 185.619 290.521 185.619C288.291 185.619 286.482 188.641 286.482 192.369C286.482 196.097 288.291 199.119 290.521 199.119Z" fill="#98492F"/>
<path d="M321.614 199.119C324.517 199.119 326.87 196.097 326.87 192.369C326.87 188.641 324.517 185.619 321.614 185.619C318.712 185.619 316.358 188.641 316.358 192.369C316.358 196.097 318.712 199.119 321.614 199.119Z" fill="#98492F"/>
<path d="M330.301 199.673C334.243 199.673 337.438 196.477 337.438 192.536C337.438 188.594 334.243 185.398 330.301 185.398C326.359 185.398 323.164 188.594 323.164 192.536C323.164 196.477 326.359 199.673 330.301 199.673Z" fill="#98492F"/>
<path d="M341.643 198.069C346.013 198.069 349.555 194.527 349.555 190.158C349.555 185.788 346.013 182.246 341.643 182.246C337.274 182.246 333.731 185.788 333.731 190.158C333.731 194.527 337.274 198.069 341.643 198.069Z" fill="#98492F"/>
<path d="M382.861 198.845C387.23 198.845 390.773 195.303 390.773 190.933C390.773 186.564 387.23 183.021 382.861 183.021C378.491 183.021 374.949 186.564 374.949 190.933C374.949 195.303 378.491 198.845 382.861 198.845Z" fill="#98492F"/>
<path d="M422.524 200.45C426.891 200.282 430.294 196.607 430.127 192.24C429.959 187.874 426.283 184.47 421.917 184.638C417.55 184.805 414.147 188.481 414.314 192.848C414.482 197.214 418.158 200.618 422.524 200.45Z" fill="#98492F"/>
<path d="M443.997 200.282C448.366 200.282 451.908 196.74 451.908 192.371C451.908 188.001 448.366 184.459 443.997 184.459C439.627 184.459 436.085 188.001 436.085 192.371C436.085 196.74 439.627 200.282 443.997 200.282Z" fill="#98492F"/>
<path d="M353.926 199.287C357.042 199.287 359.569 196.76 359.569 193.643C359.569 190.527 357.042 188 353.926 188C350.809 188 348.282 190.527 348.282 193.643C348.282 196.76 350.809 199.287 353.926 199.287Z" fill="#98492F"/>
<path d="M394.978 199.287C398.094 199.287 400.621 196.76 400.621 193.643C400.621 190.527 398.094 188 394.978 188C391.861 188 389.334 190.527 389.334 193.643C389.334 196.76 391.861 199.287 394.978 199.287Z" fill="#98492F"/>
<path d="M411.465 199.287C414.581 199.287 417.108 196.76 417.108 193.643C417.108 190.527 414.581 188 411.465 188C408.348 188 405.821 190.527 405.821 193.643C405.821 196.76 408.348 199.287 411.465 199.287Z" fill="#98492F"/>
<path d="M455.586 200.071C458.703 200.042 461.206 197.491 461.176 194.375C461.147 191.258 458.596 188.755 455.48 188.785C452.363 188.814 449.86 191.364 449.89 194.481C449.919 197.598 452.469 200.101 455.586 200.071Z" fill="#98492F"/>
<path d="M363.165 196.908C366.893 196.908 369.915 193.886 369.915 190.158C369.915 186.43 366.893 183.408 363.165 183.408C359.437 183.408 356.416 186.43 356.416 190.158C356.416 193.886 359.437 196.908 363.165 196.908Z" fill="#98492F"/>
<path d="M372.239 199.287C374.469 199.287 376.277 196.265 376.277 192.537C376.277 188.809 374.469 185.787 372.239 185.787C370.008 185.787 368.2 188.809 368.2 192.537C368.2 196.265 370.008 199.287 372.239 199.287Z" fill="#98492F"/>
<path d="M403.111 199.287C405.341 199.287 407.149 196.265 407.149 192.537C407.149 188.809 405.341 185.787 403.111 185.787C400.88 185.787 399.072 188.809 399.072 192.537C399.072 196.265 400.88 199.287 403.111 199.287Z" fill="#98492F"/>
<path d="M434.204 199.287C437.107 199.287 439.46 196.265 439.46 192.537C439.46 188.809 437.107 185.787 434.204 185.787C431.301 185.787 428.948 188.809 428.948 192.537C428.948 196.265 431.301 199.287 434.204 199.287Z" fill="#98492F"/>
<path d="M457.828 221.914H-11.9468V256.106H457.828V221.914Z" fill="#532719"/>
<path d="M3.37893 225.233C7.74841 225.233 11.2906 221.691 11.2906 217.322C11.2906 212.952 7.74841 209.41 3.37893 209.41C-0.990554 209.41 -4.53271 212.952 -4.53271 217.322C-4.53271 221.691 -0.990554 225.233 3.37893 225.233Z" fill="#532719"/>
<path d="M44.5967 226.009C48.9662 226.009 52.5084 222.467 52.5084 218.097C52.5084 213.728 48.9662 210.186 44.5967 210.186C40.2272 210.186 36.6851 213.728 36.6851 218.097C36.6851 222.467 40.2272 226.009 44.5967 226.009Z" fill="#532719"/>
<path d="M83.8784 227.669C88.2479 227.669 91.7901 224.127 91.7901 219.757C91.7901 215.388 88.2479 211.846 83.8784 211.846C79.509 211.846 75.9668 215.388 75.9668 219.757C75.9668 224.127 79.509 227.669 83.8784 227.669Z" fill="#532719"/>
<path d="M15.6613 226.451C18.778 226.451 21.3046 223.924 21.3046 220.807C21.3046 217.691 18.778 215.164 15.6613 215.164C12.5447 215.164 10.0181 217.691 10.0181 220.807C10.0181 223.924 12.5447 226.451 15.6613 226.451Z" fill="#532719"/>
<path d="M56.7136 226.451C59.8303 226.451 62.3569 223.924 62.3569 220.807C62.3569 217.691 59.8303 215.164 56.7136 215.164C53.5969 215.164 51.0703 217.691 51.0703 220.807C51.0703 223.924 53.5969 226.451 56.7136 226.451Z" fill="#532719"/>
<path d="M73.1452 226.451C76.2619 226.451 78.7885 223.924 78.7885 220.807C78.7885 217.691 76.2619 215.164 73.1452 215.164C70.0285 215.164 67.502 217.691 67.502 220.807C67.502 223.924 70.0285 226.451 73.1452 226.451Z" fill="#532719"/>
<path d="M24.9012 224.072C28.629 224.072 31.651 221.05 31.651 217.322C31.651 213.594 28.629 210.572 24.9012 210.572C21.1734 210.572 18.1514 213.594 18.1514 217.322C18.1514 221.05 21.1734 224.072 24.9012 224.072Z" fill="#532719"/>
<path d="M33.9744 226.505C36.2049 226.505 38.0132 223.483 38.0132 219.756C38.0132 216.028 36.2049 213.006 33.9744 213.006C31.7438 213.006 29.9355 216.028 29.9355 219.756C29.9355 223.483 31.7438 226.505 33.9744 226.505Z" fill="#532719"/>
<path d="M64.8464 226.505C67.077 226.505 68.8853 223.483 68.8853 219.756C68.8853 216.028 67.077 213.006 64.8464 213.006C62.6158 213.006 60.8076 216.028 60.8076 219.756C60.8076 223.483 62.6158 226.505 64.8464 226.505Z" fill="#532719"/>
<path d="M95.9401 226.505C98.8429 226.505 101.196 223.483 101.196 219.756C101.196 216.028 98.8429 213.006 95.9401 213.006C93.0373 213.006 90.6841 216.028 90.6841 219.756C90.6841 223.483 93.0373 226.505 95.9401 226.505Z" fill="#532719"/>
<path d="M107.337 226.452C111.279 226.452 114.474 223.257 114.474 219.315C114.474 215.373 111.279 212.178 107.337 212.178C103.395 212.178 100.2 215.373 100.2 219.315C100.2 223.257 103.395 226.452 107.337 226.452Z" fill="#532719"/>
<path d="M118.679 224.792C123.048 224.792 126.59 221.25 126.59 216.88C126.59 212.511 123.048 208.969 118.679 208.969C114.309 208.969 110.767 212.511 110.767 216.88C110.767 221.25 114.309 224.792 118.679 224.792Z" fill="#532719"/>
<path d="M159.897 225.567C164.266 225.567 167.808 222.025 167.808 217.656C167.808 213.286 164.266 209.744 159.897 209.744C155.527 209.744 151.985 213.286 151.985 217.656C151.985 222.025 155.527 225.567 159.897 225.567Z" fill="#532719"/>
<path d="M199.233 227.228C203.603 227.228 207.145 223.685 207.145 219.316C207.145 214.946 203.603 211.404 199.233 211.404C194.864 211.404 191.322 214.946 191.322 219.316C191.322 223.685 194.864 227.228 199.233 227.228Z" fill="#532719"/>
<path d="M130.961 226.064C134.078 226.064 136.604 223.537 136.604 220.421C136.604 217.304 134.078 214.777 130.961 214.777C127.844 214.777 125.318 217.304 125.318 220.421C125.318 223.537 127.844 226.064 130.961 226.064Z" fill="#532719"/>
<path d="M172.013 226.064C175.13 226.064 177.656 223.537 177.656 220.421C177.656 217.304 175.13 214.777 172.013 214.777C168.896 214.777 166.37 217.304 166.37 220.421C166.37 223.537 168.896 226.064 172.013 226.064Z" fill="#532719"/>
<path d="M188.5 226.064C191.617 226.064 194.143 223.537 194.143 220.421C194.143 217.304 191.617 214.777 188.5 214.777C185.384 214.777 182.857 217.304 182.857 220.421C182.857 223.537 185.384 226.064 188.5 226.064Z" fill="#532719"/>
<path d="M140.201 223.63C143.929 223.63 146.951 220.608 146.951 216.881C146.951 213.153 143.929 210.131 140.201 210.131C136.473 210.131 133.451 213.153 133.451 216.881C133.451 220.608 136.473 223.63 140.201 223.63Z" fill="#532719"/>
<path d="M149.274 226.064C151.505 226.064 153.313 223.042 153.313 219.314C153.313 215.586 151.505 212.564 149.274 212.564C147.044 212.564 145.235 215.586 145.235 219.314C145.235 223.042 147.044 226.064 149.274 226.064Z" fill="#532719"/>
<path d="M180.146 226.064C182.377 226.064 184.185 223.042 184.185 219.314C184.185 215.586 182.377 212.564 180.146 212.564C177.916 212.564 176.107 215.586 176.107 219.314C176.107 223.042 177.916 226.064 180.146 226.064Z" fill="#532719"/>
<path d="M211.24 226.064C214.143 226.064 216.496 223.042 216.496 219.314C216.496 215.586 214.143 212.564 211.24 212.564C208.337 212.564 205.984 215.586 205.984 219.314C205.984 223.042 208.337 226.064 211.24 226.064Z" fill="#532719"/>
<path d="M220.755 227.003C224.696 227.003 227.892 223.807 227.892 219.866C227.892 215.924 224.696 212.729 220.755 212.729C216.813 212.729 213.618 215.924 213.618 219.866C213.618 223.807 216.813 227.003 220.755 227.003Z" fill="#532719"/>
<path d="M232.152 225.399C236.522 225.399 240.064 221.857 240.064 217.488C240.064 213.118 236.522 209.576 232.152 209.576C227.783 209.576 224.241 213.118 224.241 217.488C224.241 221.857 227.783 225.399 232.152 225.399Z" fill="#532719"/>
<path d="M273.37 226.175C277.74 226.175 281.282 222.633 281.282 218.263C281.282 213.894 277.74 210.352 273.37 210.352C269.001 210.352 265.458 213.894 265.458 218.263C265.458 222.633 269.001 226.175 273.37 226.175Z" fill="#532719"/>
<path d="M312.651 227.778C317.021 227.778 320.563 224.236 320.563 219.867C320.563 215.497 317.021 211.955 312.651 211.955C308.282 211.955 304.74 215.497 304.74 219.867C304.74 224.236 308.282 227.778 312.651 227.778Z" fill="#532719"/>
<path d="M244.379 226.617C247.496 226.617 250.022 224.09 250.022 220.973C250.022 217.857 247.496 215.33 244.379 215.33C241.262 215.33 238.736 217.857 238.736 220.973C238.736 224.09 241.262 226.617 244.379 226.617Z" fill="#532719"/>
<path d="M285.431 226.617C288.548 226.617 291.075 224.09 291.075 220.973C291.075 217.857 288.548 215.33 285.431 215.33C282.315 215.33 279.788 217.857 279.788 220.973C279.788 224.09 282.315 226.617 285.431 226.617Z" fill="#532719"/>
<path d="M301.918 226.617C305.035 226.617 307.561 224.09 307.561 220.973C307.561 217.857 305.035 215.33 301.918 215.33C298.801 215.33 296.275 217.857 296.275 220.973C296.275 224.09 298.801 226.617 301.918 226.617Z" fill="#532719"/>
<path d="M253.674 224.238C257.402 224.238 260.424 221.216 260.424 217.488C260.424 213.76 257.402 210.738 253.674 210.738C249.946 210.738 246.924 213.76 246.924 217.488C246.924 221.216 249.946 224.238 253.674 224.238Z" fill="#532719"/>
<path d="M262.747 226.617C264.978 226.617 266.786 223.595 266.786 219.867C266.786 216.139 264.978 213.117 262.747 213.117C260.517 213.117 258.708 216.139 258.708 219.867C258.708 223.595 260.517 226.617 262.747 226.617Z" fill="#532719"/>
<path d="M293.619 226.617C295.85 226.617 297.658 223.595 297.658 219.867C297.658 216.139 295.85 213.117 293.619 213.117C291.389 213.117 289.581 216.139 289.581 219.867C289.581 223.595 291.389 226.617 293.619 226.617Z" fill="#532719"/>
<path d="M324.713 226.617C327.615 226.617 329.969 223.595 329.969 219.867C329.969 216.139 327.615 213.117 324.713 213.117C321.81 213.117 319.457 216.139 319.457 219.867C319.457 223.595 321.81 226.617 324.713 226.617Z" fill="#532719"/>
<path d="M333.4 227.225C337.341 227.225 340.537 224.03 340.537 220.088C340.537 216.147 337.341 212.951 333.4 212.951C329.458 212.951 326.263 216.147 326.263 220.088C326.263 224.03 329.458 227.225 333.4 227.225Z" fill="#532719"/>
<path d="M344.797 225.565C349.166 225.565 352.709 222.023 352.709 217.654C352.709 213.284 349.166 209.742 344.797 209.742C340.427 209.742 336.885 213.284 336.885 217.654C336.885 222.023 340.427 225.565 344.797 225.565Z" fill="#532719"/>
<path d="M385.96 226.396C390.329 226.396 393.871 222.853 393.871 218.484C393.871 214.114 390.329 210.572 385.96 210.572C381.59 210.572 378.048 214.114 378.048 218.484C378.048 222.853 381.59 226.396 385.96 226.396Z" fill="#532719"/>
<path d="M425.623 228.003C429.989 227.835 433.393 224.159 433.225 219.793C433.058 215.427 429.382 212.023 425.016 212.191C420.649 212.358 417.245 216.034 417.413 220.4C417.581 224.767 421.256 228.17 425.623 228.003Z" fill="#532719"/>
<path d="M447.198 227.788C451.568 227.747 455.076 224.171 455.035 219.801C454.994 215.432 451.418 211.923 447.049 211.964C442.679 212.006 439.171 215.581 439.212 219.951C439.253 224.32 442.829 227.829 447.198 227.788Z" fill="#532719"/>
<path d="M357.024 226.837C360.141 226.837 362.667 224.311 362.667 221.194C362.667 218.077 360.141 215.551 357.024 215.551C353.907 215.551 351.381 218.077 351.381 221.194C351.381 224.311 353.907 226.837 357.024 226.837Z" fill="#532719"/>
<path d="M398.076 226.837C401.193 226.837 403.72 224.311 403.72 221.194C403.72 218.077 401.193 215.551 398.076 215.551C394.96 215.551 392.433 218.077 392.433 221.194C392.433 224.311 394.96 226.837 398.076 226.837Z" fill="#532719"/>
<path d="M414.563 226.837C417.68 226.837 420.206 224.311 420.206 221.194C420.206 218.077 417.68 215.551 414.563 215.551C411.446 215.551 408.92 218.077 408.92 221.194C408.92 224.311 411.446 226.837 414.563 226.837Z" fill="#532719"/>
<path d="M366.264 224.404C369.992 224.404 373.014 221.382 373.014 217.654C373.014 213.926 369.992 210.904 366.264 210.904C362.536 210.904 359.514 213.926 359.514 217.654C359.514 221.382 362.536 224.404 366.264 224.404Z" fill="#532719"/>
<path d="M375.392 226.837C377.623 226.837 379.431 223.815 379.431 220.088C379.431 216.36 377.623 213.338 375.392 213.338C373.162 213.338 371.354 216.36 371.354 220.088C371.354 223.815 373.162 226.837 375.392 226.837Z" fill="#532719"/>
<path d="M406.209 226.837C408.44 226.837 410.248 223.815 410.248 220.088C410.248 216.36 408.44 213.338 406.209 213.338C403.979 213.338 402.17 216.36 402.17 220.088C402.17 223.815 403.979 226.837 406.209 226.837Z" fill="#532719"/>
<path d="M437.358 226.837C440.26 226.837 442.614 223.815 442.614 220.088C442.614 216.36 440.26 213.338 437.358 213.338C434.455 213.338 432.102 216.36 432.102 220.088C432.102 223.815 434.455 226.837 437.358 226.837Z" fill="#532719"/>
<path d="M456.169 257.984H-13.6064V287.75H456.169V257.984Z" fill="#98492F"/>
<path d="M1.77444 261.306C6.14392 261.306 9.6861 257.764 9.6861 253.394C9.6861 249.025 6.14392 245.482 1.77444 245.482C-2.59505 245.482 -6.13721 249.025 -6.13721 253.394C-6.13721 257.764 -2.59505 261.306 1.77444 261.306Z" fill="#98492F"/>
<path d="M42.9922 262.081C47.3617 262.081 50.9039 258.539 50.9039 254.169C50.9039 249.8 47.3617 246.258 42.9922 246.258C38.6227 246.258 35.0806 249.8 35.0806 254.169C35.0806 258.539 38.6227 262.081 42.9922 262.081Z" fill="#98492F"/>
<path d="M82.2735 263.685C86.6429 263.685 90.1851 260.142 90.1851 255.773C90.1851 251.403 86.6429 247.861 82.2735 247.861C77.904 247.861 74.3618 251.403 74.3618 255.773C74.3618 260.142 77.904 263.685 82.2735 263.685Z" fill="#98492F"/>
<path d="M14.0012 262.523C17.1179 262.523 19.6445 259.996 19.6445 256.88C19.6445 253.763 17.1179 251.236 14.0012 251.236C10.8845 251.236 8.35791 253.763 8.35791 256.88C8.35791 259.996 10.8845 262.523 14.0012 262.523Z" fill="#98492F"/>
<path d="M55.0534 262.523C58.1701 262.523 60.6967 259.996 60.6967 256.88C60.6967 253.763 58.1701 251.236 55.0534 251.236C51.9367 251.236 49.4102 253.763 49.4102 256.88C49.4102 259.996 51.9367 262.523 55.0534 262.523Z" fill="#98492F"/>
<path d="M71.5403 262.523C74.657 262.523 77.1835 259.996 77.1835 256.88C77.1835 253.763 74.657 251.236 71.5403 251.236C68.4236 251.236 65.897 253.763 65.897 256.88C65.897 259.996 68.4236 262.523 71.5403 262.523Z" fill="#98492F"/>
<path d="M23.2962 260.144C27.024 260.144 30.046 257.122 30.046 253.394C30.046 249.667 27.024 246.645 23.2962 246.645C19.5684 246.645 16.5464 249.667 16.5464 253.394C16.5464 257.122 19.5684 260.144 23.2962 260.144Z" fill="#98492F"/>
<path d="M32.3694 262.523C34.6 262.523 36.4082 259.501 36.4082 255.773C36.4082 252.045 34.6 249.023 32.3694 249.023C30.1388 249.023 28.3306 252.045 28.3306 255.773C28.3306 259.501 30.1388 262.523 32.3694 262.523Z" fill="#98492F"/>
<path d="M63.2414 262.523C65.472 262.523 67.2803 259.501 67.2803 255.773C67.2803 252.045 65.472 249.023 63.2414 249.023C61.0109 249.023 59.2026 252.045 59.2026 255.773C59.2026 259.501 61.0109 262.523 63.2414 262.523Z" fill="#98492F"/>
<path d="M94.3346 262.523C97.2374 262.523 99.5906 259.501 99.5906 255.773C99.5906 252.045 97.2374 249.023 94.3346 249.023C91.4318 249.023 89.0786 252.045 89.0786 255.773C89.0786 259.501 91.4318 262.523 94.3346 262.523Z" fill="#98492F"/>
<path d="M105.676 262.522C109.618 262.522 112.813 259.327 112.813 255.385C112.813 251.443 109.618 248.248 105.676 248.248C101.734 248.248 98.5391 251.443 98.5391 255.385C98.5391 259.327 101.734 262.522 105.676 262.522Z" fill="#98492F"/>
<path d="M117.074 260.862C121.443 260.862 124.985 257.32 124.985 252.951C124.985 248.581 121.443 245.039 117.074 245.039C112.704 245.039 109.162 248.581 109.162 252.951C109.162 257.32 112.704 260.862 117.074 260.862Z" fill="#98492F"/>
<path d="M158.292 261.638C162.661 261.638 166.203 258.096 166.203 253.726C166.203 249.357 162.661 245.814 158.292 245.814C153.922 245.814 150.38 249.357 150.38 253.726C150.38 258.096 153.922 261.638 158.292 261.638Z" fill="#98492F"/>
<path d="M197.573 263.298C201.942 263.298 205.484 259.756 205.484 255.386C205.484 251.017 201.942 247.475 197.573 247.475C193.203 247.475 189.661 251.017 189.661 255.386C189.661 259.756 193.203 263.298 197.573 263.298Z" fill="#98492F"/>
<path d="M129.301 262.134C132.417 262.134 134.944 259.608 134.944 256.491C134.944 253.374 132.417 250.848 129.301 250.848C126.184 250.848 123.657 253.374 123.657 256.491C123.657 259.608 126.184 262.134 129.301 262.134Z" fill="#98492F"/>
<path d="M170.353 262.134C173.469 262.134 175.996 259.608 175.996 256.491C175.996 253.374 173.469 250.848 170.353 250.848C167.236 250.848 164.709 253.374 164.709 256.491C164.709 259.608 167.236 262.134 170.353 262.134Z" fill="#98492F"/>
<path d="M186.84 262.134C189.956 262.134 192.483 259.608 192.483 256.491C192.483 253.374 189.956 250.848 186.84 250.848C183.723 250.848 181.196 253.374 181.196 256.491C181.196 259.608 183.723 262.134 186.84 262.134Z" fill="#98492F"/>
<path d="M138.596 259.701C142.323 259.701 145.345 256.679 145.345 252.951C145.345 249.223 142.323 246.201 138.596 246.201C134.868 246.201 131.846 249.223 131.846 252.951C131.846 256.679 134.868 259.701 138.596 259.701Z" fill="#98492F"/>
<path d="M147.669 262.134C149.899 262.134 151.708 259.112 151.708 255.385C151.708 251.657 149.899 248.635 147.669 248.635C145.438 248.635 143.63 251.657 143.63 255.385C143.63 259.112 145.438 262.134 147.669 262.134Z" fill="#98492F"/>
<path d="M178.541 262.134C180.771 262.134 182.58 259.112 182.58 255.385C182.58 251.657 180.771 248.635 178.541 248.635C176.31 248.635 174.502 251.657 174.502 255.385C174.502 259.112 176.31 262.134 178.541 262.134Z" fill="#98492F"/>
<path d="M209.634 262.134C212.537 262.134 214.89 259.112 214.89 255.385C214.89 251.657 212.537 248.635 209.634 248.635C206.731 248.635 204.378 251.657 204.378 255.385C204.378 259.112 206.731 262.134 209.634 262.134Z" fill="#98492F"/>
<path d="M219.151 263.077C223.093 263.077 226.288 259.882 226.288 255.94C226.288 251.998 223.093 248.803 219.151 248.803C215.21 248.803 212.014 251.998 212.014 255.94C212.014 259.882 215.21 263.077 219.151 263.077Z" fill="#98492F"/>
<path d="M230.548 261.417C234.918 261.417 238.46 257.875 238.46 253.505C238.46 249.136 234.918 245.594 230.548 245.594C226.179 245.594 222.637 249.136 222.637 253.505C222.637 257.875 226.179 261.417 230.548 261.417Z" fill="#98492F"/>
<path d="M271.711 262.247C276.08 262.247 279.623 258.705 279.623 254.335C279.623 249.966 276.08 246.424 271.711 246.424C267.341 246.424 263.799 249.966 263.799 254.335C263.799 258.705 267.341 262.247 271.711 262.247Z" fill="#98492F"/>
<path d="M311.048 263.853C315.417 263.853 318.96 260.31 318.96 255.941C318.96 251.571 315.417 248.029 311.048 248.029C306.678 248.029 303.136 251.571 303.136 255.941C303.136 260.31 306.678 263.853 311.048 263.853Z" fill="#98492F"/>
<path d="M242.776 262.689C245.892 262.689 248.419 260.162 248.419 257.046C248.419 253.929 245.892 251.402 242.776 251.402C239.659 251.402 237.132 253.929 237.132 257.046C237.132 260.162 239.659 262.689 242.776 262.689Z" fill="#98492F"/>
<path d="M283.828 262.689C286.945 262.689 289.471 260.162 289.471 257.046C289.471 253.929 286.945 251.402 283.828 251.402C280.711 251.402 278.185 253.929 278.185 257.046C278.185 260.162 280.711 262.689 283.828 262.689Z" fill="#98492F"/>
<path d="M300.315 262.689C303.431 262.689 305.958 260.162 305.958 257.046C305.958 253.929 303.431 251.402 300.315 251.402C297.198 251.402 294.671 253.929 294.671 257.046C294.671 260.162 297.198 262.689 300.315 262.689Z" fill="#98492F"/>
<path d="M252.015 260.255C255.743 260.255 258.765 257.233 258.765 253.506C258.765 249.778 255.743 246.756 252.015 246.756C248.288 246.756 245.266 249.778 245.266 253.506C245.266 257.233 248.288 260.255 252.015 260.255Z" fill="#98492F"/>
<path d="M261.144 262.689C263.374 262.689 265.183 259.667 265.183 255.939C265.183 252.211 263.374 249.189 261.144 249.189C258.913 249.189 257.105 252.211 257.105 255.939C257.105 259.667 258.913 262.689 261.144 262.689Z" fill="#98492F"/>
<path d="M291.961 262.689C294.191 262.689 296 259.667 296 255.939C296 252.211 294.191 249.189 291.961 249.189C289.73 249.189 287.922 252.211 287.922 255.939C287.922 259.667 289.73 262.689 291.961 262.689Z" fill="#98492F"/>
<path d="M323.109 262.689C326.012 262.689 328.365 259.667 328.365 255.939C328.365 252.211 326.012 249.189 323.109 249.189C320.206 249.189 317.853 252.211 317.853 255.939C317.853 259.667 320.206 262.689 323.109 262.689Z" fill="#98492F"/>
<path d="M331.795 263.3C335.737 263.3 338.932 260.104 338.932 256.162C338.932 252.221 335.737 249.025 331.795 249.025C327.853 249.025 324.658 252.221 324.658 256.162C324.658 260.104 327.853 263.3 331.795 263.3Z" fill="#98492F"/>
<path d="M343.137 261.64C347.506 261.64 351.048 258.098 351.048 253.728C351.048 249.359 347.506 245.816 343.137 245.816C338.767 245.816 335.225 249.359 335.225 253.728C335.225 258.098 338.767 261.64 343.137 261.64Z" fill="#98492F"/>
<path d="M384.355 262.47C388.724 262.47 392.266 258.928 392.266 254.558C392.266 250.189 388.724 246.646 384.355 246.646C379.985 246.646 376.443 250.189 376.443 254.558C376.443 258.928 379.985 262.47 384.355 262.47Z" fill="#98492F"/>
<path d="M423.962 264.077C428.329 263.909 431.732 260.234 431.565 255.867C431.397 251.501 427.721 248.097 423.355 248.265C418.988 248.432 415.585 252.108 415.752 256.474C415.92 260.841 419.596 264.245 423.962 264.077Z" fill="#98492F"/>
<path d="M445.435 263.853C449.804 263.853 453.346 260.31 453.346 255.941C453.346 251.571 449.804 248.029 445.435 248.029C441.065 248.029 437.523 251.571 437.523 255.941C437.523 260.31 441.065 263.853 445.435 263.853Z" fill="#98492F"/>
<path d="M355.419 262.912C358.536 262.912 361.062 260.385 361.062 257.268C361.062 254.152 358.536 251.625 355.419 251.625C352.302 251.625 349.776 254.152 349.776 257.268C349.776 260.385 352.302 262.912 355.419 262.912Z" fill="#98492F"/>
<path d="M402.105 257.659C402.326 254.55 399.984 251.851 396.876 251.63C393.767 251.409 391.067 253.75 390.846 256.859C390.625 259.968 392.967 262.667 396.075 262.888C399.184 263.109 401.884 260.768 402.105 257.659Z" fill="#98492F"/>
<path d="M412.903 262.912C416.02 262.912 418.546 260.385 418.546 257.268C418.546 254.152 416.02 251.625 412.903 251.625C409.786 251.625 407.26 254.152 407.26 257.268C407.26 260.385 409.786 262.912 412.903 262.912Z" fill="#98492F"/>
<path d="M364.659 260.478C368.387 260.478 371.409 257.456 371.409 253.728C371.409 250.001 368.387 246.979 364.659 246.979C360.931 246.979 357.909 250.001 357.909 253.728C357.909 257.456 360.931 260.478 364.659 260.478Z" fill="#98492F"/>
<path d="M373.732 262.912C375.963 262.912 377.771 259.89 377.771 256.162C377.771 252.434 375.963 249.412 373.732 249.412C371.502 249.412 369.693 252.434 369.693 256.162C369.693 259.89 371.502 262.912 373.732 262.912Z" fill="#98492F"/>
<path d="M404.604 262.912C406.835 262.912 408.643 259.89 408.643 256.162C408.643 252.434 406.835 249.412 404.604 249.412C402.374 249.412 400.565 252.434 400.565 256.162C400.565 259.89 402.374 262.912 404.604 262.912Z" fill="#98492F"/>
<path d="M435.698 262.912C438.601 262.912 440.954 259.89 440.954 256.162C440.954 252.434 438.601 249.412 435.698 249.412C432.795 249.412 430.442 252.434 430.442 256.162C430.442 259.89 432.795 262.912 435.698 262.912Z" fill="#98492F"/>
<path d="M344.022 263.075L344.797 242.383L333.289 242.217L330.246 260.419L344.022 263.075Z" fill="#A34321"/>
<path d="M233.812 270.435H230.105L222.47 108.495C223.743 108.385 224.96 108.163 226.122 107.887L233.812 270.435Z" fill="#BD6B06"/>
<path d="M268.225 109.159L227.892 98.8125L224.96 107.333C224.96 107.333 250.133 114.802 265.846 119.117C268.336 119.836 271.545 117.568 271.987 115.023C272.375 112.589 270.604 109.601 268.225 109.159Z" fill="#A34321"/>
<path d="M271.544 116.626L276.579 91.5634L266.731 89.793L261.475 113.749C260.977 116.018 262.416 118.231 264.684 118.784C266.842 119.282 270.88 118.784 271.544 116.626Z" fill="#A34321"/>
<path d="M275.915 116.57L262.028 250.017L277.852 251.566L295.722 119.115L275.915 116.57Z" fill="#022D2B"/>
<path d="M311.103 115.244L314.091 251.236L298.212 251.402L291.628 146.835L285.044 117.347L311.103 115.244Z" fill="#004C46"/>
<path d="M300.425 62.0763H280.452V44.4825C280.452 43.1547 281.503 42.1035 282.831 42.1035H296.829C298.82 42.1035 300.425 43.708 300.425 45.6997V62.0763Z" fill="#011716"/>
<path d="M297.88 67.7188V74.2472C297.88 77.8434 295.169 80.7757 291.905 80.7757C288.585 80.7757 285.93 77.8434 285.93 74.2472V67.7188C285.93 67.7187 297.88 67.7188 297.88 67.7188Z" fill="#A34321"/>
<path d="M296.276 68.7715L285.93 74.5807V68.7715H296.276Z" fill="#7A3219"/>
<path d="M279.511 103.847L263.135 99.9193L267.561 81.6617C268.612 77.1802 273.149 74.4139 277.686 75.4651C282.167 76.5163 284.933 81.0531 283.882 85.5898L279.511 103.847Z" fill="#83D582"/>
<path d="M311.545 105.285L316.524 146.669L325.543 146.338C325.543 146.338 323.385 120.168 321.725 103.958C321.449 101.413 318.184 99.1996 315.639 99.6975C313.205 100.14 311.103 102.906 311.545 105.285Z" fill="#A34321"/>
<path d="M297.88 68.7704H285.431C282.72 68.7704 280.507 66.5574 280.507 63.8464V46.3633H297.935L297.88 68.7704Z" fill="#A34321"/>
<path d="M298.765 63.5148H297.879V56.9863H298.765C300.148 56.9863 301.31 58.1482 301.31 59.5313V61.0805C301.254 62.4083 300.148 63.5148 298.765 63.5148Z" fill="#A34321"/>
<path d="M289.525 56.8206C289.525 56.8206 290.023 55.3268 291.406 55.2162C292.845 55.0502 293.73 56.1567 293.73 56.1567C293.73 56.1567 293.509 57.4846 291.738 57.7059C290.079 57.7612 289.525 56.8206 289.525 56.8206Z" fill="white"/>
<path d="M293.011 56.2113C293.066 56.9859 292.513 57.6498 291.738 57.7604C290.964 57.8158 290.3 57.2625 290.189 56.4879C290.134 55.7134 290.687 55.0495 291.462 54.9388C292.236 54.8282 292.956 55.4367 293.011 56.2113Z" fill="black"/>
<path d="M289.525 56.8196C289.525 56.8196 289.968 55.2704 291.406 55.2151C292.845 55.1598 293.73 56.1557 293.73 56.1557" stroke="black" stroke-width="0.275691" stroke-miterlimit="10" stroke-linecap="round" stroke-linejoin="round"/>
<path d="M285.597 56.8206C285.597 56.8206 285.155 55.3268 283.882 55.2162C282.61 55.0502 281.78 56.1567 281.78 56.1567C281.78 56.1567 282.001 57.4846 283.606 57.7059C285.099 57.7612 285.597 56.8206 285.597 56.8206Z" fill="white"/>
<path d="M282.388 56.2113C282.333 56.9859 282.831 57.6498 283.55 57.7604C284.27 57.8158 284.878 57.2625 284.989 56.4879C285.044 55.7134 284.546 55.0495 283.827 54.9388C283.108 54.8282 282.444 55.4367 282.388 56.2113Z" fill="black"/>
<path d="M285.597 56.8196C285.597 56.8196 285.155 55.2705 283.882 55.2152C282.554 55.1045 281.78 56.1557 281.78 56.1557" stroke="black" stroke-width="0.262634" stroke-miterlimit="10" stroke-linecap="round" stroke-linejoin="round"/>
<path d="M291.739 51.563C291.739 51.563 293.066 51.397 293.952 51.729C294.505 51.8949 294.671 52.5589 294.118 52.8908C293.786 53.1121 292.734 53.2781 292.015 53.3887C290.3 53.6101 289.304 53.0568 289.304 52.6695C289.36 52.0056 290.798 51.6183 291.739 51.563Z" fill="#011716"/>
<path d="M283.385 51.563C283.385 51.563 282.168 51.397 281.338 51.729C280.84 51.9503 280.674 52.5589 281.172 52.8908C281.504 53.0568 282.444 53.2228 283.053 53.3334C284.602 53.4994 285.487 53.0015 285.487 52.5589C285.543 51.8949 284.215 51.563 283.385 51.563Z" fill="#011716"/>
<path d="M298.267 56.9314V50.5689H296.607V48.0792H280.452V44.2617H298.267V50.6242" fill="#011716"/>
<path d="M290.411 62.0742C290.411 63.6234 289.138 64.8959 287.589 64.8959C286.04 64.8959 284.768 63.6234 284.768 62.0742" fill="white"/>
<path d="M287.7 58.0371L286.483 59.199C285.431 60.3055 286.704 60.4715 287.368 60.4161L287.755 60.3608" fill="#7A3219"/>
<path d="M307.949 127.525H277.851C276.136 127.525 274.698 126.087 274.698 124.372V77.8425C274.698 76.404 275.86 75.2422 277.298 75.2422H311.158V124.372C311.102 126.087 309.719 127.525 307.949 127.525Z" fill="#83D582"/>
<path d="M306.843 103.516L323.385 100.694L320.232 82.2152C319.457 77.6231 315.086 74.5802 310.55 75.3547C305.958 76.1293 302.915 80.5001 303.689 85.0368L306.843 103.516Z" fill="#83D582"/>
<path d="M282.555 75.2422H279.346V99.0878H282.555V75.2422Z" fill="#31B92E"/>
<path d="M305.459 75.2422H302.25V99.0878H305.459V75.2422Z" fill="#31B92E"/>
<path d="M317.465 169.631L267.008 170.792L274.698 92.3398H311.158L317.465 169.631Z" fill="#31B92E"/>
<path d="M303.91 86.7523C305.017 86.7523 305.957 85.8118 305.957 84.7053C305.957 83.5988 305.017 82.6582 303.91 82.6582C302.804 82.6582 301.863 83.5988 301.863 84.7053C301.863 85.8671 302.804 86.7523 303.91 86.7523Z" fill="#258B23"/>
<path d="M280.895 86.7523C282.001 86.7523 282.942 85.8118 282.942 84.7053C282.942 83.5988 282.001 82.6582 280.895 82.6582C279.788 82.6582 278.848 83.5988 278.848 84.7053C278.848 85.8671 279.788 86.7523 280.895 86.7523Z" fill="#258B23"/>
<path d="M263.522 228.607L281.835 230.489L275.03 270.489H242.719V269.051C242.719 266.451 244.434 264.127 246.924 263.352C251.627 261.858 258.819 258.871 259.87 254.389C261.309 247.418 263.522 228.607 263.522 228.607Z" fill="#231F20"/>
<path d="M314.091 221.859L295.667 222.689L298.876 264.903H331.74L331.795 263.465C331.961 260.864 330.412 258.43 327.978 257.489C323.33 255.719 316.359 252.344 315.584 247.807C314.478 240.892 314.091 221.859 314.091 221.859Z" fill="#231F20"/>
<path d="M230.825 101.911C230.769 101.192 230.603 100.528 230.216 99.9192C228.999 98.0381 228.335 96.6549 227.56 95.3271C227.395 95.0505 227.173 94.8292 226.841 94.7185L226.62 94.6632C226.233 94.4972 225.845 94.7185 225.735 95.1058C225.347 96.5996 225.513 98.8126 225.513 98.8126L220.645 97.2082L220.036 107.278L224.462 108.716C225.901 109.159 227.339 108.882 228.39 107.941C229.829 108.439 231.433 107.72 231.876 106.226L232.208 105.175C232.706 103.847 232.042 102.464 230.825 101.911Z" fill="#A34321"/>
<path d="M221.143 111.039C221.862 111.316 223.134 111.758 224.739 111.648C226.122 111.537 227.173 111.15 227.837 110.818C227.062 103.349 226.343 95.8798 225.569 88.3555C223.798 88.5214 222.028 88.6874 220.257 88.7981C220.534 96.2118 220.811 103.626 221.143 111.039Z" fill="#231F20"/>
<path d="M195.969 91.8955C195.36 91.8955 194.862 91.3976 194.807 90.8443C194.752 90.2357 195.25 89.6824 195.858 89.5718L249.801 86.0862C250.41 86.0309 250.963 86.5288 251.074 87.1374C251.129 87.746 250.631 88.2993 250.023 88.4099L196.079 91.8955C196.024 91.8955 196.024 91.8955 195.969 91.8955Z" fill="#404041"/>
<path d="M248.363 87.6377C247.92 87.6377 247.643 87.3057 247.588 86.9184L246.979 77.6789C246.924 77.2363 247.311 76.9044 247.699 76.8491C248.141 76.7937 248.473 77.181 248.529 77.5683L249.137 86.8078C249.192 87.2504 248.805 87.5823 248.363 87.6377Z" fill="#404041"/>
<path d="M244.102 87.915C243.66 87.915 243.383 87.5831 243.328 87.1958L242.719 77.9563C242.664 77.5137 243.051 77.1817 243.438 77.1264C243.881 77.0711 244.213 77.4584 244.268 77.8456L244.877 87.0851C244.932 87.5277 244.545 87.8597 244.102 87.915Z" fill="#404041"/>
<path d="M239.843 88.1884C239.4 88.1884 239.123 87.8565 239.068 87.4692L238.459 78.2297C238.404 77.7871 238.791 77.4552 239.179 77.3998C239.621 77.3445 239.953 77.7318 240.009 78.1191L240.617 87.3586C240.672 87.8012 240.285 88.1331 239.898 88.1884C239.898 88.1884 239.898 88.1884 239.843 88.1884Z" fill="#404041"/>
<path d="M235.637 88.4677C235.195 88.4677 234.918 88.1358 234.863 87.7485L234.254 78.509C234.199 78.0664 234.586 77.7345 234.974 77.6791C235.416 77.6238 235.748 78.0111 235.803 78.3984L236.412 87.6378C236.467 88.0805 236.08 88.4124 235.637 88.4677C235.693 88.4124 235.637 88.4677 235.637 88.4677Z" fill="#404041"/>
<path d="M231.433 88.6884C230.99 88.6884 230.714 88.3565 230.658 87.9692L230.05 78.7297C229.994 78.2871 230.382 77.9552 230.769 77.8998C231.212 77.8445 231.544 78.2318 231.599 78.6191L232.207 87.8586C232.263 88.3012 231.875 88.6331 231.488 88.6884C231.433 88.6884 231.433 88.6884 231.433 88.6884Z" fill="#404041"/>
<path d="M227.173 88.9638C226.73 88.9638 226.453 88.6319 226.398 88.2446L225.789 79.0051C225.734 78.5625 226.121 78.2305 226.509 78.1752C226.951 78.1199 227.283 78.5072 227.339 78.8945L227.947 88.1339C228.003 88.5766 227.615 88.9085 227.228 88.9638C227.173 88.9638 227.173 88.9638 227.173 88.9638Z" fill="#404041"/>
<path d="M222.912 89.2412C222.47 89.2412 222.193 88.9092 222.138 88.5219L221.529 79.2825C221.474 78.8398 221.861 78.5079 222.248 78.4526C222.691 78.3972 223.023 78.7845 223.078 79.1718L223.687 88.4113C223.742 88.8539 223.355 89.1859 222.912 89.2412Z" fill="#404041"/>
<path d="M218.708 89.5166C218.266 89.5166 217.989 89.1846 217.934 88.7973L217.325 79.5578C217.27 79.1152 217.657 78.7833 218.044 78.728C218.432 78.6726 218.819 79.0599 218.874 79.4472L219.483 88.6867C219.483 89.1293 219.151 89.5166 218.708 89.5166Z" fill="#404041"/>
<path d="M214.448 89.7939C214.005 89.7939 213.728 89.462 213.673 89.0747L213.064 79.8352C213.009 79.3926 213.396 79.0606 213.784 79.0053C214.171 78.95 214.558 79.3373 214.614 79.7245L215.222 88.964C215.277 89.4066 214.89 89.7386 214.503 89.7939C214.448 89.7939 214.448 89.7939 214.448 89.7939Z" fill="#404041"/>
<path d="M210.188 90.0713C209.745 90.0713 209.469 89.7393 209.413 89.352L208.805 80.1125C208.749 79.6699 209.137 79.338 209.524 79.2826C209.966 79.2273 210.298 79.6146 210.354 80.0019L210.962 89.2414C211.018 89.684 210.63 90.0159 210.188 90.0713Z" fill="#404041"/>
<path d="M205.983 90.3467C205.541 90.3467 205.264 90.0147 205.209 89.6274L204.6 80.3879C204.545 79.9453 204.932 79.6134 205.319 79.558C205.762 79.5027 206.094 79.89 206.149 80.2773L206.758 89.5168C206.813 89.9594 206.426 90.2913 206.038 90.3467H205.983Z" fill="#404041"/>
<path d="M201.722 90.624C201.28 90.624 201.003 90.292 200.948 89.9048L200.339 80.6653C200.284 80.2227 200.671 79.8907 201.059 79.8354C201.501 79.7801 201.833 80.1673 201.888 80.5546L202.497 89.7941C202.552 90.2367 202.165 90.5687 201.778 90.624C201.778 90.624 201.778 90.624 201.722 90.624Z" fill="#404041"/>
<path d="M197.518 90.8994C197.075 90.8994 196.799 90.5674 196.743 90.1801L196.135 80.9407C196.079 80.4981 196.467 80.1661 196.854 80.1108C197.297 80.0554 197.628 80.4427 197.684 80.83L198.292 90.0695C198.292 90.5121 197.96 90.8994 197.518 90.8994Z" fill="#404041"/>
<path d="M225.734 98.8681C225.624 97.9829 224.904 97.319 224.019 97.3743L216.218 97.5956C215.112 97.6509 214.226 98.6468 214.337 99.7533C214.448 100.805 215.388 101.579 216.439 101.468L224.185 100.694C225.126 100.583 225.845 99.8087 225.734 98.8681Z" fill="#A34321"/>
<path d="M225.402 101.913C225.292 101.083 224.572 100.475 223.742 100.475L217.214 100.807C216.163 100.862 215.333 101.802 215.444 102.909C215.554 103.96 216.495 104.679 217.546 104.569L223.964 103.684C224.849 103.573 225.513 102.798 225.402 101.913Z" fill="#A34321"/>
<path d="M225.568 104.732C225.457 103.957 224.794 103.349 223.964 103.404L218.874 103.736C217.822 103.791 216.993 104.732 217.103 105.728C217.214 106.723 218.099 107.387 219.15 107.277L224.185 106.392C225.07 106.281 225.679 105.562 225.568 104.732Z" fill="#A34321"/>
<path d="M226.066 106.89C225.956 106.115 225.292 105.507 224.462 105.562L220.368 106.226C219.317 106.281 218.542 107.222 218.708 108.218C218.819 109.214 219.704 109.878 220.644 109.767L224.683 108.605C225.568 108.439 226.177 107.72 226.066 106.89Z" fill="#A34321"/>
<path d="M314.534 149.435C315.419 147.277 316.525 146.558 316.525 146.558C316.083 144.566 317.41 142.575 319.402 142.243L320.841 142.021C322.722 141.689 324.492 142.907 324.935 144.732L324.99 144.843C324.99 144.843 327.646 149.601 328.199 156.185C328.974 164.65 324.658 164.097 322.003 164.152C319.513 164.207 318.849 159.117 318.24 155.41L316.691 159.172C316.47 159.67 315.972 159.947 315.529 159.892C314.976 159.836 314.534 159.394 314.478 158.841L313.925 154.525C313.704 152.755 313.87 151.04 314.534 149.435Z" fill="#A34321"/>
<path d="M298.599 157.736H287.589C282.776 157.736 278.848 153.807 278.848 148.994V139.699H307.341V148.994C307.285 153.807 303.413 157.736 298.599 157.736Z" fill="#258B23"/>
</g>
<defs>
<clipPath id="clip0">
<rect width="450" height="311.874" fill="white"/>
</clipPath>
</defs>
</svg>
