<svg xmlns="http://www.w3.org/2000/svg" xmlns:xlink="http://www.w3.org/1999/xlink" width="97" height="65" viewBox="0 0 97 65">
    <defs>
        <filter id="a" width="911.1%" height="1171.4%" x="-411.1%" y="-514.3%" filterUnits="objectBoundingBox">
            <feOffset dy="2" in="SourceAlpha" result="shadowOffsetOuter1"/>
            <feGaussianBlur in="shadowOffsetOuter1" result="shadowBlurOuter1" stdDeviation="2"/>
            <feColorMatrix in="shadowBlurOuter1" result="shadowMatrixOuter1" values="0 0 0 0 0 0 0 0 0 0 0 0 0 0 0 0 0 0 0.05 0"/>
            <feMerge>
                <feMergeNode in="shadowMatrixOuter1"/>
                <feMergeNode in="SourceGraphic"/>
            </feMerge>
        </filter>
        <ellipse id="c" cx="4.879" cy="2.979" rx="2.154" ry="1.249"/>
        <filter id="b" width="1539%" height="2582.9%" x="-719.5%" y="-1161.4%" filterUnits="objectBoundingBox">
            <feOffset dy="2" in="SourceAlpha" result="shadowOffsetOuter1"/>
            <feGaussianBlur in="shadowOffsetOuter1" result="shadowBlurOuter1" stdDeviation="10"/>
            <feColorMatrix in="shadowBlurOuter1" values="0 0 0 0 0 0 0 0 0 0 0 0 0 0 0 0 0 0 0.05 0"/>
        </filter>
        <filter id="d" width="573.3%" height="763.6%" x="-240%" y="-318.2%" filterUnits="objectBoundingBox">
            <feOffset dy="2" in="SourceAlpha" result="shadowOffsetOuter1"/>
            <feGaussianBlur in="shadowOffsetOuter1" result="shadowBlurOuter1" stdDeviation="2"/>
            <feColorMatrix in="shadowBlurOuter1" result="shadowMatrixOuter1" values="0 0 0 0 0 0 0 0 0 0 0 0 0 0 0 0 0 0 0.05 0"/>
            <feMerge>
                <feMergeNode in="shadowMatrixOuter1"/>
                <feMergeNode in="SourceGraphic"/>
            </feMerge>
        </filter>
        <ellipse id="f" cx="7.646" cy="4.718" rx="3.645" ry="1.81"/>
        <filter id="e" width="950.6%" height="1812.4%" x="-425.3%" y="-801%" filterUnits="objectBoundingBox">
            <feOffset dy="2" in="SourceAlpha" result="shadowOffsetOuter1"/>
            <feGaussianBlur in="shadowOffsetOuter1" result="shadowBlurOuter1" stdDeviation="10"/>
            <feColorMatrix in="shadowBlurOuter1" values="0 0 0 0 0 0 0 0 0 0 0 0 0 0 0 0 0 0 0.05 0"/>
        </filter>
        <filter id="g" width="621.4%" height="763.6%" x="-264.3%" y="-318.2%" filterUnits="objectBoundingBox">
            <feOffset dy="2" in="SourceAlpha" result="shadowOffsetOuter1"/>
            <feGaussianBlur in="shadowOffsetOuter1" result="shadowBlurOuter1" stdDeviation="2"/>
            <feColorMatrix in="shadowBlurOuter1" result="shadowMatrixOuter1" values="0 0 0 0 0 0 0 0 0 0 0 0 0 0 0 0 0 0 0.05 0"/>
            <feMerge>
                <feMergeNode in="shadowMatrixOuter1"/>
                <feMergeNode in="SourceGraphic"/>
            </feMerge>
        </filter>
        <ellipse id="i" cx="7.227" cy="4.895" rx="3.706" ry="1.979"/>
        <filter id="h" width="936.5%" height="1666.4%" x="-418.2%" y="-732.7%" filterUnits="objectBoundingBox">
            <feOffset dy="2" in="SourceAlpha" result="shadowOffsetOuter1"/>
            <feGaussianBlur in="shadowOffsetOuter1" result="shadowBlurOuter1" stdDeviation="10"/>
            <feColorMatrix in="shadowBlurOuter1" values="0 0 0 0 0 0 0 0 0 0 0 0 0 0 0 0 0 0 0.05 0"/>
        </filter>
        <ellipse id="k" cx="6.337" cy="4.46" rx="5.123" ry="2.518"/>
        <filter id="j" width="236.6%" height="378%" x="-68.3%" y="-99.3%" filterUnits="objectBoundingBox">
            <feOffset dy="2" in="SourceAlpha" result="shadowOffsetOuter1"/>
            <feGaussianBlur in="shadowOffsetOuter1" result="shadowBlurOuter1" stdDeviation="2"/>
            <feColorMatrix in="shadowBlurOuter1" values="0 0 0 0 0 0 0 0 0 0 0 0 0 0 0 0 0 0 0.05 0"/>
        </filter>
        <ellipse id="m" cx="6.517" cy="4.13" rx="2.986" ry="1.731"/>
        <filter id="l" width="1138.2%" height="1891.1%" x="-519.1%" y="-837.8%" filterUnits="objectBoundingBox">
            <feOffset dy="2" in="SourceAlpha" result="shadowOffsetOuter1"/>
            <feGaussianBlur in="shadowOffsetOuter1" result="shadowBlurOuter1" stdDeviation="10"/>
            <feColorMatrix in="shadowBlurOuter1" values="0 0 0 0 0 0 0 0 0 0 0 0 0 0 0 0 0 0 0.05 0"/>
        </filter>
        <filter id="n" width="763.6%" height="922.2%" x="-336.4%" y="-400%" filterUnits="objectBoundingBox">
            <feOffset dy="2" in="SourceAlpha" result="shadowOffsetOuter1"/>
            <feGaussianBlur in="shadowOffsetOuter1" result="shadowBlurOuter1" stdDeviation="2"/>
            <feColorMatrix in="shadowBlurOuter1" result="shadowMatrixOuter1" values="0 0 0 0 0 0 0 0 0 0 0 0 0 0 0 0 0 0 0.05 0"/>
            <feMerge>
                <feMergeNode in="shadowMatrixOuter1"/>
                <feMergeNode in="SourceGraphic"/>
            </feMerge>
        </filter>
        <ellipse id="p" cx="5.508" cy="3.859" rx="2.796" ry="1.618"/>
        <filter id="o" width="1208.8%" height="2016%" x="-554.4%" y="-896.2%" filterUnits="objectBoundingBox">
            <feOffset dy="2" in="SourceAlpha" result="shadowOffsetOuter1"/>
            <feGaussianBlur in="shadowOffsetOuter1" result="shadowBlurOuter1" stdDeviation="10"/>
            <feColorMatrix in="shadowBlurOuter1" values="0 0 0 0 0 0 0 0 0 0 0 0 0 0 0 0 0 0 0.05 0"/>
        </filter>
        <filter id="q" width="911.1%" height="1171.4%" x="-411.1%" y="-514.3%" filterUnits="objectBoundingBox">
            <feOffset dy="2" in="SourceAlpha" result="shadowOffsetOuter1"/>
            <feGaussianBlur in="shadowOffsetOuter1" result="shadowBlurOuter1" stdDeviation="2"/>
            <feColorMatrix in="shadowBlurOuter1" result="shadowMatrixOuter1" values="0 0 0 0 0 0 0 0 0 0 0 0 0 0 0 0 0 0 0.05 0"/>
            <feMerge>
                <feMergeNode in="shadowMatrixOuter1"/>
                <feMergeNode in="SourceGraphic"/>
            </feMerge>
        </filter>
        <ellipse id="s" cx="4.879" cy="2.979" rx="2.154" ry="1.249"/>
        <filter id="r" width="1539%" height="2582.9%" x="-719.5%" y="-1161.4%" filterUnits="objectBoundingBox">
            <feOffset dy="2" in="SourceAlpha" result="shadowOffsetOuter1"/>
            <feGaussianBlur in="shadowOffsetOuter1" result="shadowBlurOuter1" stdDeviation="10"/>
            <feColorMatrix in="shadowBlurOuter1" values="0 0 0 0 0 0 0 0 0 0 0 0 0 0 0 0 0 0 0.05 0"/>
        </filter>
        <ellipse id="u" cx="17.35" cy="5.946" rx="5.905" ry="2.336"/>
        <filter id="t" width="218.6%" height="399.6%" x="-59.3%" y="-107%" filterUnits="objectBoundingBox">
            <feOffset dy="2" in="SourceAlpha" result="shadowOffsetOuter1"/>
            <feGaussianBlur in="shadowOffsetOuter1" result="shadowBlurOuter1" stdDeviation="2"/>
            <feColorMatrix in="shadowBlurOuter1" values="0 0 0 0 0 0 0 0 0 0 0 0 0 0 0 0 0 0 0.05 0"/>
        </filter>
        <ellipse id="w" cx="17.367" cy="5.99" rx="3.767" ry="1.679"/>
        <filter id="v" width="922.8%" height="1946.6%" x="-411.4%" y="-863.7%" filterUnits="objectBoundingBox">
            <feOffset dy="2" in="SourceAlpha" result="shadowOffsetOuter1"/>
            <feGaussianBlur in="shadowOffsetOuter1" result="shadowBlurOuter1" stdDeviation="10"/>
            <feColorMatrix in="shadowBlurOuter1" values="0 0 0 0 0 0 0 0 0 0 0 0 0 0 0 0 0 0 0.05 0"/>
        </filter>
        <filter id="x" width="607.1%" height="763.6%" x="-257.1%" y="-318.2%" filterUnits="objectBoundingBox">
            <feOffset dy="2" in="SourceAlpha" result="shadowOffsetOuter1"/>
            <feGaussianBlur in="shadowOffsetOuter1" result="shadowBlurOuter1" stdDeviation="2"/>
            <feColorMatrix in="shadowBlurOuter1" result="shadowMatrixOuter1" values="0 0 0 0 0 0 0 0 0 0 0 0 0 0 0 0 0 0 0.05 0"/>
            <feMerge>
                <feMergeNode in="shadowMatrixOuter1"/>
                <feMergeNode in="SourceGraphic"/>
            </feMerge>
        </filter>
        <ellipse id="z" cx="7.196" cy="4.915" rx="3.446" ry="2.007"/>
        <filter id="y" width="999.7%" height="1644.4%" x="-449.8%" y="-722.4%" filterUnits="objectBoundingBox">
            <feOffset dy="2" in="SourceAlpha" result="shadowOffsetOuter1"/>
            <feGaussianBlur in="shadowOffsetOuter1" result="shadowBlurOuter1" stdDeviation="10"/>
            <feColorMatrix in="shadowBlurOuter1" values="0 0 0 0 0 0 0 0 0 0 0 0 0 0 0 0 0 0 0.05 0"/>
        </filter>
        <filter id="A" width="772.7%" height="922.2%" x="-345.5%" y="-400%" filterUnits="objectBoundingBox">
            <feOffset dy="2" in="SourceAlpha" result="shadowOffsetOuter1"/>
            <feGaussianBlur in="shadowOffsetOuter1" result="shadowBlurOuter1" stdDeviation="2"/>
            <feColorMatrix in="shadowBlurOuter1" result="shadowMatrixOuter1" values="0 0 0 0 0 0 0 0 0 0 0 0 0 0 0 0 0 0 0.05 0"/>
            <feMerge>
                <feMergeNode in="shadowMatrixOuter1"/>
                <feMergeNode in="SourceGraphic"/>
            </feMerge>
        </filter>
        <ellipse id="C" cx="5.117" cy="3.951" rx="3.047" ry="1.424"/>
        <filter id="B" width="1117.5%" height="2276.5%" x="-508.8%" y="-1018%" filterUnits="objectBoundingBox">
            <feOffset dy="2" in="SourceAlpha" result="shadowOffsetOuter1"/>
            <feGaussianBlur in="shadowOffsetOuter1" result="shadowBlurOuter1" stdDeviation="10"/>
            <feColorMatrix in="shadowBlurOuter1" values="0 0 0 0 0 0 0 0 0 0 0 0 0 0 0 0 0 0 0.1 0"/>
        </filter>
    </defs>
    <g fill="none" fill-rule="evenodd">
        <g transform="translate(36.32 44.318)">
            <ellipse cx="6.59" cy="4.516" fill="#F5CF8B" opacity=".896" rx="6.59" ry="4.516"/>
            <ellipse cx="6.554" cy="2.384" fill="#F8E0B4" rx="4.19" ry="1.662"/>
            <path fill="#CD9436" d="M7.306 9.001c2.548-.135 4.357-1.29 5.214-2.52.351-.525.899-1.544 0-1.244-1.334.528-2.337 1.653-5.937 2.003-3.672.045-5.27-1.824-6.54-2.576-.115.892.566 1.7.99 2.251.703.805 2.842 2.362 6.273 2.086z" opacity=".403"/>
            <path fill="#6C4625" d="M5.838 7.009c1.28 0 2.437-.41 3.474-1.229-1.037-.818-2.195-1.228-3.474-1.228-1.28 0-2.437.41-3.474 1.228C3.4 6.6 4.559 7.01 5.838 7.01z" opacity=".648"/>
            <ellipse cx="7.378" cy="1.879" fill="#FFF" opacity=".648" rx="2.292" ry="1"/>
            <ellipse cx="6.017" cy="5.672" fill="#D8D8D8" opacity=".648" rx="1.648" ry="1"/>
        </g>
        <g transform="translate(53.083 48.51)">
            <ellipse cx="6.59" cy="4.516" fill="#F5CF8B" opacity=".896" rx="6.59" ry="4.516"/>
            <ellipse cx="6.554" cy="2.384" fill="#F8E0B4" rx="4.19" ry="1.662"/>
            <path fill="#CD9436" d="M7.306 9.001c2.548-.135 4.357-1.29 5.214-2.52.351-.525.899-1.544 0-1.244-1.334.528-2.337 1.653-5.937 2.003-3.672.045-5.27-1.824-6.54-2.576-.115.892.566 1.7.99 2.251.703.805 2.842 2.362 6.273 2.086z" opacity=".403"/>
            <path fill="#6C4625" d="M5.838 7.009c1.28 0 2.437-.41 3.474-1.229-1.037-.818-2.195-1.228-3.474-1.228-1.28 0-2.437.41-3.474 1.228C3.4 6.6 4.559 7.01 5.838 7.01z" opacity=".648"/>
            <ellipse cx="7.378" cy="1.879" fill="#FFF" opacity=".648" rx="2.292" ry="1"/>
            <ellipse cx="6.017" cy="5.672" fill="#D8D8D8" opacity=".648" rx="1.648" ry="1"/>
        </g>
        <g transform="translate(24 38.104)">
            <ellipse cx="6.59" cy="4.516" fill="#F5CF8B" opacity=".896" rx="6.59" ry="4.516"/>
            <ellipse cx="6.554" cy="2.384" fill="#F8E0B4" rx="4.19" ry="1.662"/>
            <path fill="#CD9436" d="M7.306 9.001c2.548-.135 4.357-1.29 5.214-2.52.351-.525.899-1.544 0-1.244-1.334.528-2.337 1.653-5.937 2.003-3.672.045-5.27-1.824-6.54-2.576-.115.892.566 1.7.99 2.251.703.805 2.842 2.362 6.273 2.086z" opacity=".403"/>
            <path fill="#6C4625" d="M5.838 7.009c1.28 0 2.437-.41 3.474-1.229-1.037-.818-2.195-1.228-3.474-1.228-1.28 0-2.437.41-3.474 1.228C3.4 6.6 4.559 7.01 5.838 7.01z" opacity=".648"/>
            <ellipse cx="7.378" cy="1.879" fill="#FFF" opacity=".648" rx="2.292" ry="1"/>
            <ellipse cx="6.017" cy="5.672" fill="#D8D8D8" opacity=".648" rx="1.648" ry="1"/>
        </g>
        <g transform="translate(63.684 34.275)">
            <ellipse cx="6.59" cy="4.516" fill="#F5CF8B" opacity=".896" rx="6.59" ry="4.516"/>
            <ellipse cx="6.554" cy="2.384" fill="#F8E0B4" rx="4.19" ry="1.662"/>
            <path fill="#CD9436" d="M7.306 9.001c2.548-.135 4.357-1.29 5.214-2.52.351-.525.899-1.544 0-1.244-1.334.528-2.337 1.653-5.937 2.003-3.672.045-5.27-1.824-6.54-2.576-.115.892.566 1.7.99 2.251.703.805 2.842 2.362 6.273 2.086z" opacity=".403"/>
            <path fill="#6C4625" d="M5.838 7.009c1.28 0 2.437-.41 3.474-1.229-1.037-.818-2.195-1.228-3.474-1.228-1.28 0-2.437.41-3.474 1.228C3.4 6.6 4.559 7.01 5.838 7.01z" opacity=".648"/>
            <ellipse cx="7.378" cy="1.879" fill="#FFF" opacity=".648" rx="2.292" ry="1"/>
            <ellipse cx="6.017" cy="5.672" fill="#D8D8D8" opacity=".648" rx="1.648" ry="1"/>
        </g>
        <g transform="translate(39.616 36.081)">
            <ellipse cx="6.59" cy="4.516" fill="#F5CF8B" opacity=".896" rx="6.59" ry="4.516"/>
            <ellipse cx="6.554" cy="2.384" fill="#F8E0B4" rx="4.19" ry="1.662"/>
            <path fill="#CD9436" d="M7.306 9.001c2.548-.135 4.357-1.29 5.214-2.52.351-.525.899-1.544 0-1.244-1.334.528-2.337 1.653-5.937 2.003-3.672.045-5.27-1.824-6.54-2.576-.115.892.566 1.7.99 2.251.703.805 2.842 2.362 6.273 2.086z" opacity=".403"/>
            <path fill="#6C4625" d="M5.838 7.009c1.28 0 2.437-.41 3.474-1.229-1.037-.818-2.195-1.228-3.474-1.228-1.28 0-2.437.41-3.474 1.228C3.4 6.6 4.559 7.01 5.838 7.01z" opacity=".648"/>
            <ellipse cx="7.378" cy="1.879" fill="#FFF" opacity=".648" rx="2.292" ry="1"/>
            <ellipse cx="6.017" cy="5.672" fill="#D8D8D8" opacity=".648" rx="1.648" ry="1"/>
        </g>
        <g transform="translate(52.008 31.168)">
            <ellipse cx="6.59" cy="4.516" fill="#F5CF8B" opacity=".896" rx="6.59" ry="4.516"/>
            <ellipse cx="6.554" cy="2.384" fill="#F8E0B4" rx="4.19" ry="1.662"/>
            <path fill="#CD9436" d="M7.306 9.001c2.548-.135 4.357-1.29 5.214-2.52.351-.525.899-1.544 0-1.244-1.334.528-2.337 1.653-5.937 2.003-3.672.045-5.27-1.824-6.54-2.576-.115.892.566 1.7.99 2.251.703.805 2.842 2.362 6.273 2.086z" opacity=".403"/>
            <path fill="#6C4625" d="M5.838 7.009c1.28 0 2.437-.41 3.474-1.229-1.037-.818-2.195-1.228-3.474-1.228-1.28 0-2.437.41-3.474 1.228C3.4 6.6 4.559 7.01 5.838 7.01z" opacity=".648"/>
            <ellipse cx="7.378" cy="1.879" fill="#FFF" opacity=".648" rx="2.292" ry="1"/>
            <ellipse cx="6.017" cy="5.672" fill="#D8D8D8" opacity=".648" rx="1.648" ry="1"/>
        </g>
        <g transform="translate(38.828 29)">
            <ellipse cx="6.59" cy="4.516" fill="#DFB674" opacity=".896" rx="6.59" ry="4.516"/>
            <ellipse cx="6.554" cy="2.384" fill="#DDC6A0" rx="4.19" ry="1.662"/>
            <path fill="#CD9436" d="M7.306 9.001c2.548-.135 4.357-1.29 5.214-2.52.351-.525.899-1.544 0-1.244-1.334.528-2.337 1.653-5.937 2.003-3.672.045-5.27-1.824-6.54-2.576-.115.892.566 1.7.99 2.251.703.805 2.842 2.362 6.273 2.086z" opacity=".403"/>
            <path fill="#6C4625" d="M5.838 7.009c1.28 0 2.437-.41 3.474-1.229-1.037-.818-2.195-1.228-3.474-1.228-1.28 0-2.437.41-3.474 1.228C3.4 6.6 4.559 7.01 5.838 7.01z" opacity=".648"/>
            <ellipse cx="7.378" cy="1.879" fill="#FFF" opacity=".648" rx="2.292" ry="1"/>
            <ellipse cx="6.017" cy="5.672" fill="#D8D8D8" opacity=".648" rx="1.648" ry="1"/>
        </g>
        <g transform="translate(63.684 38.393)">
            <ellipse cx="6.59" cy="4.516" fill="#DFB674" opacity=".896" rx="6.59" ry="4.516"/>
            <ellipse cx="6.554" cy="2.384" fill="#DDC6A0" rx="4.19" ry="1.662"/>
            <path fill="#CD9436" d="M7.306 9.001c2.548-.135 4.357-1.29 5.214-2.52.351-.525.899-1.544 0-1.244-1.334.528-2.337 1.653-5.937 2.003-3.672.045-5.27-1.824-6.54-2.576-.115.892.566 1.7.99 2.251.703.805 2.842 2.362 6.273 2.086z" opacity=".403"/>
            <path fill="#6C4625" d="M5.838 7.009c1.28 0 2.437-.41 3.474-1.229-1.037-.818-2.195-1.228-3.474-1.228-1.28 0-2.437.41-3.474 1.228C3.4 6.6 4.559 7.01 5.838 7.01z" opacity=".648"/>
            <ellipse cx="7.378" cy="1.879" fill="#FFF" opacity=".648" rx="2.292" ry="1"/>
            <ellipse cx="6.017" cy="5.672" fill="#D8D8D8" opacity=".648" rx="1.648" ry="1"/>
        </g>
        <g transform="translate(52.008 38.827)">
            <ellipse cx="6.59" cy="4.516" fill="#DFB674" opacity=".896" rx="6.59" ry="4.516"/>
            <ellipse cx="6.554" cy="2.384" fill="#DDC6A0" rx="4.19" ry="1.662"/>
            <path fill="#CD9436" d="M7.306 9.001c2.548-.135 4.357-1.29 5.214-2.52.351-.525.899-1.544 0-1.244-1.334.528-2.337 1.653-5.937 2.003-3.672.045-5.27-1.824-6.54-2.576-.115.892.566 1.7.99 2.251.703.805 2.842 2.362 6.273 2.086z" opacity=".403"/>
            <path fill="#6C4625" d="M5.838 7.009c1.28 0 2.437-.41 3.474-1.229-1.037-.818-2.195-1.228-3.474-1.228-1.28 0-2.437.41-3.474 1.228C3.4 6.6 4.559 7.01 5.838 7.01z" opacity=".648"/>
            <ellipse cx="7.378" cy="1.879" fill="#FFF" opacity=".648" rx="2.292" ry="1"/>
            <ellipse cx="6.017" cy="5.672" fill="#D8D8D8" opacity=".648" rx="1.648" ry="1"/>
        </g>
        <g>
            <path fill="#508A14" d="M42.04 4.548c-.846-.083-1.11.03-1.473-.036-.434.632-2.408 6.1-3.58 7.34-3.721 4.936-5.45 7.215-6.23 9.595-.678 2.536-2.875 3.939-3.958 5.735-.807 1.57-6.36 5.548-9.435 10.707-5.231 2.602-6.35 3.205-10.72 6.753 2.051-.503 11.878 15.12 37.006-19.557 1.75-4.456 3.269-9.276 1.286-15.087-.924-1.675-2.982-4.501-2.896-5.45z"/>
            <path fill="#84B127" d="M41.756 4.52c-.623-.003-.825.006-1.175-.003.176 2.121-3.318 7.424-3.932 9.356-2.57 3.347-3.323 5.983-4.236 7.167-2.352 3.667-5.19 7.26-6.273 9.056-.807 1.57-8.202 6.797-8.606 9.141-2.575.938-6.425 3.323-9.385 5.384 1.262.557 4.44 3.577 10.892 1.25 4.15-1.497 10.836-7.011 18.108-13.773 1.638-1.657 5.43-5.329 6.921-10.607.848-3.004 1.232-4.465 1.104-7.495.155-4.014-3.62-8.584-3.418-9.477z"/>
            <path fill="#98A32F" d="M41.921 1.106c-.045-.232-1.202-1.11-1.722-.487-.253.563.114.76.158 1.446.034.642.361 2.42.233 2.444-.129.025 1.293.05 1.455.06-.023-.12-.232-1.594-.194-2.062.029-.26.115-1.169.07-1.401z"/>
            <path fill="#91902C" d="M40.793.418c-.026-.043-.628.002-.666.369-.03.181-.087.428.156.872.057.454.378 2.854.302 2.87.041.012.335.005.499.01-.023-.119-.112-.871-.2-1.595-.034-.453-.046-2.294-.091-2.526z"/>
            <path fill="#B0D235" d="M42.128 7.682c-1.52 1.287-3.707 4.897-3.865 7.145-.65 2.702-3.316 3.463-4.84 6.978-.733 3.833-2.63 4.167-4.615 6.536-4.253 3.066-2.374 5.026-5.851 7.894-5.422 1.198-4.227 3.962-8.619 5.39-3.577 1.112-3.842 2.308-4.701 3.43 1.697.728 13.962 2.33 27.346-14.627 2.092-3.135 2.922-3.27 5.191-11.34 1.397-3.778.533-8.446-.046-11.406z"/>
            <g filter="url(#a)" transform="rotate(-52 51.355 7.905)">
                <ellipse cx="4.75" cy="3.217" fill="#B6D440" rx="3.696" ry="1.816" transform="rotate(24 4.75 3.217)"/>
                <g transform="rotate(24 4.88 2.979)">
                    <use fill="#000" filter="url(#b)" xlink:href="#c"/>
                    <use fill="#B8D742" xlink:href="#c"/>
                </g>
            </g>
            <g filter="url(#d)" transform="rotate(-60 43.087 .91)">
                <ellipse cx="7.418" cy="5.043" fill="#B6D440" rx="6.251" ry="2.648" transform="rotate(24 7.418 5.043)"/>
                <g transform="rotate(24 7.646 4.718)">
                    <use fill="#000" filter="url(#e)" xlink:href="#f"/>
                    <use fill="#B8D742" xlink:href="#f"/>
                </g>
            </g>
            <g filter="url(#g)" transform="rotate(-74 33.653 -6.287)">
                <ellipse cx="7" cy="5.264" fill="#B6D440" rx="6.358" ry="2.883" transform="rotate(24 7 5.264)"/>
                <g transform="rotate(24 7.227 4.895)">
                    <use fill="#000" filter="url(#h)" xlink:href="#i"/>
                    <use fill="#B8D742" xlink:href="#i"/>
                </g>
            </g>
        </g>
        <g>
            <path fill="#508A14" d="M53.42 11.925c-.668-.355-.923-.35-1.2-.527-.569.382-4.015 4.293-5.393 4.935-4.708 2.875-6.891 4.198-8.326 5.928-1.403 1.893-3.68 2.326-5.17 3.464-1.187 1.041-7.083 2.496-11.334 5.776-5.173.412-6.295.539-11.075 2.034 1.856.27 4.741 16.666 36.982-3.876 2.925-3.14 5.78-6.66 6.085-12.194-.203-1.714-.956-4.775-.568-5.54z"/>
            <path fill="#84B127" d="M53.196 11.805c-.512-.212-.681-.272-.967-.399-.561 1.836-5.205 5.095-6.354 6.505-3.231 1.934-4.729 3.885-5.875 4.569-3.158 2.274-6.691 4.323-8.181 5.461-1.188 1.042-9.017 2.92-10.132 4.746-2.432-.085-6.396.612-9.52 1.338.854.892 2.464 4.493 8.552 4.724 3.915.148 11.256-2.21 19.496-5.415 1.9-.834 6.246-2.627 9.232-6.542 1.699-2.227 2.501-3.321 3.406-5.9 1.465-3.308-.12-8.407.343-9.087z"/>
            <path fill="#98A32F" d="M54.481 9.023c.04-.207-.634-1.316-1.278-.979-.402.38-.16.664-.353 1.243-.187.54-.509 2.112-.625 2.09-.116-.023 1.067.475 1.199.537.02-.106.34-1.39.528-1.762.112-.205.49-.923.53-1.13z"/>
            <path fill="#91902C" d="M53.767 8.079c-.008-.045-.526-.21-.681.08-.087.139-.216.323-.162.77-.105.393-.64 2.475-.71 2.462.03.024.28.117.415.176.02-.105.198-.754.367-1.38.123-.383.731-1.902.771-2.108z"/>
            <path fill="#B0D235" d="M52.448 14.578c-1.68.564-4.683 2.848-5.562 4.676-1.435 2.042-3.884 1.779-6.31 4.207-1.88 2.96-3.553 2.599-5.976 3.912-4.523 1.13-3.63 3.406-7.448 4.632-4.862-.828-4.799 1.89-8.89 1.601-3.316-.277-3.933.635-5.014 1.284 1.155 1.183 10.719 6.664 27.386-3.01 2.768-1.918 3.496-1.75 8.052-7.74 2.409-2.69 3.253-6.888 3.762-9.562z"/>
            <g transform="rotate(-36 57.846 -39.36)">
                <use fill="#000" filter="url(#j)" xlink:href="#k"/>
                <use fill="#B4D23E" xlink:href="#k"/>
            </g>
            <g transform="rotate(-36 57.852 -39.106)">
                <use fill="#000" filter="url(#l)" xlink:href="#m"/>
                <use fill="#B8D742" xlink:href="#m"/>
            </g>
            <g filter="url(#n)" transform="rotate(-53 46.76 -9.388)">
                <ellipse cx="5.34" cy="4.168" fill="#B5D33F" rx="4.797" ry="2.353" transform="rotate(24 5.34 4.168)"/>
                <g transform="rotate(24 5.508 3.86)">
                    <use fill="#000" filter="url(#o)" xlink:href="#p"/>
                    <use fill="#B8D742" xlink:href="#p"/>
                </g>
            </g>
            <g filter="url(#q)" transform="rotate(-30 73.221 -15.776)">
                <ellipse cx="4.75" cy="3.217" fill="#B6D440" rx="3.696" ry="1.816" transform="rotate(24 4.75 3.217)"/>
                <g transform="rotate(24 4.88 2.979)">
                    <use fill="#000" filter="url(#r)" xlink:href="#s"/>
                    <use fill="#B8D742" xlink:href="#s"/>
                </g>
            </g>
        </g>
        <g>
            <path fill="#508A14" d="M34.685 22.626c-.077.758-.136 1.487-.196 1.812.565.388 6.097 4.49 7.204 5.537 4.414 3.32 10.823 2.56 12.954 3.252 2.271.6 7.198 3.192 8.806 4.158 1.404.718 13.207 7.655 15.307 8.01 2.46.621 6.685.773 9.196.15-.446-1.836-6.177-17.384-30.141-22.15-3.094-.73-12.562-1.693-19.481-.38-1.164.063-2.8-.314-3.649-.39z"/>
            <path fill="#84B127" d="M35.67 23.716c-.077.759.4.54.34.865.565.387 6.923 3.323 8.653 3.868 7.586 2.285 8.433 1.537 11.816 2.185 2.787.45 7.359 3.096 8.966 4.061 1.405.718 12.007 7.688 14.106 8.044 2.46.62 4.49 1.224 7 .6-.868-2.5-7.119-12.07-27.032-18.758-3.238-.902-10.046-1.657-17.535-1.319-3.597-.127-5.606.737-6.314.454z"/>
            <path fill="#B0D235" d="M34.733 23.886c-.07.695 4.777.385 6.875 1.517 1.51.934 3.24 1.983 5.177 2.754 7.586 2.285 7.062-.068 10.444.58 2.485.718 5 3.296 7.558 4.32 3.72 1.353 5.097.503 8.485 2.661 3.835 2.97 4.995 4.504 7.69 5.464 2.368.83 3 2.722 5.35 2.322-1.364-2.09-6.513-10.791-23.934-17.302-3.238-.902-10.178-2.654-17.667-2.316-3.597-.127-9.27.283-9.978 0z"/>
            <path fill="#84B127" d="M34.667 22.73c-.077.758-.118 1.382-.178 1.707.565.388 7.285 5.29 9.015 5.836 7.586 2.284 8.433 1.537 11.816 2.184 2.787.451 7.36 3.096 8.966 4.062 1.405.718 12.007 7.687 14.107 8.043 2.46.62 6.448.905 8.958.282-.869-2.5-8.996-12.245-28.909-18.934-3.239-.902-10.382-1.563-17.87-1.225-3.597-.127-5.197-1.673-5.905-1.956z"/>
            <g transform="translate(41.586 22)">
                <ellipse cx="5.757" cy="2.517" fill="#C5E552" rx="5.757" ry="2.517"/>
                <ellipse cx="6.01" cy="1.35" fill="#E0F27F" rx="2.679" ry="1"/>
                <ellipse cx="6.336" cy="1.24" fill="#FFF" rx="1" ry="1"/>
            </g>
            <g transform="translate(58.544 23.902)">
                <ellipse cx="6.912" cy="4.651" fill="#C5E552" rx="5.766" ry="2.521" transform="rotate(23 6.912 4.65)"/>
                <ellipse cx="7.832" cy="3.643" fill="#E0F27F" rx="3.191" ry="1.097" transform="rotate(23 7.832 3.643)"/>
                <ellipse cx="7.818" cy="3.33" fill="#FFF" rx="1" ry="1" transform="rotate(23 7.818 3.33)"/>
            </g>
            <g transform="translate(73.17 31.264)">
                <ellipse cx="6.44" cy="5.142" fill="#C5E552" rx="5.777" ry="2.015" transform="rotate(37 6.44 5.142)"/>
                <ellipse cx="6.87" cy="5.086" fill="#E0F27F" rx="3.343" ry="1.208" transform="rotate(37 6.87 5.086)"/>
                <ellipse cx="6.503" cy="4.355" fill="#FFF" rx="1.344" ry="1" transform="rotate(37 6.503 4.355)"/>
            </g>
            <path fill="#B0D235" d="M36.81 24.043c-.07.694.89 2.27 2.987 3.402 1.51.935 3.242 1.984 5.178 2.755 7.586 2.285 7.061-.069 10.444.579 2.485.719 5 3.297 7.558 4.321 3.72 1.353 5.097.503 8.485 2.66 3.835 2.971 4.995 4.505 7.69 5.465 2.368.83 4.03.833 6.381.433-1.365-2.09-7.392-9.702-24.813-16.213-3.239-.902-10.284-2.692-17.773-2.354-3.596-.127-5.429-.766-6.137-1.048z"/>
            <g transform="rotate(13 -64.196 148.6)">
                <use fill="#000" filter="url(#t)" xlink:href="#u"/>
                <use fill="#B7D541" xlink:href="#u"/>
            </g>
            <g transform="rotate(13 -64.179 148.643)">
                <use fill="#000" filter="url(#v)" xlink:href="#w"/>
                <use fill="#B8D742" xlink:href="#w"/>
            </g>
            <g filter="url(#x)" transform="translate(56.589 26.965)">
                <ellipse cx="7.207" cy="5.152" fill="#B7D541" rx="5.912" ry="2.921" transform="rotate(24 7.207 5.152)"/>
                <g transform="rotate(24 7.196 4.915)">
                    <use fill="#000" filter="url(#y)" xlink:href="#z"/>
                    <use fill="#B8D742" xlink:href="#z"/>
                </g>
            </g>
            <g filter="url(#A)" transform="translate(72.36 35.422)">
                <ellipse cx="5.176" cy="4.094" fill="#BAD943" rx="4.57" ry="2.373" transform="rotate(24 5.176 4.094)"/>
                <g transform="rotate(24 5.117 3.951)">
                    <use fill="#000" filter="url(#B)" xlink:href="#C"/>
                    <use fill="#B8D742" xlink:href="#C"/>
                </g>
            </g>
            <path fill="#98A32F" d="M30.487 22c-.21 0-.606.844-.453.942.154.098.58-.017.903.116.324.133 3.512 1.33 3.512 1.448 0 .119.348-1.878.24-1.878-.107 0-2.36-.192-2.761-.306-.223-.07-1.231-.322-1.441-.322z"/>
            <path fill="#91902C" d="M30.13 22.45c-.041.016-.223.49-.068.506.153.059.452-.003.775.076s3.613 1.372 3.613 1.442c.008.039.074-.258.076-.412-.107 0-2.282-.9-2.709-1.065-.33-.165-1.476-.547-1.686-.547z"/>
        </g>
    </g>
</svg>
